<svg xmlns="http://www.w3.org/2000/svg" xmlns:xlink="http://www.w3.org/1999/xlink" width="96" height="96" viewBox="0 0 96 96">
  <defs>
    <clipPath id="clip-path">
      <rect id="Rectangle_459278" data-name="Rectangle 459278" width="58" height="53.779" fill="#7b1a8a"/>
    </clipPath>
  </defs>
  <g id="img14" transform="translate(-793.75 -2919.729)">
    <path id="Elipse_5729" data-name="Elipse 5729" d="M48,0A48,48,0,1,1,0,48,48,48,0,0,1,48,0Z" transform="translate(793.75 2919.729)" fill="#f7ceff"/>
    <g id="Group_1184338" data-name="Group 1184338" transform="translate(812.75 2940.729)">
      <g id="Group_1184337" data-name="Group 1184337" clip-path="url(#clip-path)">
        <path id="Path_1005218" data-name="Path 1005218" d="M57.224,42.938l-8.663.009,0,1.866,8.579,0a1,1,0,0,1,.854.86v7.211a.972.972,0,0,1-.88.887l-19.424.011a1.055,1.055,0,0,1-1.022-.912l-.03-2.631h-18.9a1.014,1.014,0,0,1-1.027-.9l0-9.712-9.663.009A6.835,6.835,0,0,1,1.2,36.629a6.616,6.616,0,0,1-.47-6.758l11.146-19.28c1.807-3.125,5.946-3.748,8.936-2.168L21.371,7.2l-.746-1.774A1.334,1.334,0,0,1,20.9,4.246l2.3-2.225,2.3.822a2.1,2.1,0,0,0,1.581-.652L28.137,0l3.614,0c.807,0,.706,2.108,1.95,2.665,1.449.649,2.818-1.061,3.466-.433l2.167,2.1a1.417,1.417,0,0,1,.079,1.361l-.638,1.571.6,1.353,1.965.847c.3.129.433.817.422,1.21H47.5a.99.99,0,0,1,1.06,1.03l-.007,11.4,8.547.012a1,1,0,0,1,.9,1l0,7.036a.948.948,0,0,1-.85.946l-8.578.008-.005,1.851,8.572,0A.989.989,0,0,1,58,34.982l0,7.039c0,.3-.346.915-.774.916M30.878,21.177l.871-1.739,2.673-1.077a8.657,8.657,0,0,1,1.935.7,2.454,2.454,0,0,0,1.132-1.144c-1.168-2.1-.416-2.554.395-4.657l1.86-.827a3.5,3.5,0,0,0,.051-1.543l-1.912-.9a26.241,26.241,0,0,1-1.066-2.7,6.321,6.321,0,0,1,.708-1.965L36.412,4.2l-1.886.785-2.887-1.2L30.828,1.89l-1.5,0L28.5,3.777c-.927.441-1.888.836-2.891,1.2l-1.9-.768L22.65,5.314l.75,1.979L22.273,9.97a14.977,14.977,0,0,1-1.8.865,2.075,2.075,0,0,0-.033,1.6l1.843.834,1.137,2.817-.785,1.96A5.455,5.455,0,0,0,23.77,19.07l1.953-.745,2.7,1.115.855,1.774c.2.353,1.417.331,1.6-.036m-3.406.78A1.744,1.744,0,0,0,26.38,20.61c-1.407-.526-2.013.665-3.341.54l-2.587-2.634.86-2.371a3.417,3.417,0,0,0-.667-1.527l-2.2-1c-.022-1.469-.021-2.54.04-4-1.533-.338-3.887.064-4.907,1.827L2.42,30.719a4.671,4.671,0,0,0,.3,4.77,4.635,4.635,0,0,0,3.729,2.227l13.734.014A6.6,6.6,0,0,1,25.4,32.222a6.685,6.685,0,0,1,6.975,3.031,4.562,4.562,0,0,0,.151-4.57l-4.225-7.3a8.124,8.124,0,0,1-.831-1.421m9.21,23.63c.007-.421.619-.783.986-.783l8.984.011V42.942l-8.979,0a1.071,1.071,0,0,1-1.023-1.1L36.656,35a1.036,1.036,0,0,1,1.033-1.04l8.956,0,.029-1.857h-9a1.038,1.038,0,0,1-1.022-.953l0-7.012a1.063,1.063,0,0,1,1.044-1.03l8.976,0V12.59h-4.92c.027.482-.141,1.109-.466,1.254l-1.971.879-.532,1.363L39.5,17.8a1.368,1.368,0,0,1-.1,1.059l-2.286,2.274c-1.366.178-1.93-1.132-3.482-.458-1.405.61-.512,2.968-3.073,2.713l3.513,6.127a6.716,6.716,0,0,1-.888,7.889A6.592,6.592,0,1,1,20.2,39.67l-1.584-.035-.005,8.685H36.636Zm1.892-15.342H56.1V25.023H38.575Zm-7.184,8.439a4.686,4.686,0,1,0-4.686,4.686,4.686,4.686,0,0,0,4.686-4.686m7.184,2.346H56.105V35.876H38.575Zm0,10.843H56.105V46.727H38.573Z" transform="translate(0)" fill="#7b1a8a"/>
        <path id="Path_1005219" data-name="Path 1005219" d="M88.727,99.108a2.573,2.573,0,0,1-2.711,2.106,2.623,2.623,0,0,1-2.429-2.453L83.309,91.4a2.77,2.77,0,0,1,2.707-2.651,2.8,2.8,0,0,1,3.038,2.465,66.556,66.556,0,0,1-.327,7.892m-1.819-.632.329-6.559c.039-.768-.322-1.267-1.045-1.253-.7.013-1.03.492-1,1.25l.278,6.6c.015.364.413.806.693.8a.789.789,0,0,0,.743-.841" transform="translate(-68.718 -73.204)" fill="#7b1a8a"/>
        <path id="Path_1005220" data-name="Path 1005220" d="M90.087,168.287a2.628,2.628,0,1,1-2.628-2.628,2.628,2.628,0,0,1,2.628,2.628m-1.911,0a.718.718,0,1,0-.717.717.717.717,0,0,0,.717-.717" transform="translate(-69.976 -136.648)" fill="#7b1a8a"/>
        <path id="Path_1005221" data-name="Path 1005221" d="M148.465,36.933a6.275,6.275,0,1,1-6.275-6.275,6.275,6.275,0,0,1,6.275,6.275m-1.906,0a4.371,4.371,0,1,0-4.371,4.371,4.371,4.371,0,0,0,4.371-4.371" transform="translate(-112.113 -25.289)" fill="#7b1a8a"/>
        <path id="Path_1005222" data-name="Path 1005222" d="M244.507,154.156l-11.816,0a.988.988,0,0,1-.945-.842c-.051-.374.329-1.073.844-1.073l11.786,0a.97.97,0,0,1,.132,1.922" transform="translate(-191.158 -125.574)" fill="#7b1a8a"/>
        <path id="Path_1005223" data-name="Path 1005223" d="M244.359,277.828l-11.472.007a1.019,1.019,0,0,1-1.119-.779.952.952,0,0,1,.954-1.14l11.7,0c.463,0,.874.6.881.957a.974.974,0,0,1-.946.952" transform="translate(-191.169 -227.595)" fill="#7b1a8a"/>
        <path id="Path_1005224" data-name="Path 1005224" d="M244.381,215.964l-11.826-.006c-.569,0-.849-.678-.758-1.143a1.029,1.029,0,0,1,1.11-.758l11.531.01a1.049,1.049,0,0,1,.888.931.99.99,0,0,1-.945.966" transform="translate(-191.189 -176.57)" fill="#7b1a8a"/>
        <path id="Path_1005225" data-name="Path 1005225" d="M135.308,211.084l-1.655-1.578a1.135,1.135,0,0,1-.2-1.309c.173-.3,1-.523,1.254-.285l.991.921,2.759-2.75a1.115,1.115,0,0,1,1.339.008,1.011,1.011,0,0,1,.029,1.368l-3.253,3.273c-.228.23-1.022.579-1.261.352" transform="translate(-109.978 -169.811)" fill="#7b1a8a"/>
      </g>
    </g>
  </g>
</svg>
