<svg xmlns="http://www.w3.org/2000/svg" xmlns:xlink="http://www.w3.org/1999/xlink" width="96" height="96" viewBox="0 0 96 96">
  <defs>
    <clipPath id="clip-path">
      <rect id="Rectangle_459277" data-name="Rectangle 459277" width="53" height="58" fill="#893695"/>
    </clipPath>
  </defs>
  <g id="img13" transform="translate(-793.75 -2919.729)">
    <path id="Elipse_5729" data-name="Elipse 5729" d="M48,0A48,48,0,1,1,0,48,48,48,0,0,1,48,0Z" transform="translate(793.75 2919.729)" fill="#f7ceff"/>
    <g id="Group_1184336" data-name="Group 1184336" transform="translate(815.75 2938.729)">
      <g id="Group_1184335" data-name="Group 1184335" clip-path="url(#clip-path)">
        <path id="Path_1005214" data-name="Path 1005214" d="M52.013,39.771,35.905,55.719l-9.173,2.25a1.543,1.543,0,0,1-1.071-.167,1.353,1.353,0,0,1-.331-1.008l1.56-6.239L3.717,50.526A3.837,3.837,0,0,1,.006,46.683L0,3.972A3.952,3.952,0,0,1,3.769,0L28.483.005l11.5,11.345L40.009,35.3,43.88,31.6a4.069,4.069,0,0,1,3.806-.771,7.268,7.268,0,0,1,5.149,5.111,3.963,3.963,0,0,1-.822,3.835M37.979,37.363l-.012-24.629-7.289,0A3.866,3.866,0,0,1,27.1,8.886L27.1,2,3.944,2.006A1.915,1.915,0,0,0,2.01,3.979l0,42.69A1.885,1.885,0,0,0,3.9,48.55l23.437.007.351-1ZM30.933,10.792l5.595-.055L29.161,3.46l-.056,5.787a2.2,2.2,0,0,0,1.828,1.545m17.6,29.675,1.7-1.694a2.47,2.47,0,0,0,.618-2.506,5.6,5.6,0,0,0-3.209-3.39,2.518,2.518,0,0,0-2.862.532L43.1,35.1Zm-6.847-3.99-11.73,11.6L35.4,53.45l11.73-11.6ZM33.4,54.265l-4.3-4.241L27.682,55.7Z" transform="translate(0 0.001)" fill="#893695"/>
        <path id="Path_1005215" data-name="Path 1005215" d="M44.445,81.225a3.556,3.556,0,0,1-2.532,1.281A3.506,3.506,0,0,1,39.3,81.222l-3.343,6.857a1.342,1.342,0,0,1-.867.637,1.337,1.337,0,0,1-.967-.552l-1.536-3.881L28.086,85.75a1.428,1.428,0,0,1-.868-.185,1.189,1.189,0,0,1-.358-1l4.352-9.108a3.771,3.771,0,0,1-1.888-1.88c-.868-2.395,1.688-3.349.4-5.378a3.4,3.4,0,0,1-.372-2.991A3.585,3.585,0,0,1,31.427,63.3c2.063-.847.682-2.841,2.557-4.368a3.537,3.537,0,0,1,3.05-.531c2.222.52,2.306-2.045,4.9-2.037a3.374,3.374,0,0,1,2.537,1.286c1.458,1.744,3.085-.193,5.179,1.169a3.449,3.449,0,0,1,1.308,2.434c.206,2.531,2.624,1.83,3.429,3.91.964,2.492-1.629,3.426-.411,5.4a3.479,3.479,0,0,1,.479,2.927,3.582,3.582,0,0,1-1.939,1.961l4.17,8.674a1.652,1.652,0,0,1,.094,1.117,1.13,1.13,0,0,1-1,.549l-4.639-1.5-1.526,3.928a1.223,1.223,0,0,1-.848.5,1.359,1.359,0,0,1-.936-.568Zm2.761-2.688a2.023,2.023,0,0,0,1.328-.194c.876-.776-.134-3.39,3.068-4.642a1.861,1.861,0,0,0,.938-.836c.381-1.186-2.16-2.771-.239-5.62a2.035,2.035,0,0,0,.22-1.322c-.407-1.048-3.349-.954-3.519-4.3a2.125,2.125,0,0,0-.49-1.137c-.574-.519-2,.218-3.651-.159-1.365-.312-2.393-2.744-3.61-1.748a8.853,8.853,0,0,1-2.308,1.714c-1.371.5-3.33-.448-3.845.312-.7,1.026.1,3.348-2.951,4.532a1.861,1.861,0,0,0-.979.941c-.216,1.111,2.134,2.72.29,5.52a1.831,1.831,0,0,0-.222,1.375c.595,1.016,3.307,1,3.5,4.2a1.889,1.889,0,0,0,.555,1.225c.968.661,3.409-1.132,5.407,1.474a1.993,1.993,0,0,0,1.22.656c1.146-.055,1.957-2.887,5.289-1.984M34.149,82.689l.989,2.5L37.445,80.4a4.065,4.065,0,0,1-3.4-.432,4.163,4.163,0,0,1-1.379-2.838l-2.839,5.931,3.1-.965a1.04,1.04,0,0,1,1.225.593m15.487-.06a1.2,1.2,0,0,1,1.049-.572l3.226.985-2.8-5.868A4.317,4.317,0,0,1,49.655,80c-1.02.687-2,.589-3.346.456l2.3,4.707Z" transform="translate(-21.874 -46.067)" fill="#893695"/>
        <path id="Path_1005216" data-name="Path 1005216" d="M82.109,93.99a7.65,7.65,0,1,1-7.649-7.561,7.606,7.606,0,0,1,7.649,7.561m-2.017,0a5.635,5.635,0,1,0-5.635,5.569,5.6,5.6,0,0,0,5.635-5.569" transform="translate(-54.461 -70.639)" fill="#893695"/>
        <path id="Path_1005217" data-name="Path 1005217" d="M91.858,118.162l-1.778-1.405a1.163,1.163,0,0,1-.218-1.337,1.219,1.219,0,0,1,1.3-.325l1.22.912,2.447-2.744a1.076,1.076,0,0,1,1.421-.115,1.037,1.037,0,0,1,0,1.528L93.381,117.9a1.125,1.125,0,0,1-1.523.267" transform="translate(-73.153 -92.3)" fill="#893695"/>
      </g>
    </g>
  </g>
</svg>
