<svg xmlns="http://www.w3.org/2000/svg" xmlns:xlink="http://www.w3.org/1999/xlink" width="96" height="96" viewBox="0 0 96 96">
  <defs>
    <clipPath id="clip-path">
      <rect id="Rectangle_459276" data-name="Rectangle 459276" width="55" height="58" fill="#7b1a8a"/>
    </clipPath>
  </defs>
  <g id="img12" transform="translate(-793.75 -2919.729)">
    <path id="Elipse_5729" data-name="Elipse 5729" d="M48,0A48,48,0,1,1,0,48,48,48,0,0,1,48,0Z" transform="translate(793.75 2919.729)" fill="#f7ceff"/>
    <g id="Group_1184334" data-name="Group 1184334" transform="translate(814.75 2938.728)">
      <g id="Group_1184333" data-name="Group 1184333" clip-path="url(#clip-path)">
        <path id="Path_1005201" data-name="Path 1005201" d="M53.173,48.244A13.473,13.473,0,0,0,40.948,35.721a4.041,4.041,0,0,1-3.989,4.872,3.986,3.986,0,0,1-3.928-4.861,13.385,13.385,0,0,0-7.552,3.2,1.677,1.677,0,0,1,.57,1.016,1.141,1.141,0,0,1-.664.753,1.433,1.433,0,0,1-1.173-.531,13.164,13.164,0,0,0-3.455,10.353,1.66,1.66,0,0,1-.367,1.081,1.12,1.12,0,0,1-.985.073,1.113,1.113,0,0,1-.4-1.16,14.84,14.84,0,0,1,3.935-11.566L16.2,32.443H.926A.888.888,0,0,1,0,31.489a.907.907,0,0,1,1.1-.749L17,30.75l7.209,6.968a15.757,15.757,0,0,1,8.7-3.7,4.219,4.219,0,0,0-.022-1.085,11,11,0,0,1-6.882-7.977,4.575,4.575,0,0,1-4.439-2.645,4.2,4.2,0,0,1,1.387-5.08l.009-4.744a6.854,6.854,0,0,1-.345-4.518A9.978,9.978,0,0,1,32.044.04L37.231,0a.946.946,0,0,1,.8.9.959.959,0,0,1-.971.763c-1.656,0-3.211-.041-4.814.041a8.417,8.417,0,0,0-8.025,7.063c-.49,2.786,1.368,5.991,4.576,5.992L45.1,14.77c3.345,0,5.157-3.273,4.592-6.181a8.461,8.461,0,0,0-8.382-6.9c-.564-.007-1.025-.259-1.066-.78A.84.84,0,0,1,41.156,0,9.959,9.959,0,0,1,51.4,11.386a13.1,13.1,0,0,0-.4,1.251l-.013,4.608a4.213,4.213,0,0,1,1.429,4.979,4.466,4.466,0,0,1-4.505,2.729,11.063,11.063,0,0,1-6.882,7.973l.005,1.093c7.793.777,13.917,7.068,13.941,14.672L55,57.008a.919.919,0,0,1-.862.985.936.936,0,0,1-.911-.826ZM25.765,16.3c.044-.156.062-.649-.054-.726l-1.021-.683V16.47Zm23.491.118-.033-1.5-1.131.841c0,.242.243.634.426.639Zm-2.88.008-1.951.158-14.6.009a13.354,13.354,0,0,1-2.283-.235l.038,6.9a9.245,9.245,0,0,0,9.547,8.713c4.931-.075,9.214-3.954,9.23-8.875ZM25.789,18.028a2.689,2.689,0,0,0-2.8,2.79A2.656,2.656,0,0,0,25.8,23.261Zm22.379,5.26a2.7,2.7,0,0,0,2.8-2.769,2.638,2.638,0,0,0-2.832-2.464Zm-8.957,13.5.016-3.29a17.3,17.3,0,0,1-4.465.009l-.032,3.061a2.246,2.246,0,0,0,2.225,2.34,2.205,2.205,0,0,0,2.257-2.12" transform="translate(0 -0.001)" fill="#7b1a8a"/>
        <path id="Path_1005202" data-name="Path 1005202" d="M16.323,76.037a9.169,9.169,0,0,0,6.249-5.419c.432-1.192-.453-3.248.939-3.354a.891.891,0,0,1,.946.858,13.75,13.75,0,0,1-.07,2.462c-.7,3.415-4.414,6.325-8.009,7.233a12.172,12.172,0,0,1-5.928-3.457,6.954,6.954,0,0,1-2.129-4.393l-.043-7.658A1.315,1.315,0,0,1,9.389,61.04l6.99-1.646,6.854,1.615a1.624,1.624,0,0,1,1.234,1.114l-.018,2.219a.885.885,0,0,1-1.762-.173V62.628l-6.312-1.484-6.361,1.491.024,7.163a5.477,5.477,0,0,0,1.331,2.988,10.433,10.433,0,0,0,4.952,3.251" transform="translate(-6.854 -49.523)" fill="#7b1a8a"/>
        <path id="Path_1005203" data-name="Path 1005203" d="M52.5,278.562l-3.089-.058a1.923,1.923,0,0,1-1.678-1.925L47.73,273.9a1.961,1.961,0,0,1,1.825-1.974l3.118-.02A1.962,1.962,0,0,1,54.63,273.8l0,2.84a2,2,0,0,1-2.13,1.922m.4-1.722-.04-3.267-3.372,0,.02,3.305Z" transform="translate(-39.523 -226.718)" fill="#7b1a8a"/>
        <path id="Path_1005204" data-name="Path 1005204" d="M25.2,211.6l-11.179-.01c-.422,0-.74-.573-.7-.9a.89.89,0,0,1,.867-.757l11.018-.006a.929.929,0,0,1,.965.77.893.893,0,0,1-.968.9" transform="translate(-11.027 -175.042)" fill="#7b1a8a"/>
        <path id="Path_1005205" data-name="Path 1005205" d="M272.43,291.072a.926.926,0,0,1-.88.961.9.9,0,0,1-.88-.851l0-9.618a.88.88,0,0,1,1.756-.074Z" transform="translate(-224.124 -234.041)" fill="#7b1a8a"/>
        <path id="Path_1005206" data-name="Path 1005206" d="M151.043,291.262c0,.352-.544.73-.8.752-.293.025-.93-.3-.931-.653l0-10c0-.441.573-.731.962-.7a.917.917,0,0,1,.783.871Z" transform="translate(-123.633 -234.016)" fill="#7b1a8a"/>
        <path id="Path_1005207" data-name="Path 1005207" d="M41.676,99.411a.975.975,0,0,1-.783.925c-.389.033-.94-.322-.944-.681l-.015-1.388-1.244.012a.964.964,0,0,1-.911-.778.916.916,0,0,1,.927-.911l1.214-.007.058-1.486c.011-.291.627-.584.912-.551a.936.936,0,0,1,.78.864l.024,1.168,1.621.1c.212.012.449.493.467.691.021.23-.21.815-.452.83l-1.636.1Z" transform="translate(-31.281 -78.831)" fill="#7b1a8a"/>
        <path id="Path_1005208" data-name="Path 1005208" d="M48.281,247.478l-6.621-.026c-.271,0-.562-.514-.585-.741-.027-.26.278-.9.558-.9l6.574-.033a.972.972,0,0,1,.951.793.9.9,0,0,1-.878.9" transform="translate(-34.011 -204.935)" fill="#7b1a8a"/>
        <path id="Path_1005209" data-name="Path 1005209" d="M48.248,229.624l-6.24-.009a1.082,1.082,0,0,1-.867-.6c-.09-.29.181-1.065.535-1.066l6.9-.007c.3,0,.672.636.626.913a1.052,1.052,0,0,1-.959.772" transform="translate(-34.052 -190.058)" fill="#7b1a8a"/>
        <path id="Path_1005210" data-name="Path 1005210" d="M112.058,327.568a.931.931,0,0,1-.954.863.92.92,0,0,1-.8-.966l0-2.23a.878.878,0,1,1,1.757.007Z" transform="translate(-91.336 -270.44)" fill="#7b1a8a"/>
        <path id="Path_1005211" data-name="Path 1005211" d="M196.226,149.574c2.7.192,1.822-2.888,3.241-2.8a.875.875,0,0,1,.8,1.031,3.859,3.859,0,0,1-4.055,3.467,3.789,3.789,0,0,1-3.682-3.8c.01-.379.615-.734.92-.71a.888.888,0,0,1,.811.824,2.1,2.1,0,0,0,1.969,1.983" transform="translate(-159.419 -122.375)" fill="#7b1a8a"/>
        <path id="Path_1005212" data-name="Path 1005212" d="M183.6,118.482a.874.874,0,1,1-.874-.844.859.859,0,0,1,.874.844" transform="translate(-150.58 -98.088)" fill="#7b1a8a"/>
        <path id="Path_1005213" data-name="Path 1005213" d="M239.9,118.462a.872.872,0,1,1-.872-.842.857.857,0,0,1,.872.842" transform="translate(-197.202 -98.073)" fill="#7b1a8a"/>
      </g>
    </g>
  </g>
</svg>
