<svg xmlns="http://www.w3.org/2000/svg" xmlns:xlink="http://www.w3.org/1999/xlink" width="84" height="84" viewBox="0 0 84 84">
  <defs>
    <clipPath id="clip-path">
      <rect id="Rectangle_459156" data-name="Rectangle 459156" width="55.798" height="68.667" fill="#12263f"/>
    </clipPath>
  </defs>
  <g id="img2" transform="translate(-706.371 -1685.777)">
    <g id="Group_1177731" data-name="Group 1177731">
      <g id="Group_1119665" data-name="Group 1119665" transform="translate(530.482 -3835.223)">
        <path id="Path_991847" data-name="Path 991847" d="M5,0H79a5,5,0,0,1,5,5V79a5,5,0,0,1-5,5H5a5,5,0,0,1-5-5V5A5,5,0,0,1,5,0Z" transform="translate(175.889 5521)" fill="#fee66f"/>
      </g>
      <g id="Group_1184289" data-name="Group 1184289" transform="translate(720.371 1693.778)">
        <g id="Group_1184288" data-name="Group 1184288" clip-path="url(#clip-path)">
          <path id="Path_1004837" data-name="Path 1004837" d="M19.139,22.742a3.451,3.451,0,0,1,5.708,3.6,17.729,17.729,0,0,1,8.507,8.483,3.565,3.565,0,0,1,3.958,1.209,3.328,3.328,0,0,1-.153,4.235l-5.2,5.213a3.333,3.333,0,0,1-4.239.324A3.483,3.483,0,0,1,26.4,41.781L24.023,40.5,10.135,54.387l-.009,12.284,43.668,0,0-20.594a1.063,1.063,0,0,1,1.035-1,1.019,1.019,0,0,1,.965,1.159l-.007,20.454A1.98,1.98,0,0,1,53.9,68.662l-43.8,0a2.064,2.064,0,0,1-1.989-1.953L8.085,56.5,5,59.506a1.092,1.092,0,0,1-1.259-.011L.151,55.914A1.22,1.22,0,0,1,.382,54.44l7.714-7.7.011-34.02L20.831.007,53.917,0a1.854,1.854,0,0,1,1.878,1.989V41.482a1,1,0,0,1-.956,1.035A1.034,1.034,0,0,1,53.8,41.466V1.977l-31.493,0L22.3,12.363a1.92,1.92,0,0,1-2,1.806H10.126l.007,30.5,2.754-2.732a1.12,1.12,0,0,1,1.427-.254,1.024,1.024,0,0,1,.187,1.512L2.377,55.327l2.015,1.987L22.453,39.253l-2-1.992-2.925,2.9c-.224.222-.962.122-1.211-.068s-.486-1.044-.24-1.3l3.1-3.163-1.259-2.357a3.451,3.451,0,0,1-4.062-1.351,3.413,3.413,0,0,1,.344-4.214ZM20.3,12.122l-.026-8.671-8.7,8.7ZM17.862,30.893l4.669-4.669a1.439,1.439,0,0,0,.151-2,1.4,1.4,0,0,0-1.943-.189l-5.21,5.223c-.529.531-.162,1.6.362,1.962a1.525,1.525,0,0,0,1.971-.327m9.8,9.238L31.7,36.1a15.239,15.239,0,0,0-8.062-8.095l-4.049,4.055a15.309,15.309,0,0,0,8.078,8.067m3.053,3.807,4.862-4.849a1.461,1.461,0,0,0-.092-2.063,1.485,1.485,0,0,0-1.935.018l-5.012,5.022a1.467,1.467,0,0,0,.156,1.954,1.43,1.43,0,0,0,2.022-.082" transform="translate(0)" fill="#12263f"/>
          <path id="Path_1004838" data-name="Path 1004838" d="M143.805,36.242a4.733,4.733,0,1,0-7.081,6.2l8.312,8.3,3.652-3.666a1.066,1.066,0,0,1,1.432-.06,1.036,1.036,0,0,1-.024,1.472l-4.457,4.443c-.4.4-1.123.138-1.485-.225l-9.229-9.241A6.727,6.727,0,1,1,145.048,34.6a6.7,6.7,0,0,1,10.23,8.64l-2.16,2.183c-.245.248-1.018.042-1.215-.2a1.231,1.231,0,0,1,0-1.35l1.776-1.83a4.651,4.651,0,0,0-.289-6.5,4.712,4.712,0,0,0-6.44-.02l-1.469,1.362c-.426.395-1.3-.151-1.674-.64" transform="translate(-106.987 -25.905)" fill="#12263f"/>
          <path id="Path_1004839" data-name="Path 1004839" d="M120.081,254.212l-32.206,0a1.087,1.087,0,0,1-.975-.979c-.017-.345.4-1.04.9-1.04l32.358,0a1.1,1.1,0,0,1,1.006,1.034,1.052,1.052,0,0,1-1.083.99" transform="translate(-69.802 -202.57)" fill="#12263f"/>
          <path id="Path_1004840" data-name="Path 1004840" d="M98.77,279.114l-2.514,5.122a1.384,1.384,0,0,1-.78.551,1.5,1.5,0,0,1-.994-.461l-1.3-1.713-5.269-.009a1.1,1.1,0,0,1-1.023-.906c-.043-.425.324-1.1.819-1.1l6.416.014,1.048,1.258,2.758-5.649a1.465,1.465,0,0,1,.924-.589,1.317,1.317,0,0,1,.9.622l2.631,6.36,1.128-2.008L110,280.6c.48,0,.83.668.793,1.1a1.094,1.094,0,0,1-1,.9l-5.127,0-1.446,2.915a1.4,1.4,0,0,1-.84.588,1.345,1.345,0,0,1-.982-.639Z" transform="translate(-69.79 -221.402)" fill="#12263f"/>
          <path id="Path_1004841" data-name="Path 1004841" d="M188.642,231.07l-15.837.022a1.065,1.065,0,0,1-1.063-.928,1.028,1.028,0,0,1,1.082-1.064l15.507.005a1.362,1.362,0,0,1,.967.707c.138.3-.159,1.257-.655,1.257" transform="translate(-137.95 -184.024)" fill="#12263f"/>
          <path id="Path_1004842" data-name="Path 1004842" d="M208.914,208.07l-10.741.014a1.159,1.159,0,0,1-.966-.937,1.035,1.035,0,0,1,.972-1.049l10.647,0a1.173,1.173,0,0,1,.961.869c.058.327-.387,1.1-.872,1.106" transform="translate(-158.405 -165.546)" fill="#12263f"/>
          <path id="Path_1004843" data-name="Path 1004843" d="M211.971,184.846l-9.94.019a1.252,1.252,0,0,1-.986-.746c-.1-.347.17-1.251.605-1.253l10.058-.033a1.3,1.3,0,0,1,1.117.751c.142.345-.266,1.26-.853,1.261" transform="translate(-161.472 -146.86)" fill="#12263f"/>
          <path id="Path_1004844" data-name="Path 1004844" d="M180.776,71.209c-.024.356-.877.727-1.2.588a1.448,1.448,0,0,1-.732-1.307l0-.889c0-.235-2.236.295-2.281-1.024-.024-.706.552-1.1,1.3-1.1l.878.006c.4,0-.382-1.847.879-2.263a1.013,1.013,0,0,1,1.215.876l.047,1.4,1.369.008a1.265,1.265,0,0,1,.937.893c.039.387-.4,1.048-.738,1.062l-1.554.064Z" transform="translate(-141.819 -52.363)" fill="#12263f"/>
        </g>
      </g>
    </g>
  </g>
</svg>
