<svg xmlns="http://www.w3.org/2000/svg" xmlns:xlink="http://www.w3.org/1999/xlink" width="80" height="80" viewBox="0 0 80 80">
  <defs>
    <clipPath id="clip-path">
      <rect id="Rectangle_459255" data-name="Rectangle 459255" width="65.534" height="65.533" fill="#f5f5f5"/>
    </clipPath>
  </defs>
  <g id="img6" transform="translate(-175.859 -5521.459)">
    <rect id="Rectangle_402006" data-name="Rectangle 402006" width="80" height="80" rx="5" transform="translate(175.859 5521.459)" fill="#217365"/>
    <g id="Group_1184327" data-name="Group 1184327" transform="translate(182.859 5528.458)">
      <g id="Group_1184326" data-name="Group 1184326" clip-path="url(#clip-path)">
        <path id="Path_1005056" data-name="Path 1005056" d="M9.337,44.84a1.449,1.449,0,0,1-1.466-1.029c-.144-.617.18-1.551,1-1.551l25.444-.008,0-4.631-25.1,0a1.353,1.353,0,0,1-1.345-.932c-.132-.435.1-1.574.818-1.574l25.614-.016a1.384,1.384,0,0,1,.923-1.388l9.824-3.07V13.861l-7.487-.005a3.721,3.721,0,0,1-3.778-3.723l0-7.534L3.964,2.6c-.729,0-1.388.334-1.388,1.165l0,20.616A1.3,1.3,0,0,1,1.391,25.7,1.276,1.276,0,0,1,0,24.392L0,3.945A3.837,3.837,0,0,1,3.779,0L35.595,0l12.01,12,.021,17.817,2.312-.7,14.722,4.6a1.424,1.424,0,0,1,.874,1.2V46.928A18.958,18.958,0,0,1,49.947,65.534a18.464,18.464,0,0,1-9.924-5.1L3.79,60.422A3.833,3.833,0,0,1,.017,56.7L0,36.056A1.238,1.238,0,0,1,1.236,34.7,1.285,1.285,0,0,1,2.571,35.9l0,20.594A1.249,1.249,0,0,0,3.8,57.841l34,0a19.1,19.1,0,0,1-3.418-13Zm28.3-33.552,5.612-.044L36.392,4.392l-.058,5.564a1.236,1.236,0,0,0,1.3,1.332M62.966,47.426l-.008-11.567L49.941,31.8l-13.1,4.075.012,11.619A16.447,16.447,0,0,0,49.936,62.941,16.4,16.4,0,0,0,62.966,47.426" transform="translate(0 -0.001)" fill="#f5f5f5"/>
        <path id="Path_1005057" data-name="Path 1005057" d="M92.406,85.871l-5.878,0a1.394,1.394,0,0,1-1.5-1.478l.009-3.684h-3.78a1.23,1.23,0,0,1-1.311-1.382l0-6.022a1.225,1.225,0,0,1,1.319-1.3h3.768l.014-3.957a1.2,1.2,0,0,1,1.276-1.126l6.225,0a1.212,1.212,0,0,1,1.172,1.3V72l3.885.011a1.31,1.31,0,0,1,1.261,1.3v6a1.352,1.352,0,0,1-1.438,1.407l-3.7-.007V84.4a1.387,1.387,0,0,1-1.314,1.475m-1.2-2.607-.011-3.98a1.158,1.158,0,0,1,1.117-1.1l3.981.007,0-3.589-3.79,0c-.528,0-1.287-.535-1.291-1.071l-.031-4.09-3.583,0-.011,3.874a1.336,1.336,0,0,1-1.26,1.276l-3.882.014v3.569l4.1.022c.567,0,1.054.762,1.054,1.289L87.6,83.276Z" transform="translate(-64.925 -54.352)" fill="#f5f5f5"/>
        <path id="Path_1005058" data-name="Path 1005058" d="M58.39,265.619l-15.264.01a1.363,1.363,0,0,1-1.347-1.045c-.118-.587.2-1.548,1.012-1.549l15.52-.015a1.318,1.318,0,0,1,1.321,1.212,1.334,1.334,0,0,1-1.243,1.387" transform="translate(-33.915 -213.634)" fill="#f5f5f5"/>
        <path id="Path_1005059" data-name="Path 1005059" d="M2.643,155.331a1.277,1.277,0,1,1-1.277-1.277,1.277,1.277,0,0,1,1.277,1.277" transform="translate(-0.071 -125.128)" fill="#f5f5f5"/>
        <path id="Path_1005060" data-name="Path 1005060" d="M230.922,196.759a13.76,13.76,0,0,1-10.442,12.706,13.6,13.6,0,0,1-10.468-12.982L209.976,188a1.486,1.486,0,0,1,.743-1.314l9.756-3.042L230,186.607a1.456,1.456,0,0,1,.99,1.226Zm-10.377,10.07c4.5-1.571,7.773-5.483,7.8-10.159l.04-7.883-7.893-2.47-7.931,2.475-.027,7.126a11.29,11.29,0,0,0,8.014,10.911" transform="translate(-170.549 -149.163)" fill="#f5f5f5"/>
        <path id="Path_1005061" data-name="Path 1005061" d="M240.451,237.446l-3.1-3.151a1.284,1.284,0,0,1,.229-1.628,1.4,1.4,0,0,1,1.628-.056l2.163,2.14,4.267-4.259a1.3,1.3,0,1,1,1.926,1.753l-5.339,5.336a1.353,1.353,0,0,1-1.771-.134" transform="translate(-192.615 -186.868)" fill="#f5f5f5"/>
      </g>
    </g>
  </g>
</svg>
