<svg xmlns="http://www.w3.org/2000/svg" xmlns:xlink="http://www.w3.org/1999/xlink" width="411.371" height="244.233" viewBox="0 0 411.371 244.233">
  <defs>
    <clipPath id="clip-path">
      <rect id="Rectangle_459274" data-name="Rectangle 459274" width="289.068" height="242.974" fill="none"/>
    </clipPath>
  </defs>
  <g id="img9" transform="translate(-179.148 -3255.412)">
    <path id="Path_1005196" data-name="Path 1005196" d="M0,0H410.52V244.233H0Z" transform="translate(179.148 3255.412)" fill="#fdffbd"/>
    <rect id="Rectangle_402030" data-name="Rectangle 402030" width="410.52" height="60.224" transform="translate(180 3439.421)" fill="#7b1a8a"/>
    <g id="Group_1184330" data-name="Group 1184330" transform="translate(231.565 3256.412)">
      <rect id="Rectangle_459256" data-name="Rectangle 459256" width="65.579" height="185.174" transform="translate(204.137 43.93)" fill="none" stroke="#809df9" stroke-linecap="round" stroke-linejoin="round" stroke-width="0.745"/>
      <rect id="Rectangle_459257" data-name="Rectangle 459257" width="49.502" height="46.584" transform="translate(212.176 52.391)" fill="#809df9"/>
      <rect id="Rectangle_459258" data-name="Rectangle 459258" width="49.502" height="46.584" transform="translate(212.176 107.3)" fill="#809df9"/>
      <rect id="Rectangle_459259" data-name="Rectangle 459259" width="49.502" height="46.584" transform="translate(212.176 162.211)" fill="#809df9"/>
      <rect id="Rectangle_459260" data-name="Rectangle 459260" width="56.443" height="2.274" transform="translate(142.223 45.339)" fill="#809df9"/>
      <rect id="Rectangle_459261" data-name="Rectangle 459261" width="9.004" height="33.838" transform="translate(144.735 11.502)" fill="none" stroke="#809df9" stroke-linecap="round" stroke-linejoin="round" stroke-width="0.501"/>
      <rect id="Rectangle_459262" data-name="Rectangle 459262" width="3.034" height="18.482" transform="translate(147.72 19.179)" fill="#809df9"/>
      <g id="Group_1184329" data-name="Group 1184329">
        <g id="Group_1184328" data-name="Group 1184328" clip-path="url(#clip-path)">
          <path id="Path_1005062" data-name="Path 1005062" d="M135.977,13.83a1.565,1.565,0,1,1-1.565-1.564,1.564,1.564,0,0,1,1.565,1.564" transform="translate(14.824 1.369)" fill="#809df9"/>
          <path id="Path_1005063" data-name="Path 1005063" d="M135.977,37.619a1.565,1.565,0,1,1-1.565-1.564,1.565,1.565,0,0,1,1.565,1.564" transform="translate(14.824 4.023)" fill="#809df9"/>
          <rect id="Rectangle_459263" data-name="Rectangle 459263" width="9.004" height="33.838" transform="translate(155.328 11.502)" fill="none" stroke="#809df9" stroke-linecap="round" stroke-linejoin="round" stroke-width="0.501"/>
          <rect id="Rectangle_459264" data-name="Rectangle 459264" width="3.034" height="18.482" transform="translate(158.312 19.179)" fill="#809df9"/>
          <path id="Path_1005064" data-name="Path 1005064" d="M145.5,13.83a1.564,1.564,0,1,1-1.564-1.564A1.564,1.564,0,0,1,145.5,13.83" transform="translate(15.887 1.369)" fill="#809df9"/>
          <path id="Path_1005065" data-name="Path 1005065" d="M145.5,37.619a1.564,1.564,0,1,1-1.564-1.564,1.564,1.564,0,0,1,1.564,1.564" transform="translate(15.887 4.023)" fill="#809df9"/>
          <rect id="Rectangle_459265" data-name="Rectangle 459265" width="9.005" height="33.838" transform="translate(165.918 11.502)" fill="none" stroke="#809df9" stroke-linecap="round" stroke-linejoin="round" stroke-width="0.501"/>
          <rect id="Rectangle_459266" data-name="Rectangle 459266" width="3.034" height="18.482" transform="translate(168.903 19.179)" fill="#809df9"/>
          <path id="Path_1005066" data-name="Path 1005066" d="M155.034,13.83a1.564,1.564,0,1,1-1.564-1.564,1.564,1.564,0,0,1,1.564,1.564" transform="translate(16.951 1.369)" fill="#809df9"/>
          <path id="Path_1005067" data-name="Path 1005067" d="M155.034,37.619a1.564,1.564,0,1,1-1.564-1.564,1.564,1.564,0,0,1,1.564,1.564" transform="translate(16.951 4.023)" fill="#809df9"/>
          <rect id="Rectangle_459267" data-name="Rectangle 459267" width="9.004" height="33.837" transform="translate(175.243 13.144) rotate(-17.925)" fill="none" stroke="#809df9" stroke-linecap="round" stroke-linejoin="round" stroke-width="0.501"/>
          <rect id="Rectangle_459268" data-name="Rectangle 459268" width="3.033" height="18.483" transform="translate(180.446 19.531) rotate(-17.93)" fill="#809df9"/>
          <path id="Path_1005068" data-name="Path 1005068" d="M164.173,13.418a1.564,1.564,0,1,1-1.97-1.007,1.565,1.565,0,0,1,1.97,1.007" transform="translate(17.979 1.376)" fill="#809df9"/>
          <path id="Path_1005069" data-name="Path 1005069" d="M171.5,36.053a1.564,1.564,0,1,1-1.97-1.007,1.564,1.564,0,0,1,1.97,1.007" transform="translate(18.796 3.902)" fill="#809df9"/>
          <rect id="Rectangle_459269" data-name="Rectangle 459269" width="56.65" height="50.258" transform="translate(11.775 0.365)" fill="none" stroke="#809df9" stroke-linecap="round" stroke-linejoin="round" stroke-width="0.656"/>
          <line id="Line_3256" data-name="Line 3256" x2="9.7" transform="translate(16.925 8.12)" fill="none" stroke="#809df9" stroke-linecap="round" stroke-linejoin="round" stroke-width="0.656"/>
          <line id="Line_3257" data-name="Line 3257" x2="9.7" transform="translate(27.887 8.12)" fill="none" stroke="#809df9" stroke-linecap="round" stroke-linejoin="round" stroke-width="0.656"/>
          <line id="Line_3258" data-name="Line 3258" x2="9.7" transform="translate(16.925 13.084)" fill="none" stroke="#809df9" stroke-linecap="round" stroke-linejoin="round" stroke-width="0.656"/>
          <line id="Line_3259" data-name="Line 3259" x2="9.7" transform="translate(27.887 13.084)" fill="none" stroke="#809df9" stroke-linecap="round" stroke-linejoin="round" stroke-width="0.656"/>
          <line id="Line_3260" data-name="Line 3260" x2="9.7" transform="translate(16.925 18.048)" fill="none" stroke="#809df9" stroke-linecap="round" stroke-linejoin="round" stroke-width="0.656"/>
          <line id="Line_3261" data-name="Line 3261" x2="9.7" transform="translate(27.887 18.048)" fill="none" stroke="#809df9" stroke-linecap="round" stroke-linejoin="round" stroke-width="0.656"/>
          <line id="Line_3262" data-name="Line 3262" x2="9.7" transform="translate(16.925 23.012)" fill="none" stroke="#809df9" stroke-linecap="round" stroke-linejoin="round" stroke-width="0.656"/>
          <line id="Line_3263" data-name="Line 3263" x2="9.7" transform="translate(27.887 23.012)" fill="none" stroke="#809df9" stroke-linecap="round" stroke-linejoin="round" stroke-width="0.656"/>
          <line id="Line_3264" data-name="Line 3264" x2="9.7" transform="translate(16.925 27.976)" fill="none" stroke="#809df9" stroke-linecap="round" stroke-linejoin="round" stroke-width="0.656"/>
          <line id="Line_3265" data-name="Line 3265" x2="9.7" transform="translate(27.887 27.976)" fill="none" stroke="#809df9" stroke-linecap="round" stroke-linejoin="round" stroke-width="0.656"/>
          <line id="Line_3266" data-name="Line 3266" x2="9.7" transform="translate(16.925 32.94)" fill="none" stroke="#809df9" stroke-linecap="round" stroke-linejoin="round" stroke-width="0.656"/>
          <line id="Line_3267" data-name="Line 3267" x2="9.7" transform="translate(27.887 32.94)" fill="none" stroke="#809df9" stroke-linecap="round" stroke-linejoin="round" stroke-width="0.656"/>
          <line id="Line_3268" data-name="Line 3268" x2="9.7" transform="translate(16.925 37.903)" fill="none" stroke="#809df9" stroke-linecap="round" stroke-linejoin="round" stroke-width="0.656"/>
          <line id="Line_3269" data-name="Line 3269" x2="9.7" transform="translate(27.887 37.903)" fill="none" stroke="#809df9" stroke-linecap="round" stroke-linejoin="round" stroke-width="0.656"/>
          <line id="Line_3270" data-name="Line 3270" x2="9.7" transform="translate(16.925 42.867)" fill="none" stroke="#809df9" stroke-linecap="round" stroke-linejoin="round" stroke-width="0.656"/>
          <line id="Line_3271" data-name="Line 3271" x2="9.7" transform="translate(27.887 42.867)" fill="none" stroke="#809df9" stroke-linecap="round" stroke-linejoin="round" stroke-width="0.656"/>
          <line id="Line_3272" data-name="Line 3272" x2="9.7" transform="translate(42.613 8.12)" fill="none" stroke="#809df9" stroke-linecap="round" stroke-linejoin="round" stroke-width="0.656"/>
          <line id="Line_3273" data-name="Line 3273" x2="9.7" transform="translate(53.575 8.12)" fill="none" stroke="#809df9" stroke-linecap="round" stroke-linejoin="round" stroke-width="0.656"/>
          <line id="Line_3274" data-name="Line 3274" x2="9.7" transform="translate(42.613 13.084)" fill="none" stroke="#809df9" stroke-linecap="round" stroke-linejoin="round" stroke-width="0.656"/>
          <line id="Line_3275" data-name="Line 3275" x2="9.7" transform="translate(53.575 13.084)" fill="none" stroke="#809df9" stroke-linecap="round" stroke-linejoin="round" stroke-width="0.656"/>
          <line id="Line_3276" data-name="Line 3276" x2="9.7" transform="translate(42.613 18.048)" fill="none" stroke="#809df9" stroke-linecap="round" stroke-linejoin="round" stroke-width="0.656"/>
          <line id="Line_3277" data-name="Line 3277" x2="9.7" transform="translate(53.575 18.048)" fill="none" stroke="#809df9" stroke-linecap="round" stroke-linejoin="round" stroke-width="0.656"/>
          <line id="Line_3278" data-name="Line 3278" x2="9.7" transform="translate(42.613 23.012)" fill="none" stroke="#809df9" stroke-linecap="round" stroke-linejoin="round" stroke-width="0.656"/>
          <line id="Line_3279" data-name="Line 3279" x2="9.7" transform="translate(53.575 23.012)" fill="none" stroke="#809df9" stroke-linecap="round" stroke-linejoin="round" stroke-width="0.656"/>
          <line id="Line_3280" data-name="Line 3280" x2="9.7" transform="translate(42.613 27.976)" fill="none" stroke="#809df9" stroke-linecap="round" stroke-linejoin="round" stroke-width="0.656"/>
          <line id="Line_3281" data-name="Line 3281" x2="9.7" transform="translate(53.575 27.976)" fill="none" stroke="#809df9" stroke-linecap="round" stroke-linejoin="round" stroke-width="0.656"/>
          <line id="Line_3282" data-name="Line 3282" x2="9.7" transform="translate(42.613 32.94)" fill="none" stroke="#809df9" stroke-linecap="round" stroke-linejoin="round" stroke-width="0.656"/>
          <line id="Line_3283" data-name="Line 3283" x2="9.7" transform="translate(53.575 32.94)" fill="none" stroke="#809df9" stroke-linecap="round" stroke-linejoin="round" stroke-width="0.656"/>
          <line id="Line_3284" data-name="Line 3284" x2="9.7" transform="translate(42.613 37.903)" fill="none" stroke="#809df9" stroke-linecap="round" stroke-linejoin="round" stroke-width="0.656"/>
          <line id="Line_3285" data-name="Line 3285" x2="9.7" transform="translate(53.575 37.903)" fill="none" stroke="#809df9" stroke-linecap="round" stroke-linejoin="round" stroke-width="0.656"/>
          <line id="Line_3286" data-name="Line 3286" x2="9.7" transform="translate(42.613 42.867)" fill="none" stroke="#809df9" stroke-linecap="round" stroke-linejoin="round" stroke-width="0.656"/>
          <line id="Line_3287" data-name="Line 3287" x2="9.7" transform="translate(53.575 42.867)" fill="none" stroke="#809df9" stroke-linecap="round" stroke-linejoin="round" stroke-width="0.656"/>
          <path id="Path_1005070" data-name="Path 1005070" d="M59.282,1.737a.73.73,0,0,0,0,1.458.73.73,0,0,0,0-1.458" transform="translate(6.537 0.194)" fill="#809df9"/>
          <path id="Path_1005071" data-name="Path 1005071" d="M13.064,1.737a.73.73,0,0,0,0,1.458.73.73,0,0,0,0-1.458" transform="translate(1.379 0.194)" fill="#809df9"/>
          <path id="Path_1005072" data-name="Path 1005072" d="M59.282,42.63a.73.73,0,0,0,0,1.458.73.73,0,0,0,0-1.458" transform="translate(6.537 4.757)" fill="#809df9"/>
          <path id="Path_1005073" data-name="Path 1005073" d="M13.064,42.63a.73.73,0,0,0,0,1.458.73.73,0,0,0,0-1.458" transform="translate(1.379 4.757)" fill="#809df9"/>
          <rect id="Rectangle_459270" data-name="Rectangle 459270" width="53.948" height="72.99" transform="translate(77.229 24.056)" fill="#181823"/>
          <rect id="Rectangle_459271" data-name="Rectangle 459271" width="47.376" height="66.174" transform="translate(80.514 27.464)" fill="#809df9"/>
          <path id="Path_1005074" data-name="Path 1005074" d="M88.253,47.865c.831-1.48,2.184-2.6,3.108-4.023,1.593-2.454,1.762-5.549,1.7-8.475-.054-2.722-.241-5.516.5-8.119h5.392Q98.577,35.523,98.2,43.8a12.442,12.442,0,0,0,.5,5.19c.485,1.221,1.352,2.272,1.742,3.526s.081,2.911-1.142,3.389a2.987,2.987,0,0,1-2.778-.723,10.525,10.525,0,0,0-2.429-1.746c-1.74-.674-3.952.2-5.436-.927-1.349-1.028-1.231-3.165-.4-4.644" transform="translate(9.779 3.041)" fill="#c5d6ff"/>
          <path id="Path_1005075" data-name="Path 1005075" d="M93.536,54.023a6.341,6.341,0,0,0,3.136.519,3.421,3.421,0,0,1,2.863,1.166c.7,1.076.149,2.553-.708,3.513a27.438,27.438,0,0,0-2.7,2.738c-1.075,1.61-.993,3.7-.871,5.631l1.12,17.783-5.588-.032a103.615,103.615,0,0,0,.494-19.6c-.151-2.265-.442-4.688-1.933-6.4-.915-1.053-2.313-1.934-2.361-3.328a2.491,2.491,0,0,1,2-2.331c1.083-.246,3.6-.228,4.553.347" transform="translate(9.706 5.973)" fill="#c5d6ff"/>
          <path id="Path_1005076" data-name="Path 1005076" d="M43.2,229.978H65.355c0-24.151-5.976-140.654-6.23-145.6L36.995,85.514c.062,1.206,6.2,120.878,6.2,144.464" transform="translate(4.128 9.415)" fill="#64adad"/>
          <path id="Path_1005077" data-name="Path 1005077" d="M23.96,114.554c2.493-16.092.691-22.332,6.964-29.666H60.24L48.876,114.869Z" transform="translate(2.674 9.472)" fill="#64adad"/>
          <path id="Path_1005078" data-name="Path 1005078" d="M32.78,228.827c.263-6.369,10.545-82.818,16.964-129.511L27.791,96.3c-4.027,29.294-17.167,125.414-17.167,132.348H32.782c0,.05,0,.111,0,.18" transform="translate(1.186 10.746)" fill="#64adad"/>
          <line id="Line_3288" data-name="Line 3288" y1="31.222" x2="4.208" transform="translate(45.58 117.354)" fill="none" stroke="#181823" stroke-linecap="round" stroke-linejoin="round" stroke-width="0.575"/>
          <line id="Line_3289" data-name="Line 3289" x2="10.972" y2="21.145" transform="translate(49.217 130.384)" fill="none" stroke="#181823" stroke-linecap="round" stroke-linejoin="round" stroke-width="0.575"/>
          <path id="Path_1005079" data-name="Path 1005079" d="M42.44,215.362c0,3.308,1.251,3.58,3.05,3.58H76.5c0-2.659-11.167-1.98-11.46-3.58Z" transform="translate(4.736 24.032)" fill="#181823"/>
          <path id="Path_1005080" data-name="Path 1005080" d="M34.06,215.362c0,3.308-1.251,3.58-3.05,3.58H0c0-2.659,11.167-1.98,11.46-3.58Z" transform="translate(0 24.032)" fill="#181823"/>
          <path id="Path_1005081" data-name="Path 1005081" d="M29.223,36.652a6.838,6.838,0,1,0,6.838-6.838,6.838,6.838,0,0,0-6.838,6.838" transform="translate(3.261 3.327)" fill="#181823"/>
          <path id="Path_1005082" data-name="Path 1005082" d="M37.194,37.6c-1.082,1.45-1.184,3.2-.229,3.914s2.606.116,3.687-1.333,1.184-3.2.229-3.915-2.606-.116-3.687,1.334" transform="translate(4.052 4.013)" fill="#db5656"/>
          <path id="Path_1005083" data-name="Path 1005083" d="M52.866,36.6a6.11,6.11,0,0,1,.795,4.784,10,10,0,0,1-3.913,5.851,14.115,14.115,0,0,1-6.66,2.518,6.55,6.55,0,0,1-4.056-.529A5.316,5.316,0,0,1,37,46.927a7.886,7.886,0,0,1,8.021-11.346c2.214-1.256,6.364-1.053,7.846,1.018" transform="translate(4.039 3.883)" fill="#181823"/>
          <path id="Path_1005084" data-name="Path 1005084" d="M31.011,88.351c-4.154-9.252-7.827-17.386-7.827-17.386L25.39,56.61l18.686-2.752L53.1,55.264s7.4,11.876,7.4,21.765l.175,11.322Z" transform="translate(2.587 6.01)" fill="#db5656"/>
          <path id="Path_1005085" data-name="Path 1005085" d="M79.833,51.527a6.245,6.245,0,0,0-.383-5.3,1.567,1.567,0,0,1,2.716-1.563,9.319,9.319,0,0,1,.933,6.916,19.175,19.175,0,0,1,3.662-2.484l.008,0a23.649,23.649,0,0,1,10.589-3.338,1.562,1.562,0,0,1,1.59,1.276c1.008-.148,1.657-.177,1.739-.18a1.561,1.561,0,0,1,1.588,1.276,17.286,17.286,0,0,1,1.739-.18,1.56,1.56,0,0,1,1.588,1.276c1.009-.148,1.657-.177,1.74-.18a1.567,1.567,0,0,1,.116,3.132,21.089,21.089,0,0,0-8.349,2.457C93.721,58.416,93,61.9,93,61.9L78.108,59.749c-.546-3.536.519-5.37,1.725-8.222" transform="translate(8.699 4.896)" fill="#f57f64"/>
          <path id="Path_1005086" data-name="Path 1005086" d="M96.74,46.968a29.349,29.349,0,0,0-8.619,2.85" transform="translate(9.833 5.241)" fill="none" stroke="#181823" stroke-linecap="round" stroke-linejoin="round" stroke-width="0.564"/>
          <path id="Path_1005087" data-name="Path 1005087" d="M99.821,48.076a29.349,29.349,0,0,0-8.619,2.85" transform="translate(10.177 5.365)" fill="none" stroke="#181823" stroke-linecap="round" stroke-linejoin="round" stroke-width="0.564"/>
          <path id="Path_1005088" data-name="Path 1005088" d="M102.361,49.3a29.333,29.333,0,0,0-8.619,2.85" transform="translate(10.46 5.502)" fill="none" stroke="#181823" stroke-linecap="round" stroke-linejoin="round" stroke-width="0.564"/>
          <path id="Path_1005089" data-name="Path 1005089" d="M92.746,53.607a8.32,8.32,0,0,0-6.522-.245,5.283,5.283,0,0,0-1.876,1.169,3.1,3.1,0,0,0-.926,1.972" transform="translate(9.309 5.893)" fill="none" stroke="#181823" stroke-linecap="round" stroke-linejoin="round" stroke-width="0.564"/>
          <path id="Path_1005090" data-name="Path 1005090" d="M77.253,107.356h.1c5.336-.036,12.376-2.975,15.612-16.775,1.6-6.812,2.1-14.942,2.5-21.474a83.125,83.125,0,0,1,.761-8.577L81.353,56.363c-.709,2.527-.947,5.955-1.306,11.8a157.506,157.506,0,0,1-1.505,15.806,31.4,31.4,0,0,1-1.79,6.891c-2.245-2.806-5.239-9.285-6.985-13.066C64.645,66.7,59.349,55.239,48.857,55.081l-.232,15.442c-.46-.007,4.931,9,7.122,13.745,5.243,11.35,10.666,23.088,21.506,23.088" transform="translate(5.423 6.146)" fill="#217365"/>
          <path id="Path_1005091" data-name="Path 1005091" d="M47.938,54.787l5.639,117.738h9.656L57.564,68,50.339,55.162Z" transform="translate(5.349 6.114)" fill="#217365"/>
          <path id="Path_1005092" data-name="Path 1005092" d="M39.851,54.582,33.583,172.548H12.1L24.786,96.225c1.285-6.14,4.372-7.956,4.372-7.956L24.014,69.854l2.612-13.323Z" transform="translate(1.35 6.091)" fill="#217365"/>
          <path id="Path_1005093" data-name="Path 1005093" d="M37.065,54.663l9.367,6.178,2.719-5.95-6.044-1.033Z" transform="translate(4.136 6.01)" fill="#f57f64"/>
          <path id="Path_1005094" data-name="Path 1005094" d="M53.46,58.373l2.648,8.939c4.289,3.2,5.146,11.6,1.545,13.2" transform="translate(5.965 6.514)" fill="none" stroke="#181823" stroke-linecap="round" stroke-linejoin="round" stroke-width="0.575"/>
          <path id="Path_1005095" data-name="Path 1005095" d="M28.1,71.77a7.44,7.44,0,0,0,6.768,6.1" transform="translate(3.135 8.009)" fill="none" stroke="#181823" stroke-linecap="round" stroke-linejoin="round" stroke-width="0.575"/>
          <path id="Path_1005096" data-name="Path 1005096" d="M33.881,112.163a24,24,0,0,1-11.938,1.564" transform="translate(2.449 12.516)" fill="none" stroke="#181823" stroke-linecap="round" stroke-linejoin="round" stroke-width="0.575"/>
          <path id="Path_1005097" data-name="Path 1005097" d="M34.755,96.815a24.96,24.96,0,0,1-10.57,2.753" transform="translate(2.699 10.803)" fill="none" stroke="#181823" stroke-linecap="round" stroke-linejoin="round" stroke-width="0.575"/>
          <line id="Line_3290" data-name="Line 3290" x2="0.229" y2="3.772" transform="translate(63.487 87.106)" fill="none" stroke="#181823" stroke-linecap="round" stroke-linejoin="round" stroke-width="0.575"/>
          <path id="Path_1005098" data-name="Path 1005098" d="M50.982,39.077c.7,3.981,1.723,9.3-.693,11.1a4.648,4.648,0,0,1-2.124.641l-.323,6.816-9.6-.038L39.119,42.2l3.2-4.586s8.006-2.146,8.661,1.461" transform="translate(4.267 4.127)" fill="#f57f64"/>
          <path id="Path_1005099" data-name="Path 1005099" d="M49.628,41.691a.548.548,0,0,0-.5-.241.6.6,0,0,0-.471.335" transform="translate(5.429 4.625)" fill="none" stroke="#181823" stroke-linecap="round" stroke-linejoin="round" stroke-width="0.575"/>
          <path id="Path_1005100" data-name="Path 1005100" d="M47.054,42.055a1.145,1.145,0,0,0-.659-.482.772.772,0,0,0-.511.131,1.674,1.674,0,0,0-.39.377" transform="translate(5.076 4.638)" fill="none" stroke="#181823" stroke-linecap="round" stroke-linejoin="round" stroke-width="0.575"/>
          <path id="Path_1005101" data-name="Path 1005101" d="M47.938,42.029q.255,1.075.511,2.153" transform="translate(5.349 4.69)" fill="none" stroke="#181823" stroke-linecap="round" stroke-linejoin="round" stroke-width="0.575"/>
          <path id="Path_1005102" data-name="Path 1005102" d="M46.587,44.05c-.046-.036-.106-.072-.159-.046s-.061.117-.052.183a2.267,2.267,0,0,0,.379,1.118,1.174,1.174,0,0,0,.795.427,1.21,1.21,0,0,0,.7-.145c.13-.073.159-.108.058-.208a3.5,3.5,0,0,0-.343-.267Z" transform="translate(5.174 4.909)" fill="none" stroke="#181823" stroke-linecap="round" stroke-linejoin="round" stroke-width="0.575"/>
          <path id="Path_1005103" data-name="Path 1005103" d="M44.8,48.963a8.187,8.187,0,0,0,2.633.518l-.094,1.979Z" transform="translate(4.999 5.464)" fill="#181823"/>
          <path id="Path_1005104" data-name="Path 1005104" d="M51.023,38.542c-2.9,2.959-7.778,4.16-7.778,4.16-1.421-1.664-2.423-.594-2.379.614s1.715,1.072,1.715,1.072c-1.8,4.172-3.922,4.561-3.922,4.561l.278-7.6,1.418-2.956,2.118-1.215,5.789-.331s2.607.62,2.76,1.7" transform="translate(4.314 4.111)" fill="#181823"/>
          <path id="Path_1005105" data-name="Path 1005105" d="M45.92,80.69,35.755,107.553l19.081,6.724,9.755-27.711Z" transform="translate(3.99 9.004)" fill="#181823"/>
          <path id="Path_1005106" data-name="Path 1005106" d="M61.836,98.2a1.558,1.558,0,0,1-2.647-1.291c-.309-.595-2.171-1.809-3.945-2.561a1.558,1.558,0,0,1,1.214-2.87c1.959.827,6.443,3.065,5.8,5.957a1.546,1.546,0,0,1-.42.765" transform="translate(6.059 10.194)" fill="#f57f64"/>
          <path id="Path_1005107" data-name="Path 1005107" d="M60.205,99.819a1.558,1.558,0,0,1-2.647-1.291c-.309-.595-2.171-1.809-3.945-2.561a1.558,1.558,0,0,1,1.214-2.87c1.959.827,6.443,3.065,5.8,5.957a1.547,1.547,0,0,1-.42.765" transform="translate(5.877 10.375)" fill="#f57f64"/>
          <path id="Path_1005108" data-name="Path 1005108" d="M58.574,101.442a1.558,1.558,0,0,1-2.647-1.291c-.309-.594-2.171-1.809-3.945-2.561A1.558,1.558,0,0,1,53.2,94.72c1.959.828,6.443,3.065,5.8,5.957a1.546,1.546,0,0,1-.42.765" transform="translate(5.694 10.556)" fill="#f57f64"/>
          <path id="Path_1005109" data-name="Path 1005109" d="M56.943,103.065a1.558,1.558,0,0,1-2.647-1.291c-.309-.595-2.171-1.809-3.945-2.561a1.558,1.558,0,0,1,1.214-2.87c1.959.828,6.443,3.065,5.8,5.957a1.546,1.546,0,0,1-.42.765" transform="translate(5.513 10.737)" fill="#f57f64"/>
          <path id="Path_1005110" data-name="Path 1005110" d="M38.971,95.619c6.742-8,15.518-6.525,21.577-2.786l-5.83,8.913c-.21,3.473-4.356,3.567-4.356,3.567Z" transform="translate(4.349 10.022)" fill="#f57f64"/>
          <path id="Path_1005111" data-name="Path 1005111" d="M51.931,96.366s4.256,1.891,5.11,4.63" transform="translate(5.795 10.753)" fill="none" stroke="#181823" stroke-linecap="round" stroke-linejoin="round" stroke-width="0.625"/>
          <path id="Path_1005112" data-name="Path 1005112" d="M53.46,94.845s4.256,1.891,5.11,4.629" transform="translate(5.965 10.583)" fill="none" stroke="#181823" stroke-linecap="round" stroke-linejoin="round" stroke-width="0.625"/>
          <path id="Path_1005113" data-name="Path 1005113" d="M54.988,93.324s4.256,1.891,5.11,4.63" transform="translate(6.136 10.414)" fill="none" stroke="#181823" stroke-linecap="round" stroke-linejoin="round" stroke-width="0.625"/>
          <path id="Path_1005114" data-name="Path 1005114" d="M43.679,92.569c4.461-2.483,14.863-5.218,14.863-5.218,2.075,2.6-3.313,4.92-3.313,4.92Z" transform="translate(4.874 9.747)" fill="#f57f64"/>
          <path id="Path_1005115" data-name="Path 1005115" d="M26.26,119.86c11.2,0,23.256-7.746,28.066-10.836L45.978,96.031c-13.949,8.964-20.957,9.342-22.265,7.409-1.48-2.185-2-8.483.342-17.143,2.339-8.637,6.01-14.267,7.366-15.237a3.493,3.493,0,0,1-1.626.486L28.507,56.154C17.169,57.1,11.013,75.692,9.4,81.368c-4.61,16.177-2.58,28.925,5.569,34.974a18.49,18.49,0,0,0,11.3,3.518" transform="translate(0.778 6.266)" fill="#217365"/>
          <path id="Path_1005116" data-name="Path 1005116" d="M146.552,85.91a14.028,14.028,0,0,1,2.609-3.713,31.794,31.794,0,0,0,3.37-4.893c.64-1.145,1.2-2.614.458-3.7l-4.183-.552c1.4-1.2,2.421-2.836,3.965-3.851A5.343,5.343,0,0,1,157,68.418a4.082,4.082,0,0,1,2.956,2.992c.146.713.071,1.461.256,2.164a4.894,4.894,0,0,0,2.917,2.911,26.613,26.613,0,0,1,3.881,1.744,3.633,3.633,0,0,1,1.807,3.575c-.277,1.212-1.386,2.015-2.378,2.763s-2.029,1.716-2.035,2.959a3.314,3.314,0,0,0,1.046,2.205c.572.606,1.254,1.1,1.809,1.726a5.1,5.1,0,0,1,.986,5.306,3.983,3.983,0,0,1-4.7,2.215,16.961,16.961,0,0,1-3.028-1.974,10.016,10.016,0,0,0-5.318-1.1,24.4,24.4,0,0,1-5.483-.22,4.531,4.531,0,0,1-2.686-1.5,6.046,6.046,0,0,1-.887-3.364,11.556,11.556,0,0,1,.408-4.913" transform="translate(16.3 7.618)" fill="#181823"/>
          <path id="Path_1005117" data-name="Path 1005117" d="M141.221,73.839c-1.844,3.041-.162,7.433,3.757,9.811s8.593,1.841,10.438-1.2.162-7.433-3.758-9.811-8.591-1.841-10.437,1.2" transform="translate(15.675 7.94)" fill="#181823"/>
          <path id="Path_1005118" data-name="Path 1005118" d="M93.751,105.881c.292.8.606,1.719.954,2.728,3.639,10.613,10.411,30.372,26.147,30.372,6.911,0,11.469-4.635,14.963-10.76A102.525,102.525,0,0,0,141.6,115.4c1.719-4.315,3.862-9.689,5.5-11.533l-11.427-10.2c-3.445,3.863-5.8,9.792-8.3,16.062-1.058,2.666-2.666,6.688-4.246,9.785a14.657,14.657,0,0,1-2.713,4.1c-1.427-.341-3.293-2.29-5.109-5.352-2.651-4.482-4.662-10.342-6.124-14.622-.376-1.093-.724-2.1-1.037-2.972Z" transform="translate(10.461 10.452)" fill="#a35e4b"/>
          <path id="Path_1005119" data-name="Path 1005119" d="M120.184,119.515c3.459,2.394,8.825,6.089,12.68,8.706a102.209,102.209,0,0,0,5.79-12.826c1.72-4.315,3.863-9.687,5.5-11.533l-11.427-10.2c-3.445,3.863-5.8,9.792-8.3,16.062-1.057,2.666-2.666,6.688-4.245,9.785" transform="translate(13.411 10.452)" fill="#64adad"/>
          <path id="Path_1005120" data-name="Path 1005120" d="M136.658,101.136l-5.428-6.612c2.557-3.328,6.782-3.928,8.359-4.237a59.492,59.492,0,0,1,8.481-.864c11.559-.31,15.435,1.329,15.435,1.329l3.255,14.017,1.2,23.718-30.98-1.462c2.479-18.07-.843-23.951-.843-23.951Z" transform="translate(14.644 9.974)" fill="#64adad"/>
          <rect id="Rectangle_459272" data-name="Rectangle 459272" width="8.085" height="0.799" transform="translate(152.432 116.833)" fill="#fff"/>
          <path id="Path_1005121" data-name="Path 1005121" d="M131.652,95.5a34.786,34.786,0,0,1,5.872,8.374,12.049,12.049,0,0,0-1.245,10.454" transform="translate(14.691 10.657)" fill="none" stroke="#181823" stroke-linecap="round" stroke-linejoin="round" stroke-width="0.626"/>
          <path id="Path_1005122" data-name="Path 1005122" d="M142.359,89.728c1.312-.139,2.85-.261,4.48-.3,3.11-.083,5.659-.026,7.731.1-3.846,7.051-13.331,6.07-12.211.2" transform="translate(15.875 9.974)" fill="#a35e4b"/>
          <path id="Path_1005123" data-name="Path 1005123" d="M142.082,76.025c-.778,3.69-1.894,8.625.306,10.28a4.245,4.245,0,0,0,1.962.588l.092,6.314,8.936-1.143-.323-13.18-2.846-4.24s-7.4-1.964-8.127,1.381" transform="translate(15.745 8.265)" fill="#a35e4b"/>
          <path id="Path_1005124" data-name="Path 1005124" d="M141.983,76.056c.186-.129,6.707,1.957,6.943,4.034,0,0,.377-1.993,1.528-1.239s.022,2.435-1.019,2.9a7.633,7.633,0,0,0,3.65,2.454l.046-5.857a4.391,4.391,0,0,0-3.921-4.43c-4.715-.484-7.131.434-7.228,2.138" transform="translate(15.843 8.234)" fill="#181823"/>
          <path id="Path_1005125" data-name="Path 1005125" d="M145.868,79.382a.3.3,0,0,0,.241-.47,1.486,1.486,0,0,0-1.183-.614,1.466,1.466,0,0,0-1.192.6.3.3,0,0,0,.479.35.949.949,0,0,1,.708-.357.887.887,0,0,1,.7.366.3.3,0,0,0,.242.124" transform="translate(16.033 8.737)" fill="#181823"/>
          <path id="Path_1005126" data-name="Path 1005126" d="M142.787,79.382a.3.3,0,0,0,.241-.47,1.486,1.486,0,0,0-1.183-.614h-.008a1.488,1.488,0,0,0-1.184.6.3.3,0,0,0,.48.35.886.886,0,0,1,.7-.357h0a.887.887,0,0,1,.7.366.3.3,0,0,0,.242.124" transform="translate(15.689 8.737)" fill="#181823"/>
          <path id="Path_1005127" data-name="Path 1005127" d="M142.845,81.4a.3.3,0,0,0,.28-.2,6.965,6.965,0,0,0,.349-1.535.3.3,0,0,0-.262-.328.3.3,0,0,0-.328.262,6.337,6.337,0,0,1-.319,1.4.3.3,0,0,0,.182.379.3.3,0,0,0,.1.017" transform="translate(15.906 8.853)" fill="#181823"/>
          <path id="Path_1005128" data-name="Path 1005128" d="M142.942,83.311a1.215,1.215,0,0,1-.684-.953.625.625,0,0,1,.407-.571,2.125,2.125,0,0,1,.507-.129c.072-.011.145-.023.211-.039l.986-.233h0a.769.769,0,0,1,.664.081.687.687,0,0,1,.195.737,1.653,1.653,0,0,1-.88,1.094,1.656,1.656,0,0,1-1.406.013m1.737-1.369a.476.476,0,0,0-.173.023l-.986.233c-.08.018-.166.032-.251.047a1.37,1.37,0,0,0-.416.116c-.018.078.159.328.339.411a1.05,1.05,0,0,0,1.46-.707c.018-.073.013-.123.026-.123Z" transform="translate(15.874 9.077)" fill="#181823"/>
          <circle id="Ellipse_13849" data-name="Ellipse 13849" cx="1.617" cy="1.617" r="1.617" transform="translate(155.011 87.034)" fill="none" stroke="#fff" stroke-miterlimit="10" stroke-width="0.313"/>
          <circle id="Ellipse_13850" data-name="Ellipse 13850" cx="1.617" cy="1.617" r="1.617" transform="translate(159.3 87.034)" fill="none" stroke="#fff" stroke-miterlimit="10" stroke-width="0.313"/>
          <line id="Line_3291" data-name="Line 3291" x2="2.399" transform="translate(162.515 88.433)" fill="none" stroke="#fff" stroke-miterlimit="10" stroke-width="0.313"/>
          <path id="Path_1005129" data-name="Path 1005129" d="M106.736,94a6.394,6.394,0,0,1-.695-5.4A1.605,1.605,0,1,0,103,87.585a9.546,9.546,0,0,0,.471,7.134,19.7,19.7,0,0,0-4.182-1.749l-.009,0a24.252,24.252,0,0,0-11.314-1.195,1.6,1.6,0,0,0-1.335,1.605,17.758,17.758,0,0,0-1.782.175,1.6,1.6,0,0,0-1.336,1.6c-1.042.057-1.7.16-1.782.173a1.6,1.6,0,0,0-1.335,1.605c-1.043.057-1.7.161-1.783.173a1.606,1.606,0,0,0,.522,3.169,21.6,21.6,0,0,1,8.883.766c6.179,2.706,7.617,6.053,7.617,6.053l14.512-5.189c-.173-3.662-1.616-5.287-3.408-7.9" transform="translate(8.622 9.651)" fill="#a35e4b"/>
          <path id="Path_1005130" data-name="Path 1005130" d="M86.71,92.75a30.109,30.109,0,0,1,9.235,1.1" transform="translate(9.676 10.349)" fill="none" stroke="#181823" stroke-linecap="round" stroke-linejoin="round" stroke-width="0.578"/>
          <path id="Path_1005131" data-name="Path 1005131" d="M83.842,94.491a30.1,30.1,0,0,1,9.235,1.1" transform="translate(9.356 10.544)" fill="none" stroke="#181823" stroke-linecap="round" stroke-linejoin="round" stroke-width="0.578"/>
          <path id="Path_1005132" data-name="Path 1005132" d="M81.542,96.242a30.076,30.076,0,0,1,9.235,1.106" transform="translate(9.099 10.739)" fill="none" stroke="#181823" stroke-linecap="round" stroke-linejoin="round" stroke-width="0.578"/>
          <path id="Path_1005133" data-name="Path 1005133" d="M92.128,98.678a8.516,8.516,0,0,1,6.5-1.575,5.428,5.428,0,0,1,2.122.793,3.176,3.176,0,0,1,1.332,1.791" transform="translate(10.28 10.822)" fill="none" stroke="#181823" stroke-linecap="round" stroke-linejoin="round" stroke-width="0.578"/>
          <path id="Path_1005134" data-name="Path 1005134" d="M138.661,132.033a153.856,153.856,0,0,0,20.656,2.151c1.093.034,2.151.049,3.18.049,13.669,0,22.32-2.923,26.315-8.895a12.3,12.3,0,0,0,.925-1.58,15.213,15.213,0,0,0,.48-12.7c-3.1-7.8-12.659-15.005-27.684-20.531l-4.565,13.821c12.3,4.531,17.928,9.292,19,11.985a1.065,1.065,0,0,1,.013,1.037,7.574,7.574,0,0,1-3.34,1.5h-.007c-2.638.71-7.189,1.337-14.865,1.03A143.348,143.348,0,0,1,141.222,118Z" transform="translate(15.473 10.102)" fill="#a35e4b"/>
          <path id="Path_1005135" data-name="Path 1005135" d="M173.284,113.908c-2.63-2.681-8.085-6.184-17.254-9.561L160.6,90.526c9.3,3.421,16.5,7.487,21.378,11.937-2.852,3.849-5.675,7.722-8.689,11.445" transform="translate(17.411 10.102)" fill="#64adad"/>
          <line id="Line_3292" data-name="Line 3292" x1="7.107" y1="3.154" transform="translate(174.146 115.062)" fill="none" stroke="#181823" stroke-linecap="round" stroke-linejoin="round" stroke-width="0.626"/>
          <path id="Path_1005136" data-name="Path 1005136" d="M130.135,117.468a1.484,1.484,0,0,0,.882-.29,11.7,11.7,0,0,1,3.876-1.82,1.485,1.485,0,1,0-.572-2.915,14.673,14.673,0,0,0-5.071,2.344,1.485,1.485,0,0,0,.886,2.68" transform="translate(14.355 12.544)" fill="#a35e4b"/>
          <path id="Path_1005137" data-name="Path 1005137" d="M129.975,120.18a1.479,1.479,0,0,0,.883-.291,11.7,11.7,0,0,1,3.875-1.819,1.485,1.485,0,1,0-.571-2.915,14.627,14.627,0,0,0-5.071,2.344,1.485,1.485,0,0,0,.885,2.68" transform="translate(14.338 12.847)" fill="#a35e4b"/>
          <path id="Path_1005138" data-name="Path 1005138" d="M129.816,122.892a1.479,1.479,0,0,0,.883-.291,11.7,11.7,0,0,1,3.876-1.819,1.486,1.486,0,0,0-.572-2.916,14.643,14.643,0,0,0-5.071,2.345,1.486,1.486,0,0,0,.885,2.68" transform="translate(14.32 13.149)" fill="#a35e4b"/>
          <path id="Path_1005139" data-name="Path 1005139" d="M132.424,126.31a1.486,1.486,0,0,0,1.036-2.55,6.887,6.887,0,0,1,.954-.267,1.485,1.485,0,1,0-.571-2.915,14.627,14.627,0,0,0-5.071,2.344,1.486,1.486,0,0,0,.516,2.634l2.769.706a1.5,1.5,0,0,0,.368.047" transform="translate(14.302 13.452)" fill="#a35e4b"/>
          <path id="Path_1005140" data-name="Path 1005140" d="M132.6,112.89c4.441-2.126,9.546,2.679,9.546,2.679L139.576,129.6c-2.818,1.163-6.616-.417-6.787-3.491l-2.341-.461Z" transform="translate(14.556 12.537)" fill="#a35e4b"/>
          <path id="Path_1005141" data-name="Path 1005141" d="M129.926,117.188a.292.292,0,0,0,.152-.042,16.134,16.134,0,0,1,3.928-1.664.3.3,0,0,0,.229-.351.3.3,0,0,0-.352-.23,16.35,16.35,0,0,0-4.11,1.736.3.3,0,0,0,.152.551" transform="translate(14.465 12.821)" fill="#181823"/>
          <path id="Path_1005142" data-name="Path 1005142" d="M129.926,119.865a.292.292,0,0,0,.152-.042,16.088,16.088,0,0,1,3.928-1.664.3.3,0,0,0-.123-.582,16.315,16.315,0,0,0-4.11,1.737.3.3,0,0,0,.152.551" transform="translate(14.465 13.119)" fill="#181823"/>
          <path id="Path_1005143" data-name="Path 1005143" d="M129.926,122.542a.292.292,0,0,0,.152-.042,16.135,16.135,0,0,1,3.928-1.664.3.3,0,0,0,.229-.351.3.3,0,0,0-.352-.23,16.349,16.349,0,0,0-4.11,1.736.3.3,0,0,0,.152.551" transform="translate(14.465 13.418)" fill="#181823"/>
          <path id="Path_1005144" data-name="Path 1005144" d="M88.842,131.509h155.5a2.132,2.132,0,1,0,0-4.264H88.842a2.132,2.132,0,1,0,0,4.264" transform="translate(9.676 14.199)" fill="#181823"/>
          <path id="Path_1005145" data-name="Path 1005145" d="M93.78,214.477H237.826a785.717,785.717,0,0,1,0-83.4H93.78Z" transform="translate(10.465 14.627)" fill="#181823"/>
          <path id="Path_1005146" data-name="Path 1005146" d="M71.255,131.509h155.5a2.132,2.132,0,1,0,0-4.264H71.255a2.132,2.132,0,1,0,0,4.264" transform="translate(7.713 14.199)" fill="#f4e08c"/>
          <path id="Path_1005147" data-name="Path 1005147" d="M76.193,214.477H220.239q-1.832-40.837,0-83.4H76.193c.826,29.386.969,57.459,0,83.4" transform="translate(8.502 14.627)" fill="#fcac63"/>
          <line id="Line_3293" data-name="Line 3293" x1="126.162" transform="translate(93.638 152.815)" fill="none" stroke="#f4e08c" stroke-miterlimit="10" stroke-width="0.626"/>
          <line id="Line_3294" data-name="Line 3294" x1="126.162" transform="translate(93.638 163.951)" fill="none" stroke="#f4e08c" stroke-miterlimit="10" stroke-width="0.626"/>
          <line id="Line_3295" data-name="Line 3295" x1="126.162" transform="translate(93.638 175.086)" fill="none" stroke="#f4e08c" stroke-miterlimit="10" stroke-width="0.626"/>
          <line id="Line_3296" data-name="Line 3296" x1="126.162" transform="translate(93.638 186.221)" fill="none" stroke="#f4e08c" stroke-miterlimit="10" stroke-width="0.626"/>
          <line id="Line_3297" data-name="Line 3297" x1="126.162" transform="translate(93.638 197.356)" fill="none" stroke="#f4e08c" stroke-miterlimit="10" stroke-width="0.626"/>
          <line id="Line_3298" data-name="Line 3298" x1="126.162" transform="translate(93.638 208.491)" fill="none" stroke="#f4e08c" stroke-miterlimit="10" stroke-width="0.626"/>
          <line id="Line_3299" data-name="Line 3299" x1="126.162" transform="translate(93.638 219.627)" fill="none" stroke="#f4e08c" stroke-miterlimit="10" stroke-width="0.626"/>
          <path id="Path_1005148" data-name="Path 1005148" d="M124.132,168.511c0,10.108,6.862,18.3,16.969,18.3s19.634-8.195,19.634-18.3-9.526-18.3-19.634-18.3-16.969,8.195-16.969,18.3" transform="translate(13.852 16.761)" fill="#5566e5"/>
          <path id="Path_1005149" data-name="Path 1005149" d="M131.9,164.428h6.456v-6.456a1.953,1.953,0,0,1,1.953-1.954h2.961a1.955,1.955,0,0,1,1.956,1.954v6.456h6.455a1.954,1.954,0,0,1,1.954,1.954v2.962a1.954,1.954,0,0,1-1.954,1.954h-6.455v6.456a1.955,1.955,0,0,1-1.956,1.954H140.3a1.953,1.953,0,0,1-1.953-1.954V171.3H131.9a1.954,1.954,0,0,1-1.955-1.954v-2.962a1.954,1.954,0,0,1,1.955-1.954" transform="translate(14.5 17.41)" fill="#fff"/>
          <path id="Path_1005150" data-name="Path 1005150" d="M212.917,131.081,76.193,134.8v-3.724Z" transform="translate(8.502 14.627)" fill="#181823"/>
          <path id="Path_1005151" data-name="Path 1005151" d="M75.094,125.036h53.143l-3.188-38.549H71.907Z" transform="translate(8.024 9.651)" fill="#181823"/>
          <path id="Path_1005152" data-name="Path 1005152" d="M73.814,125.036h53.143l-3.188-38.549H70.627Z" transform="translate(7.881 9.651)" fill="#5566e5"/>
          <path id="Path_1005153" data-name="Path 1005153" d="M93.676,126.929h9.333l-1.144-13.835H92.532Z" transform="translate(10.325 12.62)" fill="#181823"/>
          <rect id="Rectangle_459273" data-name="Rectangle 459273" width="18.885" height="2.141" transform="translate(98.653 139.303)" fill="#5566e5"/>
          <path id="Path_1005154" data-name="Path 1005154" d="M217.292,213c0,3.428-1.3,3.71-3.161,3.71H181.991c0-2.756,11.574-2.052,11.877-3.71Z" transform="translate(20.308 23.768)" fill="#181823"/>
          <path id="Path_1005155" data-name="Path 1005155" d="M230.346,228.154c-7.437-54.128-20.326-146.811-20.461-147.772l22.934-3.208c.135.962,13.531,96.766,20.972,150.921Z" transform="translate(23.42 8.612)" fill="#2c2c5e"/>
          <path id="Path_1005156" data-name="Path 1005156" d="M215.992,227.911H192.833c0-17.77,3.6-143.228,3.756-148.559l23.149.666c-.038,1.3-3.746,130.454-3.746,147.893" transform="translate(21.518 8.855)" fill="#2c2c5e"/>
          <path id="Path_1005157" data-name="Path 1005157" d="M228.292,213c0,3.428,1.3,3.71,3.161,3.71h32.139c0-2.756-11.574-2.052-11.877-3.71Z" transform="translate(25.474 23.768)" fill="#181823"/>
          <path id="Path_1005158" data-name="Path 1005158" d="M236.27,94.291l-4.185-50.646L212.7,39.837l-17.066,3.9.338,50.556Z" transform="translate(21.831 4.445)" fill="#fcac63"/>
          <path id="Path_1005159" data-name="Path 1005159" d="M219.122,26.077a1.357,1.357,0,0,0-.939-1.072,2.646,2.646,0,0,0-2.508-3.945,1.255,1.255,0,0,0-1.134.691,11.427,11.427,0,0,0-2.189-1.8,3.873,3.873,0,0,0-2.724-.538,1.316,1.316,0,0,0-.7.353.638.638,0,0,0-.117.733,4.159,4.159,0,0,0-3.665-.949,1.95,1.95,0,0,0-1.177.681,2.575,2.575,0,0,0-.094,2.1,1.647,1.647,0,0,0-1.656,1.227,1.791,1.791,0,0,0,.881,1.97l.488,5.886,13.393,3.509,1.6-7.547a1.322,1.322,0,0,0,.537-1.3" transform="translate(22.56 2.158)" fill="#181823"/>
          <path id="Path_1005160" data-name="Path 1005160" d="M204.168,25.818c-.865,4.254-2.108,9.94.437,11.934a4.992,4.992,0,0,0,2.263.747l.093,5.995a5.135,5.135,0,1,0,10.266-.273L216.816,29.5l-3.309-5.012s-8.535-2.527-9.338,1.328" transform="translate(22.662 2.642)" fill="#f57f64"/>
          <path id="Path_1005161" data-name="Path 1005161" d="M216.889,34.186l-3.007-2.77c2.217-.846,2.413-2.654,1.208-3.318s-2.122.785-2.122.785c-.844-.765.32-1.406.14-2.529S202.4,28.535,203.882,25.3c.857-2.327,9.669-3.481,12.273-.581,1.4,1.558.734,9.467.734,9.467" transform="translate(22.735 2.566)" fill="#181823"/>
          <path id="Path_1005162" data-name="Path 1005162" d="M204.167,28.639a.59.59,0,0,1,.549-.246.646.646,0,0,1,.5.373" transform="translate(22.782 3.168)" fill="none" stroke="#181823" stroke-linecap="round" stroke-linejoin="round" stroke-width="0.617"/>
          <path id="Path_1005163" data-name="Path 1005163" d="M206.985,29.1a1.223,1.223,0,0,1,.721-.5.83.83,0,0,1,.545.155,1.833,1.833,0,0,1,.409.415" transform="translate(23.097 3.191)" fill="none" stroke="#181823" stroke-linecap="round" stroke-linejoin="round" stroke-width="0.617"/>
          <path id="Path_1005164" data-name="Path 1005164" d="M205.928,29.046q-.3,1.149-.608,2.3" transform="translate(22.911 3.241)" fill="none" stroke="#181823" stroke-linecap="round" stroke-linejoin="round" stroke-width="0.617"/>
          <path id="Path_1005165" data-name="Path 1005165" d="M207.481,31.255c.05-.037.116-.076.172-.044s.062.127.05.2a2.434,2.434,0,0,1-.437,1.189,1.257,1.257,0,0,1-.866.437,1.3,1.3,0,0,1-.745-.173c-.137-.083-.168-.12-.057-.226a3.863,3.863,0,0,1,.377-.277Z" transform="translate(22.935 3.481)" fill="none" stroke="#181823" stroke-linecap="round" stroke-linejoin="round" stroke-width="0.617"/>
          <path id="Path_1005166" data-name="Path 1005166" d="M209.329,36.577a8.774,8.774,0,0,1-2.841.484l.047,2.126Z" transform="translate(23.041 4.082)" fill="#181823"/>
          <path id="Path_1005167" data-name="Path 1005167" d="M205.594,29.278a1.635,1.635,0,1,1-1.635-1.634A1.634,1.634,0,0,1,205.594,29.278Z" transform="translate(22.577 3.085)" fill="none" stroke="#fff" stroke-miterlimit="10" stroke-width="0.313"/>
          <path id="Path_1005168" data-name="Path 1005168" d="M209.484,29.278a1.635,1.635,0,1,1-1.634-1.634A1.635,1.635,0,0,1,209.484,29.278Z" transform="translate(23.011 3.085)" fill="none" stroke="#fff" stroke-miterlimit="10" stroke-width="0.313"/>
          <line id="Line_3300" data-name="Line 3300" x2="3.146" transform="translate(232.385 31.775)" fill="none" stroke="#fff" stroke-miterlimit="10" stroke-width="0.313"/>
          <path id="Path_1005169" data-name="Path 1005169" d="M206.266,41.289l-2.189,128.738H190.041l6.222-126.453Z" transform="translate(21.206 4.607)" fill="#88fede"/>
          <path id="Path_1005170" data-name="Path 1005170" d="M192.6,64.7l7.191,28.887,20.226-5.53-8.039-29.368Z" transform="translate(21.492 6.549)" fill="#181823"/>
          <path id="Path_1005171" data-name="Path 1005171" d="M216.387,67.312a1.578,1.578,0,0,1-2.948.451c-.6-.316-2.85-.255-4.761.142a1.578,1.578,0,0,1-.644-3.089c2.106-.44,7.131-1.164,8.261,1.616a1.574,1.574,0,0,1,.091.879" transform="translate(23.074 7.185)" fill="#f57f64"/>
          <path id="Path_1005172" data-name="Path 1005172" d="M215.965,69.6a1.578,1.578,0,0,1-2.948.451c-.6-.316-2.85-.255-4.761.142a1.578,1.578,0,0,1-.644-3.089c2.106-.44,7.131-1.164,8.261,1.616a1.574,1.574,0,0,1,.091.879" transform="translate(23.027 7.441)" fill="#f57f64"/>
          <path id="Path_1005173" data-name="Path 1005173" d="M215.543,71.9a1.578,1.578,0,0,1-2.948.451c-.6-.316-2.85-.253-4.761.142a1.578,1.578,0,0,1-.645-3.089c2.109-.44,7.132-1.164,8.264,1.616a1.584,1.584,0,0,1,.09.879" transform="translate(22.98 7.697)" fill="#f57f64"/>
          <path id="Path_1005174" data-name="Path 1005174" d="M215.121,74.187a1.578,1.578,0,0,1-2.948.451c-.6-.316-2.85-.255-4.761.142a1.578,1.578,0,0,1-.645-3.089c2.108-.44,7.132-1.164,8.262,1.616a1.574,1.574,0,0,1,.091.879" transform="translate(22.932 7.953)" fill="#f57f64"/>
          <path id="Path_1005175" data-name="Path 1005175" d="M195.59,79.189c1-10.546,9.157-14.381,16.358-14.761l.286,10.783c1.826,3.011-1.571,5.481-1.571,5.481Z" transform="translate(21.825 7.189)" fill="#f57f64"/>
          <path id="Path_1005176" data-name="Path 1005176" d="M207.148,71.364s4.633-.88,6.923.908" transform="translate(23.115 7.939)" fill="none" stroke="#181823" stroke-linecap="round" stroke-linejoin="round" stroke-width="0.633"/>
          <path id="Path_1005177" data-name="Path 1005177" d="M207.543,69.216s4.634-.88,6.924.908" transform="translate(23.159 7.699)" fill="none" stroke="#181823" stroke-linecap="round" stroke-linejoin="round" stroke-width="0.633"/>
          <path id="Path_1005178" data-name="Path 1005178" d="M207.939,67.068s4.634-.879,6.923.908" transform="translate(23.203 7.46)" fill="none" stroke="#181823" stroke-linecap="round" stroke-linejoin="round" stroke-width="0.633"/>
          <path id="Path_1005179" data-name="Path 1005179" d="M197.786,73.8c2.282-4.64,9.366-12.913,9.366-12.913,3.229.972.078,6,.078,6Z" transform="translate(22.07 6.794)" fill="#f57f64"/>
          <path id="Path_1005180" data-name="Path 1005180" d="M186.739,102.742a12.185,12.185,0,0,1-8.148-3.049c-5.119-4.522-5.829-12.689-2.169-24.967.359-1.2,8.948-29.535,22.044-31.435l2.217,15.278a3.531,3.531,0,0,0,1.378-.451c-1.3.885-5.177,6.143-8.668,14.826a55.817,55.817,0,0,0-3.6,12.361,69.459,69.459,0,0,0,11.024-11.87l12.456,9.6c-4.156,5.678-14.921,18.53-25.094,19.632a13.4,13.4,0,0,1-1.441.078" transform="translate(19.43 4.831)" fill="#88fede"/>
          <path id="Path_1005181" data-name="Path 1005181" d="M217.881,41.191l13.066,128.847h17.467L229.6,43.494Z" transform="translate(24.313 4.596)" fill="#88fede"/>
          <path id="Path_1005182" data-name="Path 1005182" d="M236.094,130.888l-10.611-11.477c19.584-24.155,12.118-43.688,9.786-49.637-3.031-7.736-7.345-11.075-9.352-11.363l2.192-15.282c8.691,1.247,16.944,9.3,21.535,21.011,3.1,7.913,11.288,36.111-13.55,66.747" transform="translate(25.161 4.813)" fill="#88fede"/>
          <line id="Line_3301" data-name="Line 3301" x1="4.857" y1="5.034" transform="translate(251.997 62.809)" fill="none" stroke="#181823" stroke-linecap="round" stroke-linejoin="round" stroke-width="0.617"/>
          <line id="Line_3302" data-name="Line 3302" x1="6.337" y2="4.798" transform="translate(215.037 100.538)" fill="none" stroke="#181823" stroke-linecap="round" stroke-linejoin="round" stroke-width="0.617"/>
          <path id="Path_1005183" data-name="Path 1005183" d="M184.327,83.484l3.554-1.777-3.968,5.036" transform="translate(20.522 9.117)" fill="none" stroke="#181823" stroke-linecap="round" stroke-linejoin="round" stroke-width="0.617"/>
          <line id="Line_3303" data-name="Line 3303" x2="12.331" y2="5.906" transform="translate(250.989 124.467)" fill="none" stroke="#181823" stroke-linecap="round" stroke-linejoin="round" stroke-width="0.617"/>
          <line id="Line_3304" data-name="Line 3304" x1="9.144" y2="6.706" transform="translate(215.37 125.296)" fill="none" stroke="#181823" stroke-linecap="round" stroke-linejoin="round" stroke-width="0.617"/>
          <path id="Path_1005184" data-name="Path 1005184" d="M236.662,93.856a72.547,72.547,0,0,1-10.6,17.947" transform="translate(25.225 10.473)" fill="none" stroke="#181823" stroke-linecap="round" stroke-linejoin="round" stroke-width="0.617"/>
          <path id="Path_1005185" data-name="Path 1005185" d="M172.725,150.7c-2.633.376-2.718,7.953-2.257,10.721a68.6,68.6,0,0,0,3.712,8.623l8.8-8.717-7.135,12.028a132.766,132.766,0,0,0,7.076,12.141l3.821-4.514-1.873,7.351c4.2,5.9,9.045,11.209,14.129,14h6.645c-3.291-34.9-30.281-52.013-32.914-51.638" transform="translate(18.998 16.816)" fill="#64adad"/>
          <path id="Path_1005186" data-name="Path 1005186" d="M189.649,169.784a127.241,127.241,0,0,1,11.921,26.341" transform="translate(21.162 18.946)" fill="none" stroke="#181823" stroke-linecap="round" stroke-linejoin="round" stroke-width="0.495"/>
          <path id="Path_1005187" data-name="Path 1005187" d="M176.456,154.494a56.15,56.15,0,0,1,12.833,14.127" transform="translate(19.69 17.24)" fill="none" stroke="#181823" stroke-linecap="round" stroke-linejoin="round" stroke-width="0.495"/>
          <path id="Path_1005188" data-name="Path 1005188" d="M200.412,143.315c-1.066-.251-5.278,6.736-5.885,8.207a52.654,52.654,0,0,0-.5,7.006l6.6-.136-6.64,1.832c-.05,3.014-.013,6.625.2,10.533l5.119.142L194.3,172.42c.7,10.3,2.692,22.3,7.618,30.83l4.075-.084c4.764-31.388-4.514-59.6-5.58-59.851" transform="translate(21.645 15.991)" fill="#93d6d8"/>
          <path id="Path_1005189" data-name="Path 1005189" d="M202.907,163.655c3.469,22.633,2.982,35.961,2.982,35.961" transform="translate(22.642 18.262)" fill="none" stroke="#181823" stroke-linecap="round" stroke-linejoin="round" stroke-width="0.495"/>
          <path id="Path_1005190" data-name="Path 1005190" d="M199.987,147.589q1.561,7.455,2.634,14.029" transform="translate(22.316 16.469)" fill="none" stroke="#181823" stroke-linecap="round" stroke-linejoin="round" stroke-width="0.495"/>
          <path id="Path_1005191" data-name="Path 1005191" d="M216.183,180.137l6.615,3.969c1.173-2.969,2.166-5.978,2.988-8.766l-3.02-3.667L226.173,174c1.6-5.664,2.448-10.179,2.612-11.163.47-2.821-3.293-11.285-4.922-11.285s-25.2,29.968-23.448,50.7h8.527c5.046-1.786,9.056-7.513,12.115-14.078Z" transform="translate(22.353 16.911)" fill="#64adad"/>
          <path id="Path_1005192" data-name="Path 1005192" d="M212.886,167.158a69.446,69.446,0,0,1,9.343-12.664" transform="translate(23.755 17.24)" fill="none" stroke="#181823" stroke-linecap="round" stroke-linejoin="round" stroke-width="0.495"/>
          <path id="Path_1005193" data-name="Path 1005193" d="M202.475,198.65a88.083,88.083,0,0,1,10.051-30.367" transform="translate(22.594 18.778)" fill="none" stroke="#181823" stroke-linecap="round" stroke-linejoin="round" stroke-width="0.495"/>
          <path id="Path_1005194" data-name="Path 1005194" d="M184.637,207.6h35.194c4.493-3.576,4.867-14.906,4.867-14.906l-44.179,1.463s-1.732,8.361,4.118,13.444" transform="translate(20.117 21.502)" fill="#db5656"/>
          <path id="Path_1005195" data-name="Path 1005195" d="M225.173,192.322l-35.138.721-9.883.2a.825.825,0,0,0,0,1.65l35.138-.721,9.883-.2a.825.825,0,0,0,0-1.65" transform="translate(20.014 21.461)" fill="#2c2c5e"/>
        </g>
      </g>
    </g>
  </g>
</svg>
