<svg id="img16" xmlns="http://www.w3.org/2000/svg" xmlns:xlink="http://www.w3.org/1999/xlink" width="96.32" height="96.32" viewBox="0 0 96.32 96.32">
  <defs>
    <clipPath id="clip-path">
      <rect id="Rectangle_459904" data-name="Rectangle 459904" width="61.014" height="61.014" fill="#7b1a8a"/>
    </clipPath>
  </defs>
  <path id="Path_997400" data-name="Path 997400" d="M48.16,0A48.16,48.16,0,1,1,0,48.16,48.16,48.16,0,0,1,48.16,0Z" fill="#f7ceff"/>
  <g id="Group_1099776" data-name="Group 1099776" transform="translate(18.06 18.059)">
    <g id="Group_1099618" data-name="Group 1099618" transform="translate(0 0)">
      <rect id="Rectangle_401104" data-name="Rectangle 401104" width="59.576" height="60.293" transform="translate(0)" fill="none"/>
    </g>
    <g id="Group_1185201" data-name="Group 1185201" transform="translate(-1.438 0)">
      <g id="Group_1185200" data-name="Group 1185200" clip-path="url(#clip-path)">
        <path id="Path_1005894" data-name="Path 1005894" d="M35.575,7.222V1.961L1.963,1.978V54.494l27.16,0a1.035,1.035,0,0,1,1.053,1,1,1,0,0,1-1.053.992l-27.1-.006A2.038,2.038,0,0,1,0,54.294L.006,1.854A2.007,2.007,0,0,1,2.2,0L36.139,0A2.062,2.062,0,0,1,37.66.686l6.168,6.059A2.288,2.288,0,0,1,44.434,8.3l0,17.79a1.056,1.056,0,0,1-.984.928,1.08,1.08,0,0,1-.983-.928l0-17.29-5.2-.015a1.626,1.626,0,0,1-1.681-1.561m5.437-.447L37.584,3.348l-.043,3.515Z" transform="translate(0)" fill="#7b1a8a"/>
        <path id="Path_1005895" data-name="Path 1005895" d="M173.534,187.433l-4.893.047a1.224,1.224,0,0,1-.983-.786l-.751-1.934-3.151-1.31-1.8.707c-.315.124-1.092.319-1.348.066l-3.105-3.071a1.375,1.375,0,0,1-.226-1.113l.9-2.086-1.326-3.234-2.139-.86a1.238,1.238,0,0,1-.592-.94l.047-4.838,2.633-1.126,1.367-3.282-.9-2.082a1.28,1.28,0,0,1,.272-1.085l3.287-3.252c1.187-.034,2.013.912,2.966.921l3.115-1.3.819-2.072a1.111,1.111,0,0,1,.925-.614l4.208,0a1.281,1.281,0,0,1,.9.483l.859,2.183,3.281,1.37,2.088-.893a1.377,1.377,0,0,1,1.1.228l3,3.009a1.441,1.441,0,0,1,.114,1.185l-.836,1.935,1.409,3.3,2.6,1.1.048,4.822a1.3,1.3,0,0,1-.523.894l-2.227.941-1.325,3.2.895,2.069a1.341,1.341,0,0,1-.417,1.343l-2.9,2.856c-.231.228-.968.1-1.247-.019l-1.777-.786-3.267,1.383Zm-1.322-1.944,1.045-2.441a15.526,15.526,0,0,0,4.45-1.844l2.41,1,2.023-2-1-2.439a18.12,18.12,0,0,0,1.9-4.528l2.37-.981v-2.874l-2.37-.97a17.773,17.773,0,0,0-1.9-4.546l1-2.421-1.989-2.009-2.4,1.009a17.378,17.378,0,0,0-4.5-1.855l-1.052-2.433-2.866.014-.976,2.369a18.922,18.922,0,0,0-4.567,1.906l-2.42-1.018-2,2,1.019,2.418a17.279,17.279,0,0,0-1.791,4.207c-.072.261-.569.6-.831.7l-1.689.663.032,2.848,2.422,1.042a16.8,16.8,0,0,0,1.858,4.493l-1.013,2.409,2.019,2,2.406-1a17.537,17.537,0,0,0,4.547,1.886l.978,2.4Z" transform="translate(-126.407 -126.467)" fill="#7b1a8a"/>
        <path id="Path_1005896" data-name="Path 1005896" d="M47.43,69.167l-12.806,0A1.13,1.13,0,0,1,33.4,68.082V55.031a1.037,1.037,0,0,1,1.021-.945H47.561a1.028,1.028,0,0,1,1.028.941l0,13.081a1.133,1.133,0,0,1-1.163,1.058m-.779-13.128H35.374l0,11.114,11.277,0Z" transform="translate(-27.391 -44.361)" fill="#7b1a8a"/>
        <path id="Path_1005897" data-name="Path 1005897" d="M64.669,156.563H34.5a1.024,1.024,0,0,1-1.029-.9,1.058,1.058,0,0,1,.916-1.058h30.58a.993.993,0,1,1-.3,1.962" transform="translate(-27.448 -126.802)" fill="#7b1a8a"/>
        <path id="Path_1005898" data-name="Path 1005898" d="M56.792,180.123l-22.516,0c-.5,0-.871-.621-.859-.985a1.043,1.043,0,0,1,1.044-.987l22.262,0a1.064,1.064,0,0,1,.891.824c.061.36-.188,1.143-.822,1.143" transform="translate(-27.409 -146.121)" fill="#7b1a8a"/>
        <path id="Path_1005899" data-name="Path 1005899" d="M55.372,203.8l-20.823,0a1.1,1.1,0,0,1-1.063-.982,1.031,1.031,0,0,1,1.019-1.024l21.017,0a1.078,1.078,0,0,1,.907,1.02c-.061.508-.379.849-1.059.986" transform="translate(-27.465 -165.51)" fill="#7b1a8a"/>
        <path id="Path_1005900" data-name="Path 1005900" d="M52.891,227.33l-18.416,0a.984.984,0,1,1,.014-1.965H52.8a1,1,0,0,1,1.015.838.959.959,0,0,1-.919,1.123" transform="translate(-27.437 -184.846)" fill="#7b1a8a"/>
        <path id="Path_1005901" data-name="Path 1005901" d="M51.839,250.865l-17.717-.014c-.462,0-.8-.754-.727-1.079a1.117,1.117,0,0,1,1.022-.884l17.614,0a1.033,1.033,0,0,1,.933,1.017,1.014,1.014,0,0,1-1.125.956" transform="translate(-27.382 -204.137)" fill="#7b1a8a"/>
        <path id="Path_1005902" data-name="Path 1005902" d="M146.5,115.881l-12.974.007c-.573,0-.876-.691-.806-1.124a1.027,1.027,0,0,1,1.14-.849l12.235,0a1.146,1.146,0,0,1,1.11.676c.131.366-.1,1.286-.7,1.287" transform="translate(-108.847 -93.433)" fill="#7b1a8a"/>
        <path id="Path_1005903" data-name="Path 1005903" d="M146.5,92.347l-13.027.011c-.478,0-.824-.639-.8-1.014a1.042,1.042,0,0,1,.982-.946l12.407-.006a1.165,1.165,0,0,1,1.086.627c.172.355-.023,1.327-.653,1.328" transform="translate(-108.818 -74.139)" fill="#7b1a8a"/>
        <path id="Path_1005904" data-name="Path 1005904" d="M142.558,68.809l-8.877-.007a1.1,1.1,0,0,1-1-.964,1.035,1.035,0,0,1,1.152-1.04l8.833.007a1.019,1.019,0,0,1,1,1.01,1.054,1.054,0,0,1-1.1.995" transform="translate(-108.821 -54.787)" fill="#7b1a8a"/>
        <path id="Path_1005905" data-name="Path 1005905" d="M214.42,205.368a9.067,9.067,0,1,1-9.067-9.067,9.067,9.067,0,0,1,9.067,9.067m-1.982,0a7.078,7.078,0,1,0-7.078,7.078,7.078,7.078,0,0,0,7.078-7.078" transform="translate(-160.993 -161.005)" fill="#7b1a8a"/>
        <path id="Path_1005906" data-name="Path 1005906" d="M225.683,235.787l-2.806-2.795a1.3,1.3,0,0,1-.118-1.193c.161-.333,1.06-.648,1.344-.371l2.16,2.1,3.378-3.371a1.043,1.043,0,0,1,1.4-.008,1.092,1.092,0,0,1,.02,1.414l-4.163,4.161a1.12,1.12,0,0,1-1.22.059" transform="translate(-182.632 -188.55)" fill="#7b1a8a"/>
      </g>
    </g>
  </g>
</svg>
