<svg xmlns="http://www.w3.org/2000/svg" xmlns:xlink="http://www.w3.org/1999/xlink" width="128" height="128" viewBox="0 0 128 128">
  <defs>
    <clipPath id="clip-path">
      <rect id="Rectangle_459404" data-name="Rectangle 459404" width="82.364" height="67.945" fill="#fff"/>
    </clipPath>
  </defs>
  <g id="img13" transform="translate(-383.746 -8400)">
    <circle id="Ellipse_13609" data-name="Ellipse 13609" cx="64" cy="64" r="64" transform="translate(383.746 8400)" fill="#a82909"/>
    <g id="Group_1099776" data-name="Group 1099776" transform="translate(407.746 8424)">
      <g id="Group_1099618" data-name="Group 1099618" transform="translate(1.711 0.278)">
        <rect id="Rectangle_401104" data-name="Rectangle 401104" width="79.17" height="80.124" transform="translate(0)" fill="none"/>
      </g>
      <g id="Group_1184402" data-name="Group 1184402" transform="translate(-0.289 6.279)">
        <g id="Group_1184401" data-name="Group 1184401" clip-path="url(#clip-path)">
          <path id="Path_1005464" data-name="Path 1005464" d="M169.692,109.59a10.869,10.869,0,0,0,.684,1.366,1.663,1.663,0,0,1,.142.334l.911,2.647-10.127.246a47.922,47.922,0,0,0,8.389-4.593m1.033-3.754a48.685,48.685,0,0,1-13.434,7.26l1.3,3.743,15.887-.385-2.14-6.219a4.447,4.447,0,0,0-.386-.862,10.6,10.6,0,0,1-1.231-3.536" transform="translate(-94.513 -51.019)" fill="#fff"/>
          <path id="Path_1005465" data-name="Path 1005465" d="M125.227,63.468a4.816,4.816,0,0,1-1.962.449h-.091a8.263,8.263,0,0,1-.142,2.038l3.066-.131c-.27-.7-.6-1.507-.871-2.356" transform="translate(-73.927 -30.595)" fill="#fff"/>
          <path id="Path_1005466" data-name="Path 1005466" d="M85.3,2.595l1.936,4.989,4.823,12.932L97.3,34.483l.026.066c.088.219.19.464.3.73.276.663.588,1.413.872,2.2l1.951,5.913c-2.748,2.07-7.162,3.04-10.016,3.542l-5.242-13.9-.2-.513c-.215-.549-.436-1.117-.616-1.681-.954-2.993-2.321-6.478-3.526-9.554-.469-1.194-.911-2.323-1.3-3.343-.051-.136-.1-.263-.141-.38-.743-2.02-1.538-3.046-3.822-3.046-.673,0-1.557.07-2.827.178-1.24.105-2.112,1.114-2.591,3-.014.053-.026.105-.039.153l-4.868,12.5c-1.957.1-3.654.142-5.267.142-2,0-3.856-.073-5.606-.221l3.422-9.059,4.123-10.368,3.2-8.188ZM86.526,0,63.906.074l-3.748,9.6L56.033,20.052,51.319,32.528a61.653,61.653,0,0,0,8.68.558c2.175,0,4.353-.084,6.52-.207l5.413-13.895c.205-.516.264-1.638.962-1.7,1.223-.1,2.079-.172,2.7-.172,1.6,0,1.6.461,2.174,1.981,1.4,3.681,3.485,8.709,4.77,12.742.271.848.6,1.652.872,2.356l5.865,15.549c4.523-.732,10.581-1.98,13.646-5.45l-2.594-7.864c-.43-1.206-.918-2.313-1.227-3.08L93.851,19.381,89.024,6.438Z" transform="translate(-30.837 0)" fill="#fff"/>
          <path id="Path_1005467" data-name="Path 1005467" d="M52.049,75.549,48.9,84.039c-1.6-.08-3.193-.09-4.748-.1-2.04-.012-4-.023-5.938-.18l2.69-7.041c.129-.335.269-.7.4-1.1l3.077.014h.024Zm3.187-2.625-10.847.121-4.651-.021a6.761,6.761,0,0,1-.615,2.537l-3.98,10.417c4.962.859,10.01.337,14.986.732Z" transform="translate(-21.117 -35.153)" fill="#fff"/>
          <path id="Path_1005468" data-name="Path 1005468" d="M106.622,35.043c-.618,0-1.476.069-2.7.172-.7.059-.757,1.181-.963,1.7a20.261,20.261,0,0,1,2.5-.154,21.613,21.613,0,0,1,3.338.266c-.577-1.52-.576-1.981-2.173-1.981" transform="translate(-61.868 -16.893)" fill="#fff"/>
          <path id="Path_1005469" data-name="Path 1005469" d="M101.634,55.435c1.619,0,2.936,1.71,2.936,3.811s-1.317,3.811-2.936,3.811S98.7,61.347,98.7,59.246s1.317-3.811,2.937-3.811m0-2.59c-2.724,0-4.932,2.866-4.932,6.4s2.208,6.4,4.932,6.4,4.932-2.866,4.932-6.4-2.208-6.4-4.932-6.4" transform="translate(-58.106 -25.474)" fill="#fff"/>
          <path id="Path_1005470" data-name="Path 1005470" d="M24.539,24.051,22.734,28.59c-7.042.763-14.264,2.325-16.6,7.348a5.68,5.68,0,0,0-.228,4.446,5.117,5.117,0,0,0,.253.562,14.8,14.8,0,0,1-2.922-2.178A4.246,4.246,0,0,1,2,35.931,3.674,3.674,0,0,1,2.84,33.4c4.473-5.395,14.009-7.735,21.7-9.353m3.585-3.367c-8.257,1.739-20.9,3.9-26.643,10.823a7.124,7.124,0,0,0,.553,9.324c3.793,3.738,10.9,5.955,15.389,5.976l4.651.021,10.007-.111a10.872,10.872,0,0,0,1.672-.148l3.847-.529a9.058,9.058,0,0,1-.2-2.305l-2.914.153c-2.167.122-4.344.206-6.52.206a61.581,61.581,0,0,1-8.68-.558c-4.9-.7-13.405-2.024-11.439-6.258,2.113-4.55,11-5.712,16.152-6.217ZM37.4,43.733h0Z" transform="translate(0 -9.971)" fill="#fff"/>
          <path id="Path_1005471" data-name="Path 1005471" d="M161.291,15.791c.815,0,1.63.005,2.4.012l-.391,8.823-8.408-.38-3.029-8.122c2.769-.228,5.789-.333,9.431-.333Zm0-2.59a103.308,103.308,0,0,0-12.5.636l4.827,12.943,11.561.523.623-14.063c-1.522-.022-3.022-.038-4.51-.038" transform="translate(-89.404 -6.364)" fill="#fff"/>
          <path id="Path_1005472" data-name="Path 1005472" d="M88.511,71.818a10.056,10.056,0,0,1,3.966,3.757,1.071,1.071,0,0,1,.089.9,14.893,14.893,0,0,1-5.141,6.63,46.289,46.289,0,0,1-12.949,6.98c-14.96,5.665-35.333,6.581-51.991,7.235l.372-11.333,3.513.1a56.536,56.536,0,0,0,9.147.555c1.937.011,3.939.023,5.869.176,2.14.17,4.642.256,7.435.256A158.119,158.119,0,0,0,71.739,85.4c5.395-.873,11.361-2.277,14.711-6.069,2.151-2.434,2.843-4.96,2.061-7.513m-6.859-5.33,1.156,3.082A4.846,4.846,0,0,1,86.6,72.588c.707,2.005-.457,3.659-1.457,4.79-3.065,3.47-9.123,4.718-13.646,5.45a156.165,156.165,0,0,1-22.67,1.653c-2.657,0-5.151-.079-7.313-.251-4.976-.395-10.024.127-14.986-.732l-5.575-.152L20.4,100c17.157-.673,38.779-1.418,54.636-7.422A48.7,48.7,0,0,0,88.47,85.315a17.369,17.369,0,0,0,5.917-7.776c1.81-5.228-7.25-10.148-12.735-11.051" transform="translate(-12.259 -32.051)" fill="#fff"/>
        </g>
      </g>
    </g>
  </g>
</svg>
