<svg xmlns="http://www.w3.org/2000/svg" xmlns:xlink="http://www.w3.org/1999/xlink" width="128" height="128" viewBox="0 0 128 128">
  <defs>
    <clipPath id="clip-path">
      <rect id="Rectangle_459405" data-name="Rectangle 459405" width="78.766" height="96.858" fill="#fff"/>
    </clipPath>
  </defs>
  <g id="img12" transform="translate(-383.457 -8400.278)">
    <path id="Path_997401" data-name="Path 997401" d="M64,0A64,64,0,1,1,0,64,64,64,0,0,1,64,0Z" transform="translate(383.457 8400.278)" fill="#a82909"/>
    <g id="Group_1099776" data-name="Group 1099776" transform="translate(403.457 8472)">
      <g id="Group_1099618" data-name="Group 1099618" transform="translate(0 -40.238)">
        <rect id="Rectangle_401104" data-name="Rectangle 401104" width="21.999" height="22.264" transform="translate(0)" fill="none"/>
      </g>
      <g id="Group_1184404" data-name="Group 1184404" transform="translate(8.534 -55.722)">
        <g id="Group_1184403" data-name="Group 1184403" clip-path="url(#clip-path)">
          <path id="Path_1005473" data-name="Path 1005473" d="M67.611,82.044,40.111,96.68a2.284,2.284,0,0,1-1.74.012L11.242,82.105A20.955,20.955,0,0,1,.107,64.139L0,10.553A1.482,1.482,0,0,1,1.749,9.125,40.081,40.081,0,0,0,29.235,6.652,29.6,29.6,0,0,0,37.778.738,1.777,1.777,0,0,1,40.557.61c9.55,9.092,23.8,11.811,36.468,8.5a1.51,1.51,0,0,1,1.741,1.437l-.113,53.589a20.772,20.772,0,0,1-11.042,17.9M65.2,80A19.049,19.049,0,0,0,75.732,62.989v-50.4c-13.056,2.55-26.4-.261-36.487-9C29.4,12.441,15.93,15.1,3.031,12.584l0,50.127C2.939,70.27,7.127,76.58,13.655,80.06L39.235,93.7Z" transform="translate(0 0)" fill="#fff"/>
          <path id="Path_1005474" data-name="Path 1005474" d="M78.441,95.093a12.951,12.951,0,0,0,6.99-11.461l-.007-32.45a1.538,1.538,0,0,1,1.38-1.69c.978-.088,1.645.575,1.644,1.689l-.023,32.5a15.366,15.366,0,0,1-7.875,13.629L56.3,110.252a2.494,2.494,0,0,1-2.635-.012L29.677,97.307A15.381,15.381,0,0,1,21.8,83.665l-.014-45.251a1.511,1.511,0,0,1,1.8-1.447,44.672,44.672,0,0,0,29.835-7.6c.615-.431,1.562-1.1,2.284-.591a45.964,45.964,0,0,0,30.941,8.177,1.566,1.566,0,0,1,1.819,1.521l-.01,6.472a1.749,1.749,0,0,1-1.413,1.36,1.593,1.593,0,0,1-1.6-1.48l-.031-4.692a48.92,48.92,0,0,1-30.359-8.169A48.15,48.15,0,0,1,24.8,40.119v43.5a12.947,12.947,0,0,0,6.9,11.42l23.284,12.446Z" transform="translate(-15.733 -20.65)" fill="#fff"/>
          <path id="Path_1005475" data-name="Path 1005475" d="M80.877,173.743c.234.663.084,2.1-.738,2.106l-7.066.071a1.18,1.18,0,0,1-1.152-1.1l0-17.852c0-.488.46-1.119.938-1.117l7.513.037a2.389,2.389,0,0,1,.548,2.182l2.645,0a10.84,10.84,0,0,1,5.274-5.148,6.185,6.185,0,0,0,3.5-4.945,3.705,3.705,0,0,1,7.245-.759c1.317,3.56-.345,7.757-2.7,10.856l10.321.023a3.269,3.269,0,0,1,2.732,2.275,3.328,3.328,0,0,1-1.346,3.834,3.549,3.549,0,0,1-1.12,4.547,3.349,3.349,0,0,1-1.147,4.411,3.427,3.427,0,0,1-3.051,5.083l-13.706,0-5.653-4.515Zm24.273-2.427c.369-.038.552-1.058.4-1.357-.511-1.03-1.974-.392-2.2-1.743a1.292,1.292,0,0,1,.841-1.14l1.62-.109a1.257,1.257,0,0,0,.957-1.146c-.14-1.52-2.646-.654-2.2-2.469.355-1.456,2.333-.207,3.158-1.362a1.376,1.376,0,0,0-.4-1.645l-12.878-.025a1.375,1.375,0,0,1-1.171-.776,1.431,1.431,0,0,1,.462-1.332c5.8-6.137,4.383-11.772,2.084-11.4-2.167.355-.326,5.3-5.989,8.1-4.608,2.28-3.953,5.4-5.635,5.406l-3.251.011.006,11.149,3.753.008,5.636,4.5,12.951,0a1.205,1.205,0,0,0,1.21-1.154c.017-1.442-2.263-.765-2.234-2.242a1.234,1.234,0,0,1,1.223-1.107ZM78.706,158.083H74.167v15.576h4.539Z" transform="translate(-51.934 -101.587)" fill="#fff"/>
          <path id="Path_1005476" data-name="Path 1005476" d="M51.692,97.638a6.564,6.564,0,0,1-2.989-.607,4.241,4.241,0,0,1-1.808-1.679,5.754,5.754,0,0,1-.718-2.487l2.565-.546A7.337,7.337,0,0,0,49.088,94a2.871,2.871,0,0,0,.885,1.325,2.6,2.6,0,0,0,1.719.516,2.557,2.557,0,0,0,1.706-.5,1.776,1.776,0,0,0,.577-1.426,2.5,2.5,0,0,0-.641-1.79,10.814,10.814,0,0,0-1.616-1.365l-3.489-2.427a4.941,4.941,0,0,1-1.514-1.547,4.067,4.067,0,0,1-.488-2.073,3.3,3.3,0,0,1,1.309-2.791,5.776,5.776,0,0,1,3.566-.991,8.352,8.352,0,0,1,2.168.253,4.05,4.05,0,0,1,1.565.779,3.783,3.783,0,0,1,1,1.325,6.165,6.165,0,0,1,.5,1.871l-2.463.526a6.489,6.489,0,0,0-.308-1.486,2.18,2.18,0,0,0-.808-1.092,2.815,2.815,0,0,0-1.655-.414,2.735,2.735,0,0,0-1.68.455,1.58,1.58,0,0,0-.6,1.345,2.192,2.192,0,0,0,.321,1.234,3.95,3.95,0,0,0,1.039.991l3.515,2.427a9.616,9.616,0,0,1,2.078,1.931,4.13,4.13,0,0,1,.9,2.659,3.455,3.455,0,0,1-.642,2.093,4.035,4.035,0,0,1-1.757,1.345,6.66,6.66,0,0,1-2.578.465" transform="translate(-33.345 -58.444)" fill="#fff"/>
          <path id="Path_1005477" data-name="Path 1005477" d="M96.375,97.638a7.382,7.382,0,0,1-3.361-.647,3.8,3.8,0,0,1-1.8-1.851,6.853,6.853,0,0,1-.539-2.821V86.111a6.436,6.436,0,0,1,.552-2.781,3.76,3.76,0,0,1,1.8-1.78,7.612,7.612,0,0,1,3.348-.617,7.425,7.425,0,0,1,3.335.627,3.828,3.828,0,0,1,1.783,1.78,6.373,6.373,0,0,1,.552,2.771V92.34a6.594,6.594,0,0,1-.552,2.791,3.938,3.938,0,0,1-1.783,1.85,7.126,7.126,0,0,1-3.335.657m0-1.8a3.288,3.288,0,0,0,1.744-.374,1.836,1.836,0,0,0,.8-1.051,5.5,5.5,0,0,0,.205-1.587V85.646a5.294,5.294,0,0,0-.205-1.567,1.753,1.753,0,0,0-.8-1.011,3.45,3.45,0,0,0-1.744-.354,3.527,3.527,0,0,0-1.758.354,1.738,1.738,0,0,0-.808,1.011,5.275,5.275,0,0,0-.205,1.567v7.179a5.481,5.481,0,0,0,.205,1.587,1.818,1.818,0,0,0,.808,1.051,3.36,3.36,0,0,0,1.758.374" transform="translate(-65.482 -58.445)" fill="#fff"/>
          <path id="Path_1005478" data-name="Path 1005478" d="M145.782,97.659A6.345,6.345,0,0,1,142.665,97a3.829,3.829,0,0,1-1.694-1.911,7.773,7.773,0,0,1-.526-3.013V86.6a8.743,8.743,0,0,1,.475-3.064,3.581,3.581,0,0,1,1.694-1.931,7.15,7.15,0,0,1,3.4-.667,8.028,8.028,0,0,1,3.143.516,3.351,3.351,0,0,1,1.732,1.577,5.894,5.894,0,0,1,.539,2.679v.607h-2.719v-.505a7.055,7.055,0,0,0-.179-1.749,1.613,1.613,0,0,0-.732-1.011,3.454,3.454,0,0,0-1.732-.334,2.97,2.97,0,0,0-1.86.465,2.01,2.01,0,0,0-.719,1.264,10.491,10.491,0,0,0-.141,1.81V92.32a7.489,7.489,0,0,0,.218,1.962,1.921,1.921,0,0,0,.834,1.173,3.3,3.3,0,0,0,1.744.384,3.049,3.049,0,0,0,1.744-.425,2.161,2.161,0,0,0,.847-1.254,7.8,7.8,0,0,0,.231-2.063V90.965h-2.643V89.347h5.259v8.109h-1.821l-.282-1.881a3.533,3.533,0,0,1-1.283,1.5,4.283,4.283,0,0,1-2.412.587" transform="translate(-101.42 -58.445)" fill="#fff"/>
          <path id="Path_1005479" data-name="Path 1005479" d="M195.434,97.638a6.707,6.707,0,0,1-3.425-.728,3.866,3.866,0,0,1-1.693-1.962,7.6,7.6,0,0,1-.475-2.75V86.414a8.033,8.033,0,0,1,.475-2.892,3.636,3.636,0,0,1,1.693-1.911,7.125,7.125,0,0,1,3.425-.678,7.042,7.042,0,0,1,3.092.566,3.44,3.44,0,0,1,1.642,1.618,5.848,5.848,0,0,1,.5,2.528v1.294h-2.745V85.787a9.94,9.94,0,0,0-.116-1.608,1.623,1.623,0,0,0-.629-1.082,2.938,2.938,0,0,0-1.719-.384,3.068,3.068,0,0,0-1.8.415,1.9,1.9,0,0,0-.732,1.173,8.314,8.314,0,0,0-.166,1.769v6.492a5.966,5.966,0,0,0,.256,1.952,1.749,1.749,0,0,0,.846,1.021,3.506,3.506,0,0,0,1.591.3,2.715,2.715,0,0,0,1.694-.415,1.818,1.818,0,0,0,.641-1.143,9.921,9.921,0,0,0,.128-1.7V91.368h2.745v1.213a7,7,0,0,1-.462,2.639A3.52,3.52,0,0,1,198.616,97a6.543,6.543,0,0,1-3.182.637" transform="translate(-137.09 -58.444)" fill="#fff"/>
        </g>
      </g>
    </g>
  </g>
</svg>
