<svg xmlns="http://www.w3.org/2000/svg" xmlns:xlink="http://www.w3.org/1999/xlink" width="96" height="96" viewBox="0 0 96 96">
  <defs>
    <clipPath id="clip-path">
      <rect id="Rectangle_459279" data-name="Rectangle 459279" width="58" height="58" fill="#7b1a8a"/>
    </clipPath>
  </defs>
  <g id="img15" transform="translate(-793.75 -2919.729)">
    <path id="Elipse_5729" data-name="Elipse 5729" d="M48,0A48,48,0,1,1,0,48,48,48,0,0,1,48,0Z" transform="translate(793.75 2919.729)" fill="#f7ceff"/>
    <g id="Group_1184340" data-name="Group 1184340" transform="translate(812.75 2938.729)">
      <g id="Group_1184339" data-name="Group 1184339" clip-path="url(#clip-path)">
        <path id="Path_1005226" data-name="Path 1005226" d="M3.486,39.143c.883,1.1-1.763,1.9-1.789,4.721l-.041,4.313,4.164,0L5.825,45.3a.921.921,0,0,1,.856-.833.924.924,0,0,1,.846.884l0,10.506,12.292,0a5.426,5.426,0,0,1,2.273-3.621l0-6.57-1.5-.01a1.484,1.484,0,0,1-1.52-1.478l.013-2.472a1.521,1.521,0,0,1,1.672-1.455l1.316,0,.2-1.21-15.5,0a.862.862,0,0,1-.879-.72.819.819,0,0,1,.85-.917l3.588-.025.006-3.57a6.065,6.065,0,0,1-4.052-5.59L4.93,28.2a1.59,1.59,0,0,1-1.6-1.509l-.039-3.468A2.126,2.126,0,0,1,4.1,21.553l.034-5.441c.014-2.289,1.86-4.677,4.263-4.7l11.338-.1c-2.1-2.273-2.393-6.522-.864-6.369a.845.845,0,0,1,.779.982,5.079,5.079,0,0,0,1.272,4.146l7.312,7.344a.833.833,0,0,0,1.057,0l7.293-7.352a4.914,4.914,0,0,0-.117-6.879A4.939,4.939,0,0,0,29.557,3,1.018,1.018,0,0,1,27.978,3a4.959,4.959,0,0,0-6.712-.028,1.018,1.018,0,0,1-1.145-.105.959.959,0,0,1,.118-1.251,6.755,6.755,0,0,1,8.521-.2A6.7,6.7,0,0,1,37.7,11.362l9.451.048c3.416.018,5.955,3.076,6.241,6.361l.043,3.78a2.222,2.222,0,0,1,.8,1.494l0,3.827a4.718,4.718,0,0,1-.815,1.191L53.409,37.9a6.749,6.749,0,0,1,4.121,6.273l0,10.716a2.6,2.6,0,0,1-2.641,2.643H41.053a1.072,1.072,0,0,1-.832-.617c-.1-.272.137-1.041.506-1.042L50,55.856l.009-10.642c0-.371.549-.771.836-.76a.946.946,0,0,1,.86.846l.006,2.877,4.15.011,0-4.029A4.969,4.969,0,0,0,51.1,39.087l-3.951-.029a4.507,4.507,0,0,1-8.848,0l-3.062-.01.223,1.2,1.608.036a1.442,1.442,0,0,1,1.374,1.411l.027,2.332a1.5,1.5,0,0,1-1.388,1.612l-1.641.038,0,6.567c2.3,1.572,3.15,5.292,1.448,5.292H2.661A2.6,2.6,0,0,1,0,54.888L.01,44c0-3.047,2.522-6.041,3.475-4.86M20.328,18.95l2.4,2.341,1.076.05-.025-6.009-1.9-1.962a2.016,2.016,0,0,0-1.1-.393L8.9,13a3.189,3.189,0,0,0-3.086,3.16l-.029,5.09c.6.339,1.112,0,1.532-.4L9.3,18.972a2.849,2.849,0,0,1,1.609-.619l7.722,0a2.934,2.934,0,0,1,1.7.6m20.861-.206c2.991,2.144,6.858,2.74,10.536,2.628l.017-2.92a5.346,5.346,0,0,0-5.421-5.476L38.888,13a5.15,5.15,0,0,0-5.123,4.941l-.018,3.445A4.381,4.381,0,0,0,37.5,19.4a2.48,2.48,0,0,1,3.685-.651M19.28,33.834l.007,3.576,3.939-.018a5.031,5.031,0,0,1,2.832-1.582,42.236,42.236,0,0,1,5.993.027l-.02-7.908a1.694,1.694,0,0,1-.817-1.388l.021-3.778c0-.34.491-.9.779-1.2l.086-4.593-1.913,1.865a2.212,2.212,0,0,1-2.83,0L25.5,17.064l-.006,4.513a2.154,2.154,0,0,1,.82,1.333L26.3,26.674a1.694,1.694,0,0,1-1.71,1.544l-1.284.035a6.047,6.047,0,0,1-4.024,5.58m26.149-1.387a4.357,4.357,0,0,0,4.152-4.425l.011-4.985A17.457,17.457,0,0,1,40.4,20.256a1.811,1.811,0,0,0-.9-.355c-.223.032-.513.364-.7.607a8.322,8.322,0,0,1-2.9,2.268c0,1.985-.089,3.9.059,5.9a4.251,4.251,0,0,0,3.911,3.762c1.877.088,3.6.081,5.554.005m-27.993.02a4.267,4.267,0,0,0,4.175-4.1l.048-5.829-2.668-2.474-8.437.007L7.935,22.608l.017,5.415A4.354,4.354,0,0,0,12.2,32.465ZM6.278,23.047H4.994v3.512H6.278Zm18.33,0H23.332v3.511h1.276Zm9.594,0H32.926v3.508H34.2Zm18.339,0H51.256v3.506h1.285ZM38.255,37.4l-.015-3.581a5.977,5.977,0,0,1-4-5.468l-.5-.061-.007,8.161a.952.952,0,0,0,.864.955Zm13.487.007,0-9.178-.5.1A6.011,6.011,0,0,1,47.195,33.8L47.22,37.4ZM12,34.139,12,37.4l5.6,0,0-3.264Zm33.519,4.042,0-4.036H39.921l.033,4.252a2.788,2.788,0,0,0,5.57-.217M30.273,48.318a3.488,3.488,0,0,0,3.48-3.65l-.043-4.39A3.078,3.078,0,0,0,30.524,37.4H27.01a3.052,3.052,0,0,0-3.186,2.852l0,4.885a3.271,3.271,0,0,0,3.021,3.134Zm-8.181-6.367H20.737v2.042h1.355Zm13.351,0,0,2.042H36.8l0-2.042ZM25.3,51.288,25.214,49.7,23.78,48.654l.025,2.812Zm7.005.051,1.43.11.006-2.813-1.453,1.041ZM5.829,55.86l0-5.95-4.168.008,0,4.97a1.015,1.015,0,0,0,.975.977Zm24.736-5.868h-3.6v1.349h3.6Zm25.32,4.831-.024-4.912-4.157,0,.006,5.955,3.35-.017c.4,0,.828-.556.826-1.028m-19.9,1.035a3.521,3.521,0,0,0-3.175-2.809l-8.087.032a3.412,3.412,0,0,0-3.17,2.776Z" transform="translate(0 0)" fill="#7b1a8a"/>
        <path id="Path_1005227" data-name="Path 1005227" d="M156.476,38.656a.952.952,0,0,1-.855.979.961.961,0,0,1-.847-.919l.008-1.987-1.914.013a1.036,1.036,0,0,1-.951-.613c-.1-.286.159-1.011.451-1.019l2.4-.064V33.1a.929.929,0,0,1,.714-.939.862.862,0,0,1,.974.794l.019,2.108,2.243.012c.364,0,.682.563.628.9a.934.934,0,0,1-.983.762l-1.9-.014Z" transform="translate(-126.856 -26.853)" fill="#7b1a8a"/>
        <path id="Path_1005228" data-name="Path 1005228" d="M107.912,143.941c.564.133.629,1.678.22,2.138a1.127,1.127,0,0,1-1.1.08,1.8,1.8,0,0,1-.1-2.085,1.312,1.312,0,0,1,.972-.134" transform="translate(-89.075 -120.186)" fill="#7b1a8a"/>
        <path id="Path_1005229" data-name="Path 1005229" d="M63.759,143.927c.512.148.63,1.6.212,2.123a1.067,1.067,0,0,1-1.082.1,1.783,1.783,0,0,1-.1-2.1,1.252,1.252,0,0,1,.97-.123" transform="translate(-52.194 -120.167)" fill="#7b1a8a"/>
        <path id="Path_1005230" data-name="Path 1005230" d="M233.076,143.979c.552.123.7,1.6.223,2.14a1.118,1.118,0,0,1-1.1.072,1.911,1.911,0,0,1-.1-2.077,1.406,1.406,0,0,1,.97-.135" transform="translate(-193.628 -120.222)" fill="#7b1a8a"/>
        <path id="Path_1005231" data-name="Path 1005231" d="M277.261,143.909c.564.151.715,1.572.23,2.155a1.057,1.057,0,0,1-1.092.061,1.91,1.91,0,0,1-.087-2.058,1.236,1.236,0,0,1,.95-.157" transform="translate(-230.549 -120.163)" fill="#7b1a8a"/>
        <path id="Path_1005232" data-name="Path 1005232" d="M152.96,249.759c.569.181.624,1.7.217,2.161a1.13,1.13,0,0,1-1.094.081,1.865,1.865,0,0,1-.1-2.095,1.2,1.2,0,0,1,.978-.147" transform="translate(-126.703 -208.555)" fill="#7b1a8a"/>
        <path id="Path_1005233" data-name="Path 1005233" d="M188.066,249.762c.578.189.659,1.69.22,2.162a1.139,1.139,0,0,1-1.093.081,1.924,1.924,0,0,1-.1-2.09,1.231,1.231,0,0,1,.975-.153" transform="translate(-156.036 -208.56)" fill="#7b1a8a"/>
      </g>
    </g>
  </g>
</svg>
