<svg xmlns="http://www.w3.org/2000/svg" xmlns:xlink="http://www.w3.org/1999/xlink" width="96" height="96" viewBox="0 0 96 96">
  <defs>
    <clipPath id="clip-path">
      <rect id="Rectangle_459905" data-name="Rectangle 459905" width="60.422" height="60.428" fill="#7b1a8a"/>
    </clipPath>
  </defs>
  <g id="img13" transform="translate(-794.039 -2920.08)">
    <path id="Elipse_5729" data-name="Elipse 5729" d="M48,0A48,48,0,1,1,0,48,48,48,0,0,1,48,0Z" transform="translate(794.039 2920.081)" fill="#f7ceff"/>
    <g id="Group_1185204" data-name="Group 1185204" transform="translate(811.828 2937.866)">
      <g id="Group_1185203" data-name="Group 1185203" clip-path="url(#clip-path)">
        <path id="Path_1005907" data-name="Path 1005907" d="M187.56,205.405a29.177,29.177,0,0,1-12.99,6.024l1.206.585a1.173,1.173,0,0,1,.683,1.191c-.058.379-.734.948-1.18.742l-4.913-2.27a.979.979,0,0,1-.294-1.442l3.32-3.154a1.154,1.154,0,0,1,1.49-.183,1.067,1.067,0,0,1-.009,1.468l-1.171,1.182a26.285,26.285,0,0,0,12.446-5.509,5.137,5.137,0,0,1-1.1-1.32,2.067,2.067,0,0,1,.408-1.824l-1.61-1.535a6.9,6.9,0,1,1,1.677-1.857l1.678,1.7a1.57,1.57,0,0,1,2.07-.17l.964.857a26.183,26.183,0,0,0,4.676-9.329,1.132,1.132,0,0,1,1.045-.77c.384.022,1,.556.889,1.011a27.664,27.664,0,0,1-5.206,10.491l1.728,1.673a1.688,1.688,0,0,1,.006,2.486l-1.575,1.627a1.713,1.713,0,0,1-2.515-.019ZM184.6,193.88a4.965,4.965,0,1,0-4.965,4.965,4.965,4.965,0,0,0,4.965-4.965m3.784,6.914-1.336,1.372,3.5,3.4,1.336-1.372Z" transform="translate(-139.514 -153.562)" fill="#7b1a8a"/>
        <path id="Path_1005908" data-name="Path 1005908" d="M59.569,81.445A1.092,1.092,0,0,1,58.72,82.6a1.029,1.029,0,0,1-1.115-.9l0-22.107-21.955,0a1.123,1.123,0,0,1-1.061-.851,1.009,1.009,0,0,1,.9-1.113H57.6l0-21.966a.987.987,0,1,1,1.968,0l0,21.966H81.684a1.063,1.063,0,0,1,.913.966,1.075,1.075,0,0,1-1.076,1l-21.955,0Z" transform="translate(-28.397 -28.416)" fill="#7b1a8a"/>
        <path id="Path_1005909" data-name="Path 1005909" d="M89.354,77.061l-10.948.017a1.361,1.361,0,0,1-1.525-1.267V61.126a1.341,1.341,0,0,1,1.38-1.243l7.506.013,4.822,4.814.014,11a1.326,1.326,0,0,1-1.248,1.35M85.408,66.069c-.579,0-1.036-.776-1.039-1.271l-.021-2.983-5.519.018v13.3l9.812-.006,0-9.04Z" transform="translate(-63.143 -49.183)" fill="#7b1a8a"/>
        <path id="Path_1005910" data-name="Path 1005910" d="M189.943,77.888a6.888,6.888,0,0,1-3,.068c-.3-.056-.58-.705-.736-1.076a1.629,1.629,0,0,0-1.537-.645c-.486.2-1.239.416-1.546.109l-1.688-1.686c-.28-.28-.045-1.043.148-1.5a1.567,1.567,0,0,0-.69-1.563c-.7-.242-1.171-.612-1.144-1.383l.07-2.072c.013-.367.834-.709,1.2-.9a1.8,1.8,0,0,0,.593-1.422c-.083-.34-.5-1.161-.251-1.413l1.851-1.892c.267-.273,1.045-.018,1.427.147a1.646,1.646,0,0,0,1.524-.566c.665-1.374.792-1.366,3.56-1.165.366.026.683.809.846,1.157a1.769,1.769,0,0,0,1.412.6c.322-.063,1.155-.5,1.413-.254l1.932,1.873c.292.284-.058,1.132-.185,1.537a1.7,1.7,0,0,0,.573,1.395c.356.193,1.206.522,1.208.9l.017,2.6c0,.355-.688.7-1.088.856a1.584,1.584,0,0,0-.71,1.54c.332.72.437,1.332-.123,1.87l-1.413,1.356c-.289.277-1.128.03-1.526-.125a1.75,1.75,0,0,0-1.5.544c-.146.226-.376,1.009-.636,1.106m-.116-3.1,1.39-.576c1.073-.445,1.559.447,1.919-.1.316-.479-.39-.856-.044-1.695l.651-1.573c.469-1.134,1.306-.789,1.313-1.427.006-.567-.856-.267-1.323-1.39l-.6-1.448c-.415-1,.436-1.511-.085-1.923-.434-.342-.837.437-1.726.065l-1.716-.719c-.847-.355-.6-1.231-1.234-1.219-.617.011-.412.884-1.223,1.229l-1.467.626a2.093,2.093,0,0,1-1.556-.029c-.142-.081-.642.12-.6.269l.175.692a2.946,2.946,0,0,1-.418,1.8c-.239.553-.439,1.256-.966,1.5-.309.142-.624.342-.635.541-.034.626.885.352,1.32,1.407l.6,1.443c.456,1.107-.418,1.578.092,1.944.494.353.776-.428,1.825,0l1.453.6c1.134.467.755,1.275,1.4,1.32s.217-.821,1.463-1.337" transform="translate(-147.632 -49.96)" fill="#7b1a8a"/>
        <path id="Path_1005911" data-name="Path 1005911" d="M78.834,187.887a8.586,8.586,0,1,1-8.586-8.586,8.586,8.586,0,0,1,8.586,8.586m-1.967,0a6.625,6.625,0,1,0-6.625,6.625,6.625,6.625,0,0,0,6.625-6.625" transform="translate(-50.644 -147.264)" fill="#7b1a8a"/>
        <path id="Path_1005912" data-name="Path 1005912" d="M224.689,43.481c-.2.43-1.037.765-1.365.422L220.066,40.5a1.252,1.252,0,0,1-.26-1.405,1.114,1.114,0,0,1,1.343-.234l1.39,1.323a26.17,26.17,0,0,0-18.991-21.2,1.092,1.092,0,0,1-.763-1.032.978.978,0,0,1,1.178-.867A28.078,28.078,0,0,1,224.4,39.32l.67-1.335a1.19,1.19,0,0,1,1.248-.5c.34.1.79.752.614,1.134Z" transform="translate(-166.547 -14.002)" fill="#7b1a8a"/>
        <path id="Path_1005913" data-name="Path 1005913" d="M40.171,4.387a26.17,26.17,0,0,0-21.2,18.987,1.086,1.086,0,0,1-1.032.764.981.981,0,0,1-.869-1.179A28.079,28.079,0,0,1,39.311,2.53l-1.3-.68a.979.979,0,0,1-.458-1.4A1.054,1.054,0,0,1,38.856.1l4.658,2.176A.964.964,0,0,1,43.808,3.7L40.489,6.858a1.212,1.212,0,0,1-1.387.257,1.009,1.009,0,0,1-.166-1.445Z" transform="translate(-13.992 0)" fill="#7b1a8a"/>
        <path id="Path_1005914" data-name="Path 1005914" d="M23.28,194.831a1.062,1.062,0,0,1,.855,1.065.985.985,0,0,1-1.179.867A28.178,28.178,0,0,1,2.524,174.484l-.67,1.341a.992.992,0,0,1-1.406.455,1.061,1.061,0,0,1-.355-1.307L2.268,170.3c.17-.365,1.018-.7,1.328-.371l3.259,3.408a1.149,1.149,0,0,1,.183,1.486,1.05,1.05,0,0,1-1.468-.006l-1.184-1.165A26.129,26.129,0,0,0,23.28,194.831" transform="translate(0 -139.459)" fill="#7b1a8a"/>
        <path id="Path_1005915" data-name="Path 1005915" d="M100.543,115.381l-6.521-.019c-.366,0-.741-.623-.733-.938a1.043,1.043,0,0,1,.9-.985h6.128c.327,0,.8.538.818.838a1.391,1.391,0,0,1-.593,1.1" transform="translate(-76.62 -93.17)" fill="#7b1a8a"/>
        <path id="Path_1005916" data-name="Path 1005916" d="M100.265,98.866l-5.852.013a.978.978,0,0,1-1.071-.872.968.968,0,0,1,.966-1.082l5.965,0a1.116,1.116,0,0,1,.912.908,1.029,1.029,0,0,1-.921,1.031" transform="translate(-76.661 -79.607)" fill="#7b1a8a"/>
        <path id="Path_1005917" data-name="Path 1005917" d="M100.334,131.983l-5.9.018a1.1,1.1,0,0,1-1.1-.75c-.1-.432.174-1.189.7-1.192l6.122-.025a1.09,1.09,0,0,1,1.009.887c.054.34-.318,1.06-.834,1.062" transform="translate(-76.646 -106.8)" fill="#7b1a8a"/>
        <path id="Path_1005918" data-name="Path 1005918" d="M211.579,88.064a4.57,4.57,0,1,1-4.57-4.57,4.57,4.57,0,0,1,4.57,4.57m-1.959,0a2.613,2.613,0,1,0-2.613,2.613,2.613,2.613,0,0,0,2.613-2.613" transform="translate(-166.268 -68.575)" fill="#7b1a8a"/>
        <path id="Path_1005919" data-name="Path 1005919" d="M87.936,215.882l-1.973-2.024c-.206-.211-.077-.9.135-1.127.228-.239.947-.457,1.189-.225l1.5,1.443,3.872-3.528a1.167,1.167,0,0,1,1.251-.225c.312.13.689,1.079.383,1.361l-4.639,4.266a1.168,1.168,0,0,1-1.722.058" transform="translate(-70.518 -172.565)" fill="#7b1a8a"/>
      </g>
    </g>
  </g>
</svg>
