<svg xmlns="http://www.w3.org/2000/svg" xmlns:xlink="http://www.w3.org/1999/xlink" width="96" height="96" viewBox="0 0 96 96">
  <defs>
    <clipPath id="clip-path">
      <rect id="Rectangle_459907" data-name="Rectangle 459907" width="59.766" height="59.889" fill="#7b1a8a"/>
    </clipPath>
  </defs>
  <g id="img11" transform="translate(-793.75 -2920.412)">
    <path id="Elipse_5729" data-name="Elipse 5729" d="M48,0A48,48,0,1,1,0,48,48,48,0,0,1,48,0Z" transform="translate(793.75 2920.413)" fill="#f7ceff"/>
    <g id="Group_1185208" data-name="Group 1185208" transform="translate(812.253 2937.913)">
      <g id="Group_1185207" data-name="Group 1185207" clip-path="url(#clip-path)">
        <path id="Path_1005943" data-name="Path 1005943" d="M58.344,18.989A3.077,3.077,0,0,1,58.093,21l-5.244,9.055c-.487.656-1.4,1.151-1.806,1.845l-5.29,9.085-.01,14.673a4.148,4.148,0,0,1-3.919,4.232L3.849,59.856C1.478,59.854,0,57.649,0,55.473L.009,9.823A4.136,4.136,0,0,1,4.168,5.686l7.951-.016A2.762,2.762,0,0,1,15.409,3.8l2.746.478A4.726,4.726,0,0,1,22.926,0a4.788,4.788,0,0,1,4.705,4.272l3.242-.5a2.617,2.617,0,0,1,2.788,1.89l8.011.026A4.1,4.1,0,0,1,45.74,9.809l.008,18.129a18.079,18.079,0,0,1,.56-1.805l5.285-9.19A2.219,2.219,0,0,1,53,16.028l1.3-2.148a2.025,2.025,0,0,1,2.689-.733l1.764,1.007a2.081,2.081,0,0,1,.679,2.947ZM32.115,9.868l.023-3.407a1.14,1.14,0,0,0-1.267-1.054L27,6.087c-.241.042-.751-.055-.817-.251l-.249-.729a3.076,3.076,0,0,0-3.024-3.471A3.13,3.13,0,0,0,19.817,5.1a1.3,1.3,0,0,1-.281.8,1.372,1.372,0,0,1-.8.187L14.8,5.406a1.1,1.1,0,0,0-1.168,1.1l.024,3.369ZM42.392,55.917c0,.279-.509.62-.759.62H4.206a.858.858,0,0,1-.834-.787V9.863a.779.779,0,0,1,.78-.793l7.816-.012.023-1.713-7.835.007A2.477,2.477,0,0,0,1.685,9.828l0,45.811A2.532,2.532,0,0,0,4.2,58.267H41.466a2.557,2.557,0,0,0,2.619-2.426V43.712L42.4,44.98ZM42.4,34.066l1.7-2.83-.01-21.418a2.493,2.493,0,0,0-2.588-2.471l-7.712,0,.011,1.725,7.709-.013a.856.856,0,0,1,.881.756ZM38.073,45.523l.853-5.3,1.81-3.118,0-26.424-6.884.013a1.114,1.114,0,0,1-1.084.891H12.9a.97.97,0,0,1-.939-.9H5.027V54.892l35.7,0V46.407l-1.565,1.32L38.154,49.38H30.138a.963.963,0,0,1-.772-.779c-.028-.312.306-.887.653-.888l7.264-.012a4.876,4.876,0,0,0,.79-2.179M56.949,18.079l1.266-2.256-2.287-1.377-1.384,2.277ZM50.277,30.254l1.294-1.323,5.2-9.006-3.729-2.131L47.9,26.674,47.34,28.53Zm-3.583-.193-5.886,10.2,2.614,1.508,5.886-10.2ZM42.248,42.984,40.331,41.85l-.45,3.054Z" transform="translate(0 -0.001)" fill="#7b1a8a"/>
        <path id="Path_1005944" data-name="Path 1005944" d="M177.192,95.111h-3.654a.913.913,0,0,1-.887-.925V79.008a.915.915,0,0,1,.735-.859l3.536-.021a.967.967,0,0,1,.964.917l0,15.126a1.123,1.123,0,0,1-.7.939m-1-15.282h-1.91V93.417h1.91Z" transform="translate(-142.542 -64.503)" fill="#7b1a8a"/>
        <path id="Path_1005945" data-name="Path 1005945" d="M101.84,111.846l-3.52.011a1.053,1.053,0,0,1-.917-.817V99.164a1.022,1.022,0,0,1,.781-.757l3.678,0a1.035,1.035,0,0,1,.786.752V111.04a1.058,1.058,0,0,1-.808.806m-.858-11.8H99.074V110.16h1.909Z" transform="translate(-80.417 -81.246)" fill="#7b1a8a"/>
        <path id="Path_1005946" data-name="Path 1005946" d="M175.5,191.089a5.19,5.19,0,1,1-5.19-5.19,5.19,5.19,0,0,1,5.19,5.19m-1.67,0a3.525,3.525,0,1,0-3.525,3.525,3.525,3.525,0,0,0,3.525-3.525" transform="translate(-136.324 -153.481)" fill="#7b1a8a"/>
        <path id="Path_1005947" data-name="Path 1005947" d="M111.867,191.1a5.188,5.188,0,1,1-5.188-5.189,5.188,5.188,0,0,1,5.188,5.189m-1.658,0a3.528,3.528,0,1,0-3.528,3.528,3.528,3.528,0,0,0,3.528-3.528" transform="translate(-83.791 -153.491)" fill="#7b1a8a"/>
        <path id="Path_1005948" data-name="Path 1005948" d="M48.248,191.122a5.186,5.186,0,1,1-5.186-5.186,5.186,5.186,0,0,1,5.186,5.186m-1.658,0a3.53,3.53,0,1,0-3.53,3.53,3.53,3.53,0,0,0,3.53-3.53" transform="translate(-31.271 -153.511)" fill="#7b1a8a"/>
        <path id="Path_1005949" data-name="Path 1005949" d="M139.467,123.318l-3.685-.008a.969.969,0,0,1-.817-.763l0-9.415a.985.985,0,0,1,.837-.845h3.538a.918.918,0,0,1,.857.843l0,9.441a1.124,1.124,0,0,1-.736.746m-.916-9.331H136.64v7.669h1.911Z" transform="translate(-111.429 -92.705)" fill="#7b1a8a"/>
        <path id="Path_1005950" data-name="Path 1005950" d="M64.409,139.4l-3.664-.017a.874.874,0,0,1-.848-.9v-5.8a.887.887,0,0,1,.852-.923l3.556,0a.96.96,0,0,1,.828.747l.007,6.153a1.25,1.25,0,0,1-.729.739m-.959-5.954H61.544V137.7H63.45Z" transform="translate(-49.451 -108.783)" fill="#7b1a8a"/>
        <path id="Path_1005951" data-name="Path 1005951" d="M49.364,275.247H41.612a1.514,1.514,0,0,1-.709-.8.967.967,0,0,1,.744-.878l7.763,0a1.039,1.039,0,0,1,.773.734.922.922,0,0,1-.818.94" transform="translate(-33.765 -225.866)" fill="#7b1a8a"/>
        <path id="Path_1005952" data-name="Path 1005952" d="M113.261,275.222l-7.606.012a.89.89,0,0,1-.892-.777.871.871,0,0,1,.928-.9l7.458,0a1.02,1.02,0,0,1,.864.751c.056.288-.33.918-.752.919" transform="translate(-86.493 -225.849)" fill="#7b1a8a"/>
        <path id="Path_1005953" data-name="Path 1005953" d="M56.438,256.327H52.625a.921.921,0,0,1-.88-.784.943.943,0,0,1,.762-.869l3.951-.006a.993.993,0,0,1,.807.693.882.882,0,0,1-.827.966" transform="translate(-42.721 -210.257)" fill="#7b1a8a"/>
        <path id="Path_1005954" data-name="Path 1005954" d="M120.134,256.313l-3.716.013a.9.9,0,0,1-.917-.787.845.845,0,0,1,.808-.882l3.941.01a.954.954,0,0,1,.753.855.929.929,0,0,1-.869.79" transform="translate(-95.358 -210.249)" fill="#7b1a8a"/>
        <path id="Path_1005955" data-name="Path 1005955" d="M183.823,256.317l-3.9,0a.917.917,0,0,1-.811-.778.879.879,0,0,1,.884-.879l3.757,0a.829.829,0,0,1,.066,1.657" transform="translate(-147.879 -210.251)" fill="#7b1a8a"/>
        <path id="Path_1005956" data-name="Path 1005956" d="M126.858,20.405a1.168,1.168,0,1,1-1.168-1.168,1.168,1.168,0,0,1,1.168,1.168" transform="translate(-102.807 -15.882)" fill="#7b1a8a"/>
        <path id="Path_1005957" data-name="Path 1005957" d="M181.014,207.437l-.967-1.834c-.163-.309.429-.947.758-.94.5.011.855.354,1.147,1.062l1.867-1.832a.861.861,0,0,1,1.156.082.888.888,0,0,1-.1,1.164l-2.385,2.384a1.888,1.888,0,0,1-.652.367,1.075,1.075,0,0,1-.82-.454" transform="translate(-148.627 -168.184)" fill="#7b1a8a"/>
        <path id="Path_1005958" data-name="Path 1005958" d="M118.919,207.7c-.92.934-1.768-.5-2.4-2.116-.134-.345.494-.891.817-.834.46.082.766.351,1.063,1.029l1.827-1.786a.989.989,0,0,1,1.084-.039.9.9,0,0,1,.157,1.156Z" transform="translate(-96.188 -168.266)" fill="#7b1a8a"/>
        <path id="Path_1005959" data-name="Path 1005959" d="M58.463,205.451a.98.98,0,0,1,.111,1.234.931.931,0,0,1-1.278-.019l-.887-.9-1.117,1.045a1.021,1.021,0,0,1-.992-.056c-.215-.176-.373-.838-.164-1.052l1.081-1.106-1.09-1.139c-.225-.235-.009-.962.268-1.11a1.019,1.019,0,0,1,1.17.216l.839.855.988-1.005a1.028,1.028,0,0,1,1.092-.027.966.966,0,0,1,.152,1.091L57.569,204.6Z" transform="translate(-44.61 -166.97)" fill="#7b1a8a"/>
      </g>
    </g>
  </g>
</svg>
