<svg xmlns="http://www.w3.org/2000/svg" xmlns:xlink="http://www.w3.org/1999/xlink" width="96" height="96" viewBox="0 0 96 96">
  <defs>
    <clipPath id="clip-path">
      <rect id="Rectangle_459275" data-name="Rectangle 459275" width="58" height="58" fill="#893695"/>
    </clipPath>
  </defs>
  <g id="img11" transform="translate(-793.75 -2919.729)">
    <path id="Elipse_5729" data-name="Elipse 5729" d="M48,0A48,48,0,1,1,0,48,48,48,0,0,1,48,0Z" transform="translate(793.75 2919.729)" fill="#f7ceff"/>
    <g id="Group_1184332" data-name="Group 1184332" transform="translate(812.75 2938.729)">
      <g id="Group_1184331" data-name="Group 1184331" clip-path="url(#clip-path)">
        <path id="Path_1005197" data-name="Path 1005197" d="M78.7,37.675c-5.494-2.641-12.006-8.238-9.766-14.9l-8.2-.013a.9.9,0,0,1-.829-.829l.029-7.463a4.714,4.714,0,0,1,4.441-4.564,7.125,7.125,0,0,1-1.006-5.18,4.327,4.327,0,0,1,8.527.441A7.044,7.044,0,0,1,70.779,9.9l1.58.346a7.782,7.782,0,0,1,2.968-1.047,8.345,8.345,0,0,1-1.266-3.631,4.681,4.681,0,1,1,9.207-.075,7.978,7.978,0,0,1-1.333,3.73,5.668,5.668,0,0,1,2.957,1.054l1.588-.383A7.45,7.45,0,0,1,85.4,5.2a4.329,4.329,0,0,1,8.626.169A7.49,7.49,0,0,1,92.9,9.913c2.18.18,4.379,1.825,4.4,4.237l.066,7.614a.911.911,0,0,1-1,1.008l-8.039,0c1.328,3.636-.3,7.215-2.767,9.87A25.518,25.518,0,0,1,78.7,37.675M81.629,5.029a3.014,3.014,0,1,0-5.994,0c.112,2.073,1.175,4.161,3,4.178,1.787.017,2.886-2.09,3-4.178M70.282,6.411a2.846,2.846,0,0,0-2.8-3.384,2.884,2.884,0,0,0-2.608,3.54c.34,1.845,1.111,3.387,2.782,3.34,1.547-.043,2.357-1.675,2.623-3.5M91.338,9.117a5.111,5.111,0,0,0,1.05-2.551A2.885,2.885,0,0,0,89.78,3.026a2.846,2.846,0,0,0-2.8,3.385,5.524,5.524,0,0,0,.944,2.573,2.129,2.129,0,0,0,3.412.134m-9.531,9.554.023-4.05c0-.3.649-.628.919-.559a1.062,1.062,0,0,1,.67.906l.009,3.6,1.777.509-.072-5.265a3.173,3.173,0,0,0-3.165-2.862H75.3a3.209,3.209,0,0,0-3.191,3.008L72.067,19.1l1.78-.539-.007-3.6a1.078,1.078,0,0,1,.675-.9c.27-.069.913.258.915.564l.035,4.07a5.9,5.9,0,0,1,3.177,2.255,6.135,6.135,0,0,1,3.165-2.278M65.237,21.049l4.566.012.678-.906-.017-6.049a6.7,6.7,0,0,1,.622-2.488l-6.612.014a2.954,2.954,0,0,0-2.886,2.649l-.05,6.766,2.075.005.008-4.84c0-.386.6-.707.924-.647a.946.946,0,0,1,.687.825Zm28.417-4.564-.008,4.566,2.08,0L95.7,14.438a2.943,2.943,0,0,0-2.758-2.783l-6.752-.049A7.032,7.032,0,0,1,86.8,14.3l.007,5.832c0,.3.57.92.852.92l4.348-.005.017-4.647a.859.859,0,0,1,.823-.842.882.882,0,0,1,.8.931M85.68,21.562a3.453,3.453,0,0,0-4.582-.689,15.666,15.666,0,0,0-1.878,1.959c-.938,1.032-1.588-.844-3.051-1.958a3.476,3.476,0,0,0-4.629.734,5.516,5.516,0,0,0-1.408,4.473c.586,4.43,4.811,7.676,8.526,9.679,3.688-2.015,8.043-5.463,8.468-9.68a5.451,5.451,0,0,0-1.445-4.519" transform="translate(-49.63 0)" fill="#893695"/>
        <path id="Path_1005198" data-name="Path 1005198" d="M212.523,67.454a1.9,1.9,0,0,0-1.123-2.278,1.873,1.873,0,0,0-2.167,1.015l-6.145,15.624a13.467,13.467,0,0,0-.789,5.836l.594,8.932a.936.936,0,0,1-.641.9.878.878,0,0,1-.988-.726l-.591-9.278a14.659,14.659,0,0,1,.905-6.349l6.046-15.39a3.483,3.483,0,0,1,4.473-2.1,3.415,3.415,0,0,1,2.076,3.691l-.455,2.79,3.34-4.684.746-12.851a4.855,4.855,0,0,1,4.243-4.5,1.819,1.819,0,0,1,2.171,1.686l.007,19.094a114.977,114.977,0,0,1-10.01,22.04l.693,5.681a.873.873,0,0,1-.812.915.936.936,0,0,1-.825-.882l-.751-6.039a113.975,113.975,0,0,0,10.089-22V49.807a3.206,3.206,0,0,0-3.213,3.178l-.742,13.062-5.9,8.395-1.283,5.94a.85.85,0,0,1-.949.663.89.89,0,0,1-.632-1.056Z" transform="translate(-166.226 -39.506)" fill="#893695"/>
        <path id="Path_1005199" data-name="Path 1005199" d="M11.659,67.33l2.686,12.947c.072.348-.383.829-.643.884a.9.9,0,0,1-.96-.626l-1.267-5.991-5.9-8.38L4.828,52.95a3.226,3.226,0,0,0-3.214-3.037l.019,18.9A114.861,114.861,0,0,0,11.715,90.695l-.806,6.343c-.044.349-.663.642-.946.569a.979.979,0,0,1-.625-1.089l.678-5.494A114.269,114.269,0,0,1,.007,68.987L0,50.186a2.228,2.228,0,0,1,.524-1.471,2.029,2.029,0,0,1,1.669-.49A4.83,4.83,0,0,1,6.44,52.681l.745,12.874L10.507,70.2l-.439-2.752a3.462,3.462,0,0,1,1.67-3.506c1.962-1.074,4.132-.062,5.083,2.378L22.5,80.877A15.559,15.559,0,0,1,23.542,87.6l-.575,9.088a.931.931,0,0,1-.818.925c-.565-.009-.863-.491-.822-1.108l.585-8.92a12.877,12.877,0,0,0-.738-5.5l-6.19-15.776A1.925,1.925,0,0,0,13,65.244a1.777,1.777,0,0,0-1.336,2.086" transform="translate(0 -39.618)" fill="#893695"/>
        <path id="Path_1005200" data-name="Path 1005200" d="M148.52,140.506l-2.811-.024c-.3,0-.7-.512-.693-.8l.027-1.679-1.58.013a.918.918,0,0,1-.811-.865l.014-2.9a.865.865,0,0,1,.779-.714l1.6.029-.028-1.679c0-.281.37-.851.679-.851h2.97c.249,0,.678.47.677.709l0,1.812,1.6-.021a.866.866,0,0,1,.767.718l.016,2.9a.913.913,0,0,1-.806.857l-1.573,0,0,1.653a1,1,0,0,1-.823.846m-.408-4.1a11.51,11.51,0,0,1,1.811-.133c.152-.092.2-.87.1-1.028a13.448,13.448,0,0,1-2.15-.2,10.709,10.709,0,0,1-.212-2.052c-.053-.254-.842-.307-.966-.144a8.914,8.914,0,0,1-.229,2.214l-2.1.187c-.122.141-.072.939.092,1.011a14.539,14.539,0,0,1,2.056.184l.193,2.316.845-.011c.325,0-.138-2.189.562-2.345" transform="translate(-118.186 -107.679)" fill="#893695"/>
      </g>
    </g>
  </g>
</svg>
