<svg id="img18" xmlns="http://www.w3.org/2000/svg" xmlns:xlink="http://www.w3.org/1999/xlink" width="96.32" height="96.32" viewBox="0 0 96.32 96.32">
  <defs>
    <clipPath id="clip-path">
      <rect id="Rectangle_459902" data-name="Rectangle 459902" width="58.923" height="58.958" fill="#7b1a8a"/>
    </clipPath>
  </defs>
  <path id="Path_997400" data-name="Path 997400" d="M48.16,0A48.16,48.16,0,1,1,0,48.16,48.16,48.16,0,0,1,48.16,0Z" fill="#f7ceff"/>
  <g id="Group_1099776" data-name="Group 1099776" transform="translate(18.06 18.059)">
    <g id="Group_1099618" data-name="Group 1099618" transform="translate(0 0)">
      <rect id="Rectangle_401104" data-name="Rectangle 401104" width="59.576" height="60.293" transform="translate(0)" fill="none"/>
    </g>
    <g id="Group_1185197" data-name="Group 1185197">
      <g id="Group_1185196" data-name="Group 1185196" transform="translate(1.335 1.336)" clip-path="url(#clip-path)">
        <path id="Path_1005879" data-name="Path 1005879" d="M58.907,18l.016,5.792a1.225,1.225,0,0,1-.619.858l-2.263.748-.005,2.273a1.03,1.03,0,0,1-.855.84l-3.856-.01-.008,24.109L48.861,55.1l2.15,2.146a1.329,1.329,0,0,1,.252,1.044,1.18,1.18,0,0,1-1.047.666L3.649,58.934A3.787,3.787,0,0,1,.006,55.271L0,3.8A3.774,3.774,0,0,1,3.8,0L50.36,0a1,1,0,0,1,.956.949l.01,2.849,6.451-.015a1.049,1.049,0,0,1,1.139,1.043V10.52a1.27,1.27,0,0,1-.652.847l-2.234.732.017,2.164a1.08,1.08,0,0,1-.9.97l-3.828.012,0,1.913,6.463-.025c.483,0,1.117.2,1.119.864m-55,33.332,2.756-.019V1.917L3.76,1.9A1.975,1.975,0,0,0,1.891,3.645V51.807a5.2,5.2,0,0,1,2.018-.478M8.559,1.894l0,49.438,40.851,0,0-49.438Zm46.334,8.561,2.129-.686-.007-4.082H51.321v7.648l2.814.008V11.381a1.245,1.245,0,0,1,.758-.927M54.8,23.807l2.217-.732,0-4.014-5.7-.021v7.551l2.816,0,.005-1.917a1.26,1.26,0,0,1,.662-.863M46.9,55.871c-.256-.273-.453-.968-.187-1.252L48,53.246l-44.545.008c-1.075,0-1.67,1.284-1.541,2.093a2.012,2.012,0,0,0,1.883,1.7h44.2Z" transform="translate(0)" fill="#7b1a8a"/>
        <path id="Path_1005880" data-name="Path 1005880" d="M67.045,122.719a1.365,1.365,0,0,1-1.029.13A1.135,1.135,0,0,1,65.5,122l.037-6.193,9.574-8.614a1.061,1.061,0,0,1,1.409-.229l5.63,5.591,9.563-9.571L89.5,100.753a1.293,1.293,0,0,1-.229-.9,1.247,1.247,0,0,1,.826-.678l9.409-.936a1.678,1.678,0,0,1,.891.276,1.36,1.36,0,0,1,.24.944l-.919,9.142a.962.962,0,0,1-1.65.745l-2.154-2.174-13.1,13.1a.975.975,0,0,1-1.41-.062l-5.479-5.488Zm.426-2.957,7.9-7.1a.991.991,0,0,1,1.162.027L82.1,118.26,95.2,105.165a1.1,1.1,0,0,1,1.284-.085l1.522,1.5.629-6.341-6.333.644,1.425,1.443a.974.974,0,0,1-.118,1.423L82.9,114.446a.971.971,0,0,1-1.446.128l-5.548-5.536L67.4,116.7Z" transform="translate(-54.091 -81.118)" fill="#7b1a8a"/>
        <path id="Path_1005881" data-name="Path 1005881" d="M218.427,184.635l-4.856.018a1.092,1.092,0,0,1-1.009-.92l.006-14.679,5.1-5.12a1.709,1.709,0,0,1,.995-.142,1.147,1.147,0,0,1,.558.983l0,18.979a1.039,1.039,0,0,1-.792.881m-3.946-1.907,2.847-.014-.014-15.647-2.838,2.781Z" transform="translate(-175.528 -135.23)" fill="#7b1a8a"/>
        <path id="Path_1005882" data-name="Path 1005882" d="M169.417,225.006l-4.857.019c-.406,0-1.013-.424-1.012-.877l.018-6.2,5.007-5.012a1.4,1.4,0,0,1,.933-.273,1.144,1.144,0,0,1,.681.831l0,10.65c0,.311-.428.862-.775.864m-3.948-1.9,2.834-.017-.025-7.114-2.815,2.773Z" transform="translate(-135.053 -175.601)" fill="#7b1a8a"/>
        <path id="Path_1005883" data-name="Path 1005883" d="M120.4,225.089h-4.831a1.02,1.02,0,0,1-1.027-1.051l.007-10.471a1.267,1.267,0,0,1,.553-.786,1.221,1.221,0,0,1,1.048.218l5,5,.024,6.225a1.115,1.115,0,0,1-.775.868m-1.13-1.925.005-4.384-2.8-2.8-.019,7.192Z" transform="translate(-94.585 -175.67)" fill="#7b1a8a"/>
        <path id="Path_1005884" data-name="Path 1005884" d="M221.074,28.273a2.036,2.036,0,0,1-1.526,1.979,2.069,2.069,0,0,1-2.412-1.1l-2.545-5.673c-.264,2.435-.115,4.482-.152,6.83l-1.921,0,.02-6.491a2.1,2.1,0,0,1,1.6-1.98,2.026,2.026,0,0,1,2.317,1.015l2.6,5.714c.206-2.408.11-4.524.126-6.806l1.9,0Z" transform="translate(-175.492 -17.969)" fill="#7b1a8a"/>
        <path id="Path_1005885" data-name="Path 1005885" d="M163.833,28.482l-3.763-.016-.028,1.9-1.906,0,.034-4.936a3.727,3.727,0,0,1,3.625-3.594,3.678,3.678,0,0,1,3.884,3.422l.05,5.105-1.891.026Zm-.037-1.859a3.667,3.667,0,0,0-.246-2.008,2.041,2.041,0,0,0-1.516-.9,1.989,1.989,0,0,0-1.686.883,3.077,3.077,0,0,0-.248,2.026Z" transform="translate(-130.584 -18.024)" fill="#7b1a8a"/>
        <path id="Path_1005886" data-name="Path 1005886" d="M72.714,27.432l0,2.835-1.893-.024,0-7.525a1.015,1.015,0,0,1,1-1.019l3.99.048a2.8,2.8,0,0,1,2.62,2.959,2.843,2.843,0,0,1-2.944,2.725Zm2.971-1.926a1.051,1.051,0,0,0,.854-.958,1.064,1.064,0,0,0-.88-.935L72.71,23.6l0,1.927Z" transform="translate(-58.479 -17.918)" fill="#7b1a8a"/>
        <path id="Path_1005887" data-name="Path 1005887" d="M71.168,243.2l-4.658.009a1.039,1.039,0,0,1-1.044-1.038l.05-3.271,4.96-3.976a1.3,1.3,0,0,1,1.1-.194,1.26,1.26,0,0,1,.533.943v6.5a1.015,1.015,0,0,1-.939,1.031M67.4,241.3l2.8-.009-.025-3.683-2.8,2.244Z" transform="translate(-54.059 -193.791)" fill="#7b1a8a"/>
        <path id="Path_1005888" data-name="Path 1005888" d="M125.615,28.419l-.005,1.889-4.731.006a1.017,1.017,0,0,1-.951-.947V21.758l1.894,0V28.4Z" transform="translate(-99.033 -17.964)" fill="#7b1a8a"/>
      </g>
    </g>
  </g>
</svg>
