<svg xmlns="http://www.w3.org/2000/svg" xmlns:xlink="http://www.w3.org/1999/xlink" width="396" height="251" viewBox="0 0 396 251">
  <defs>
    <clipPath id="clip-path">
      <rect id="Rectangle_459155" data-name="Rectangle 459155" width="345.963" height="220.343" fill="none"/>
    </clipPath>
    <clipPath id="clip-path-3">
      <rect id="Rectangle_459153" data-name="Rectangle 459153" width="345.963" height="10.016" fill="none"/>
    </clipPath>
  </defs>
  <g id="img1" transform="translate(-179.148 -3255.412)">
    <path id="Path_1004836" data-name="Path 1004836" d="M0,0H395.18V251H0Z" transform="translate(179.148 3255.412)" fill="#e8fff9"/>
    <rect id="Rectangle_402030" data-name="Rectangle 402030" width="395.18" height="57.973" transform="translate(179.968 3448.438)" fill="#88fede"/>
    <g id="Group_1184287" data-name="Group 1184287" transform="translate(198.148 3273.203)">
      <g id="Group_1184286" data-name="Group 1184286" clip-path="url(#clip-path)">
        <g id="Group_1184285" data-name="Group 1184285">
          <g id="Group_1184284" data-name="Group 1184284" clip-path="url(#clip-path)">
            <g id="Group_1184283" data-name="Group 1184283" transform="translate(0 210.326)" opacity="0.21" style="mix-blend-mode: multiply;isolation: isolate">
              <g id="Group_1184282" data-name="Group 1184282">
                <g id="Group_1184281" data-name="Group 1184281" clip-path="url(#clip-path-3)">
                  <path id="Path_1004686" data-name="Path 1004686" d="M345.963,339.548c0,2.766-77.446,5.008-172.981,5.008S0,342.314,0,339.548s77.447-5.008,172.981-5.008,172.981,2.242,172.981,5.008" transform="translate(0 -334.54)" fill="#c4adad"/>
                </g>
              </g>
            </g>
            <path id="Path_1004687" data-name="Path 1004687" d="M128.226,298.166H37.073a5.424,5.424,0,0,1-5.424-5.424V230.291a5.424,5.424,0,0,1,5.424-5.424h91.153a5.424,5.424,0,0,1,5.424,5.424v62.451a5.425,5.425,0,0,1-5.424,5.424" transform="translate(-11.751 -83.492)" fill="#b29d9d"/>
            <path id="Path_1004688" data-name="Path 1004688" d="M117.6,230.739H49.981a1.708,1.708,0,0,1-1.708-1.708V214.988a7.221,7.221,0,0,1,7.212-7.212h56.607a7.221,7.221,0,0,1,7.212,7.212v14.043a1.707,1.707,0,0,1-1.707,1.708m-65.909-3.415h64.2V214.988a3.8,3.8,0,0,0-3.8-3.8H55.485a3.8,3.8,0,0,0-3.8,3.8Z" transform="translate(-17.924 -77.147)" fill="#c4adad"/>
            <path id="Path_1004689" data-name="Path 1004689" d="M120.22,298.166H29.067a5.424,5.424,0,0,1-5.424-5.424V230.291a5.423,5.423,0,0,1,5.424-5.424H120.22a5.424,5.424,0,0,1,5.424,5.424v62.451a5.425,5.425,0,0,1-5.424,5.424" transform="translate(-8.779 -83.492)" fill="#c4adad"/>
            <path id="Path_1004690" data-name="Path 1004690" d="M125.443,261.3h-102a.341.341,0,1,1,0-.683h102a.341.341,0,1,1,0,.683" transform="translate(-8.577 -96.765)" fill="#efe1e1"/>
            <path id="Path_1004691" data-name="Path 1004691" d="M113.763,283.216a21.98,21.98,0,1,1-21.981-21.981,21.981,21.981,0,0,1,21.981,21.981" transform="translate(-25.917 -96.996)" fill="#efe1e1"/>
            <path id="Path_1004692" data-name="Path 1004692" d="M104.339,301.183h-2.086a1.441,1.441,0,0,1-1.441-1.441V278.266a1.441,1.441,0,0,1,1.441-1.442h2.086a1.441,1.441,0,0,1,1.441,1.442v21.477a1.441,1.441,0,0,1-1.441,1.441" transform="translate(-37.431 -102.784)" fill="#fff"/>
            <path id="Path_1004693" data-name="Path 1004693" d="M109.749,293.687v2.086a1.441,1.441,0,0,1-1.441,1.441H86.832a1.441,1.441,0,0,1-1.442-1.441v-2.086a1.441,1.441,0,0,1,1.442-1.441h21.477a1.441,1.441,0,0,1,1.441,1.441" transform="translate(-31.705 -108.51)" fill="#fff"/>
            <path id="Path_1004694" data-name="Path 1004694" d="M500.354,168.282H449.665a4.5,4.5,0,0,0-4.5,4.5v99.88a4.5,4.5,0,0,0,4.5,4.5h50.689a4.5,4.5,0,0,0,4.5-4.5V172.78a4.5,4.5,0,0,0-4.5-4.5" transform="translate(-165.289 -62.483)" fill="#85a6d6"/>
            <path id="Path_1004695" data-name="Path 1004695" d="M492.371,277.156H441.682a4.5,4.5,0,0,1-4.5-4.5V172.779a4.5,4.5,0,0,1,4.5-4.5h50.689a4.5,4.5,0,0,1,4.5,4.5v99.879a4.5,4.5,0,0,1-4.5,4.5" transform="translate(-162.325 -62.482)" fill="#92b4ea"/>
            <path id="Path_1004696" data-name="Path 1004696" d="M468.779,312.4a10.09,10.09,0,1,1-10.089-10.089A10.09,10.09,0,0,1,468.779,312.4" transform="translate(-166.563 -112.247)" fill="#c5dbf9"/>
            <path id="Path_1004697" data-name="Path 1004697" d="M457.2,322.127a.455.455,0,0,1-.2-.045.467.467,0,0,1-.224-.622l8.609-18.232a.468.468,0,0,1,.846.4l-8.609,18.232a.468.468,0,0,1-.424.268" transform="translate(-169.584 -112.487)" fill="#92b4ea"/>
            <path id="Path_1004698" data-name="Path 1004698" d="M508.785,312.4A10.09,10.09,0,1,1,498.7,302.312,10.09,10.09,0,0,1,508.785,312.4" transform="translate(-181.417 -112.247)" fill="#c5dbf9"/>
            <path id="Path_1004699" data-name="Path 1004699" d="M497.208,322.127a.457.457,0,0,1-.2-.045.467.467,0,0,1-.224-.622l8.608-18.232a.468.468,0,0,1,.846.4l-8.608,18.232a.467.467,0,0,1-.424.268" transform="translate(-184.438 -112.487)" fill="#92b4ea"/>
            <path id="Path_1004700" data-name="Path 1004700" d="M468.779,269.693A10.09,10.09,0,1,1,458.689,259.6a10.09,10.09,0,0,1,10.089,10.089" transform="translate(-166.563 -96.39)" fill="#c5dbf9"/>
            <path id="Path_1004701" data-name="Path 1004701" d="M457.2,279.419a.455.455,0,0,1-.2-.045.467.467,0,0,1-.224-.623l8.609-18.232a.468.468,0,0,1,.846.4l-8.609,18.232a.468.468,0,0,1-.424.268" transform="translate(-169.584 -96.63)" fill="#92b4ea"/>
            <path id="Path_1004702" data-name="Path 1004702" d="M508.785,269.693A10.09,10.09,0,1,1,498.7,259.6a10.09,10.09,0,0,1,10.089,10.089" transform="translate(-181.417 -96.39)" fill="#c5dbf9"/>
            <path id="Path_1004703" data-name="Path 1004703" d="M497.208,279.419a.457.457,0,0,1-.2-.045.467.467,0,0,1-.224-.623l8.608-18.232a.468.468,0,0,1,.846.4l-8.608,18.232a.467.467,0,0,1-.424.268" transform="translate(-184.438 -96.63)" fill="#92b4ea"/>
            <path id="Path_1004704" data-name="Path 1004704" d="M468.779,226.986A10.09,10.09,0,1,1,458.689,216.9a10.09,10.09,0,0,1,10.089,10.089" transform="translate(-166.563 -80.533)" fill="#c5dbf9"/>
            <path id="Path_1004705" data-name="Path 1004705" d="M457.2,236.712a.455.455,0,0,1-.2-.045.467.467,0,0,1-.224-.622l8.609-18.232a.468.468,0,1,1,.846.4l-8.609,18.232a.468.468,0,0,1-.424.268" transform="translate(-169.584 -80.773)" fill="#92b4ea"/>
            <path id="Path_1004706" data-name="Path 1004706" d="M508.785,226.986A10.09,10.09,0,1,1,498.7,216.9a10.09,10.09,0,0,1,10.089,10.089" transform="translate(-181.417 -80.533)" fill="#c5dbf9"/>
            <path id="Path_1004707" data-name="Path 1004707" d="M497.208,236.712a.457.457,0,0,1-.2-.045.467.467,0,0,1-.224-.622l8.608-18.232a.468.468,0,1,1,.846.4l-8.608,18.232a.467.467,0,0,1-.424.268" transform="translate(-184.438 -80.773)" fill="#92b4ea"/>
            <path id="Path_1004708" data-name="Path 1004708" d="M468.779,184.279a10.09,10.09,0,1,1-10.089-10.09,10.09,10.09,0,0,1,10.089,10.09" transform="translate(-166.563 -64.676)" fill="#c5dbf9"/>
            <path id="Path_1004709" data-name="Path 1004709" d="M457.2,194a.468.468,0,0,1-.422-.668l8.609-18.232a.468.468,0,0,1,.846.4l-8.609,18.232a.468.468,0,0,1-.424.268" transform="translate(-169.584 -64.916)" fill="#92b4ea"/>
            <path id="Path_1004710" data-name="Path 1004710" d="M508.785,184.279a10.09,10.09,0,1,1-10.089-10.09,10.09,10.09,0,0,1,10.089,10.09" transform="translate(-181.417 -64.676)" fill="#c5dbf9"/>
            <path id="Path_1004711" data-name="Path 1004711" d="M497.208,194a.468.468,0,0,1-.422-.668l8.608-18.232a.468.468,0,0,1,.846.4l-8.608,18.232a.468.468,0,0,1-.424.268" transform="translate(-184.438 -64.916)" fill="#92b4ea"/>
            <path id="Path_1004712" data-name="Path 1004712" d="M181.173,110.807s-5.9,13.3-9.253,12.452-4.485-5.123-4.485-5.123-4.316-7.4-.112-9.46c4.669-2.287,13.85,2.131,13.85,2.131" transform="translate(-61.443 -40.107)" fill="#f48462"/>
            <path id="Path_1004713" data-name="Path 1004713" d="M134.338,301.916l6.638,11.376,15.31-4.856-7.842-12.95Z" transform="translate(-49.879 -109.713)" fill="#f48462"/>
            <path id="Path_1004714" data-name="Path 1004714" d="M88.185,317.219l.419-12.487,14.859-.743v13.973Z" transform="translate(-32.743 -112.87)" fill="#f48462"/>
            <path id="Path_1004715" data-name="Path 1004715" d="M38.694,110.024s6.684,16.715,16.321,22.062c7.885,4.375,16.7,2.579,16.7,2.579l-1.508-15.8L61.518,116.7a50.121,50.121,0,0,1-7.631-5.063L47.4,104.361Z" transform="translate(-14.367 -38.749)" fill="#f48462"/>
            <path id="Path_1004716" data-name="Path 1004716" d="M109.048,181.334l-.687,35.27s-.372,17.494-1.013,31.916c-.214,5.021-1.1,13.462-1.386,16.874H83.795c-.09-15.119-1.089-59.563-.436-66.8.788-8.9,2.364-17.416,2.364-17.416l20.466.135Z" transform="translate(-30.869 -67.27)" fill="#217365"/>
            <path id="Path_1004717" data-name="Path 1004717" d="M128.644,264.809c-2.623-4.4-8.736-17.873-11.159-23.467-1.083-2.5,1.354-61.121,1.354-61.121v-.135l7.07-1.846s20.114,61.429,24.943,79.059Z" transform="translate(-43.518 -66.18)" fill="#217365"/>
            <path id="Path_1004718" data-name="Path 1004718" d="M89.517,193.709a5.013,5.013,0,0,1-1.165-.138.2.2,0,1,1,.092-.393c4.4,1.034,7.2-4.651,7.228-4.708a.2.2,0,0,1,.364.175c-.027.055-2.49,5.064-6.52,5.064" transform="translate(-32.747 -69.936)" fill="#fff"/>
            <path id="Path_1004719" data-name="Path 1004719" d="M120.753,253.818a.2.2,0,0,1-.2-.2L119.484,200.5a.2.2,0,0,1,.091-.173l6.15-4.06a.2.2,0,1,1,.222.336l-6.057,4,1.064,53.013a.2.2,0,0,1-.2.206Z" transform="translate(-44.364 -72.859)" fill="#fff"/>
            <path id="Path_1004720" data-name="Path 1004720" d="M101.942,124.556s5.934.249,8.286,4.644,4.13,30.589,4.13,30.589a45.244,45.244,0,0,1-16.18,2.572c-9.6-.116-12.848-2.415-12.848-2.415l-1.847-16.153s.292-17.524,2.686-18.719,11.8-1.462,15.772-.517" transform="translate(-30.997 -46.035)" fill="#7b1a8a"/>
            <path id="Path_1004721" data-name="Path 1004721" d="M40.281,98.38s-.94-4.169-3.167-6.068-4.862-3.123-4.4-1.433a27.085,27.085,0,0,0,2,4.452l-4.041-1.076a34.913,34.913,0,0,0-4.549-1.734,1.982,1.982,0,0,0-2.517.9s-1.914-.51-2.747.052-.242,1.764-.242,1.764-2.747.053-1.713,2.156,6.469,5.641,9.1,6.865,8.572,2.021,8.572,2.021,5.332,1.166,3.7-7.9" transform="translate(-6.934 -33.445)" fill="#f48462"/>
            <path id="Path_1004722" data-name="Path 1004722" d="M29.418,102.24a.2.2,0,0,1-.1-.38L36.331,98.1a.2.2,0,1,1,.19.356l-7.009,3.759a.2.2,0,0,1-.095.024" transform="translate(-10.848 -36.416)"/>
            <path id="Path_1004723" data-name="Path 1004723" d="M46.648,104.345a.2.2,0,0,1-.075-.014,4.158,4.158,0,0,1-2.524-5.109.2.2,0,0,1,.385.121,3.707,3.707,0,0,0,2.29,4.614.2.2,0,0,1-.075.389" transform="translate(-16.295 -36.788)"/>
            <path id="Path_1004724" data-name="Path 1004724" d="M38.694,112.23s4.742,13.511,13.442,19.141c6.862,4.441,16.386,4.719,16.386,4.719l7.6-19.133s-13.6-.406-17.352-3.19a116.63,116.63,0,0,1-9.757-8.861Z" transform="translate(-14.367 -38.951)" fill="#7b1a8a"/>
            <path id="Path_1004725" data-name="Path 1004725" d="M69.428,125.574a.607.607,0,0,1-.565-.3c-.6-1.042,1.52-4.782,1.95-5.521a.2.2,0,0,1,.376.1c.005.172.116,4.227-1.014,5.392a1.018,1.018,0,0,1-.747.336m1.358-4.952c-.894,1.645-1.9,3.881-1.573,4.449.029.049.076.1.215.1a.625.625,0,0,0,.457-.214c.738-.761.879-3.108.9-4.335" transform="translate(-25.529 -44.426)" fill="#f7b369"/>
            <path id="Path_1004726" data-name="Path 1004726" d="M116.554,123.171s8.816,3.309,16.561,2.937,14.3-7.108,14.3-7.108l8.1,9.036s-5.214,14.423-17.547,17.356-22.14-4.926-22.14-4.926Z" transform="translate(-43.008 -44.184)" fill="#7b1a8a"/>
            <path id="Path_1004727" data-name="Path 1004727" d="M147.9,134.244a1.206,1.206,0,0,1-.758-.262c-1.122-.869-1.1-3.679-1.094-3.8a.2.2,0,0,1,.328-.155c.3.236,2.888,2.341,2.646,3.511a.871.871,0,0,1-.716.647,1.547,1.547,0,0,1-.407.057m-1.437-3.62c.036.8.2,2.476.927,3.039a.873.873,0,0,0,.811.133c.378-.1.415-.28.427-.338.13-.627-1.147-1.964-2.165-2.834" transform="translate(-54.227 -48.263)" fill="#f7b369"/>
            <path id="Path_1004728" data-name="Path 1004728" d="M129.964,155.115a.2.2,0,0,1-.2-.174l-1.27-9.125a.2.2,0,0,1,.172-.228.2.2,0,0,1,.228.172l1.269,9.125a.2.2,0,0,1-.172.228l-.028,0" transform="translate(-47.709 -54.056)" fill="#f7b369"/>
            <path id="Path_1004729" data-name="Path 1004729" d="M102.293,332.878c0,1.244-.481,2.666-1.465,3.024s-8.951,1.1-15.921.577c-6.672-.507-8.057-.935-8.55-1.462-.24-.269.229-1.512.767-2.715.035-.06.057-.129.092-.189.274-.607.561-1.194.766-1.611a6.775,6.775,0,0,1,.756-1.144,19.759,19.759,0,0,0,2.518-3.581c.481-1.234,1.213-3.9,1.706-5.152a2.541,2.541,0,0,1,1.694-1.492s4.637-3.54,14.708-.1c1.191.407,1.465,6.575,1.465,7.46v.885a19.53,19.53,0,0,0,1.076,3.81c.114.338.206.656.275.944a3.4,3.4,0,0,1,.114.746" transform="translate(-28.327 -117.897)" fill="#68b6d8"/>
            <path id="Path_1004730" data-name="Path 1004730" d="M180.336,332.453a.664.664,0,0,0,.521-.79c-.306-1.794-1.384-6.805-4.144-8.916-3.392-2.595-10.47-3.592-13.053-5.319s-5.489-5.921-7.018-5.112-4.4,4.493-8.576,4-7.234-.473-8.351.582-.541,14.664-.053,15.533,6.367.023,6.88.16,1.935-3.363,2.9-2.846,2.155,2.146,3.581,2.888c1.33.692,23.1.436,27.31-.178" transform="translate(-51.637 -115.923)" fill="#68b6d8"/>
            <path id="Path_1004731" data-name="Path 1004731" d="M175.752,318a.2.2,0,0,1-.187-.277,22.253,22.253,0,0,1,1.2-2.446c1.1-2.4,2.287-5.44,1.852-6.408a.388.388,0,0,0-.275-.241.771.771,0,0,0-.682.146c-1.4,1.038-1.7,5.992-1.7,6.042a.2.2,0,0,1-.4-.023c.013-.211.316-5.194,1.868-6.344a1.182,1.182,0,0,1,1.017-.214.8.8,0,0,1,.548.468c.382.847-.194,2.786-.949,4.671.916-1.134,2-1.962,3.1-1.645a1.02,1.02,0,0,1,.805.754c.364,1.645-3.531,5.081-3.977,5.467a.2.2,0,1,1-.264-.3c1.159-1.007,4.112-3.88,3.847-5.075-.048-.218-.219-.367-.522-.453-1.413-.4-2.886,1.564-3.882,3.307-.57,1.234-1.078,2.207-1.216,2.468a.2.2,0,0,1-.179.108" transform="translate(-65.181 -114.434)" fill="#5c69a5"/>
            <path id="Path_1004732" data-name="Path 1004732" d="M94.645,328.513a.2.2,0,0,1-.074-.014c-.354-.139-3.464-1.391-3.828-2.629a.811.811,0,0,1,.124-.727.985.985,0,0,1,.7-.4,5.31,5.31,0,0,1,2.912,1.114c-.965-1.348-2.386-3.577-2.006-4.548a.787.787,0,0,1,.666-.492c2.192-.333,3.683,6.059,3.845,6.791a.2.2,0,0,1-.394.087c-.417-1.882-1.841-6.708-3.389-6.478a.39.39,0,0,0-.352.24c-.378.968,1.85,4.085,2.741,5.206a.2.2,0,0,1-.016.268.2.2,0,0,1-.269.014c-.682-.547-2.673-1.933-3.684-1.8a.592.592,0,0,0-.425.238.4.4,0,0,0-.064.377c.261.887,2.678,2.009,3.587,2.366a.2.2,0,0,1-.074.39" transform="translate(-33.679 -119.113)" fill="#5c69a5"/>
            <path id="Path_1004733" data-name="Path 1004733" d="M103.742,99.093s3.643-5.211,1.833-7.052-4.261.3-4.261.3a2.289,2.289,0,0,0-2.868-1.886c-2.564.42-3.926,3.278-3.926,3.278S92.09,91.619,90.695,94s-.06,6.011-.06,6.011-1.812-.14-1.186,1.931,3.6,4.045,3.6,4.045Z" transform="translate(-33.163 -33.566)"/>
            <path id="Path_1004734" data-name="Path 1004734" d="M99.24,117.549l.314,5.568s1.375,1.105,4.647,1.186c2.437.06,2.794-1.139,2.794-1.139l-.312-1.759-.489-2.731-5.954-.962Z" transform="translate(-36.847 -43.646)" fill="#f48462"/>
            <path id="Path_1004735" data-name="Path 1004735" d="M100.829,117.807a1.827,1.827,0,0,0,.192.528c1.4,2.711,4.842,3.118,6.251,3.165l-.488-2.731Z" transform="translate(-37.437 -43.741)"/>
            <path id="Path_1004736" data-name="Path 1004736" d="M104.278,97.925s3.316,6.816,2.383,10.76-4.51,3.475-6.667,2.808a7.043,7.043,0,0,1-3.2-1.93,3,3,0,0,1-3.361-1.037c-1.4-1.792-.673-3.946.441-4.478a3.119,3.119,0,0,1,2.5.231l-1.139-1.974s4.026-10.431,9.043-4.38" transform="translate(-34.406 -35.658)" fill="#f48462"/>
            <path id="Path_1004737" data-name="Path 1004737" d="M96.825,112.693a.2.2,0,0,1-.108-.031L94.107,111a.2.2,0,0,1,.217-.341l2.61,1.663a.2.2,0,0,1-.109.372" transform="translate(-34.907 -41.075)"/>
            <path id="Path_1004738" data-name="Path 1004738" d="M94.727,113.525a.2.2,0,0,1-.062-.394l1.628-.519a.2.2,0,1,1,.123.385l-1.628.519a.213.213,0,0,1-.062.009" transform="translate(-35.097 -41.809)"/>
            <path id="Path_1004739" data-name="Path 1004739" d="M104.1,103.606a.209.209,0,0,1-.055-.008.2.2,0,0,1-.14-.249,1.706,1.706,0,0,1,1.8-1.335.2.2,0,0,1,.178.222.206.206,0,0,1-.221.179,1.3,1.3,0,0,0-1.365,1.042.2.2,0,0,1-.194.148" transform="translate(-38.579 -37.875)"/>
            <path id="Path_1004740" data-name="Path 1004740" d="M111.894,102.711a.2.2,0,0,1-.119-.039,1.855,1.855,0,0,0-.668-.378.2.2,0,0,1-.245-.306c.24-.313.926.192,1.152.358a.2.2,0,0,1-.12.365" transform="translate(-41.147 -37.831)"/>
            <path id="Path_1004741" data-name="Path 1004741" d="M110.751,109.848a.2.2,0,0,1-.111-.033.2.2,0,0,1-.058-.28c.5-.766-.59-2.052-1.055-2.482a.2.2,0,0,1,.275-.3c.078.073,1.913,1.792,1.118,3a.2.2,0,0,1-.169.091" transform="translate(-40.643 -39.618)"/>
            <path id="Path_1004742" data-name="Path 1004742" d="M112.36,106.473a.2.2,0,0,1-.192-.138l-.421-1.257a.2.2,0,0,1,.384-.128l.421,1.257a.2.2,0,0,1-.128.255.19.19,0,0,1-.064.011" transform="translate(-41.488 -38.916)"/>
            <path id="Path_1004743" data-name="Path 1004743" d="M106.762,106.9a.2.2,0,0,1-.192-.138l-.421-1.257a.2.2,0,1,1,.384-.128l.421,1.257a.2.2,0,0,1-.128.255.191.191,0,0,1-.064.011" transform="translate(-39.409 -39.074)"/>
            <path id="Path_1004744" data-name="Path 1004744" d="M105.658,98.516A2.355,2.355,0,0,0,103.6,97.5a3.008,3.008,0,0,0-2.145,1.093,3.422,3.422,0,0,1-1.078,3.653,4.625,4.625,0,0,1-3.3,1.084l-1.4-.411-1.118-1.945,3.722-4.495,4.977-3,2.748,2.226Z" transform="translate(-35.111 -34.71)"/>
            <path id="Path_1004745" data-name="Path 1004745" d="M108.072,114.579a2.048,2.048,0,0,1-1.862-1.047.2.2,0,0,1,.356-.192,1.686,1.686,0,0,0,1.684.827.2.2,0,0,1,.06.4,1.959,1.959,0,0,1-.238.013" transform="translate(-39.427 -42.043)"/>
            <path id="Path_1004746" data-name="Path 1004746" d="M98.721,130.389a1.2,1.2,0,0,1-.742-.221,1.29,1.29,0,0,1-.519-.9c-.165-1.284,1.211-3.031,1.269-3.105a.2.2,0,0,1,.252-.053c.045.024,4.559,2.36,7.215.073a.2.2,0,0,1,.22-.029c.421.2,2.514,1.271,2.453,2.135-.021.29-.248.507-.674.644-1.738.563-4.066-.832-4.645-1.206-.657.56-3.234,2.664-4.829,2.664m.227-3.847a4.786,4.786,0,0,0-1.087,2.673.891.891,0,0,0,.36.631c.922.69,3.562-1.185,4.852-2.246a10.582,10.582,0,0,1-4.124-1.057m5.082,1c.8.472,2.677,1.44,4.041,1,.143-.046.385-.145.4-.289.029-.415-1.2-1.225-2.111-1.685a4.629,4.629,0,0,1-2.327.973" transform="translate(-36.182 -46.814)" fill="#f7b369"/>
            <path id="Path_1004747" data-name="Path 1004747" d="M172.381,121.915a.2.2,0,0,1-.094-.38c1.613-.849,2.189-4.106,2.195-4.139a.2.2,0,0,1,.4.069c-.025.141-.616,3.487-2.4,4.428a.2.2,0,0,1-.094.023" transform="translate(-63.929 -43.526)"/>
            <path id="Path_1004748" data-name="Path 1004748" d="M296.828,182.788H191.13a5.691,5.691,0,0,1-5.691-5.691V34.415a5.691,5.691,0,0,1,5.691-5.692h105.7a5.691,5.691,0,0,1,5.691,5.692V177.1a5.691,5.691,0,0,1-5.691,5.691" transform="translate(-68.853 -10.665)" fill="#d3bcbc"/>
            <path id="Path_1004749" data-name="Path 1004749" d="M287.865,182.788h-105.7a5.691,5.691,0,0,1-5.691-5.691V34.415a5.691,5.691,0,0,1,5.691-5.692h105.7a5.691,5.691,0,0,1,5.691,5.692V177.1a5.691,5.691,0,0,1-5.691,5.691" transform="translate(-65.525 -10.665)" fill="#ead8d8"/>
            <path id="Path_1004750" data-name="Path 1004750" d="M167.368,110.334s-.352-2.3.632-3.108,7.9-4.136,9.219-2.288c.66.925-4.347,4.319-4.347,4.319a13.557,13.557,0,0,1-.745,4.363c-.822,2.473-2.673,1.144-2.673,1.144Z" transform="translate(-62.12 -38.759)" fill="#f48462"/>
            <path id="Path_1004751" data-name="Path 1004751" d="M190.734,19.843A19.843,19.843,0,1,1,170.89,0a19.844,19.844,0,0,1,19.844,19.844" transform="translate(-56.083 0)" fill="#217365"/>
            <path id="Path_1004752" data-name="Path 1004752" d="M187.081,19.843A19.843,19.843,0,1,1,167.237,0a19.844,19.844,0,0,1,19.844,19.844" transform="translate(-54.727 0)" fill="#5bdfc4"/>
            <path id="Path_1004753" data-name="Path 1004753" d="M178.533,36.549h-2.086a1.441,1.441,0,0,1-1.441-1.441V13.632a1.441,1.441,0,0,1,1.441-1.442h2.086a1.441,1.441,0,0,1,1.441,1.442V35.108a1.441,1.441,0,0,1-1.441,1.441" transform="translate(-64.979 -4.526)" fill="#d4fdf2"/>
            <path id="Path_1004754" data-name="Path 1004754" d="M183.943,29.052v2.086a1.441,1.441,0,0,1-1.441,1.441H161.026a1.441,1.441,0,0,1-1.442-1.441V29.052a1.441,1.441,0,0,1,1.442-1.441H182.5a1.441,1.441,0,0,1,1.441,1.441" transform="translate(-59.253 -10.252)" fill="#d4fdf2"/>
            <path id="Path_1004755" data-name="Path 1004755" d="M271.869,44.193H236a6.923,6.923,0,0,1-6.915-6.915V29.2a1.024,1.024,0,0,1,2.049,0v8.074A4.872,4.872,0,0,0,236,42.144h35.873a4.871,4.871,0,0,0,4.866-4.866V29.2a1.025,1.025,0,0,1,2.05,0v8.074a6.923,6.923,0,0,1-6.915,6.915" transform="translate(-85.057 -10.463)" fill="#5c69a5"/>
            <path id="Path_1004756" data-name="Path 1004756" d="M298.042,76.2a14.979,14.979,0,0,0,5.045,11.224c.141.129.29.255.438.377a14.125,14.125,0,0,0,1.724,1.228c.264.161.531.316.805.46.077.042.155.081.235.119A15.033,15.033,0,0,0,315.5,91.02a14.42,14.42,0,0,0,1.675-.37,14.969,14.969,0,0,0,4.949-2.471c.351-.267.689-.551,1.018-.847a14.822,14.822,0,0,0,1.537-1.611c.161-.2.319-.4.467-.605A15.019,15.019,0,1,0,298.042,76.2" transform="translate(-110.662 -22.717)" fill="#fff"/>
            <path id="Path_1004757" data-name="Path 1004757" d="M251.74,70.13h-57.6a1.221,1.221,0,1,1,0-2.442h57.6a1.221,1.221,0,0,1,0,2.442" transform="translate(-71.632 -25.132)" fill="#a37b90"/>
            <path id="Path_1004758" data-name="Path 1004758" d="M251.74,102.076h-57.6a1.221,1.221,0,1,1,0-2.442h57.6a1.221,1.221,0,0,1,0,2.442" transform="translate(-71.632 -36.994)" fill="#a37b90"/>
            <path id="Path_1004759" data-name="Path 1004759" d="M245.034,86.1H193.868a1.152,1.152,0,0,1-1.152-1.152v-.137a1.152,1.152,0,0,1,1.152-1.152h51.165a1.152,1.152,0,0,1,1.152,1.152v.137a1.152,1.152,0,0,1-1.152,1.152" transform="translate(-71.555 -31.063)" fill="#a37b90"/>
            <path id="Path_1004760" data-name="Path 1004760" d="M206.076,133.518H196.5a2.43,2.43,0,0,1-2.43-2.43v-9.573a2.43,2.43,0,0,1,2.43-2.429h9.573a2.43,2.43,0,0,1,2.43,2.429v9.573a2.43,2.43,0,0,1-2.43,2.43" transform="translate(-72.059 -44.216)" fill="#fff"/>
            <path id="Path_1004761" data-name="Path 1004761" d="M206.076,172.441H196.5a2.43,2.43,0,0,1-2.43-2.43v-9.573a2.43,2.43,0,0,1,2.43-2.429h9.573a2.43,2.43,0,0,1,2.43,2.429v9.573a2.43,2.43,0,0,1-2.43,2.43" transform="translate(-72.059 -58.668)" fill="#fff"/>
            <path id="Path_1004762" data-name="Path 1004762" d="M206.076,211.363H196.5a2.43,2.43,0,0,1-2.43-2.43v-9.573a2.43,2.43,0,0,1,2.43-2.429h9.573a2.43,2.43,0,0,1,2.43,2.429v9.573a2.43,2.43,0,0,1-2.43,2.43" transform="translate(-72.059 -73.119)" fill="#fff"/>
            <path id="Path_1004763" data-name="Path 1004763" d="M206.076,250.286H196.5a2.43,2.43,0,0,1-2.43-2.43v-9.573a2.43,2.43,0,0,1,2.43-2.429h9.573a2.43,2.43,0,0,1,2.43,2.429v9.573a2.43,2.43,0,0,1-2.43,2.43" transform="translate(-72.059 -87.571)" fill="#fff"/>
            <path id="Path_1004764" data-name="Path 1004764" d="M201.28,132.216a1.025,1.025,0,0,1-.8-.387l-4.541-5.716a1.024,1.024,0,0,1,1.6-1.274l3.689,4.643,4.991-7.1a1.024,1.024,0,1,1,1.676,1.178l-5.779,8.222a1.026,1.026,0,0,1-.808.435h-.03" transform="translate(-72.668 -45.278)" fill="#96ff9a"/>
            <path id="Path_1004765" data-name="Path 1004765" d="M201.28,171.289a1.027,1.027,0,0,1-.8-.387l-4.541-5.716a1.025,1.025,0,0,1,1.6-1.275l3.689,4.643,4.991-7.1a1.024,1.024,0,1,1,1.676,1.178l-5.779,8.222a1.024,1.024,0,0,1-.808.435h-.03" transform="translate(-72.668 -59.786)" fill="#96ff9a"/>
            <path id="Path_1004766" data-name="Path 1004766" d="M278.329,123.043H227.812a.636.636,0,0,1-.636-.636v-.241a.636.636,0,0,1,.636-.636h50.517a.636.636,0,0,1,.636.636v.241a.636.636,0,0,1-.636.636" transform="translate(-84.35 -45.123)" fill="#d3bcbc"/>
            <path id="Path_1004767" data-name="Path 1004767" d="M287.211,130.873H227.865a.689.689,0,0,1-.689-.689v-.136a.689.689,0,0,1,.689-.689h59.346a.689.689,0,0,1,.689.689v.136a.689.689,0,0,1-.689.689" transform="translate(-84.35 -48.031)" fill="#d3bcbc"/>
            <path id="Path_1004768" data-name="Path 1004768" d="M299.72,138.7H227.932a.757.757,0,0,1,0-1.514H299.72a.757.757,0,0,1,0,1.514" transform="translate(-84.349 -50.938)" fill="#d3bcbc"/>
            <path id="Path_1004769" data-name="Path 1004769" d="M278.329,239.811H227.812a.636.636,0,0,1-.636-.636v-.241a.636.636,0,0,1,.636-.636h50.517a.636.636,0,0,1,.636.636v.241a.636.636,0,0,1-.636.636" transform="translate(-84.35 -88.479)" fill="#d3bcbc"/>
            <path id="Path_1004770" data-name="Path 1004770" d="M287.211,247.641H227.865a.689.689,0,0,1-.689-.689v-.136a.689.689,0,0,1,.689-.689h59.346a.689.689,0,0,1,.689.689v.136a.689.689,0,0,1-.689.689" transform="translate(-84.35 -91.386)" fill="#d3bcbc"/>
            <path id="Path_1004771" data-name="Path 1004771" d="M299.72,255.471H227.932a.757.757,0,0,1,0-1.514H299.72a.757.757,0,0,1,0,1.514" transform="translate(-84.349 -94.293)" fill="#d3bcbc"/>
            <path id="Path_1004772" data-name="Path 1004772" d="M278.329,161.966H227.812a.636.636,0,0,1-.636-.636v-.241a.636.636,0,0,1,.636-.636h50.517a.636.636,0,0,1,.636.636v.241a.636.636,0,0,1-.636.636" transform="translate(-84.35 -59.575)" fill="#d3bcbc"/>
            <path id="Path_1004773" data-name="Path 1004773" d="M287.211,169.8H227.865a.689.689,0,0,1-.689-.689v-.136a.689.689,0,0,1,.689-.689h59.346a.689.689,0,0,1,.689.689v.136a.689.689,0,0,1-.689.689" transform="translate(-84.35 -62.483)" fill="#d3bcbc"/>
            <path id="Path_1004774" data-name="Path 1004774" d="M278.838,177.625H227.815a.639.639,0,0,1-.639-.639v-.235a.64.64,0,0,1,.639-.639h51.023a.64.64,0,0,1,.639.639v.235a.639.639,0,0,1-.639.639" transform="translate(-84.35 -65.389)" fill="#d3bcbc"/>
            <path id="Path_1004775" data-name="Path 1004775" d="M293.683,200.889H227.9a.724.724,0,0,1-.725-.725V200.1a.724.724,0,0,1,.725-.725h65.782a.725.725,0,0,1,.724.725v.064a.725.725,0,0,1-.724.725" transform="translate(-84.35 -74.027)" fill="#d3bcbc"/>
            <path id="Path_1004776" data-name="Path 1004776" d="M281.383,208.718H227.83a.655.655,0,0,1-.655-.655v-.2a.655.655,0,0,1,.655-.655h53.553a.655.655,0,0,1,.655.655v.2a.655.655,0,0,1-.655.655" transform="translate(-84.349 -76.934)" fill="#d3bcbc"/>
            <path id="Path_1004777" data-name="Path 1004777" d="M289.985,216.548h-62.1a.7.7,0,0,1-.7-.7v-.1a.7.7,0,0,1,.7-.7h62.1a.7.7,0,0,1,.7.7v.1a.7.7,0,0,1-.7.7" transform="translate(-84.35 -79.841)" fill="#d3bcbc"/>
            <path id="Path_1004778" data-name="Path 1004778" d="M339.187,317.727h2.139l3.383-7.514-7.285,3.757Z" transform="translate(-125.285 -115.181)" fill="#f29e4c"/>
            <path id="Path_1004779" data-name="Path 1004779" d="M356.764,206.482a1.32,1.32,0,0,0-1.254-1.105c-1.875-.218-3.558-.282-4.832-1.378a6.738,6.738,0,0,1-2.479-5.128v-2.509a.994.994,0,0,0-1.06-.909H301.715a.994.994,0,0,0-1.06.909v2.509c0,3.674-3.186,6.708-7.312,7.189a1.283,1.283,0,0,0-1.191,1.184c-.02.864-.026,2.207.044,3.944.466,11.718,4.364,41.389,30.5,63.214a2.742,2.742,0,0,0,3.7.007.048.048,0,0,0,.042-.007c23.433-19.573,28.987-45.446,30.224-59.036a57.894,57.894,0,0,0,.107-8.885" transform="translate(-108.47 -72.571)" fill="#f29e4c"/>
            <path id="Path_1004780" data-name="Path 1004780" d="M353.361,207.166a1.321,1.321,0,0,0-1.254-1.106,9,9,0,0,1-4.832-2.06,6.739,6.739,0,0,1-2.479-5.128v-2.509a.993.993,0,0,0-1.06-.909H298.312a.993.993,0,0,0-1.06.909v2.509c0,3.673-3.186,6.708-7.312,7.189a1.283,1.283,0,0,0-1.191,1.184c-.019.864-.026,2.207.044,3.945.467,11.718,4.363,41.389,30.5,63.214a2.742,2.742,0,0,0,3.7.007.049.049,0,0,0,.042-.007c23.433-19.573,28.987-45.446,30.224-59.036a49.256,49.256,0,0,0,.107-8.2" transform="translate(-107.207 -72.571)" fill="#eec212"/>
            <path id="Path_1004781" data-name="Path 1004781" d="M350.884,216.908a1.072,1.072,0,0,0-1.017-.9,7.3,7.3,0,0,1-3.921-1.672,5.467,5.467,0,0,1-2.011-4.161v-2.036a.806.806,0,0,0-.86-.737H306.219a.805.805,0,0,0-.859.737v2.036c0,2.981-2.585,5.443-5.933,5.832a1.04,1.04,0,0,0-.966.961c-.016.7-.021,1.791.035,3.2.379,9.508,3.541,33.581,24.745,51.29a2.225,2.225,0,0,0,3,.005.038.038,0,0,0,.034-.005c19.013-15.882,23.519-36.874,24.523-47.9a39.919,39.919,0,0,0,.087-6.655" transform="translate(-110.813 -77.009)" fill="#ead8d8"/>
            <path id="Path_1004782" data-name="Path 1004782" d="M343.121,229.4c-3.5-1.566-8.442,1.069-12.385,6.135-3.943-5.065-8.884-7.7-12.385-6.135-4.548,2.034-4.942,10.382-.881,18.645,2.857,5.813,7.158,10.031,11.041,11.315a6.243,6.243,0,0,0,4.45,0c3.883-1.284,8.183-5.5,11.04-11.315,4.061-8.263,3.667-16.61-.88-18.645" transform="translate(-116.834 -85.01)" fill="#f29dfc"/>
            <path id="Path_1004783" data-name="Path 1004783" d="M327.986,259.577a.342.342,0,0,1-.335-.275l-3.207-16.173-2.5,9.263a.342.342,0,0,1-.33.253h-7.148a.341.341,0,1,1,0-.683h6.886l2.815-10.421a.334.334,0,0,1,.341-.252.342.342,0,0,1,.323.275l3.119,15.729,1.824-11.467a.341.341,0,0,1,.652-.078l2.586,6.213h14.7a.341.341,0,1,1,0,.683H332.783a.341.341,0,0,1-.315-.21l-2.211-5.311-1.935,12.165a.341.341,0,0,1-.33.288Z" transform="translate(-116.632 -89.59)" fill="#fff"/>
            <path id="Path_1004784" data-name="Path 1004784" d="M411.814,302.435l2.221,6.4s-3.066,1.475-3.384,3.087c-.326,1.646,1.437,2.733,1.437,2.733l-5.5,6.752,17.074-2.117L422.1,302.435Z" transform="translate(-150.966 -112.293)" fill="#50608e"/>
            <path id="Path_1004785" data-name="Path 1004785" d="M438.874,104.092s5.923.743,8.076,6.43.88,13.045.88,13.045L436.9,121.054l.475-10.1Z" transform="translate(-162.22 -38.649)"/>
            <path id="Path_1004786" data-name="Path 1004786" d="M431,113.522s3.375.15,5.32-4.561a9.438,9.438,0,0,0-.488-8.4l-4.238,2.219-2.3,8.416Z" transform="translate(-159.393 -37.339)"/>
            <path id="Path_1004787" data-name="Path 1004787" d="M441.3,312.2v10.467l-14.747-1.126v-10Z" transform="translate(-158.376 -115.673)" fill="#f48462"/>
            <path id="Path_1004788" data-name="Path 1004788" d="M400.971,177.031s-15.6,30.977-15.721,41.183,20.86,44.058,20.86,44.058a37.18,37.18,0,0,0,14.077,2.075c8.376-.27,9.692-1.23,9.692-1.23s-1.436-72.611-4.786-79.406-24.122-6.678-24.122-6.678" transform="translate(-143.042 -65.731)" fill="#217365"/>
            <path id="Path_1004789" data-name="Path 1004789" d="M420.463,124.474s7.418-.249,11.247,3.221,1.317,33.741,1.317,33.741-9.989.838-17.139,0a53.848,53.848,0,0,1-10.38-1.974s-.837-27.826,1.077-31.173,13.879-3.815,13.879-3.815" transform="translate(-150.495 -46.215)" fill="#ffb164"/>
            <path id="Path_1004790" data-name="Path 1004790" d="M427.732,117.935l.47,5.548s-.865,1.68-4.088,2.219c-2.4.4-3.3-.074-3.3-.074l.1-2.838.1-2.768,5.751-1.786Z" transform="translate(-156.248 -43.789)" fill="#f48462"/>
            <path id="Path_1004791" data-name="Path 1004791" d="M426.825,118.414a1.826,1.826,0,0,1-.116.549c-1.007,2.876-4.35,3.762-5.736,4l.1-2.768Z" transform="translate(-156.306 -43.967)"/>
            <path id="Path_1004792" data-name="Path 1004792" d="M416.671,99.923s-2.322,7.2-.847,10.97,4.946,2.8,6.984,1.841a7.027,7.027,0,0,0,2.889-2.356,2.994,2.994,0,0,0,3.177-1.5c1.136-1.968.112-3.994-1.064-4.364a3.116,3.116,0,0,0-2.434.578l.849-2.111s-5.443-9.747-9.554-3.062" transform="translate(-154.212 -36.231)" fill="#f48462"/>
            <path id="Path_1004793" data-name="Path 1004793" d="M431.887,112.816a.2.2,0,0,1-.131-.355l2.347-2.01a.2.2,0,1,1,.263.307l-2.347,2.009a.2.2,0,0,1-.131.048" transform="translate(-160.283 -40.992)"/>
            <path id="Path_1004794" data-name="Path 1004794" d="M434.513,113.478a.209.209,0,0,1-.034,0l-1.681-.285a.2.2,0,0,1-.165-.233.2.2,0,0,1,.233-.165l1.682.284a.2.2,0,0,1-.034.4" transform="translate(-160.634 -41.879)"/>
            <path id="Path_1004795" data-name="Path 1004795" d="M423.95,104.735a.2.2,0,0,1-.149-.066,1.3,1.3,0,0,0-1.685-.312.2.2,0,0,1-.279-.06.2.2,0,0,1,.058-.279,1.7,1.7,0,0,1,2.2.378.2.2,0,0,1-.149.338" transform="translate(-156.615 -38.529)"/>
            <path id="Path_1004796" data-name="Path 1004796" d="M416.5,105.083a.2.2,0,0,1-.144-.061.2.2,0,0,1,0-.285c.737-.72,1.293-.543,1.353-.521a.2.2,0,0,1-.137.38c-.022-.006-.385-.106-.933.429a.2.2,0,0,1-.141.058" transform="translate(-154.571 -38.682)"/>
            <path id="Path_1004797" data-name="Path 1004797" d="M429.537,124.3s-5.174,76.1-4.749,76.966S435,203.652,438.456,203s5.361-1.731,5.917-2.38-.36-50.413-.36-50.413l.539-20.439s-7.471-5.492-15.014-5.465" transform="translate(-157.713 -46.154)" fill="#f4e6e6"/>
            <path id="Path_1004798" data-name="Path 1004798" d="M440.138,152.3h-6.559a1.015,1.015,0,0,1-1.015-1.015v-1.13a1.015,1.015,0,0,1,1.015-1.015h6.559a1.015,1.015,0,0,1,1.015,1.015v1.13a1.015,1.015,0,0,1-1.015,1.015" transform="translate(-160.61 -55.374)" fill="#92b4ea"/>
            <path id="Path_1004799" data-name="Path 1004799" d="M418.444,112.431a.2.2,0,0,1-.2-.155,3.44,3.44,0,0,1,.873-3.541.2.2,0,0,1,.253.314,3.055,3.055,0,0,0-.734,3.133.2.2,0,0,1-.2.249" transform="translate(-155.245 -40.356)"/>
            <path id="Path_1004800" data-name="Path 1004800" d="M416.793,108.531l-.036,0a.2.2,0,0,1-.162-.235l.222-1.212-.367-.459a.2.2,0,0,1,.316-.252l.425.531a.2.2,0,0,1,.04.163l-.24,1.3a.2.2,0,0,1-.2.165" transform="translate(-154.61 -39.467)"/>
            <path id="Path_1004801" data-name="Path 1004801" d="M421.763,116.388a1.778,1.778,0,0,1-.659-.131.2.2,0,0,1-.119-.166.2.2,0,0,1,.087-.185l1.74-1.184a.2.2,0,0,1,.219-.005.2.2,0,0,1,.094.2,1.657,1.657,0,0,1-.736,1.318,1.276,1.276,0,0,1-.627.154m-.084-.407a.9.9,0,0,0,.516-.1.969.969,0,0,0,.413-.532Z" transform="translate(-156.31 -42.582)"/>
            <path id="Path_1004802" data-name="Path 1004802" d="M402.162,128.205a46.646,46.646,0,0,1-7.207,3.237,23.556,23.556,0,0,1-5.912,1.209s-.011,4.327.131,8.841a40.339,40.339,0,0,1-.473,7.93s11.23,2.414,13.833-1.169-.371-20.048-.371-20.048" transform="translate(-144.323 -47.602)" fill="#7772d3"/>
            <path id="Path_1004803" data-name="Path 1004803" d="M365.454,114.88s-2.078-5.794-3.793-5.921.312,4.576.312,4.576l-4.643-1.775s-5.284-1.473-6.335-1.013.679,2.173.679,2.173-3.762-1.129-3.234.705,3.1,2.889,3.1,2.889-3.678-1.3-2.847.846c.449,1.162,8.537,6.059,13.986,5.885s3.974-3.815,3.974-3.815Z" transform="translate(-129.356 -40.455)" fill="#f48462"/>
            <path id="Path_1004804" data-name="Path 1004804" d="M356.509,120.23a.2.2,0,0,1-.153-.071.2.2,0,0,1,.022-.284l4.679-4a.2.2,0,0,1,.263.307l-4.679,4a.2.2,0,0,1-.131.048" transform="translate(-132.296 -43.007)"/>
            <path id="Path_1004805" data-name="Path 1004805" d="M370.654,122.887a3.188,3.188,0,0,1-2.384-1.433c-.607-1.071-.435-2.583.51-4.495a.2.2,0,1,1,.362.179c-.883,1.784-1.058,3.169-.521,4.116a2.808,2.808,0,0,0,2.048,1.228.2.2,0,0,1-.016.4" transform="translate(-136.606 -43.385)"/>
            <path id="Path_1004806" data-name="Path 1004806" d="M413.443,272.92a.2.2,0,0,1-.2-.19c-1.341-23.017-.917-59.983-.887-62.351l-7.256-4.3a.2.2,0,1,1,.206-.348l7.356,4.357a.2.2,0,0,1,.1.176c-.005.385-.493,38.787.885,62.439a.2.2,0,0,1-.189.213h-.012" transform="translate(-150.375 -76.378)" fill="#f7b369"/>
            <path id="Path_1004807" data-name="Path 1004807" d="M412.311,249.459a.2.2,0,0,1-.064-.01c-.746-.248-7.295-2.472-7.709-4.407a.975.975,0,0,1,.348-.959,1.5,1.5,0,0,1,1.2-.378c2.466.23,6.23,5.219,6.389,5.432a.2.2,0,0,1-.162.323M405.9,244.1a1.058,1.058,0,0,0-.744.28.582.582,0,0,0-.225.578c.28,1.308,4.531,3.076,6.8,3.885-1.052-1.307-3.848-4.565-5.684-4.736a1.388,1.388,0,0,0-.142-.007" transform="translate(-150.196 -90.484)" fill="#f7b369"/>
            <path id="Path_1004808" data-name="Path 1004808" d="M426.914,335.273a2,2,0,0,0,1.857-2.024c.055-4.332.712-14.038-.079-14.048-1.008-.013-11.166,2.622-11.166,2.622s-.213-6.007-4.4-4.982c-3.216.787-6.979,4.557-8.555,6.269a3.612,3.612,0,0,1-1.828,1.083c-3,.708-11.241,3.055-11.414,7.461-.211,5.385,1.957,4.8,2.966,4.81.865.011,25.628-.926,32.625-1.191" transform="translate(-145.292 -117.598)" fill="#5c69a5"/>
            <path id="Path_1004809" data-name="Path 1004809" d="M425.076,326.485a.2.2,0,0,1-.069-.392l4.826-1.768a.2.2,0,0,1,.259.121.2.2,0,0,1-.12.259l-4.827,1.767a.2.2,0,0,1-.069.013" transform="translate(-157.754 -120.417)" fill="#fff"/>
            <path id="Path_1004810" data-name="Path 1004810" d="M422.315,108.544a.245.245,0,0,1-.036,0,.2.2,0,0,1-.162-.235l.221-1.2-.479-.518a.2.2,0,1,1,.3-.274l.548.592a.2.2,0,0,1,.05.174l-.24,1.3a.2.2,0,0,1-.2.165" transform="translate(-156.615 -39.449)"/>
            <path id="Path_1004811" data-name="Path 1004811" d="M425.5,102.939l-.644.748.322-1.078a7.334,7.334,0,0,1-3.506-1.266c-1.988-1.257-2.46-4.308-2.46-4.308a10.635,10.635,0,0,0-1.8,1.137,3.145,3.145,0,0,0-1.14,1.518s-2.491-6.9,2.735-7.8,8.936,3.533,8.936,3.533a3.89,3.89,0,0,1,3.291,3.347,7.444,7.444,0,0,1-1.749,5.2,2.846,2.846,0,0,0-3.982-1.036" transform="translate(-154.34 -34.074)"/>
            <path id="Path_1004812" data-name="Path 1004812" d="M373.429,122.036l-12.884,6.955s4.64,13.4,13.186,16.793c8.286,3.29,12.636,2.559,12.636,2.559l-7.654,39.08S390.174,160.474,390.424,159s8.122-34.92,8.122-34.92-1.857-.267-5.939,1.3A35.793,35.793,0,0,1,380.36,128c-3.769,0-6.931-5.968-6.931-5.968" transform="translate(-133.869 -45.312)" fill="#f4e6e6"/>
            <path id="Path_1004813" data-name="Path 1004813" d="M420.632,128.921l-.313,2.495s6.889-2.885,7.348-4.18-6.728.724-6.728.724Z" transform="translate(-156.063 -47.081)" fill="#f48462"/>
            <path id="Path_1004814" data-name="Path 1004814" d="M420.2,131.573a.2.2,0,0,1-.2-.214l.267-4.487a.206.206,0,0,1,.214-.19.2.2,0,0,1,.189.214l-.247,4.163c1.25-.532,6.051-2.637,6.96-3.98a.2.2,0,1,1,.334.226c-1.108,1.64-7.18,4.147-7.438,4.253a.2.2,0,0,1-.077.015" transform="translate(-155.944 -47.037)" fill="#fff"/>
            <path id="Path_1004815" data-name="Path 1004815" d="M439.758,232.947c-2.542,0-7.152-.418-7.525-.9-.341-.445.085-11.358.283-16.029a.2.2,0,0,1,.2-.194h11.1a.2.2,0,0,1,.2.2v15.9a.2.2,0,0,1-.085.164,6.725,6.725,0,0,1-3.15.83c-.274.023-.627.033-1.03.033m-6.847-16.723c-.255,6.032-.551,15.027-.341,15.6.4.323,5.949.872,8.186.687a7.221,7.221,0,0,0,2.864-.7V216.223Z" transform="translate(-160.439 -80.133)" fill="#5c69a5"/>
            <path id="Path_1004816" data-name="Path 1004816" d="M398.06,175.748l-16.395.041a1.509,1.509,0,0,1-1.361-1.132l-6.276-25.32a.842.842,0,0,1,.8-1.137l16.395-.04a1.507,1.507,0,0,1,1.36,1.132l6.276,25.32a.842.842,0,0,1-.8,1.137" transform="translate(-138.862 -55.011)" fill="#40507f"/>
            <path id="Path_1004817" data-name="Path 1004817" d="M395.016,175.748l-16.394.041a1.508,1.508,0,0,1-1.361-1.132l-6.276-25.32a.842.842,0,0,1,.8-1.137l16.395-.04a1.507,1.507,0,0,1,1.361,1.132l6.276,25.32a.842.842,0,0,1-.8,1.137" transform="translate(-137.732 -55.011)" fill="#5c69a5"/>
            <path id="Path_1004818" data-name="Path 1004818" d="M391.538,137.408c-.032,0-.065,0-.1-.005a.927.927,0,0,1-.717-.44c-.855-1.316.487-5.387.545-5.56a.2.2,0,0,1,.192-.138.2.2,0,0,1,.193.141c.146.468,1.407,4.607.512,5.708a.777.777,0,0,1-.626.294m-.084-5.238c-.4,1.389-.921,3.762-.394,4.573a.529.529,0,0,0,.418.258.39.39,0,0,0,.372-.141c.55-.677.009-3.212-.4-4.69" transform="translate(-144.968 -48.738)" fill="#5c69a5"/>
            <path id="Path_1004819" data-name="Path 1004819" d="M411.229,162.677s-5.043-1.716-6.006-1.656a23.013,23.013,0,0,0-3.4.827l.341,1.377s-8.477.929-8.473,2.6c0,1.139,3.679.944,3.679.944s-3.8.512-3.68,1.807,4.811,1.161,4.811,1.161-3.882.78-2.426,1.913,13.88,2.427,15.758-.647-.609-8.327-.609-8.327" transform="translate(-146.177 -59.786)" fill="#f48462"/>
            <path id="Path_1004820" data-name="Path 1004820" d="M442.477,133s14.165,13.46,11.18,24.992c-3.948,15.255-34.48,6.378-34.48,6.378l1.031-14.221,18.344-1.005Z" transform="translate(-155.639 -49.382)" fill="#f4e6e6"/>
            <path id="Path_1004821" data-name="Path 1004821" d="M452.078,158.567c-1.925,0-4.141-.233-4.281-.248a.2.2,0,0,1-.068-.381c2.727-1.351,6.116-1.043,6.977-.431a.434.434,0,0,1,.228.409c-.021.165-.155.3-.4.391a8.048,8.048,0,0,1-2.454.261m-3.464-.577c1.5.128,4.724.346,5.772-.06a.6.6,0,0,0,.128-.065c-.312-.338-3.124-.941-5.9.124" transform="translate(-166.198 -58.288)" fill="#5c69a5"/>
            <path id="Path_1004822" data-name="Path 1004822" d="M406.689,164.046a.2.2,0,0,1-.037-.4l2.229-.416a.2.2,0,0,1,.235.162.2.2,0,0,1-.162.236l-2.229.416a.246.246,0,0,1-.037,0" transform="translate(-150.927 -60.606)"/>
            <path id="Path_1004823" data-name="Path 1004823" d="M398.433,169.809a.2.2,0,0,1-.025-.4l5.683-.688a.2.2,0,0,1,.224.176.2.2,0,0,1-.175.225l-5.684.688h-.025" transform="translate(-147.862 -62.644)"/>
            <path id="Path_1004824" data-name="Path 1004824" d="M400.121,174.773a.2.2,0,0,1-.025-.4l5.782-.732a.2.2,0,1,1,.05.4l-5.782.732-.025,0" transform="translate(-148.489 -64.471)"/>
            <path id="Path_1004825" data-name="Path 1004825" d="M386.337,152.018h-3.988a2.267,2.267,0,0,1-2.2-1.713l-.56-2.216a.2.2,0,0,1,.392-.1l.56,2.216a1.863,1.863,0,0,0,1.808,1.407h3.988a1.541,1.541,0,0,0,1.505-1.869l-.358-1.645a.2.2,0,1,1,.394-.086l.358,1.645a1.945,1.945,0,0,1-1.9,2.359" transform="translate(-140.938 -54.892)" fill="#fff"/>
            <path id="Path_1004826" data-name="Path 1004826" d="M434.487,131.2a.27.27,0,0,1-.262-.331c.565-2.39.472-4.273-.269-5.445a2.357,2.357,0,0,0-1.361-1.085.27.27,0,0,1-.208-.318.265.265,0,0,1,.316-.209,2.873,2.873,0,0,1,1.7,1.305c.844,1.315.963,3.292.351,5.875a.27.27,0,0,1-.262.207" transform="translate(-160.542 -45.97)" fill="#40507f"/>
            <path id="Path_1004827" data-name="Path 1004827" d="M414.739,137.535a.269.269,0,0,1-.269-.267c0-.419-.059-10.29,3.648-12.987a.269.269,0,1,1,.317.435c-3.484,2.535-3.428,12.447-3.427,12.546a.269.269,0,0,1-.267.272Z" transform="translate(-153.891 -46.126)" fill="#40507f"/>
            <path id="Path_1004828" data-name="Path 1004828" d="M431.189,144.109a.274.274,0,0,1-.108-.023.27.27,0,0,1-.139-.355c.027-.06,2.633-6.087.707-8.171a.994.994,0,0,0-.87-.341c-1.753.153-4.482,3.835-5.386,5.241a.269.269,0,1,1-.453-.291c.138-.216,3.417-5.278,5.791-5.487a1.534,1.534,0,0,1,1.313.513c2.164,2.342-.494,8.492-.608,8.753a.271.271,0,0,1-.247.161" transform="translate(-157.763 -50.004)" fill="#40507f"/>
            <path id="Path_1004829" data-name="Path 1004829" d="M415.556,144.849a1.607,1.607,0,1,1-1.607-1.607,1.607,1.607,0,0,1,1.607,1.607" transform="translate(-153.101 -53.185)" fill="#40507f"/>
            <path id="Path_1004830" data-name="Path 1004830" d="M415.154,145.429a.626.626,0,1,1-.626-.626.626.626,0,0,1,.626.626" transform="translate(-153.681 -53.765)" fill="#a37b90"/>
            <path id="Path_1004831" data-name="Path 1004831" d="M425.852,144.186h-2.078a.269.269,0,0,1,0-.538h2.078a.269.269,0,0,1,0,.538" transform="translate(-157.246 -53.336)" fill="#40507f"/>
            <path id="Path_1004832" data-name="Path 1004832" d="M434.591,149.725a.27.27,0,0,1-.229-.128l-1.088-1.772a.27.27,0,0,1,.46-.282l1.087,1.772a.269.269,0,0,1-.229.41" transform="translate(-160.858 -54.735)" fill="#40507f"/>
            <path id="Path_1004833" data-name="Path 1004833" d="M465.971,75.756H440.022a1.746,1.746,0,0,1-1.746-1.746V59.479a1.746,1.746,0,0,1,1.746-1.746h25.949a1.746,1.746,0,0,1,1.746,1.746V74.01a1.746,1.746,0,0,1-1.746,1.746" transform="translate(-162.73 -21.436)" fill="#96ff9a"/>
            <path id="Path_1004834" data-name="Path 1004834" d="M444.857,81.777l-4.811,9,11.427-7.568Z" transform="translate(-163.388 -30.363)" fill="#96ff9a"/>
            <path id="Path_1004835" data-name="Path 1004835" d="M449.561,67.538l4.085-2.322L456,68.134l9.354-7.709-7.9,12.936-3.81.08Z" transform="translate(-166.921 -22.436)" fill="#fff"/>
          </g>
        </g>
      </g>
    </g>
  </g>
</svg>
