<svg xmlns="http://www.w3.org/2000/svg" xmlns:xlink="http://www.w3.org/1999/xlink" width="84" height="84" viewBox="0 0 84 84">
  <defs>
    <clipPath id="clip-path">
      <rect id="Rectangle_459383" data-name="Rectangle 459383" width="71.413" height="64.041" fill="#12263f"/>
    </clipPath>
  </defs>
  <g id="img2" transform="translate(-706.371 -1685.777)">
    <g id="Group_1177731" data-name="Group 1177731">
      <g id="Group_1119665" data-name="Group 1119665" transform="translate(530.482 -3835.223)">
        <path id="Path_991847" data-name="Path 991847" d="M5,0H79a5,5,0,0,1,5,5V79a5,5,0,0,1-5,5H5a5,5,0,0,1-5-5V5A5,5,0,0,1,5,0Z" transform="translate(175.889 5521)" fill="#fee66f"/>
      </g>
      <g id="Group_1184383" data-name="Group 1184383" transform="translate(712.371 1697.736)">
        <g id="Group_1184382" data-name="Group 1184382" clip-path="url(#clip-path)">
          <path id="Path_1005377" data-name="Path 1005377" d="M150.1,232.942a2.748,2.748,0,0,1-1.252-.254,1.774,1.774,0,0,1-.757-.7,2.413,2.413,0,0,1-.3-1.042l1.074-.229a3.076,3.076,0,0,0,.145.7,1.2,1.2,0,0,0,.371.555,1.089,1.089,0,0,0,.72.216,1.072,1.072,0,0,0,.715-.208.744.744,0,0,0,.242-.6,1.046,1.046,0,0,0-.269-.75,4.546,4.546,0,0,0-.677-.572l-1.461-1.016a2.068,2.068,0,0,1-.634-.648,1.7,1.7,0,0,1-.2-.868,1.38,1.38,0,0,1,.548-1.169,2.418,2.418,0,0,1,1.493-.415,3.5,3.5,0,0,1,.908.106,1.7,1.7,0,0,1,.656.326,1.581,1.581,0,0,1,.419.555,2.578,2.578,0,0,1,.21.783l-1.031.22a2.726,2.726,0,0,0-.129-.623.913.913,0,0,0-.338-.458,1.18,1.18,0,0,0-.693-.173,1.146,1.146,0,0,0-.7.19.662.662,0,0,0-.252.563.918.918,0,0,0,.134.517,1.654,1.654,0,0,0,.435.415l1.472,1.016a4.028,4.028,0,0,1,.87.809,1.729,1.729,0,0,1,.376,1.114,1.447,1.447,0,0,1-.269.877,1.69,1.69,0,0,1-.736.563,2.79,2.79,0,0,1-1.08.195" transform="translate(-115.697 -176.884)" fill="#12263f"/>
          <path id="Path_1005378" data-name="Path 1005378" d="M174.024,232.942a3.09,3.09,0,0,1-1.407-.271,1.588,1.588,0,0,1-.752-.775,2.867,2.867,0,0,1-.226-1.181v-2.6a2.7,2.7,0,0,1,.231-1.165,1.575,1.575,0,0,1,.752-.745,3.192,3.192,0,0,1,1.4-.258,3.109,3.109,0,0,1,1.4.263,1.6,1.6,0,0,1,.747.745,2.67,2.67,0,0,1,.231,1.16v2.609a2.761,2.761,0,0,1-.231,1.169,1.651,1.651,0,0,1-.747.775,2.986,2.986,0,0,1-1.4.275m0-.754a1.378,1.378,0,0,0,.731-.157.768.768,0,0,0,.333-.44,2.3,2.3,0,0,0,.086-.665v-3.007a2.215,2.215,0,0,0-.086-.656.733.733,0,0,0-.333-.423,1.444,1.444,0,0,0-.731-.148,1.476,1.476,0,0,0-.736.148.727.727,0,0,0-.338.423,2.207,2.207,0,0,0-.086.656v3.007a2.292,2.292,0,0,0,.086.665.76.76,0,0,0,.338.44,1.407,1.407,0,0,0,.736.157" transform="translate(-134.369 -176.884)" fill="#12263f"/>
          <path id="Path_1005379" data-name="Path 1005379" d="M200.544,232.949a2.655,2.655,0,0,1-1.305-.275,1.6,1.6,0,0,1-.709-.8,3.253,3.253,0,0,1-.22-1.262v-2.3a3.658,3.658,0,0,1,.2-1.283,1.5,1.5,0,0,1,.709-.809,2.994,2.994,0,0,1,1.424-.28,3.363,3.363,0,0,1,1.316.216,1.4,1.4,0,0,1,.725.661,2.47,2.47,0,0,1,.226,1.122v.254h-1.139v-.212a2.947,2.947,0,0,0-.075-.733.675.675,0,0,0-.306-.423,1.448,1.448,0,0,0-.725-.14,1.244,1.244,0,0,0-.779.195.842.842,0,0,0-.3.529,4.374,4.374,0,0,0-.059.758v2.541a3.139,3.139,0,0,0,.091.821.8.8,0,0,0,.349.491,1.382,1.382,0,0,0,.73.161,1.276,1.276,0,0,0,.731-.178.9.9,0,0,0,.355-.525,3.272,3.272,0,0,0,.1-.864v-.474H200.77v-.678h2.2v3.4h-.763l-.118-.788a1.48,1.48,0,0,1-.537.627,1.794,1.794,0,0,1-1.01.246" transform="translate(-155.248 -176.883)" fill="#12263f"/>
          <path id="Path_1005380" data-name="Path 1005380" d="M227.124,232.942a2.81,2.81,0,0,1-1.434-.3,1.619,1.619,0,0,1-.709-.822,3.185,3.185,0,0,1-.2-1.152v-2.422a3.368,3.368,0,0,1,.2-1.211,1.523,1.523,0,0,1,.709-.8,2.984,2.984,0,0,1,1.434-.284,2.947,2.947,0,0,1,1.295.237,1.44,1.44,0,0,1,.688.677,2.448,2.448,0,0,1,.21,1.059v.542h-1.15v-.483a4.149,4.149,0,0,0-.048-.673.679.679,0,0,0-.263-.453,1.23,1.23,0,0,0-.72-.161,1.286,1.286,0,0,0-.752.174.8.8,0,0,0-.306.491,3.488,3.488,0,0,0-.07.741v2.719a2.5,2.5,0,0,0,.107.817.732.732,0,0,0,.354.428,1.469,1.469,0,0,0,.666.127,1.138,1.138,0,0,0,.709-.174.761.761,0,0,0,.269-.479,4.166,4.166,0,0,0,.054-.711v-.508h1.15v.508a2.932,2.932,0,0,1-.193,1.105,1.475,1.475,0,0,1-.666.745,2.742,2.742,0,0,1-1.332.267" transform="translate(-175.973 -176.884)" fill="#12263f"/>
          <path id="Path_1005381" data-name="Path 1005381" d="M58.643,64.015l-31.736.026a3.182,3.182,0,0,1-2.977-1.777,3.592,3.592,0,0,1,.483-3.72L12.607,58.5c-2.025-.008-2.947-2.032-2.936-3.791.012-1.776.738-3.76,2.741-3.806l4.241-.1V46.656L1.927,46.65A1.969,1.969,0,0,1,0,44.848L.01,5.419A5.474,5.474,0,0,1,5.188,0H57.695c3.228,0,5.186,3.144,5.227,5.981l.032,2.2a14.226,14.226,0,0,1,.73,21.092l7.177,10.524c1.347,1.975.017,4.743-1.748,5.752A4.466,4.466,0,0,1,62.967,44.2c-.02,1.345-.7,2.435-2,2.44l-7.319.028,7.13,12.352a3.259,3.259,0,0,1,.3,3.04,2.966,2.966,0,0,1-2.433,1.957M47.795,36.482l11.524-.01-1.807-3.719A14.239,14.239,0,1,1,61.074,6.764c.437-2.263-.912-5-3.4-5L5.218,1.729A3.884,3.884,0,0,0,1.777,5.664l0,30.816,35.374,0,2.648-4.5A3.08,3.08,0,0,1,42.21,30.55a3,3,0,0,1,2.711,1.1ZM66.239,19.015A12.456,12.456,0,1,0,53.783,31.471,12.456,12.456,0,0,0,66.239,19.015M59.9,33.437l3.2-1.88-.777-1.074-3.063,1.745ZM58.127,62.283a1.665,1.665,0,0,0,1.152-.542,1.912,1.912,0,0,0,.191-1.415L43.752,33.083a1.652,1.652,0,0,0-1.127-.777,1.563,1.563,0,0,0-1.314.58L25.757,59.815A1.467,1.467,0,0,0,26.9,62.286Zm11.184-21.67-5.2-7.584-3.5,2.057,4.042,8.49a2.769,2.769,0,0,0,3.7.345c.841-.573,1.775-2.118.96-3.307m-36.973,4.3,3.8-6.7-34.373,0,.015,6.706Zm27.756-6.7-11.322,0,3.837,6.7,8.515,0c-.045-2.686.477-4.569-1.03-6.693M28.928,50.826l2.35-4.165-12.863-.008,0,4.17Zm-3.375,5.9,2.295-4.15L12.81,52.564c-1.086.228-1.391,1.041-1.349,2.182.022.6.112,1.966,1.1,1.966Z" transform="translate(0)" fill="#12263f"/>
          <path id="Path_1005382" data-name="Path 1005382" d="M40.286,31.827,29.571,39.269a1.3,1.3,0,0,1-1.183.021c-.269-.2-.41-1.08-.095-1.3l11.835-8.209L50.51,34.666l8.4-7.291-1.793-.1a1.121,1.121,0,0,1-.806-.942A1.1,1.1,0,0,1,57.3,25.5l4.029.007a1.1,1.1,0,0,1,.952.935L62.217,30.4c-.006.369-.7.761-1.042.679a1.191,1.191,0,0,1-.755-1.1l-.128-1.432L50.8,36.755Z" transform="translate(-22.009 -19.965)" fill="#12263f"/>
          <rect id="Rectangle_459380" data-name="Rectangle 459380" width="33.253" height="1.785" transform="translate(3.402 32.081)" fill="#12263f"/>
          <rect id="Rectangle_459381" data-name="Rectangle 459381" width="32.852" height="1.776" transform="translate(3.398 24.059)" fill="#12263f"/>
          <rect id="Rectangle_459382" data-name="Rectangle 459382" width="29.995" height="1.778" transform="translate(3.395 28.039)" fill="#12263f"/>
          <path id="Path_1005383" data-name="Path 1005383" d="M219.417,48.491a10.846,10.846,0,1,1-10.846-10.846,10.846,10.846,0,0,1,10.846,10.846m-1.78,0a9.068,9.068,0,1,0-9.068,9.068,9.068,9.068,0,0,0,9.068-9.068" transform="translate(-154.792 -29.471)" fill="#12263f"/>
        </g>
      </g>
    </g>
  </g>
</svg>
