<svg xmlns="http://www.w3.org/2000/svg" xmlns:xlink="http://www.w3.org/1999/xlink" width="96.32" height="96.32" viewBox="0 0 96.32 96.32">
  <defs>
    <clipPath id="clip-path">
      <rect id="Rectangle_459900" data-name="Rectangle 459900" width="60.098" height="60.293" fill="#7b1a8a"/>
    </clipPath>
  </defs>
  <g id="img20" transform="translate(-0.024)">
    <path id="Path_997400" data-name="Path 997400" d="M48.16,0A48.16,48.16,0,1,1,0,48.16,48.16,48.16,0,0,1,48.16,0Z" transform="translate(0.024)" fill="#f7ceff"/>
    <g id="Group_1099776" data-name="Group 1099776" transform="translate(18.06 18.059)">
      <g id="Group_1099618" data-name="Group 1099618" transform="translate(0 0)">
        <rect id="Rectangle_401104" data-name="Rectangle 401104" width="59.576" height="60.293" transform="translate(0)" fill="none"/>
      </g>
      <g id="Group_1185193" data-name="Group 1185193" transform="translate(-0.036 0)">
        <g id="Group_1185192" data-name="Group 1185192" clip-path="url(#clip-path)">
          <path id="Path_1005851" data-name="Path 1005851" d="M24.514,60.267l-15.892.026,1.024-8.38a10.757,10.757,0,0,1-4.71-6.182L3.608,41.365a5.465,5.465,0,0,0-2.2-2.921,2.779,2.779,0,0,1-1.387-2.51,2.743,2.743,0,0,1,1.765-2.368A5.017,5.017,0,0,1,8.54,36.273,10.976,10.976,0,0,0,9.687,39l.042-13.226-4.1-2.389A11.067,11.067,0,0,1,0,13.592L.028.57,2.995,2.034a6.837,6.837,0,0,0,6.844-.226L12.622,0l3.046,1.96a6.459,6.459,0,0,0,6.237.219L25.194.559l-.051,14.11a10.049,10.049,0,0,1-5.031,8.39L15.547,25.74,15.57,29.3a3.067,3.067,0,0,1,3.694,1.975,3.231,3.231,0,0,1,3.912,1.9,3.942,3.942,0,0,1,2.969.626c.889.747.956,1.708,1,2.9a21.415,21.415,0,0,1-2.389,11.12l-2.365,3.842ZM15.426,23.572l3.257-1.9a8.8,8.8,0,0,0,4.576-7.182V3.7c-6.109,3.048-9.9-1.226-10.614-1.3-.623-.065-4.481,4.4-10.681,1.3l.017,10.585A8.7,8.7,0,0,0,5.7,21.16l4.131,2.41a2.948,2.948,0,0,1,2.8-2.08,2.993,2.993,0,0,1,2.8,2.082m9.437,11.723a2.676,2.676,0,0,0-1.6-.2l-.012,3.88-1.917-.036c-.011-1.835.027-3.457-.093-5.281-.037-.559-1.3-.663-1.822-.46l-.028,5.769-1.915-.034-.065-7.13c-.006-.646-1.325-.774-1.862-.558l-.017,7.7-1.925-.016v-14.5a1.057,1.057,0,0,0-.966-1.033,1,1,0,0,0-.969.848l-.013,14.554A2.109,2.109,0,0,1,9.97,40.823a2.07,2.07,0,0,1-2.363-1.3L6.8,37.115a3.081,3.081,0,0,0-4.451-1.642,1.01,1.01,0,0,0-.4.61c.005.744,2.508,1.488,3.508,4.693L7.017,45.8a9.039,9.039,0,0,0,4.106,4.761l9.7-.016,1.392-2.255a19.157,19.157,0,0,0,2.964-11.43c-.027-.439.141-1.235-.312-1.568M22.034,58.323l-1.451-5.817-9.055,0-.719,5.84Z" transform="translate(0 0.001)" fill="#7b1a8a"/>
          <path id="Path_1005852" data-name="Path 1005852" d="M176.7,227.514a1.942,1.942,0,0,1-2.027-1.962l-.007-5.7a1.91,1.91,0,0,1,1.87-2.023l6.007,0a4.883,4.883,0,0,1,1.044.32l2.983-2.967,1.39,1.376-3.6,3.612-.025,5.569a1.955,1.955,0,0,1-2,1.773Zm.191-5.157,1.338-1.333,1.276,1.246,2.434-2.506-5.318-.017,0,5.816h5.8l-.02-3.422L179.523,225Z" transform="translate(-143.634 -176.958)" fill="#7b1a8a"/>
          <path id="Path_1005853" data-name="Path 1005853" d="M176.547,42.281a1.972,1.972,0,0,1-1.9-2.068l.01-5.72a1.884,1.884,0,0,1,1.791-1.918l6.176-.014.965.361,2.971-2.957,1.338,1.35-3.552,3.546-.04,5.707a1.974,1.974,0,0,1-1.857,1.714Zm.336-5.143,1.387-1.374,1.263,1.243,2.457-2.485-5.378-.008V40.36l5.8-.011-.036-3.485-2.92,2.88Z" transform="translate(-143.625 -24.642)" fill="#7b1a8a"/>
          <path id="Path_1005854" data-name="Path 1005854" d="M176.722,140.387a1.963,1.963,0,0,1-2.025-1.938l0-5.884a1.908,1.908,0,0,1,1.783-1.9l6.186-.023.961.365,2.967-2.955,1.352,1.352-3.558,3.55-.043,5.677a2,2,0,0,1-1.995,1.754Zm.187-5.166,1.4-1.337,1.245,1.216,2.479-2.506-5.387-.007v5.865h5.809l-.042-3.486-2.912,2.869Z" transform="translate(-143.662 -105.305)" fill="#7b1a8a"/>
          <path id="Path_1005855" data-name="Path 1005855" d="M154.983,2.892l-4.592,4.585-1.363-1.4L154.12.965l28.507,0,.023,1.935Z" transform="translate(-122.553 -0.789)" fill="#7b1a8a"/>
          <rect id="Rectangle_459891" data-name="Rectangle 459891" width="15.523" height="1.958" transform="translate(44.572 31.188)" fill="#7b1a8a"/>
          <rect id="Rectangle_459892" data-name="Rectangle 459892" width="15.526" height="1.948" transform="translate(44.572 46.658)" fill="#7b1a8a"/>
          <rect id="Rectangle_459893" data-name="Rectangle 459893" width="15.524" height="1.944" transform="translate(44.572 13.77)" fill="#7b1a8a"/>
          <rect id="Rectangle_459894" data-name="Rectangle 459894" width="9.697" height="1.964" transform="translate(50.398 9.864)" fill="#7b1a8a"/>
          <rect id="Rectangle_459895" data-name="Rectangle 459895" width="9.697" height="1.967" transform="translate(50.398 27.274)" fill="#7b1a8a"/>
          <rect id="Rectangle_459896" data-name="Rectangle 459896" width="9.702" height="1.936" transform="translate(50.394 42.791)" fill="#7b1a8a"/>
          <rect id="Rectangle_459897" data-name="Rectangle 459897" width="3.872" height="1.964" transform="translate(44.572 9.864)" fill="#7b1a8a"/>
          <rect id="Rectangle_459898" data-name="Rectangle 459898" width="3.872" height="1.967" transform="translate(44.572 27.274)" fill="#7b1a8a"/>
          <rect id="Rectangle_459899" data-name="Rectangle 459899" width="3.882" height="1.936" transform="translate(44.567 42.793)" fill="#7b1a8a"/>
          <path id="Path_1005856" data-name="Path 1005856" d="M42.484,45.394c-.032,1.955-2.119,1.979-3.97,1.879A1.965,1.965,0,0,1,36.688,45.4l-.02-1.972-2.1-.054a1.949,1.949,0,0,1-1.781-1.894l.015-2.138A1.859,1.859,0,0,1,34.538,37.6l2.134-.035.014-1.969a1.888,1.888,0,0,1,1.779-1.9l2.1-.009a1.972,1.972,0,0,1,1.942,2.092l-.009,1.8,1.842-.016a1.944,1.944,0,0,1,2.013,1.842l.013,2.052a2,2,0,0,1-1.872,1.922l-1.979.041Zm-1.91-.037,0-3.887,3.867.008V39.53l-3.868,0,0-3.907-1.944,0,0,3.912-3.909,0v1.949l3.907-.006,0,3.889Z" transform="translate(-26.961 -27.704)" fill="#7b1a8a"/>
        </g>
      </g>
    </g>
  </g>
</svg>
