<svg xmlns="http://www.w3.org/2000/svg" xmlns:xlink="http://www.w3.org/1999/xlink" width="96" height="96" viewBox="0 0 96 96">
  <defs>
    <clipPath id="clip-path">
      <rect id="Rectangle_459880" data-name="Rectangle 459880" width="55" height="55" transform="translate(0 0)" fill="#7b1a8a"/>
    </clipPath>
  </defs>
  <g id="img24" transform="translate(-793.75 -2920.526)">
    <path id="Elipse_5729" data-name="Elipse 5729" d="M48,0A48,48,0,1,1,0,48,48,48,0,0,1,48,0Z" transform="translate(793.75 2920.526)" fill="#f7ceff"/>
    <g id="Group_1185179" data-name="Group 1185179" transform="translate(815.75 2939.525)">
      <g id="Group_1185178" data-name="Group 1185178" transform="translate(0 0)" clip-path="url(#clip-path)">
        <path id="Path_1005797" data-name="Path 1005797" d="M43.637,30.8,43.6,51.985a3.566,3.566,0,0,1-3.513,3.33l-36.43,0A3.646,3.646,0,0,1,0,51.647V3.666A3.625,3.625,0,0,1,3.658.01L39.766,0a3.624,3.624,0,0,1,3.849,3.491l.04,16.141L48.937,14.4a4,4,0,0,1,5.289.4,3.878,3.878,0,0,1,.091,5.294Zm-6.475-4.708L37.156,6.5H31.045a3.5,3.5,0,0,1-3.476,3.471l-11.693,0A3.411,3.411,0,0,1,12.634,6.5L6.5,6.5V48.827H17.426a1.085,1.085,0,0,1,1.146,1.035,1.157,1.157,0,0,1-1.02,1.158l-12,.011A1.159,1.159,0,0,1,4.3,49.886V5.426A1.1,1.1,0,0,1,5.389,4.313L12.632,4.3V2.194l-8.837,0A1.462,1.462,0,0,0,2.171,3.673l0,47.806a1.526,1.526,0,0,0,1.66,1.671H39.92a1.507,1.507,0,0,0,1.573-1.378L41.509,33l-2.2.992-.021,16.211c0,.518-.86.825-1.249.825l-11.88-.009a1.144,1.144,0,0,1-1.1-1.162,1.129,1.129,0,0,1,1.1-1.031l11,0-.007-13.835-3.419,1.5a1.567,1.567,0,0,1-1.119-.353,1.314,1.314,0,0,1-.207-1.015l3.379-7.57ZM27.648,7.774A1.237,1.237,0,0,0,28.865,6.5l0-4.3-14.086,0,.011,4.432a1.193,1.193,0,0,0,1.221,1.148ZM39.313,23.951l2.192-2.133L41.5,3.8c0-.583-.41-1.583-1.114-1.585l-9.332-.033-.006,2.12,7.293.007a1.145,1.145,0,0,1,.956.919Zm12.671-4.562.53-.487a1.837,1.837,0,0,0,.393-2.3,1.778,1.778,0,0,0-2.076-.779A3.13,3.13,0,0,0,49.5,16.9Zm-4.031-1L38.2,28.135l2.535,2.538,9.759-9.749ZM38.886,31.842l-1.851-1.834-1.388,3.247Z" transform="translate(0 0)" fill="#7b1a8a"/>
        <path id="Path_1005798" data-name="Path 1005798" d="M25.208,53.675H18.155a1.087,1.087,0,0,1-1.106-1.119l.008-6.966a1.038,1.038,0,0,1,1.092-.967l7,0a.977.977,0,0,1,.958.944v7.15a1.14,1.14,0,0,1-.9.956m-1.234-6.926H19.221v4.756h4.754Z" transform="translate(-7.545 -19.747)" fill="#7b1a8a"/>
        <path id="Path_1005799" data-name="Path 1005799" d="M25.208,32.354H18.155a1.085,1.085,0,0,1-1.105-1.118l.006-6.977a1.052,1.052,0,0,1,.938-.953h7.144a1,1,0,0,1,.971.938l0,7.151a1.1,1.1,0,0,1-.9.958m-1.233-6.922H19.221v4.756h4.754Z" transform="translate(-7.545 -10.314)" fill="#7b1a8a"/>
        <path id="Path_1005800" data-name="Path 1005800" d="M25.055,75l-6.9,0a1.128,1.128,0,0,1-1.1-1.107l.006-6.981a1.028,1.028,0,0,1,.94-.962H25.15a.977.977,0,0,1,.956.949l.005,6.99A1.094,1.094,0,0,1,25.055,75m-5.833-2.174h4.754V68.069H19.221Z" transform="translate(-7.545 -29.182)" fill="#7b1a8a"/>
        <path id="Path_1005801" data-name="Path 1005801" d="M49.268,72.932a1.1,1.1,0,0,1,.012,1.508,1.13,1.13,0,0,1-1.542.025l-1.7-1.676L44.3,74.5a1.115,1.115,0,0,1-1.362.033,1.1,1.1,0,0,1-.209-1.455l1.772-1.83-1.692-1.713a1.115,1.115,0,0,1,.114-1.561,1.189,1.189,0,0,1,1.5.1l1.641,1.63,1.655-1.656a1.167,1.167,0,0,1,1.4-.118c.354.221.683,1.032.339,1.386L47.6,71.229Z" transform="translate(-18.824 -29.984)" fill="#7b1a8a"/>
        <path id="Path_1005802" data-name="Path 1005802" d="M42.992,53.031,40.74,50.769a1.1,1.1,0,0,1-.021-1.59,1.114,1.114,0,0,1,1.62.141l1.536,1.532,4.143-4.139a1.112,1.112,0,0,1,1.476-.025,1.128,1.128,0,0,1,.111,1.466L44.7,53.07a1.148,1.148,0,0,1-1.713-.039" transform="translate(-17.874 -20.542)" fill="#7b1a8a"/>
        <path id="Path_1005803" data-name="Path 1005803" d="M43.174,31.877,40.649,29.36a1.147,1.147,0,0,1-.006-1.432,1.105,1.105,0,0,1,1.432-.158l1.807,1.759,4.137-4.135a1.074,1.074,0,0,1,1.589,1.438l-4.99,5a1.142,1.142,0,0,1-1.444.041" transform="translate(-17.876 -11.11)" fill="#7b1a8a"/>
        <path id="Path_1005804" data-name="Path 1005804" d="M39.379,88.682A1.077,1.077,0,1,1,38.3,87.6a1.077,1.077,0,0,1,1.077,1.077" transform="translate(-16.473 -38.767)" fill="#7b1a8a"/>
      </g>
    </g>
  </g>
</svg>
