<svg xmlns="http://www.w3.org/2000/svg" xmlns:xlink="http://www.w3.org/1999/xlink" width="96" height="96" viewBox="0 0 96 96">
  <defs>
    <clipPath id="clip-path">
      <rect id="Rectangle_459879" data-name="Rectangle 459879" width="62.771" height="63.303" fill="#7b1a8a"/>
    </clipPath>
  </defs>
  <g id="img23" transform="translate(-793.75 -2920.526)">
    <path id="Elipse_5729" data-name="Elipse 5729" d="M48,0A48,48,0,1,1,0,48,48,48,0,0,1,48,0Z" transform="translate(793.75 2920.526)" fill="#f7ceff"/>
    <g id="Group_1185177" data-name="Group 1185177" transform="translate(810.75 2936.526)">
      <g id="Group_1185176" data-name="Group 1185176" transform="translate(0 0)" clip-path="url(#clip-path)">
        <path id="Path_1005789" data-name="Path 1005789" d="M50.985,57.883,24.5,57.909c.946,2.288,1.977,5.394.247,5.394H1.08A1,1,0,0,1,.008,62.172,12.964,12.964,0,0,1,8.65,51.335a7.063,7.063,0,0,1,1.5-12.178l0-29.232a3.3,3.3,0,0,1,3.06-3.31l8.606-.058.029-2.423a1.09,1.09,0,0,1,1.024-.987l4.559-.011A5.166,5.166,0,0,1,32.138,0a4.992,4.992,0,0,1,4.745,3.134l4.72.015c.314,0,.879.474.883.771l.033,2.633L50.9,6.58A3.407,3.407,0,0,1,54.193,9.9l.025,11.137L56,19.367c1.75-1.638,4.006-1.136,5.508.434a3.729,3.729,0,0,1,.085,5.512l-7.389,7.378-.029,22.155a3.3,3.3,0,0,1-3.192,3.037M40.47,9.4l0-4.185-4.159.011A1.377,1.377,0,0,1,35.17,4.4a3.081,3.081,0,0,0-6,.038,1.389,1.389,0,0,1-1.041.776H23.869L23.9,9.4Zm-6.65,34.749,1.922-.058,1.647-6.071.97-1.142-4.469-.01a1.012,1.012,0,0,1-1.085-1.1,1.048,1.048,0,0,1,1.086-.928l6.623.008,2.247-2.315-8.868-.01A1.043,1.043,0,0,1,32.8,31.483a1.078,1.078,0,0,1,1.114-1l10.951,0,7.316-7.328.007-12.856A1.481,1.481,0,0,0,50.7,8.609H42.524l-.013,1.7a1.084,1.084,0,0,1-1.147,1.148H22.906a1.085,1.085,0,0,1-1.058-.976L21.825,8.6l-8.26.01A1.429,1.429,0,0,0,12.19,9.93V38.66a7.007,7.007,0,0,1,7.061,4.051l1.39-.394,4.881.013A2.6,2.6,0,0,1,28.186,45v4.671A2.666,2.666,0,0,1,25.5,52.4l-4.651,0a2.72,2.72,0,0,1-2.7-2.056l-1.087.972A13.133,13.133,0,0,1,23.2,55.862l27.484,0a1.467,1.467,0,0,0,1.511-1.546l-.018-19.559-8.948,8.9-1.031.442,4.574.046a1.022,1.022,0,1,1-.166,2.036H33.907A1,1,0,0,1,32.8,45.1a1.071,1.071,0,0,1,1.019-.95M60.441,23.518c.792-.833.075-1.837-.569-2.437-.559-.52-1.517-1.09-2.2-.443l-1.662,1.587,2.9,2.9Zm-5.837.124L39.734,38.474,42.648,41.4,57.519,26.564ZM40.637,42.308l-1.812-1.837-.666,2.5ZM17.848,45.656a4.994,4.994,0,1,0-4.994,4.994,4.994,4.994,0,0,0,4.994-4.994m8.315,4.054-.055-5.3-5.913,0-.056,5.443c.031.132.388.5.613.505l4.748.005a.857.857,0,0,0,.664-.654M23.5,61.27a10.889,10.889,0,0,0-21.281.013Z" transform="translate(0 0)" fill="#7b1a8a"/>
        <path id="Path_1005790" data-name="Path 1005790" d="M37.208,57.474l-4.827-.014a2.582,2.582,0,0,1-2.514-2.435l-.022-4.989a2.6,2.6,0,0,1,2.73-2.645l4.687.01a2.578,2.578,0,0,1,2.66,2.609l-.028,5.057a2.65,2.65,0,0,1-2.685,2.407m.659-2.07,0-5.914L31.9,49.476l.008,5.9Z" transform="translate(-11.736 -18.636)" fill="#7b1a8a"/>
        <path id="Path_1005791" data-name="Path 1005791" d="M37.746,35.1l-5.549-.03a2.534,2.534,0,0,1-2.334-2.44l-.01-5.023a2.516,2.516,0,0,1,2.37-2.55l5.387.01a2.533,2.533,0,0,1,2.291,2.32l.007,5.268A2.7,2.7,0,0,1,37.746,35.1m-.344-2,.5-.591-.049-5.39c-2.048-.076-3.827-.074-5.937,0l.017,5.935Z" transform="translate(-11.739 -9.854)" fill="#7b1a8a"/>
        <path id="Path_1005792" data-name="Path 1005792" d="M68.036,30.08l-12.877.005a1.133,1.133,0,0,1-1.1-.863,1.061,1.061,0,0,1,.92-1.193l13.059,0a1.028,1.028,0,0,1,0,2.053" transform="translate(-21.254 -11.021)" fill="#7b1a8a"/>
        <path id="Path_1005793" data-name="Path 1005793" d="M64.688,37.215H55.156a1.05,1.05,0,0,1-1.1-.888A1.077,1.077,0,0,1,55,35.169l9.842-.005a1.135,1.135,0,0,1,.992.985,1.049,1.049,0,0,1-1.151,1.066" transform="translate(-21.256 -13.828)" fill="#7b1a8a"/>
        <path id="Path_1005794" data-name="Path 1005794" d="M64.755,82l-9.581.012A1.1,1.1,0,0,1,54.063,81a1.041,1.041,0,0,1,1.092-1.042H64.7a1.048,1.048,0,0,1,1.135.865A1.066,1.066,0,0,1,64.755,82" transform="translate(-21.26 -31.443)" fill="#7b1a8a"/>
        <path id="Path_1005795" data-name="Path 1005795" d="M53.41,6.505a1.083,1.083,0,1,1-1.083-1.083A1.083,1.083,0,0,1,53.41,6.505" transform="translate(-20.151 -2.132)" fill="#7b1a8a"/>
        <path id="Path_1005796" data-name="Path 1005796" d="M35.137,33.593l-1.092-1.118a1.044,1.044,0,0,1,.167-1.544c.567-.339,1.22-.175,1.706.66l1.463-1.155a1.072,1.072,0,0,1,1.516.1,1.11,1.11,0,0,1-.164,1.406L36.7,33.7a1.132,1.132,0,0,1-1.567-.107" transform="translate(-13.283 -11.864)" fill="#7b1a8a"/>
      </g>
    </g>
  </g>
</svg>
