<svg xmlns="http://www.w3.org/2000/svg" xmlns:xlink="http://www.w3.org/1999/xlink" width="96" height="96" viewBox="0 0 96 96">
  <defs>
    <clipPath id="clip-path">
      <rect id="Rectangle_459884" data-name="Rectangle 459884" width="58.667" height="58.666" fill="#7b1a8a"/>
    </clipPath>
  </defs>
  <g id="img28" transform="translate(-793.75 -2920.525)">
    <path id="Elipse_5729" data-name="Elipse 5729" d="M48,0A48,48,0,1,1,0,48,48,48,0,0,1,48,0Z" transform="translate(793.75 2920.525)" fill="#f7ceff"/>
    <g id="Group_1185187" data-name="Group 1185187" transform="translate(812.75 2939.525)">
      <g id="Group_1185186" data-name="Group 1185186" clip-path="url(#clip-path)">
        <path id="Path_1005821" data-name="Path 1005821" d="M13.659,27.518a.933.933,0,0,0-1.131.262L3.473,35.034a3.007,3.007,0,0,1-.961.079c-.251-.041-.541-.552-.542-.842L1.955,27.2A2.9,2.9,0,0,1,0,24.385L.009,8.6A2.78,2.78,0,0,1,2.5,5.917l11.157-.03,0-4.978A1.019,1.019,0,0,1,14.73,0L42.453,0,54.741,12.282l.013,26.341a8.818,8.818,0,0,1,0,14.659l0,4.494a.966.966,0,0,1-.963.89H14.738a1.021,1.021,0,0,1-1.077-.96Zm28.39,21.416,7.779-.013a2.963,2.963,0,0,0,2.937-3.447,3.008,3.008,0,0,0-3.889-2.314,4.088,4.088,0,0,1-.106,1.327c-.1.27-.69.527-1.044.542l-6.269-4.164a1.267,1.267,0,0,1-.38-.928,1.5,1.5,0,0,1,.482-.715l6.164-4.066c.33-.022,1.035.232,1.058.515l.117,1.392a20.407,20.407,0,0,1,3.9.544V13.66l-10.819,0a1.04,1.04,0,0,1-.9-.939l0-10.759H15.615l-.008,3.919,7.385.041A2.786,2.786,0,0,1,25.423,8.62l.018,15.76a3.083,3.083,0,0,1-2.878,3.033H15.609V56.7l37.152,0,.044-2.406a10.68,10.68,0,0,1-2.568.452l-8.27,0a1.038,1.038,0,0,1-.892-.911l.017-4.154c0-.4.5-.749.956-.749m9.359-37.251L43.068,3.336l-.02,8.384ZM12.372,25.425l10.049.037a1.145,1.145,0,0,0,1.065-1.089L23.481,8.806c0-.745-.617-.955-1.241-.955H3.061c-.647,0-1.095.232-1.095.941v15.6c0,1.414,1.935.707,1.942,1.984l.03,5.766ZM43.065,50.851l0,1.942,6.825.005a6.849,6.849,0,1,0-.19-13.7l-1.811.007a.985.985,0,0,1-.936-1.1l-3.1,2.076,3.1,2.089c0-.648.353-1.106.948-1.093l2.494.051A4.787,4.787,0,0,1,54.754,46.2a4.836,4.836,0,0,1-4.694,4.619Z" transform="translate(0 -0.001)" fill="#7b1a8a"/>
        <path id="Path_1005822" data-name="Path 1005822" d="M161.577,99.358l-8.016.011a.985.985,0,0,1-.943-.908V94.45a.96.96,0,0,1,.922-.913l2.965.023.013-3.933-2.963-.006a1.118,1.118,0,0,1-.937-1.022l-.005-3.835a1,1,0,0,1,.957-1.038h2.942l.006-3.918-2.976-.009a.977.977,0,0,1-.92-.9l-.005-4.007a1.03,1.03,0,0,1,1.01-.955l2.885-.007,0-3.871-2.945,0a1.178,1.178,0,0,1-.956-1.009l.008-4.034a1.006,1.006,0,0,1,.932-.854l2.96.008V60.224l-2.972.012a.986.986,0,0,1-.921-.884l0-4.013a1.04,1.04,0,0,1,.983-.968l7.852,0a.975.975,0,0,1,.925.971l-.005,4a.986.986,0,0,1-.87.881l-3.039,0v3.944l3.04-.006a1.012,1.012,0,0,1,.865.863l.011,4.016a1.071,1.071,0,0,1-.913,1.007l-3,.022v3.845l3.116.032c.4,0,.8.553.8.933l-.008,4.015a1,1,0,0,1-.869.891l-3.039.005v3.926l3.034,0a1.049,1.049,0,0,1,.88,1.03V88.6a1.077,1.077,0,0,1-.909,1.011l-3.009.024.013,3.911,3.055-.015c.3,0,.833.42.834.754l.019,4.172c0,.29-.391.9-.8.9m-1.163-43.035h-5.842v1.955h5.842Zm0,9.814h-5.841v1.97h5.841Zm-5.842,11.708h5.842V75.89h-5.842Zm5.842,7.845h-5.841v1.983h5.841Zm-5.841,9.767v1.955l5.841,0V95.461Z" transform="translate(-125.236 -44.617)" fill="#7b1a8a"/>
        <path id="Path_1005823" data-name="Path 1005823" d="M109.423,220.937a2.932,2.932,0,1,1-2.932-2.932,2.932,2.932,0,0,1,2.932,2.932m-1.97.005a.975.975,0,1,0-.975.975.975.975,0,0,0,.975-.975" transform="translate(-84.982 -178.897)" fill="#7b1a8a"/>
        <path id="Path_1005824" data-name="Path 1005824" d="M109.386,275.47a2.93,2.93,0,1,1-2.93-2.93,2.93,2.93,0,0,1,2.93,2.93m-1.947,0a.976.976,0,1,0-.976.976.976.976,0,0,0,.976-.976" transform="translate(-84.955 -223.649)" fill="#7b1a8a"/>
        <path id="Path_1005825" data-name="Path 1005825" d="M227.744,176.271l-8.629,0a1,1,0,0,1-1.058-1.017,1.02,1.02,0,0,1,1.07-.942l8.77.007a1.032,1.032,0,0,1,.914.926,1,1,0,0,1-1.067,1.025" transform="translate(-178.939 -143.044)" fill="#7b1a8a"/>
        <path id="Path_1005826" data-name="Path 1005826" d="M227.92,121.93l-9.018-.01c-.368,0-.824-.541-.9-.838-.082-.333.279-1.1.72-1.1l8.977-.024a1.059,1.059,0,0,1,1.052.821,1.181,1.181,0,0,1-.834,1.155" transform="translate(-178.888 -98.435)" fill="#7b1a8a"/>
        <path id="Path_1005827" data-name="Path 1005827" d="M104.479,169l-1.063-2.25c-.206-.437.42-1.138.885-1.158.494-.022.929.395,1.23,1.077l2.024-2.682a1.386,1.386,0,0,1,1.174-.272c.334.093.733.928.5,1.246l-2.991,4.06a1.632,1.632,0,0,1-.864.491,1.271,1.271,0,0,1-.9-.512" transform="translate(-84.831 -134.324)" fill="#7b1a8a"/>
        <path id="Path_1005828" data-name="Path 1005828" d="M241.165,99.963l-5.855,0a1.08,1.08,0,0,1-1.018-.991A1.031,1.031,0,0,1,235.309,98l5.773-.006a1.1,1.1,0,0,1,1.045.816,1.021,1.021,0,0,1-.962,1.157" transform="translate(-192.262 -80.412)" fill="#7b1a8a"/>
        <path id="Path_1005829" data-name="Path 1005829" d="M241.134,154.772l-5.916-.016c-.385,0-.895-.625-.919-.96-.027-.37.4-.989.806-.989l6.355,0c.364,0,.711.666.687,1a1.153,1.153,0,0,1-1.013.965" transform="translate(-192.268 -125.395)" fill="#7b1a8a"/>
        <path id="Path_1005830" data-name="Path 1005830" d="M168.232,29.014l-3.8-.007a1.019,1.019,0,0,1-.983-1,1.059,1.059,0,0,1,.981-.971h3.986a1.078,1.078,0,0,1,.905.965,1.008,1.008,0,0,1-1.094,1.009" transform="translate(-134.132 -22.189)" fill="#7b1a8a"/>
        <path id="Path_1005831" data-name="Path 1005831" d="M38.339,89H22.916a1.042,1.042,0,0,1-1.108-.83,1.009,1.009,0,0,1,.937-1.144l15.746,0A1.1,1.1,0,0,1,39.4,88a1.056,1.056,0,0,1-1.061,1" transform="translate(-17.887 -71.419)" fill="#7b1a8a"/>
        <path id="Path_1005832" data-name="Path 1005832" d="M74.246,110.94l-7.959.023a1.11,1.11,0,0,1-1.03-.995,1.027,1.027,0,0,1,1.029-.98l7.737-.008a1.106,1.106,0,0,1,1.037.83c.085.329-.311,1.128-.815,1.129" transform="translate(-53.55 -89.431)" fill="#7b1a8a"/>
        <path id="Path_1005833" data-name="Path 1005833" d="M82.971,67.2H77.186a1.035,1.035,0,0,1-1.026-1,1.052,1.052,0,0,1,1.043-.957l5.922.007a1.1,1.1,0,0,1,.892.94A1.032,1.032,0,0,1,82.971,67.2" transform="translate(-62.497 -53.535)" fill="#7b1a8a"/>
        <path id="Path_1005834" data-name="Path 1005834" d="M26.752,110.928l-4.069.015a1.13,1.13,0,0,1-.917-1.023,1.055,1.055,0,0,1,1.1-.957l3.805.011a1.048,1.048,0,0,1,.948.794,1.035,1.035,0,0,1-.871,1.16" transform="translate(-17.861 -89.416)" fill="#7b1a8a"/>
        <path id="Path_1005835" data-name="Path 1005835" d="M37.837,67.17l-4.5.019c-.385,0-.763-.665-.745-1.01.017-.318.456-.925.812-.927l4.119-.019a1.241,1.241,0,0,1,.932.774c.088.317-.227,1.162-.621,1.164" transform="translate(-26.747 -53.53)" fill="#7b1a8a"/>
      </g>
    </g>
  </g>
</svg>
