<svg xmlns="http://www.w3.org/2000/svg" xmlns:xlink="http://www.w3.org/1999/xlink" width="84" height="84" viewBox="0 0 84 84">
  <defs>
    <clipPath id="clip-path">
      <rect id="Rectangle_465364" data-name="Rectangle 465364" width="63.579" height="68.079" fill="#12263f"/>
    </clipPath>
  </defs>
  <g id="img3" transform="translate(-289.711 -1193)">
    <g id="Group_1185367" data-name="Group 1185367" transform="translate(-416.66 -492.777)">
      <g id="Group_1177731" data-name="Group 1177731">
        <g id="Group_1119665" data-name="Group 1119665" transform="translate(530.482 -3835.223)">
          <path id="Path_991847" data-name="Path 991847" d="M5,0H79a5,5,0,0,1,5,5V79a5,5,0,0,1-5,5H5a5,5,0,0,1-5-5V5A5,5,0,0,1,5,0Z" transform="translate(175.889 5521)" fill="#fee66f"/>
        </g>
      </g>
    </g>
    <g id="Group_1212297" data-name="Group 1212297" transform="translate(299.711 1201)">
      <g id="Group_1212296" data-name="Group 1212296" clip-path="url(#clip-path)">
        <path id="Path_1274058" data-name="Path 1274058" d="M63.578,62.119a5.644,5.644,0,0,1-5.568,5.949l-43.272.012a5.575,5.575,0,0,1-5.589-5.3L9.115,18.941a1.269,1.269,0,0,0-.965-.987,3.48,3.48,0,0,1-3.819-.795,3.431,3.431,0,0,1-.554-3.826L1.8,11.345a6.661,6.661,0,0,1,0-9.121A6.824,6.824,0,0,1,11,1.431,5.725,5.725,0,0,1,14.75,0L43.579,0a3.232,3.232,0,0,1,2.266,1.089l16.647,16.66a3.22,3.22,0,0,1,1.076,2.362ZM11.639,5.187c-.706-.7-1.288-1.333-1.961-1.9A4.522,4.522,0,0,0,3.5,9.855l1.723,1.758Zm10.54,26.468-10.814-10.7,0,41.432a3.355,3.355,0,0,0,3.385,3.4l43.476-.011a3.352,3.352,0,0,0,3.087-3.21l.02-42.152L48.7,20.414a5.725,5.725,0,0,1-5.556-5.994l0-12.153h-28.2a3.168,3.168,0,0,0-2.162.724c.438,1.481,2.736-.694,4.662,1.587a3.482,3.482,0,0,1,.493,3.681l13.827,13.9c2.153,2.164,4.192,7.862,3.035,10.984l1.058,1.152a1.142,1.142,0,0,1-.346,1.59,1.287,1.287,0,0,1-1.529-.318l-.863-.823c-3.111,1.176-8.641-.8-10.948-3.084m26.772-13.5,10.735-.027L45.463,3.914l-.039,11.208a3.461,3.461,0,0,0,3.527,3.034M7.632,15.608l7.949-7.936a1.306,1.306,0,0,0,.2-1.559c-.219-.356-1.108-.7-1.492-.319l-8.47,8.482c-.363.364.068,1.335.41,1.522a1.213,1.213,0,0,0,1.4-.19m8.838-5.6-6.443,6.443L22.865,29.287l6.443-6.443ZM31.294,32.883A1.525,1.525,0,0,0,32.94,31.19a14.444,14.444,0,0,0-2.109-6.634L24.6,30.775a13.417,13.417,0,0,0,6.692,2.108" transform="translate(0 -0.001)" fill="#12263f"/>
        <path id="Path_1274059" data-name="Path 1274059" d="M107.626,229.215l-24.9-.009a1.532,1.532,0,0,1-1.191-.894c-.152-.38.179-1.4.8-1.4l25.468-.01c.54,0,.97.7.955,1.075a1.35,1.35,0,0,1-1.131,1.24" transform="translate(-65.599 -182.632)" fill="#12263f"/>
        <path id="Path_1274060" data-name="Path 1274060" d="M107.555,275.54H82.733a1.229,1.229,0,0,1-1.188-1.1,1.207,1.207,0,0,1,1.215-1.208h24.873a1.256,1.256,0,0,1,1.139,1.035,1.137,1.137,0,0,1-1.217,1.278" transform="translate(-65.635 -219.922)" fill="#12263f"/>
        <path id="Path_1274061" data-name="Path 1274061" d="M107.926,205.97H82.709a1.142,1.142,0,0,1-1.176-1.1,1.122,1.122,0,0,1,1.175-1.109l25.15.005c.456,0,.9.6.919.939a1.206,1.206,0,0,1-.851,1.262" transform="translate(-65.626 -164.011)" fill="#12263f"/>
        <path id="Path_1274062" data-name="Path 1274062" d="M107.427,298.832l-24.752,0a1.22,1.22,0,0,1-1.173-.942c-.093-.439.336-1.307.986-1.307l25.137-.006a1.156,1.156,0,0,1,1.116,1.134c-.02.731-.518,1.124-1.315,1.124" transform="translate(-65.591 -238.714)" fill="#12263f"/>
        <path id="Path_1274063" data-name="Path 1274063" d="M253.243,274.884a1.191,1.191,0,0,1-.157,1.593,1.26,1.26,0,0,1-1.482-.059L249,273.8l-2.688,2.666a1.227,1.227,0,0,1-1.615-.106,1.252,1.252,0,0,1,.092-1.628l2.565-2.561-2.8-2.841c-.333-.338.006-1.226.341-1.432a1.294,1.294,0,0,1,1.642.255l2.394,2.421,2.714-2.676a1.3,1.3,0,0,1,1.649.2,1.242,1.242,0,0,1-.127,1.52l-2.585,2.59Z" transform="translate(-196.737 -215.466)" fill="#12263f"/>
        <path id="Path_1274064" data-name="Path 1274064" d="M253.2,140.989a1.212,1.212,0,0,1-.123,1.591,1.246,1.246,0,0,1-1.652-.129l-2.509-2.492-2.517,2.534a1.266,1.266,0,0,1-1.533.168c-.342-.206-.681-1.1-.342-1.449l2.8-2.853-2.541-2.569a1.142,1.142,0,0,1,1.51-1.713l2.65,2.642,2.842-2.76c.344-.335,1.266-.035,1.472.31a1.326,1.326,0,0,1-.293,1.671l-2.411,2.382Z" transform="translate(-196.707 -107.706)" fill="#12263f"/>
        <path id="Path_1274065" data-name="Path 1274065" d="M241.331,206.472l-2.346-2.033a1.252,1.252,0,0,1-.378-1.458c.169-.4,1.1-.831,1.531-.483l2.12,1.725,5.8-6.141a1.369,1.369,0,0,1,1.441.052,1.259,1.259,0,0,1,.152,1.547l-6.233,6.635a1.331,1.331,0,0,1-2.088.155" transform="translate(-191.978 -159.289)" fill="#12263f"/>
      </g>
    </g>
  </g>
</svg>
