<svg xmlns="http://www.w3.org/2000/svg" xmlns:xlink="http://www.w3.org/1999/xlink" width="203.502" height="203.502" viewBox="0 0 203.502 203.502">
  <defs>
    <clipPath id="clip-path">
      <rect id="Rectangle_457242" data-name="Rectangle 457242" width="77.227" height="74.766" fill="#5bdfc4"/>
    </clipPath>
    <clipPath id="clip-path-2">
      <rect id="Rectangle_458940" data-name="Rectangle 458940" width="90.526" height="88.72" fill="#5bdfc4"/>
    </clipPath>
    <clipPath id="clip-path-3">
      <rect id="Rectangle_459373" data-name="Rectangle 459373" width="118.25" height="128" fill="#217365"/>
    </clipPath>
  </defs>
  <g id="img3" transform="translate(0.325 0.322)">
    <g id="Group_1183983" data-name="Group 1183983" transform="translate(-0.325 -0.322)">
      <g id="Group_1183979" data-name="Group 1183979" transform="translate(77.227 203.502) rotate(180)">
        <g id="Group_1182771" data-name="Group 1182771" transform="translate(0)" clip-path="url(#clip-path)">
          <path id="Path_1004427" data-name="Path 1004427" d="M31.813,49.6c0,13.9,9.475,25.165,21.163,25.165s24.251-10.8,24.251-24.7-2.495-26.7-18.4-38.561c-31.165-23.251-64.549-4.658-58-1.15C34.819,28.563,31.813,43.327,31.813,49.6" transform="translate(0 0)" fill="#5bdfc4"/>
        </g>
      </g>
      <g id="Group_1183980" data-name="Group 1183980" transform="translate(112.976 0)" clip-path="url(#clip-path-2)">
        <path id="Path_1004538" data-name="Path 1004538" d="M37.291,58.859C37.291,75.351,48.4,88.72,62.1,88.72S90.526,75.9,90.526,59.412,87.6,27.734,68.96,13.655C32.429-13.936-6.7,8.128.974,12.291c39.842,21.6,36.317,39.123,36.317,46.568" transform="translate(0 0)" fill="#5bdfc4"/>
      </g>
      <path id="Path_1004539" data-name="Path 1004539" d="M97.6,0A97.6,97.6,0,1,1,0,97.6,97.6,97.6,0,0,1,97.6,0Z" transform="translate(3.794 5.669)" fill="#f9f9f9"/>
    </g>
    <g id="Group_1184373" data-name="Group 1184373" transform="translate(49.675 37.679)">
      <g id="Group_1184372" data-name="Group 1184372" clip-path="url(#clip-path-3)">
        <path id="Path_1005321" data-name="Path 1005321" d="M35.812,63.872c-1.523,3.179-4.149,3.229-7.37,3.226l-10.765-.01,0-4.127,9.616-.013c1.81,0,3.908-.165,4.2-2.044a2.961,2.961,0,0,0-.575-2.448,2.727,2.727,0,0,0-2.129-.972l-5.566-.059c-2.809-.03-5.136-1.087-6.129-3.989a7.868,7.868,0,0,1,1.331-7.662,5.559,5.559,0,0,1,4.288-1.766l12.7-.04.012,4.139-10.157.017-1.765.114a2.073,2.073,0,0,0-1.83,2.167,2.726,2.726,0,0,0,.7,2.161,3.117,3.117,0,0,0,2.124.705l5.344.034c2.958.019,5.465,1.018,6.362,4.153a9.008,9.008,0,0,1-.4,6.414" transform="translate(-10.389 -27.842)" fill="#217365"/>
        <rect id="Rectangle_459372" data-name="Rectangle 459372" width="4.523" height="23.143" transform="translate(29.496 16.111)" fill="#217365"/>
        <path id="Path_1005322" data-name="Path 1005322" d="M123.841,52.837c1.536-.826,3.075-1.657,4.6-2.589L133.1,47.4l.743-.391,4-2.666c.172-.085.612-.215.7-.461l-.514-2.154,8.086.017.961.238-4.952,7.28A1.9,1.9,0,0,1,140.92,48.2l-3.1,2.062-4.753,3.173-2.5,1.674c-1.6,1.068-3.14,2.109-4.8,3.077-5.672,3.31-12.5,6.148-19.012,6.134a10.673,10.673,0,0,1-10.924-6.906,8.252,8.252,0,0,1-.221-5.988,12.817,12.817,0,0,1,2.751-4.488,22.236,22.236,0,0,1,8.567-6.288,12.609,12.609,0,0,1,4.543-1.086,3.9,3.9,0,0,1,2.789,1.684,3.385,3.385,0,0,1,.3,3.258c-5.531.339-9.909,3.578-13.467,8.027-1.41,1.763-2.064,4.4-.444,5.783a4.648,4.648,0,0,0,2.369,1.081,14.309,14.309,0,0,0,6-.235c5.025-1.258,10.268-3.868,14.832-6.324" transform="translate(-59.37 -25.053)" fill="#217365"/>
        <path id="Path_1005323" data-name="Path 1005323" d="M152.762,50.5c-1.525.931-3.064,1.762-4.6,2.589l-2.776-7.668-3.714,8.113a3.286,3.286,0,0,1-1.862,1.9,24.3,24.3,0,0,1-5.689,1.659l8.2-17.08,5.987-.048Z" transform="translate(-83.691 -25.306)" fill="#217365"/>
        <path id="Path_1005324" data-name="Path 1005324" d="M181.362,81.948l3.5,8.5-5.015.068a1.62,1.62,0,0,1-1.738-1.1l-1.547-4.392c1.659-.968,3.2-2.01,4.8-3.077" transform="translate(-110.174 -51.894)" fill="#217365"/>
        <path id="Path_1005325" data-name="Path 1005325" d="M200.74,68.731a57.786,57.786,0,0,0,.22,6.646A2.974,2.974,0,0,0,203.21,77.8l2.781.255,7.9.009v4.291l-9.553-.027c-3.982.175-7.508-1.933-8.075-6.277a31.653,31.653,0,0,1-.275-4.149Z" transform="translate(-122.294 -43.524)" fill="#217365"/>
        <path id="Path_1005326" data-name="Path 1005326" d="M200.827,45.093l-4,2.666-.743.391-.006-7.407,4.733.007Z" transform="translate(-122.348 -25.801)" fill="#217365"/>
        <path id="Path_1005327" data-name="Path 1005327" d="M85.555,56.313a25.355,25.355,0,0,1,7.352-1.807l0-48.246a2.643,2.643,0,0,0-2.831-2.58L30.432,3.669c-.786,0-1.5-1.128-1.546-1.675-.058-.615.692-1.971,1.574-1.971L90.873.041a6.14,6.14,0,0,1,5.875,5.926L96.782,54.5A23.145,23.145,0,0,1,118.25,77.178c.048,11.762-9,21.746-21.417,22.916l-.145,8.466L77.9,128H6.355A6.224,6.224,0,0,1,0,121.687V6.306C0,2.494,2.964,0,6.663,0L21.751.009a2.3,2.3,0,0,1,2.156,1.32c.214.611-.344,2.3-1.051,2.3L6.319,3.709A2.553,2.553,0,0,0,3.813,6.376l0,115.539a2.511,2.511,0,0,0,2.556,2.371l68.754,0-.041-10.956a7.152,7.152,0,0,1,7.563-7.457l10.276.024-.071-5.8A23.511,23.511,0,0,1,73.318,86.391a22.238,22.238,0,0,1,4.215-24.528,2.513,2.513,0,0,1,2.52-.846c.716.19,1.579,1.989.917,2.653a18.818,18.818,0,0,0-1.36,25.662,19.935,19.935,0,0,0,25.9,3.974,18.838,18.838,0,0,0,6.816-24.6,19.817,19.817,0,0,0-24.7-9.185,2.366,2.366,0,0,1-2.486-.582c-.454-.586-.35-2.307.42-2.626M79.1,121.224l7.729-7.856,3.429-3.707-8.015-.026a3.251,3.251,0,0,0-3.281,3.332Z" transform="translate(-0.001 0)" fill="#217365"/>
        <path id="Path_1005328" data-name="Path 1005328" d="M230.372,200.546l-4.668.063a3.484,3.484,0,0,1-3.783-3.648l.035-5.133-5.679-.006a3.245,3.245,0,0,1-3.257-3.321l.064-5.051c.021-1.7,1.8-2.8,3.333-2.813l5.528-.047,0-5.342c0-1.334,1.054-3.215,2.634-3.216h6.409c1.543,0,2.526,1.967,2.529,3.249l.012,5.327,5.588.037a3.28,3.28,0,0,1,3.33,3.25l-.071,5.044c-.027,1.919-1.77,2.922-3.454,2.911l-5.383-.036-.035,5.5a3.162,3.162,0,0,1-3.128,3.231m-.67-3.739-.025-5.406a3.042,3.042,0,0,1,2.829-3.208l6.11-.15-.026-3.641-5.327-.013a3.429,3.429,0,0,1-3.592-3.547l.018-5.214-3.894.046-.12,6.268c-.027,1.429-2.089,2.451-3.295,2.453l-5.456.005.043,3.732,5.36-.017a3.162,3.162,0,0,1,3.447,3.334l.014,5.355Z" transform="translate(-132.922 -108.94)" fill="#217365"/>
        <path id="Path_1005329" data-name="Path 1005329" d="M107.411,206.644l-33.547.014c-.6,0-1.242-1.454-1.174-2.008s.858-1.654,1.567-1.654l32.3-.018a2.47,2.47,0,0,1,1.9,1.329c.24.528-.26,2.337-1.037,2.338" transform="translate(-45.355 -128.535)" fill="#217365"/>
        <path id="Path_1005330" data-name="Path 1005330" d="M106.736,154.859l-31.758.016a2,2,0,0,1-2.28-1.815,2.1,2.1,0,0,1,1.911-1.987l32.271.013c.706,0,1.535,1.126,1.622,1.683a1.928,1.928,0,0,1-1.766,2.09" transform="translate(-45.362 -95.667)" fill="#217365"/>
        <path id="Path_1005331" data-name="Path 1005331" d="M106.552,258.643l-31.93.005a2,2,0,0,1-1.894-1.676c-.085-.718.6-1.982,1.547-1.982l32.287-.017a1.938,1.938,0,0,1,1.956,1.653,1.885,1.885,0,0,1-1.967,2.017" transform="translate(-45.377 -161.462)" fill="#217365"/>
        <path id="Path_1005332" data-name="Path 1005332" d="M39.225,155.853a7.115,7.115,0,1,1-7.113-6.938,7.027,7.027,0,0,1,7.113,6.938m-3.842,0a3.266,3.266,0,1,0-3.265,3.185,3.226,3.226,0,0,0,3.265-3.185" transform="translate(-15.599 -94.301)" fill="#217365"/>
        <path id="Path_1005333" data-name="Path 1005333" d="M39.223,207.731a7.113,7.113,0,1,1-7.111-6.936,7.025,7.025,0,0,1,7.111,6.936m-3.846-.02a3.266,3.266,0,1,0-3.265,3.184,3.225,3.225,0,0,0,3.265-3.184" transform="translate(-15.6 -127.154)" fill="#217365"/>
        <path id="Path_1005334" data-name="Path 1005334" d="M39.222,259.581a7.11,7.11,0,1,1-7.108-6.933,7.022,7.022,0,0,1,7.108,6.933m-3.857-.015a3.262,3.262,0,1,0-3.261,3.181,3.222,3.222,0,0,0,3.261-3.181" transform="translate(-15.604 -159.99)" fill="#217365"/>
        <path id="Path_1005335" data-name="Path 1005335" d="M100.922,178.079l-26.265.029a2.264,2.264,0,0,1-1.944-1.551,1.948,1.948,0,0,1,1.623-2.2l25.84-.032a2.356,2.356,0,0,1,2.226,1.259c.334.676-.284,2.492-1.479,2.494" transform="translate(-45.359 -110.393)" fill="#217365"/>
        <path id="Path_1005336" data-name="Path 1005336" d="M100.734,229.834l-25.784.022a2.281,2.281,0,0,1-2.236-1.441c-.2-.706.521-2.34,1.555-2.341l26.264-.028a2.126,2.126,0,0,1,1.936,1.659,1.9,1.9,0,0,1-1.736,2.13" transform="translate(-45.352 -143.143)" fill="#217365"/>
        <path id="Path_1005337" data-name="Path 1005337" d="M101.413,281.662l-27.55,0a2.852,2.852,0,0,1-1.164-2c-.021-.559.885-1.674,1.551-1.675l26.307-.019a2.3,2.3,0,0,1,1.878,1.355,2.446,2.446,0,0,1-1.022,2.336" transform="translate(-45.363 -176.026)" fill="#217365"/>
      </g>
    </g>
  </g>
</svg>
