<svg xmlns="http://www.w3.org/2000/svg" xmlns:xlink="http://www.w3.org/1999/xlink" width="500" height="306" viewBox="0 0 500 306">
  <defs>
    <clipPath id="clip-path">
      <rect id="Rectangle_459458" data-name="Rectangle 459458" width="490.362" height="292.319" fill="none"/>
    </clipPath>
    <clipPath id="clip-path-3">
      <rect id="Rectangle_459411" data-name="Rectangle 459411" width="61.81" height="9.574" fill="none"/>
    </clipPath>
    <clipPath id="clip-path-4">
      <rect id="Rectangle_459412" data-name="Rectangle 459412" width="85.21" height="9.574" fill="none"/>
    </clipPath>
    <clipPath id="clip-path-7">
      <rect id="Rectangle_459430" data-name="Rectangle 459430" width="48.294" height="29.575" fill="none"/>
    </clipPath>
    <clipPath id="clip-path-8">
      <rect id="Rectangle_459431" data-name="Rectangle 459431" width="7.868" height="3.372" fill="none"/>
    </clipPath>
    <clipPath id="clip-path-9">
      <rect id="Rectangle_459432" data-name="Rectangle 459432" width="3.573" height="4.984" fill="none"/>
    </clipPath>
    <clipPath id="clip-path-10">
      <rect id="Rectangle_459437" data-name="Rectangle 459437" width="20.409" height="16.53" fill="none"/>
    </clipPath>
    <clipPath id="clip-path-11">
      <rect id="Rectangle_459438" data-name="Rectangle 459438" width="20.588" height="13.034" fill="none"/>
    </clipPath>
    <clipPath id="clip-path-12">
      <rect id="Rectangle_459439" data-name="Rectangle 459439" width="7.713" height="3.305" fill="none"/>
    </clipPath>
    <clipPath id="clip-path-13">
      <rect id="Rectangle_459440" data-name="Rectangle 459440" width="3.502" height="4.886" fill="none"/>
    </clipPath>
    <clipPath id="clip-path-14">
      <rect id="Rectangle_459441" data-name="Rectangle 459441" width="21.966" height="44.942" fill="none"/>
    </clipPath>
    <clipPath id="clip-path-15">
      <rect id="Rectangle_459442" data-name="Rectangle 459442" width="7.391" height="16.936" fill="none"/>
    </clipPath>
    <clipPath id="clip-path-16">
      <rect id="Rectangle_459444" data-name="Rectangle 459444" width="12.282" height="22.062" fill="none"/>
    </clipPath>
    <clipPath id="clip-path-17">
      <rect id="Rectangle_459445" data-name="Rectangle 459445" width="14.007" height="31.975" fill="none"/>
    </clipPath>
    <clipPath id="clip-path-18">
      <rect id="Rectangle_459446" data-name="Rectangle 459446" width="47.139" height="54.788" fill="none"/>
    </clipPath>
    <clipPath id="clip-path-19">
      <rect id="Rectangle_459447" data-name="Rectangle 459447" width="7.713" height="3.306" fill="none"/>
    </clipPath>
    <clipPath id="clip-path-20">
      <rect id="Rectangle_459448" data-name="Rectangle 459448" width="3.503" height="4.886" fill="none"/>
    </clipPath>
    <clipPath id="clip-path-21">
      <rect id="Rectangle_459449" data-name="Rectangle 459449" width="51.177" height="36.291" fill="none"/>
    </clipPath>
    <clipPath id="clip-path-22">
      <rect id="Rectangle_459450" data-name="Rectangle 459450" width="23.053" height="64.857" fill="none"/>
    </clipPath>
    <clipPath id="clip-path-23">
      <rect id="Rectangle_459451" data-name="Rectangle 459451" width="20.285" height="49.978" fill="none"/>
    </clipPath>
    <clipPath id="clip-path-24">
      <rect id="Rectangle_459452" data-name="Rectangle 459452" width="18.276" height="29.958" fill="none"/>
    </clipPath>
    <clipPath id="clip-path-25">
      <rect id="Rectangle_459453" data-name="Rectangle 459453" width="28.151" height="41.824" fill="none"/>
    </clipPath>
    <clipPath id="clip-path-26">
      <rect id="Rectangle_459456" data-name="Rectangle 459456" width="212.778" height="90.471" fill="none"/>
    </clipPath>
  </defs>
  <g id="img3" transform="translate(-179.148 -3255.412)">
    <path id="Path_1005579" data-name="Path 1005579" d="M0,0H498.937V306H0Z" transform="translate(179.148 3255.412)" fill="#fdffbd"/>
    <rect id="Rectangle_402030" data-name="Rectangle 402030" width="498.937" height="75.184" transform="translate(180.212 3486.228)" fill="#f29dfc"/>
    <g id="Group_1184485" data-name="Group 1184485" transform="translate(179.148 3262.329)">
      <g id="Group_1184484" data-name="Group 1184484" clip-path="url(#clip-path)">
        <g id="Group_1184421" data-name="Group 1184421">
          <g id="Group_1184420" data-name="Group 1184420" clip-path="url(#clip-path)">
            <g id="Group_1184413" data-name="Group 1184413" transform="translate(428.552 282.744)" opacity="0.17">
              <g id="Group_1184412" data-name="Group 1184412">
                <g id="Group_1184411" data-name="Group 1184411" clip-path="url(#clip-path-3)">
                  <path id="Path_1005489" data-name="Path 1005489" d="M689.623,419c0,2.644-13.837,4.787-30.9,4.787s-30.9-2.143-30.9-4.787,13.836-4.787,30.9-4.787,30.9,2.143,30.9,4.787" transform="translate(-627.813 -414.21)" fill="#0e153f"/>
                </g>
              </g>
            </g>
            <g id="Group_1184416" data-name="Group 1184416" transform="translate(326.638 282.744)" opacity="0.17">
              <g id="Group_1184415" data-name="Group 1184415">
                <g id="Group_1184414" data-name="Group 1184414" clip-path="url(#clip-path-4)">
                  <path id="Path_1005490" data-name="Path 1005490" d="M563.723,419c0,2.644-19.075,4.787-42.605,4.787s-42.6-2.143-42.6-4.787,19.075-4.787,42.6-4.787,42.605,2.143,42.605,4.787" transform="translate(-478.513 -414.21)" fill="#0e153f"/>
                </g>
              </g>
            </g>
            <g id="Group_1184419" data-name="Group 1184419" transform="translate(228 282.744)" opacity="0.17">
              <g id="Group_1184418" data-name="Group 1184418">
                <g id="Group_1184417" data-name="Group 1184417" clip-path="url(#clip-path-4)">
                  <path id="Path_1005491" data-name="Path 1005491" d="M419.222,419c0,2.644-19.075,4.787-42.605,4.787s-42.6-2.143-42.6-4.787,19.075-4.787,42.6-4.787,42.605,2.143,42.605,4.787" transform="translate(-334.012 -414.21)" fill="#0e153f"/>
                </g>
              </g>
            </g>
          </g>
        </g>
        <rect id="Rectangle_459415" data-name="Rectangle 459415" width="42.221" height="54.543" transform="translate(33.067 32.592)" fill="#feffff"/>
        <g id="Group_1184483" data-name="Group 1184483">
          <g id="Group_1184482" data-name="Group 1184482" clip-path="url(#clip-path)">
            <path id="Path_1005492" data-name="Path 1005492" d="M82.249,61.215a5.385,5.385,0,1,1-5.385-5.385,5.385,5.385,0,0,1,5.385,5.385" transform="translate(-22.687 -17.72)" fill="#9dd4fd"/>
            <rect id="Rectangle_459416" data-name="Rectangle 459416" width="1.554" height="6.012" transform="translate(53.4 40.49)" fill="#feffff"/>
            <rect id="Rectangle_459417" data-name="Rectangle 459417" width="6.012" height="1.554" transform="translate(51.171 42.718)" fill="#feffff"/>
            <rect id="Rectangle_459418" data-name="Rectangle 459418" width="31.548" height="2.523" transform="translate(37.691 53.535)" fill="#9dd4fd"/>
            <rect id="Rectangle_459419" data-name="Rectangle 459419" width="31.548" height="2.523" transform="translate(37.691 60.712)" fill="#9dd4fd"/>
            <rect id="Rectangle_459420" data-name="Rectangle 459420" width="31.548" height="2.523" transform="translate(37.691 67.89)" fill="#9dd4fd"/>
            <rect id="Rectangle_459421" data-name="Rectangle 459421" width="31.548" height="2.523" transform="translate(37.691 75.067)" fill="#9dd4fd"/>
            <rect id="Rectangle_459422" data-name="Rectangle 459422" width="42.221" height="54.543" transform="translate(89.016 32.592)" fill="#feffff"/>
            <path id="Path_1005493" data-name="Path 1005493" d="M164.213,61.215a5.385,5.385,0,1,1-5.385-5.385,5.385,5.385,0,0,1,5.385,5.385" transform="translate(-48.701 -17.72)" fill="#9dd4fd"/>
            <rect id="Rectangle_459423" data-name="Rectangle 459423" width="1.554" height="6.012" transform="translate(109.349 40.49)" fill="#feffff"/>
            <rect id="Rectangle_459424" data-name="Rectangle 459424" width="6.012" height="1.554" transform="translate(107.12 42.718)" fill="#feffff"/>
            <rect id="Rectangle_459425" data-name="Rectangle 459425" width="31.548" height="2.523" transform="translate(93.64 53.535)" fill="#9dd4fd"/>
            <rect id="Rectangle_459426" data-name="Rectangle 459426" width="31.548" height="2.523" transform="translate(93.64 60.712)" fill="#9dd4fd"/>
            <rect id="Rectangle_459427" data-name="Rectangle 459427" width="31.548" height="2.523" transform="translate(93.64 67.89)" fill="#9dd4fd"/>
            <rect id="Rectangle_459428" data-name="Rectangle 459428" width="31.548" height="2.523" transform="translate(93.64 75.067)" fill="#9dd4fd"/>
            <path id="Path_1005494" data-name="Path 1005494" d="M166.488,124.154l-16.7,23.4c-.382-.055-.751-.116-1.119-.184-16.069-2.84-18.417-14.212-16.581-25.85a18.975,18.975,0,0,1,.751-3.051c3.461-10.205,15.311-16.82,21.6-15.017,4.758,1.365,2.287,4.69.3,6.608,3.611-2.963,12.144-9.181,16.2-5.454,5.1,4.7-1.563,10.983-1.87,11.27,5.618-2.485,3.529,3.775-2.573,8.28" transform="translate(-41.754 -32.74)" fill="#6d3744"/>
            <path id="Path_1005495" data-name="Path 1005495" d="M150.535,152.391c-.655.519-1.276,1.031-1.87,1.5-16.069-2.84-18.417-14.212-16.581-25.85a18.975,18.975,0,0,1,.751-3.051l2.294-1.283c-.2,7.925,3.147.491,7.6.99s12.383,24.048,7.8,27.694" transform="translate(-41.754 -39.264)" fill="#542633"/>
            <path id="Path_1005496" data-name="Path 1005496" d="M158.146,177.289c6.563,2.388,12.838,9.806,11.888,17.792s-2.472,23.581-2.472,23.581H116.974l1.141-18.116,15.407-20.68Z" transform="translate(-37.126 -56.27)" fill="#434a8e"/>
            <rect id="Rectangle_459429" data-name="Rectangle 459429" width="12.271" height="3.409" transform="translate(95.809 139.137)" fill="#55a9d5"/>
            <g id="Group_1184424" data-name="Group 1184424" transform="translate(78.569 132.819)" opacity="0.42">
              <g id="Group_1184423" data-name="Group 1184423">
                <g id="Group_1184422" data-name="Group 1184422" clip-path="url(#clip-path-7)">
                  <path id="Path_1005497" data-name="Path 1005497" d="M134.121,194.575c-2.1,16.751,13.553,18.469,23.179,12.256s5.284,17.319,4.029,17.319-46.227-3.128-46.227-3.128Z" transform="translate(-115.101 -194.575)" fill="#0e153f"/>
                </g>
              </g>
            </g>
            <path id="Path_1005498" data-name="Path 1005498" d="M137.311,173.19c-10.723.913-15.858.892-24.863,15.9s-13.854,24.244-12.7,27.939,32.557,1.385,32.557,1.385V207.1l-13.594-.461Z" transform="translate(-31.606 -54.969)" fill="#434a8e"/>
            <path id="Path_1005499" data-name="Path 1005499" d="M143.078,173.841l6.967,4.991a10.966,10.966,0,0,0,13.495-.563l2.89-2.46s-6.619-5.574-23.352-1.968" transform="translate(-45.411 -54.79)" fill="#f4b8ab"/>
            <path id="Path_1005500" data-name="Path 1005500" d="M170.145,132.692c.987,14.475-1.316,20.89-9.54,21.712v3.372c.242,6.049-2.025,4.524-4.523,4.524a4.524,4.524,0,0,1-4.524-4.524V154.4s-6.58-2.8-7.9-6.908,0-.658,0-.658l-.585-16.777h27.281Z" transform="translate(-45.411 -41.28)" fill="#f4b8ab"/>
            <path id="Path_1005501" data-name="Path 1005501" d="M142.205,144.346c-2.068-3.772-4.5-2.19-4.989,0s3.894,7.522,4.989,5.647,0-5.647,0-5.647" transform="translate(-43.539 -45.092)" fill="#f4b8ab"/>
            <path id="Path_1005502" data-name="Path 1005502" d="M159.009,145.112c-.5,0-.754-.62-.754-1.844s.254-1.845.754-1.845.754.621.754,1.845-.253,1.844-.754,1.844" transform="translate(-50.228 -44.886)" fill="#191918"/>
            <path id="Path_1005503" data-name="Path 1005503" d="M172.033,145.112c-.5,0-.754-.62-.754-1.844s.254-1.845.754-1.845.754.621.754,1.845-.253,1.844-.754,1.844" transform="translate(-54.362 -44.886)" fill="#191918"/>
            <path id="Path_1005504" data-name="Path 1005504" d="M164.076,154.2a12,12,0,0,1-7.561-2.968" transform="translate(-49.676 -47.999)" fill="none" stroke="#e56a85" stroke-linecap="round" stroke-miterlimit="10" stroke-width="1"/>
            <g id="Group_1184427" data-name="Group 1184427" transform="translate(107.326 113.124)" opacity="0.53">
              <g id="Group_1184426" data-name="Group 1184426">
                <g id="Group_1184425" data-name="Group 1184425" clip-path="url(#clip-path-8)">
                  <path id="Path_1005505" data-name="Path 1005505" d="M165.1,165.723a76.372,76.372,0,0,1-7.868.194L165.1,169.1Z" transform="translate(-157.228 -165.723)" fill="#dd6595"/>
                </g>
              </g>
            </g>
            <g id="Group_1184430" data-name="Group 1184430" transform="translate(95.809 99.157)" opacity="0.53">
              <g id="Group_1184429" data-name="Group 1184429">
                <g id="Group_1184428" data-name="Group 1184428" clip-path="url(#clip-path-9)">
                  <path id="Path_1005506" data-name="Path 1005506" d="M142.994,146.369c-1.844-1.936-2.75-1.141-2.626.871s2.548,3.453,3.333,2.877-.707-3.748-.707-3.748" transform="translate(-140.356 -145.261)" fill="#dd6595"/>
                </g>
              </g>
            </g>
            <path id="Path_1005507" data-name="Path 1005507" d="M143.331,142.072a60.091,60.091,0,0,0,5.011,4.156c2.255,1.6,8.481-.6,10.628-.523s6.823,2.041,11.195.523c0,0,.828,12.974-12.376,12.974s-14.815-8.894-14.815-8.894v-.5s1.5,3.49,3.758,3.382.166-7.735-3.352-9.718Z" transform="translate(-45.378 -45.092)" fill="#fcf3f2"/>
            <path id="Path_1005508" data-name="Path 1005508" d="M144.6,227.69c4.09-.272,6.818-3.409,9.272-2.045s4.533,5.743,3.221,8.258H144.6Z" transform="translate(-45.893 -71.509)" fill="#f4b8ab"/>
            <path id="Path_1005509" data-name="Path 1005509" d="M168.279,213.689l6.013-24.358a10.783,10.783,0,0,1,10.468-8.2h41.713a4.48,4.48,0,0,1,4.341,5.589l-8.24,30.139a3.6,3.6,0,0,1-3.581,2.653l-47.317-1.358a3.6,3.6,0,0,1-3.4-4.467" transform="translate(-53.376 -57.49)" fill="#4d94ce"/>
            <path id="Path_1005510" data-name="Path 1005510" d="M172.944,213.413l5.9-23.908a11.011,11.011,0,0,1,10.69-8.372h41.534a4.443,4.443,0,0,1,4.449,5.193l-8.193,29.966a3.979,3.979,0,0,1-3.916,3.216l-46.854-1.344a3.834,3.834,0,0,1-3.612-4.751" transform="translate(-54.855 -57.489)" fill="#58aedd"/>
            <path id="Path_1005511" data-name="Path 1005511" d="M205.42,238.317H148.76a1.567,1.567,0,0,1,0-3.134h56.66a1.567,1.567,0,1,1,0,3.134" transform="translate(-46.717 -74.644)" fill="#4d94ce"/>
            <path id="Path_1005512" data-name="Path 1005512" d="M224.987,238.317h-56.66a1.567,1.567,0,0,1,0-3.134h56.66a1.567,1.567,0,1,1,0,3.134" transform="translate(-52.928 -74.644)" fill="#7dd0f4"/>
            <path id="Path_1005513" data-name="Path 1005513" d="M221.668,207.021c-.413,2.26-2,3.864-3.533,3.583s-2.451-2.341-2.038-4.6,2-3.864,3.533-3.583,2.451,2.341,2.038,4.6" transform="translate(-68.555 -64.236)" fill="#7dd0f4"/>
            <path id="Path_1005514" data-name="Path 1005514" d="M142.972,124.59c.427,9.839,18.2,7.518,24.773,3.133s-1.2-10.65-11.469-8.562-13.485,1.249-13.3,5.429" transform="translate(-45.375 -37.689)" fill="#6d3744"/>
            <path id="Path_1005515" data-name="Path 1005515" d="M212.778,249.339H0v-8.851H217.861Z" transform="translate(0 -76.328)" fill="#b7e7f7"/>
            <rect id="Rectangle_459433" data-name="Rectangle 459433" width="212.778" height="6.52" transform="translate(0 173.011)" fill="#434a8e"/>
            <rect id="Rectangle_459434" data-name="Rectangle 459434" width="212.778" height="6.52" transform="translate(0 269.999)" fill="#434a8e"/>
            <rect id="Rectangle_459435" data-name="Rectangle 459435" width="212.778" height="90.471" transform="translate(0 179.53)" fill="#b7e7f7"/>
            <rect id="Rectangle_459436" data-name="Rectangle 459436" width="88.965" height="88.965" transform="translate(370.715 0)" fill="#feffff"/>
            <line id="Line_3305" data-name="Line 3305" y2="88.965" transform="translate(415.197 0)" fill="none" stroke="#d6e6fd" stroke-miterlimit="10" stroke-width="2"/>
            <line id="Line_3306" data-name="Line 3306" x1="88.965" transform="translate(370.715 44.483)" fill="none" stroke="#d6e6fd" stroke-miterlimit="10" stroke-width="2"/>
            <path id="Path_1005516" data-name="Path 1005516" d="M350.823,219.74c-1.186,20.17,3.782,119.434,3.782,119.434H372.97s6.006-87.783,5.938-119.434Z" transform="translate(-111.289 -69.743)" fill="#434a8e"/>
            <path id="Path_1005517" data-name="Path 1005517" d="M415.315,219.74C416.5,239.91,415,339.174,415,339.174H396.634s-6.006-87.783-5.937-119.434Z" transform="translate(-124.003 -69.743)" fill="#434a8e"/>
            <g id="Group_1184433" data-name="Group 1184433" transform="translate(241.62 227.823)" opacity="0.42">
              <g id="Group_1184432" data-name="Group 1184432">
                <g id="Group_1184431" data-name="Group 1184431" clip-path="url(#clip-path-10)">
                  <path id="Path_1005518" data-name="Path 1005518" d="M374.373,335.225c-6.247,9.654-19.894,15.057-19.894,15.057l-.516-16.531Z" transform="translate(-353.964 -333.751)" fill="#0e153f"/>
                </g>
              </g>
            </g>
            <g id="Group_1184436" data-name="Group 1184436" transform="translate(270.901 229.295)" opacity="0.42">
              <g id="Group_1184435" data-name="Group 1184435">
                <g id="Group_1184434" data-name="Group 1184434" clip-path="url(#clip-path-11)">
                  <path id="Path_1005519" data-name="Path 1005519" d="M396.86,335.908c4.1,5.946,20.448,13.034,20.448,13.034l.14-13.034Z" transform="translate(-396.86 -335.908)" fill="#0e153f"/>
                </g>
              </g>
            </g>
            <path id="Path_1005520" data-name="Path 1005520" d="M366.392,394.707l1.3,15.225s-26.908,6.916-28.011,0c-.847-5.311,15.417-5.045,15.2-15.225Z" transform="translate(-107.802 -125.276)" fill="#161b43"/>
            <path id="Path_1005521" data-name="Path 1005521" d="M403.153,394.707l-1.3,15.225s26.908,6.916,28.011,0c.847-5.311-15.417-5.045-15.2-15.225Z" transform="translate(-127.543 -125.276)" fill="#161b43"/>
            <path id="Path_1005522" data-name="Path 1005522" d="M383.964,68.1c4.847-4.48,4.2-10.9,1.634-12.4,0,0,1.328-9.874-9.111-11.206-10.643-1.358-25.989,5.183-25.451,18.665.128,3.2.492,6.657-1.2,9.374-2.037,3.262-6.281,4.253-10.1,4.67s-7.982.671-10.885,3.193a11.869,11.869,0,0,0-3.6,7.92,15.156,15.156,0,0,0,2.23,9.838,10.734,10.734,0,0,0,8.589,4.889c3.438.018,5-.267,5.9,3.143s2.182,4.227,5.945,4.979c11.778,2.356,33.193-13.277,33.193-13.277S390.9,80.294,383.964,68.1" transform="translate(-103.203 -14.066)" fill="#6d3744"/>
            <path id="Path_1005523" data-name="Path 1005523" d="M387.571,96.814a28.267,28.267,0,0,1-6.055,7.113c-1.208,1.079-2.512,2.137-3.857,3.154a.021.021,0,0,0-.014.007c-6.539,4.273-20.867,12.7-29.741,10.922-3.761-.751-5.045-1.563-5.946-4.983s-2.457-3.12-5.9-3.14A10.725,10.725,0,0,1,327.474,105a15.13,15.13,0,0,1-2.232-9.836,11.912,11.912,0,0,1,3.6-7.925c2.9-2.519,7.065-2.771,10.888-3.188a29.83,29.83,0,0,0,3.311-.539c-10.58,10.888,9.379,9.024,12.751,4.669s-6.908-10.048-1.345-19.325,29.516,6.1,29.516,6.1a.085.085,0,0,1,.014.02c.43.512,9.263,11.454,3.6,21.844" transform="translate(-103.202 -20.909)" fill="#542633"/>
            <path id="Path_1005524" data-name="Path 1005524" d="M381.745,103.394h8.173v80.745H375Z" transform="translate(-119.021 -32.816)" fill="#161b43"/>
            <path id="Path_1005525" data-name="Path 1005525" d="M295.717,120.7c-.668-5.122-.483-8.941-2.44-10.227-1.724-1.132-.682,3.8-.682,3.8s-5.752-6.563-8.58-6.526,1.445,2.564,1.445,2.564-3.927-2.768-4.911-1.709c-.537.577,2.882,3.46,2.882,3.46s-2.937-1.866-3.614-1.186,2.454,4.441,2.454,4.441-2.271-1.979-2.645-1.1,12.021,11.418,12.021,11.418Z" transform="translate(-88.747 -34.2)" fill="#f4b8ab"/>
            <path id="Path_1005526" data-name="Path 1005526" d="M290.4,118.922a11.023,11.023,0,0,1,5.014,3.541" transform="translate(-92.169 -37.745)" fill="none" stroke="#e56a85" stroke-linecap="round" stroke-miterlimit="10" stroke-width="1"/>
            <path id="Path_1005527" data-name="Path 1005527" d="M399.238,66.171c.967,14.189-1.29,20.478-9.352,21.285v3.305a4.434,4.434,0,1,1-8.868,0V87.456s-6.45-2.741-7.739-6.772,0-.645,0-.645L372.7,63.591h26.743Z" transform="translate(-118.292 -20.183)" fill="#f4b8ab"/>
            <path id="Path_1005528" data-name="Path 1005528" d="M371.847,77.595c-2.028-3.7-4.413-2.147-4.89,0s3.816,7.374,4.89,5.535,0-5.535,0-5.535" transform="translate(-116.456 -23.92)" fill="#f4b8ab"/>
            <path id="Path_1005529" data-name="Path 1005529" d="M388.32,78.346c-.491,0-.739-.608-.739-1.808s.248-1.809.739-1.809.739.609.739,1.809-.248,1.808-.739,1.808" transform="translate(-123.014 -23.718)" fill="#191918"/>
            <path id="Path_1005530" data-name="Path 1005530" d="M401.088,78.346c-.491,0-.739-.608-.739-1.808s.248-1.809.739-1.809.739.609.739,1.809-.248,1.808-.739,1.808" transform="translate(-127.066 -23.718)" fill="#191918"/>
            <path id="Path_1005531" data-name="Path 1005531" d="M393.287,87.253a11.754,11.754,0,0,1-7.411-2.91" transform="translate(-122.473 -26.77)" fill="none" stroke="#e56a85" stroke-linecap="round" stroke-miterlimit="10" stroke-width="1"/>
            <g id="Group_1184439" data-name="Group 1184439" transform="translate(263.88 67.273)" opacity="0.53">
              <g id="Group_1184438" data-name="Group 1184438">
                <g id="Group_1184437" data-name="Group 1184437" clip-path="url(#clip-path-12)">
                  <path id="Path_1005532" data-name="Path 1005532" d="M394.288,98.552a75.046,75.046,0,0,1-7.713.19l7.713,3.115Z" transform="translate(-386.575 -98.552)" fill="#dd6595"/>
                </g>
              </g>
            </g>
            <g id="Group_1184442" data-name="Group 1184442" transform="translate(252.59 53.58)" opacity="0.53">
              <g id="Group_1184441" data-name="Group 1184441">
                <g id="Group_1184440" data-name="Group 1184440" clip-path="url(#clip-path-13)">
                  <path id="Path_1005533" data-name="Path 1005533" d="M372.62,79.579c-1.808-1.9-2.7-1.118-2.575.854s2.5,3.385,3.268,2.82-.693-3.674-.693-3.674" transform="translate(-370.035 -78.492)" fill="#dd6595"/>
                </g>
              </g>
            </g>
            <path id="Path_1005534" data-name="Path 1005534" d="M372.951,75.366a58.94,58.94,0,0,0,4.913,4.075c2.21,1.564,8.314-.59,10.418-.513s6.69,2,10.974.513c0,0,.812,12.718-12.132,12.718s-14.524-8.72-14.524-8.72V82.95s1.475,3.421,3.685,3.316.162-7.582-3.286-9.527Z" transform="translate(-118.259 -23.92)" fill="#fcf3f2"/>
            <path id="Path_1005535" data-name="Path 1005535" d="M392.775,56.9c-4.53,8.592-19.547,12.654-22.9,10.936s-3.595-7.968,5.2-10.936,17.7,0,17.7,0" transform="translate(-116.713 -17.642)" fill="#6d3744"/>
            <path id="Path_1005536" data-name="Path 1005536" d="M400.349,56.2c2.154,8.5,5.516,10.7,7.662,7.415a5.309,5.309,0,0,0-3.831-8.045c-3.552-.244-3.832.63-3.832.63" transform="translate(-127.066 -17.622)" fill="#6d3744"/>
            <path id="Path_1005537" data-name="Path 1005537" d="M371.334,121.559V267.878H344.386l5.72-121.576Z" transform="translate(-109.304 -38.582)" fill="#fffeff"/>
            <path id="Path_1005538" data-name="Path 1005538" d="M423.8,267.876H396.86V121.558l19.311,13.707,2.041,35.421v.014l.614,10.717Z" transform="translate(-125.959 -38.581)" fill="#fffeff"/>
            <g id="Group_1184445" data-name="Group 1184445" transform="translate(270.901 100.226)" opacity="0.39">
              <g id="Group_1184444" data-name="Group 1184444">
                <g id="Group_1184443" data-name="Group 1184443" clip-path="url(#clip-path-14)">
                  <path id="Path_1005539" data-name="Path 1005539" d="M418.826,189.437c-13.106,5.085-20.4,1.236-21.966-5.55V155.668l15.359-8.84,5.993,31.878v.014Z" transform="translate(-396.86 -146.828)" fill="#bdd2f4"/>
                </g>
              </g>
            </g>
            <path id="Path_1005540" data-name="Path 1005540" d="M356.566,103.386c-16.235-.453-21.5,8.4-34.6,28.333l-19.359-15.249s-7.2,3-6.937,7.7c0,0,21.184,30.8,30.44,31.337s29.758-39.72,29.758-39.72Z" transform="translate(-93.841 -32.808)" fill="#fffeff"/>
            <path id="Path_1005541" data-name="Path 1005541" d="M396.855,102.973c11.084-.4,22.679,5.01,25,19.161s1.945,19.792,1.945,19.792l-26.947-26.272Z" transform="translate(-125.957 -32.676)" fill="#fffeff"/>
            <path id="Path_1005542" data-name="Path 1005542" d="M443.183,133.737,437.975,162.8l-2.751,15.372a1.9,1.9,0,0,1-1.87,1.563H402.636a1.9,1.9,0,0,1-1.884-2.15l5.829-44.424a1.9,1.9,0,0,1,1.884-1.659h32.847a1.906,1.906,0,0,1,1.87,2.239" transform="translate(-127.189 -41.736)" fill="#55a9d5"/>
            <g id="Group_1184448" data-name="Group 1184448" transform="translate(303.395 121.06)" opacity="0.44">
              <g id="Group_1184447" data-name="Group 1184447">
                <g id="Group_1184446" data-name="Group 1184446" clip-path="url(#clip-path-15)">
                  <path id="Path_1005543" data-name="Path 1005543" d="M451.853,177.348,449.1,192.72a1.9,1.9,0,0,1-1.87,1.563h-.014c-1.393-3.98-3.174-10.287-2.669-15.366Z" transform="translate(-444.462 -177.348)" fill="#434a8e"/>
                </g>
              </g>
            </g>
            <path id="Path_1005544" data-name="Path 1005544" d="M453.077,165.807c5.02,2.989,1.381,11.718-.4,13.8s-6.1,1.367-6.249-.258a1.175,1.175,0,0,1,1.345-1.431s-3.249-1.51-3.188-2.662,3.135-1.575,3.135-1.575-2.418-1.38-2.021-2.428,3.413-.307,3.413-.307-2.008-2.282-1.424-3.084,4.389.378,4.389.378Z" transform="translate(-141.107 -52.625)" fill="#f4b8ab"/>
            <path id="Path_1005545" data-name="Path 1005545" d="M425.183,131.265h0a1.227,1.227,0,0,0,1.192,1.52H441.36a1.227,1.227,0,0,0,0-2.454H426.375a1.227,1.227,0,0,0-1.192.934" transform="translate(-134.937 -41.366)" fill="#0e153f"/>
            <rect id="Rectangle_459443" data-name="Rectangle 459443" width="10.983" height="3.168" transform="translate(246.045 95.743)" fill="#434a8e"/>
            <g id="Group_1184451" data-name="Group 1184451" transform="translate(240.308 106.201)" opacity="0.39">
              <g id="Group_1184450" data-name="Group 1184450">
                <g id="Group_1184449" data-name="Group 1184449" clip-path="url(#clip-path-16)">
                  <path id="Path_1005546" data-name="Path 1005546" d="M352.042,167.6l12.282-12.02-12.282,22.061Z" transform="translate(-352.042 -155.581)" fill="#bdd2f4"/>
                </g>
              </g>
            </g>
            <path id="Path_1005547" data-name="Path 1005547" d="M501.855,200.289C500.669,222.7,505.637,333,505.637,333H524s6.006-97.542,5.938-132.712Z" transform="translate(-159.225 -63.569)" fill="#58aedd"/>
            <path id="Path_1005548" data-name="Path 1005548" d="M563.892,200.289c1.186,22.411-.74,132.712-.74,132.712H544.788s-12.2-97.542-12.128-132.712Z" transform="translate(-169.06 -63.569)" fill="#58aedd"/>
            <path id="Path_1005549" data-name="Path 1005549" d="M517.424,394.707l1.3,15.225s-26.908,6.916-28.011,0c-.847-5.311,15.417-5.045,15.2-15.225Z" transform="translate(-155.738 -125.276)" fill="#434a8e"/>
            <path id="Path_1005550" data-name="Path 1005550" d="M554.185,394.707l-1.3,15.225s26.908,6.916,28.011,0c.847-5.311-15.417-5.045-15.2-15.225Z" transform="translate(-175.479 -125.276)" fill="#434a8e"/>
            <path id="Path_1005551" data-name="Path 1005551" d="M511.96,100.973c-11.638,1.489-15.586,6.158-17.74,14.052s-4.666,63.537-4.666,63.537h8.271Z" transform="translate(-155.379 -32.048)" fill="#434a8e"/>
            <g id="Group_1184454" data-name="Group 1184454" transform="translate(334.176 114.54)" opacity="0.42">
              <g id="Group_1184453" data-name="Group 1184453">
                <g id="Group_1184452" data-name="Group 1184452" clip-path="url(#clip-path-17)">
                  <path id="Path_1005552" data-name="Path 1005552" d="M503.562,167.8c-1.12,15.948-13.154,14.987-13.154,14.987l-.853,16.987h8.271Z" transform="translate(-489.555 -167.797)" fill="#0e153f"/>
                </g>
              </g>
            </g>
            <path id="Path_1005553" data-name="Path 1005553" d="M527.883,100.653l-12.077.218-10.168,11.29-3.967,56.5h52.386s-.165-51.313-2.513-59.127-23.661-8.886-23.661-8.886" transform="translate(-159.225 -31.946)" fill="#434a8e"/>
            <g id="Group_1184457" data-name="Group 1184457" transform="translate(347.693 81.931)" opacity="0.42">
              <g id="Group_1184456" data-name="Group 1184456">
                <g id="Group_1184455" data-name="Group 1184455" clip-path="url(#clip-path-18)">
                  <path id="Path_1005554" data-name="Path 1005554" d="M540.457,120.026c1.949,16.293-23.242,25.789-23.242,25.789l-7.858,10s9.759,7.194,25.528,7.922-1.13,11.081-15.86,11.081H556.5l-1.126-46.528Z" transform="translate(-509.357 -120.026)" fill="#0e153f"/>
                </g>
              </g>
            </g>
            <path id="Path_1005555" data-name="Path 1005555" d="M493.821,214.639c-1.188,6.628-1.188,9.717,1.426,10.667s3.781,0,3.781,0l-.09-10.667Z" transform="translate(-156.49 -68.124)" fill="#f4b8ab"/>
            <path id="Path_1005556" data-name="Path 1005556" d="M515.38,158.859c-4.3-3.38-9.662-2.87-11.687-1.53s-7.058,3.573-7.984,4.287,2.266,2.035,4.018.9a6.841,6.841,0,0,1,3.966-.9s-1.12,3.485,1.28,5.71,10.407,0,10.407,0Z" transform="translate(-157.28 -49.609)" fill="#f4b8ab"/>
            <path id="Path_1005557" data-name="Path 1005557" d="M535.161,100.327c19.713-3.317,27.31,5.658,29.822,16.012s6.4,28.975,2.812,33-43.192,0-43.192,0v-8.466L551.127,133,545.3,113.551Z" transform="translate(-166.503 -31.62)" fill="#434a8e"/>
            <path id="Path_1005558" data-name="Path 1005558" d="M524.171,100.006c-2.462,7.04.753,10.255.753,10.255l5.421-3.88,5.775,3.88a11.128,11.128,0,0,0,.666-10.562s-6.938-2.631-12.615.307" transform="translate(-166.071 -31.299)" fill="#55a9d5"/>
            <path id="Path_1005559" data-name="Path 1005559" d="M510.5,63.389c-4.643-5.546-3.347-11.326,0-13.7,0,0-1.98-5.194,4.59-11.774s6.214,1.692,6.214,1.692a20.678,20.678,0,0,1,10.654-2.444c6.393.188,2.4,4.512,2.4,4.512a13.854,13.854,0,0,1,11.8,9.024c3.2,8.647-6.129,23.233-12.742,23.836S510.5,63.389,510.5,63.389" transform="translate(-161.069 -11.227)" fill="#6d3744"/>
            <path id="Path_1005560" data-name="Path 1005560" d="M513.281,63.429c-.967,14.189,1.29,20.478,9.352,21.285v3.305a4.434,4.434,0,1,0,8.868,0V84.714s6.45-2.741,7.74-6.772,0-.645,0-.645l.573-16.448H513.071Z" transform="translate(-162.843 -19.313)" fill="#f4b8ab"/>
            <path id="Path_1005561" data-name="Path 1005561" d="M550.592,74.854c2.028-3.7,4.413-2.147,4.89,0s-3.817,7.374-4.89,5.535,0-5.535,0-5.535" transform="translate(-174.6 -23.05)" fill="#f4b8ab"/>
            <path id="Path_1005562" data-name="Path 1005562" d="M535.945,75.6c.491,0,.739-.608.739-1.808s-.248-1.809-.739-1.809-.739.609-.739,1.809.248,1.808.739,1.808" transform="translate(-169.868 -22.848)" fill="#191918"/>
            <path id="Path_1005563" data-name="Path 1005563" d="M523.176,75.6c.491,0,.739-.608.739-1.808s-.248-1.809-.739-1.809-.739.609-.739,1.809.248,1.808.739,1.808" transform="translate(-165.816 -22.848)" fill="#191918"/>
            <path id="Path_1005564" data-name="Path 1005564" d="M528.219,84.512a11.754,11.754,0,0,0,7.411-2.91" transform="translate(-167.651 -25.9)" fill="none" stroke="#e56a85" stroke-linecap="round" stroke-miterlimit="10" stroke-width="1"/>
            <g id="Group_1184460" data-name="Group 1184460" transform="translate(359.789 65.401)" opacity="0.53">
              <g id="Group_1184459" data-name="Group 1184459">
                <g id="Group_1184458" data-name="Group 1184458" clip-path="url(#clip-path-19)">
                  <path id="Path_1005565" data-name="Path 1005565" d="M527.078,95.81a75.045,75.045,0,0,0,7.713.19l-7.713,3.115Z" transform="translate(-527.078 -95.81)" fill="#dd6595"/>
                </g>
              </g>
            </g>
            <g id="Group_1184463" data-name="Group 1184463" transform="translate(375.291 51.708)" opacity="0.53">
              <g id="Group_1184462" data-name="Group 1184462">
                <g id="Group_1184461" data-name="Group 1184461" clip-path="url(#clip-path-20)">
                  <path id="Path_1005566" data-name="Path 1005566" d="M550.7,76.838c1.808-1.9,2.7-1.118,2.575.854s-2.5,3.385-3.268,2.82.693-3.674.693-3.674" transform="translate(-549.787 -75.751)" fill="#dd6595"/>
                </g>
              </g>
            </g>
            <path id="Path_1005567" data-name="Path 1005567" d="M539.6,72.625A58.814,58.814,0,0,1,534.69,76.7c-2.21,1.564-8.313-.59-10.418-.513s-6.689,2-10.974.513c0,0-.812,12.718,12.132,12.718s14.524-8.72,14.524-8.72v-.489s-1.475,3.421-3.685,3.315-.162-7.582,3.286-9.527Z" transform="translate(-162.912 -23.05)" fill="#fcf3f2"/>
            <path id="Path_1005568" data-name="Path 1005568" d="M513.928,56.509c2.09,8.585,17.627,8.878,22.627,4.439s.725-11.885-7.169-11-16.452,2.48-15.458,6.564" transform="translate(-163.09 -15.829)" fill="#6d3744"/>
            <path id="Path_1005569" data-name="Path 1005569" d="M528.219,200.289v26.953l4.841,4.84V200.289" transform="translate(-167.651 -63.57)" fill="none" stroke="#81cdef" stroke-miterlimit="10" stroke-width="1"/>
            <g id="Group_1184466" data-name="Group 1184466" transform="translate(343.655 136.72)" opacity="0.27">
              <g id="Group_1184465" data-name="Group 1184465">
                <g id="Group_1184464" data-name="Group 1184464" clip-path="url(#clip-path-21)">
                  <path id="Path_1005570" data-name="Path 1005570" d="M503.441,203.351c38.12.147,51.177,33.23,51.177,33.23V200.289h-50.6Z" transform="translate(-503.441 -200.289)" fill="#0e153f"/>
                </g>
              </g>
            </g>
            <g id="Group_1184469" data-name="Group 1184469" transform="translate(345.378 204.575)" opacity="0.27">
              <g id="Group_1184468" data-name="Group 1184468">
                <g id="Group_1184467" data-name="Group 1184467" clip-path="url(#clip-path-22)">
                  <path id="Path_1005571" data-name="Path 1005571" d="M529.019,299.7c-5.442,47.408-13.036,53.33-23.053,53.33L507,364.551h18.364Z" transform="translate(-505.966 -299.695)" fill="#0e153f"/>
                </g>
              </g>
            </g>
            <g id="Group_1184472" data-name="Group 1184472" transform="translate(374.53 219.454)" opacity="0.27">
              <g id="Group_1184471" data-name="Group 1184471">
                <g id="Group_1184470" data-name="Group 1184470" clip-path="url(#clip-path-23)">
                  <path id="Path_1005572" data-name="Path 1005572" d="M568.958,321.492c-.477,34.778-20.285,40.139-20.285,40.139l1.2,9.838h18.364Z" transform="translate(-548.673 -321.492)" fill="#0e153f"/>
                </g>
              </g>
            </g>
            <path id="Path_1005573" data-name="Path 1005573" d="M669.85,334.138c6.323-9.611,3.541-12.646,0-8.852,0,0,12.14-14.163,9.358-19.727s-12.9,13.7-12.9,13.7,11.542-28.878,6.656-33.178-8.174,26.556-8.174,26.556-7.082-39.961-14.669-39.455.8,29.844,9.379,40.72c0,0-15.7-34.144-26.072-28.074s7.587,28.165,15.681,33.431c0,0-8.346-7.38-10.37-4.092s8.852,8.094,8.852,8.094-3.9-1.265-4.984,2.276,4.478,8.094,9.03,8.6,18.21,0,18.21,0" transform="translate(-200.047 -86.704)" fill="#58aedd"/>
            <g id="Group_1184475" data-name="Group 1184475" transform="translate(449.691 219.715)" opacity="0.27">
              <g id="Group_1184474" data-name="Group 1184474">
                <g id="Group_1184473" data-name="Group 1184473" clip-path="url(#clip-path-24)">
                  <path id="Path_1005574" data-name="Path 1005574" d="M676.044,348.721a16,16,0,0,0,1.008-6.015,1.427,1.427,0,0,0-.334-1.054,1.283,1.283,0,0,0-1.509.124,4.05,4.05,0,0,0-1.7,2.457,11.462,11.462,0,0,0-.853-9.441c-.493-.855-1.56-1.731-2.344-1.132a1.809,1.809,0,0,0-.539.964,17.423,17.423,0,0,0-.72,4.5,24.49,24.49,0,0,0-5-15.533c-.87-1.133-2.431-2.272-3.576-1.416a2.671,2.671,0,0,0-.8,1.283,14.8,14.8,0,0,0-.7,7.4c.611,3.784,2.658,7.161,4.664,10.428a11.515,11.515,0,0,0-4.187-6.512,28.013,28.013,0,0,0,3.021,12.945,4.289,4.289,0,0,0-1.737-3.691,1.263,1.263,0,0,0-.78-.3,1.018,1.018,0,0,0-.79,1.214,2.949,2.949,0,0,0,.823,1.386l4.844,5.507" transform="translate(-658.781 -321.875)" fill="#0e153f"/>
                </g>
              </g>
            </g>
            <path id="Path_1005575" data-name="Path 1005575" d="M682.125,359.953l-9.516,41.824H655.885l-1.911-10.608-5.632-31.216Z" transform="translate(-205.777 -114.245)" fill="#333872"/>
            <g id="Group_1184478" data-name="Group 1184478" transform="translate(448.198 245.708)" opacity="0.27">
              <g id="Group_1184477" data-name="Group 1184477">
                <g id="Group_1184476" data-name="Group 1184476" clip-path="url(#clip-path-25)">
                  <path id="Path_1005576" data-name="Path 1005576" d="M684.744,359.953l-9.516,41.824H658.5l-1.911-10.608c.416-.014,18.519-.908,22.69-31.216Z" transform="translate(-656.593 -359.953)" fill="#0e153f"/>
                </g>
              </g>
            </g>
            <path id="Path_1005577" data-name="Path 1005577" d="M173.871,313.853a23.437,23.437,0,1,1-23.437-23.437,23.437,23.437,0,0,1,23.437,23.437" transform="translate(-40.307 -92.175)" fill="#434a8e"/>
            <rect id="Rectangle_459454" data-name="Rectangle 459454" width="6.764" height="26.169" transform="translate(106.744 208.594)" fill="#fffeff"/>
            <rect id="Rectangle_459455" data-name="Rectangle 459455" width="26.169" height="6.764" transform="translate(97.041 218.296)" fill="#fffeff"/>
            <g id="Group_1184481" data-name="Group 1184481" transform="translate(0 179.53)" opacity="0.13">
              <g id="Group_1184480" data-name="Group 1184480">
                <g id="Group_1184479" data-name="Group 1184479" clip-path="url(#clip-path-26)">
                  <path id="Path_1005578" data-name="Path 1005578" d="M212.778,263.005C208.586,263.005,0,353.476,0,353.476V263.005Z" transform="translate(0 -263.005)" fill="#0e153f"/>
                </g>
              </g>
            </g>
          </g>
        </g>
      </g>
    </g>
  </g>
</svg>
