<svg id="img4" xmlns="http://www.w3.org/2000/svg" xmlns:xlink="http://www.w3.org/1999/xlink" width="121.37" height="121.37" viewBox="0 0 121.37 121.37">
  <defs>
    <clipPath id="clip-path">
      <ellipse id="Ellipse_13844" data-name="Ellipse 13844" cx="60.657" cy="60.57" rx="60.657" ry="60.57" fill="#88fede" stroke="#707070" stroke-width="1"/>
    </clipPath>
    <clipPath id="clip-path-2">
      <rect id="Rectangle_458899" data-name="Rectangle 458899" width="167.765" height="77.479" fill="#7b1a8a"/>
    </clipPath>
    <clipPath id="clip-path-3">
      <rect id="Rectangle_458900" data-name="Rectangle 458900" width="147.767" height="68.243" fill="#7b1a8a"/>
    </clipPath>
    <clipPath id="clip-path-4">
      <path id="Path_1004536" data-name="Path 1004536" d="M0,0,64.7.041l.04,63.449L.04,63.449Z" fill="none" stroke="#f7ceff" stroke-width="1"/>
    </clipPath>
    <clipPath id="clip-path-5">
      <path id="Path_1004537" data-name="Path 1004537" d="M0,0,64.7.041l.04,63.449L.04,63.449Z" fill="none" stroke="#fde6ff" stroke-width="1"/>
    </clipPath>
    <clipPath id="clip-path-6">
      <rect id="Rectangle_458932" data-name="Rectangle 458932" width="33.172" height="32.272" transform="translate(0)" fill="#217365"/>
    </clipPath>
    <clipPath id="clip-path-7">
      <rect id="Rectangle_458921" data-name="Rectangle 458921" width="6.239" height="6.239" fill="#217365"/>
    </clipPath>
    <clipPath id="clip-path-13">
      <rect id="Rectangle_458939" data-name="Rectangle 458939" width="33.172" height="32.272" fill="#217365"/>
    </clipPath>
    <clipPath id="clip-path-20">
      <rect id="Rectangle_455617" data-name="Rectangle 455617" width="104.394" height="104.394" fill="#fff"/>
    </clipPath>
    <clipPath id="clip-path-21">
      <rect id="Rectangle_459386" data-name="Rectangle 459386" width="74.893" height="73.09" fill="#7b1a8a"/>
    </clipPath>
  </defs>
  <g id="Group_1183964" data-name="Group 1183964">
    <g id="Mask_Group_1179368" data-name="Mask Group 1179368" transform="translate(0.056 0)" clip-path="url(#clip-path)">
      <g id="Ellipse_13843" data-name="Ellipse 13843" transform="translate(-5.966 -6.951)" fill="#f29dfc" stroke="#707070" stroke-width="1">
        <ellipse cx="65.132" cy="68.017" rx="65.132" ry="68.017" stroke="none"/>
        <ellipse cx="65.132" cy="68.017" rx="64.632" ry="67.517" fill="none"/>
      </g>
      <g id="Group_1183848" data-name="Group 1183848" transform="translate(-42.51 73.045)">
        <g id="Group_1183847" data-name="Group 1183847" transform="translate(0 0)" clip-path="url(#clip-path-2)">
          <path id="Path_1004500" data-name="Path 1004500" d="M167.765.234V77.479H14.536A79.765,79.765,0,0,1,.72,46.308c-.783-3.813-1.258-8.015.366-11.471,2.8-5.978,10.189-6.665,16.089-5.384C33.7,33.046,48.924,45.8,65.625,43.568c8.559-1.146,16.249-6.157,23.965-10.477s16.223-8.124,24.74-6.6c7.753,1.386,14.577,7.061,22.384,7.983,10.846,1.277,21.781-8.386,23.253-20.546.343-2.829.24-5.754,1-8.478S163.677.126,166.21,0a4.063,4.063,0,0,1,1.555.23" transform="translate(0 0)" fill="#7b1a8a"/>
        </g>
      </g>
      <g id="Group_1183850" data-name="Group 1183850" transform="translate(142.673 51.704) rotate(180)">
        <g id="Group_1183849" data-name="Group 1183849" clip-path="url(#clip-path-3)">
          <path id="Path_1004501" data-name="Path 1004501" d="M147.767.207V68.243H12.8A70.257,70.257,0,0,1,.634,40.788c-.69-3.358-1.108-7.06.322-10.1,2.47-5.265,8.974-5.87,14.171-4.742,14.551,3.164,27.965,14.4,42.675,12.432,7.539-1.01,14.312-5.423,21.108-9.229S93.2,21.991,100.7,23.333c6.829,1.221,12.839,6.219,19.716,7.032,9.553,1.125,19.185-7.386,20.481-18.1.3-2.492.212-5.069.879-7.468S144.167.111,146.4,0a3.579,3.579,0,0,1,1.37.2" transform="translate(0 0)" fill="#7b1a8a"/>
        </g>
      </g>
      <g id="Group_1183852" data-name="Group 1183852" transform="translate(141.819 99.583) rotate(121)">
        <g id="Group_1183851" data-name="Group 1183851" transform="translate(0 0)" clip-path="url(#clip-path-4)">
          <path id="Path_1004502" data-name="Path 1004502" d="M26.673,42.1c.007,11.794,7.951,21.361,17.743,21.367s20.311-9.152,20.3-20.947S62.615,19.86,49.286,9.783C23.165-9.965-4.792,5.8.7,8.777c28.484,15.468,25.973,28,25.977,33.32" transform="translate(0.005 0.013)" fill="none" stroke="#f7ceff" stroke-width="1"/>
        </g>
      </g>
      <g id="Group_1183854" data-name="Group 1183854" transform="translate(-23.956 27.693) rotate(-59)">
        <g id="Group_1183853" data-name="Group 1183853" transform="translate(0 0)" clip-path="url(#clip-path-5)">
          <path id="Path_1004503" data-name="Path 1004503" d="M26.673,42.1c.007,11.794,7.951,21.361,17.743,21.367s20.311-9.152,20.3-20.947S62.615,19.86,49.286,9.783C23.165-9.965-4.792,5.8.7,8.777c28.484,15.468,25.973,28,25.977,33.32" transform="translate(0.005 0.013)" fill="none" stroke="#fde6ff" stroke-width="1"/>
        </g>
      </g>
    </g>
    <g id="Group_1183941" data-name="Group 1183941" transform="translate(0 121.37) rotate(-90)" clip-path="url(#clip-path-6)">
      <g id="Group_1183940" data-name="Group 1183940" transform="translate(2.965)">
        <g id="Group_1183942" data-name="Group 1183942">
          <g id="Group_1183911" data-name="Group 1183911" opacity="0.7">
            <g id="Group_1183910" data-name="Group 1183910">
              <g id="Group_1183909" data-name="Group 1183909" clip-path="url(#clip-path-7)">
                <path id="Path_1004522" data-name="Path 1004522" d="M5.371,2.252H3.987V.867a.867.867,0,0,0-1.735,0V2.252H.867a.867.867,0,0,0,0,1.735H2.252V5.371a.867.867,0,1,0,1.735,0V3.987H5.371a.867.867,0,1,0,0-1.735" transform="translate(0 0)" fill="#217365"/>
              </g>
            </g>
          </g>
          <g id="Group_1183914" data-name="Group 1183914" transform="translate(0 12.226)" opacity="0.7">
            <g id="Group_1183913" data-name="Group 1183913">
              <g id="Group_1183912" data-name="Group 1183912" clip-path="url(#clip-path-7)">
                <path id="Path_1004523" data-name="Path 1004523" d="M5.371,2.252H3.987V.867a.867.867,0,0,0-1.735,0V2.252H.867a.867.867,0,0,0,0,1.735H2.252V5.371a.867.867,0,0,0,1.735,0V3.987H5.371a.867.867,0,1,0,0-1.735" fill="#217365"/>
              </g>
            </g>
          </g>
          <g id="Group_1183917" data-name="Group 1183917" transform="translate(0 24.452)" opacity="0.7">
            <g id="Group_1183916" data-name="Group 1183916">
              <g id="Group_1183915" data-name="Group 1183915" clip-path="url(#clip-path-7)">
                <path id="Path_1004524" data-name="Path 1004524" d="M5.371,2.252H3.987V.867a.867.867,0,0,0-1.735,0V2.252H.867a.867.867,0,0,0,0,1.735H2.252V5.371a.867.867,0,1,0,1.735,0V3.987H5.371a.867.867,0,1,0,0-1.735" transform="translate(0 0)" fill="#217365"/>
              </g>
            </g>
          </g>
          <g id="Group_1183923" data-name="Group 1183923" transform="translate(10.521)" opacity="0.7">
            <g id="Group_1183922" data-name="Group 1183922">
              <g id="Group_1183921" data-name="Group 1183921" clip-path="url(#clip-path-7)">
                <path id="Path_1004526" data-name="Path 1004526" d="M5.371,2.252H3.986V.867a.867.867,0,0,0-1.735,0V2.252H.867a.867.867,0,0,0,0,1.735H2.252V5.371a.867.867,0,1,0,1.735,0V3.987H5.371a.867.867,0,1,0,0-1.735" transform="translate(0 0)" fill="#217365"/>
              </g>
            </g>
          </g>
          <g id="Group_1183926" data-name="Group 1183926" transform="translate(10.521 12.226)" opacity="0.7">
            <g id="Group_1183925" data-name="Group 1183925">
              <g id="Group_1183924" data-name="Group 1183924" clip-path="url(#clip-path-7)">
                <path id="Path_1004527" data-name="Path 1004527" d="M5.371,2.252H3.986V.867a.867.867,0,0,0-1.735,0V2.252H.867a.867.867,0,0,0,0,1.735H2.252V5.371a.867.867,0,1,0,1.735,0V3.987H5.371a.867.867,0,1,0,0-1.735" transform="translate(0)" fill="#217365"/>
              </g>
            </g>
          </g>
          <g id="Group_1183932" data-name="Group 1183932" transform="translate(20.652)" opacity="0.7">
            <g id="Group_1183931" data-name="Group 1183931">
              <g id="Group_1183930" data-name="Group 1183930" clip-path="url(#clip-path-7)">
                <path id="Path_1004529" data-name="Path 1004529" d="M5.371,2.252H3.987V.867a.867.867,0,0,0-1.735,0V2.252H.867a.867.867,0,0,0,0,1.735H2.252V5.371a.867.867,0,1,0,1.735,0V3.987H5.371a.867.867,0,1,0,0-1.735" transform="translate(0 0)" fill="#217365"/>
              </g>
            </g>
          </g>
        </g>
      </g>
    </g>
    <g id="Group_1183963" data-name="Group 1183963" transform="translate(121.37 0.196) rotate(90)" clip-path="url(#clip-path-13)">
      <g id="Group_1183962" data-name="Group 1183962" transform="translate(2.965)">
        <g id="Group_1183961" data-name="Group 1183961">
          <g id="Group_1183945" data-name="Group 1183945" opacity="0.7">
            <g id="Group_1183944" data-name="Group 1183944">
              <g id="Group_1183943" data-name="Group 1183943" clip-path="url(#clip-path-7)">
                <path id="Path_1004530" data-name="Path 1004530" d="M5.371,2.252H3.987V.867a.867.867,0,0,0-1.735,0V2.252H.867a.867.867,0,0,0,0,1.735H2.252V5.371a.867.867,0,1,0,1.735,0V3.987H5.371a.867.867,0,1,0,0-1.735" transform="translate(0 0)" fill="#217365"/>
              </g>
            </g>
          </g>
          <g id="Group_1183948" data-name="Group 1183948" transform="translate(0 12.226)" opacity="0.7">
            <g id="Group_1183947" data-name="Group 1183947">
              <g id="Group_1183946" data-name="Group 1183946" clip-path="url(#clip-path-7)">
                <path id="Path_1004531" data-name="Path 1004531" d="M5.371,2.252H3.987V.867a.867.867,0,0,0-1.735,0V2.252H.867a.867.867,0,0,0,0,1.735H2.252V5.371a.867.867,0,0,0,1.735,0V3.987H5.371a.867.867,0,1,0,0-1.735" fill="#217365"/>
              </g>
            </g>
          </g>
          <g id="Group_1183951" data-name="Group 1183951" transform="translate(0 24.452)" opacity="0.7">
            <g id="Group_1183950" data-name="Group 1183950">
              <g id="Group_1183949" data-name="Group 1183949" clip-path="url(#clip-path-7)">
                <path id="Path_1004532" data-name="Path 1004532" d="M5.371,2.252H3.987V.867a.867.867,0,0,0-1.735,0V2.252H.867a.867.867,0,0,0,0,1.735H2.252V5.371a.867.867,0,1,0,1.735,0V3.987H5.371a.867.867,0,1,0,0-1.735" transform="translate(0 0)" fill="#217365"/>
              </g>
            </g>
          </g>
          <g id="Group_1183954" data-name="Group 1183954" transform="translate(10.521)" opacity="0.7">
            <g id="Group_1183953" data-name="Group 1183953">
              <g id="Group_1183952" data-name="Group 1183952" clip-path="url(#clip-path-7)">
                <path id="Path_1004533" data-name="Path 1004533" d="M5.371,2.252H3.986V.867a.867.867,0,0,0-1.735,0V2.252H.867a.867.867,0,0,0,0,1.735H2.252V5.371a.867.867,0,1,0,1.735,0V3.987H5.371a.867.867,0,1,0,0-1.735" transform="translate(0 0)" fill="#217365"/>
              </g>
            </g>
          </g>
          <g id="Group_1183957" data-name="Group 1183957" transform="translate(10.521 12.226)" opacity="0.7">
            <g id="Group_1183956" data-name="Group 1183956">
              <g id="Group_1183955" data-name="Group 1183955" clip-path="url(#clip-path-7)">
                <path id="Path_1004534" data-name="Path 1004534" d="M5.371,2.252H3.986V.867a.867.867,0,0,0-1.735,0V2.252H.867a.867.867,0,0,0,0,1.735H2.252V5.371a.867.867,0,1,0,1.735,0V3.987H5.371a.867.867,0,1,0,0-1.735" transform="translate(0)" fill="#217365"/>
              </g>
            </g>
          </g>
          <g id="Group_1183960" data-name="Group 1183960" transform="translate(20.652)" opacity="0.7">
            <g id="Group_1183959" data-name="Group 1183959">
              <g id="Group_1183958" data-name="Group 1183958" clip-path="url(#clip-path-7)">
                <path id="Path_1004535" data-name="Path 1004535" d="M5.371,2.252H3.987V.867a.867.867,0,0,0-1.735,0V2.252H.867a.867.867,0,0,0,0,1.735H2.252V5.371a.867.867,0,1,0,1.735,0V3.987H5.371a.867.867,0,1,0,0-1.735" transform="translate(0 0)" fill="#217365"/>
              </g>
            </g>
          </g>
        </g>
      </g>
    </g>
  </g>
  <g id="Group_1179625" data-name="Group 1179625" transform="translate(8.72 8.663)">
    <g id="Group_1179624" data-name="Group 1179624" transform="translate(0)">
      <rect id="Rectangle_455622" data-name="Rectangle 455622" width="19.124" height="15.308" transform="translate(14.171 52.73)" fill="#88fede"/>
      <g id="Group_1179619" data-name="Group 1179619">
        <g id="Group_1179526" data-name="Group 1179526" clip-path="url(#clip-path-20)">
          <path id="Path_1002449" data-name="Path 1002449" d="M104.32,52.16A52.16,52.16,0,1,1,52.16,0a52.16,52.16,0,0,1,52.16,52.16" transform="translate(0.013 0)" fill="#fff"/>
        </g>
      </g>
    </g>
  </g>
  <g id="Group_1179626" data-name="Group 1179626" transform="translate(23.782 22.626)">
    <g id="Group_1099776" data-name="Group 1099776" transform="translate(0 0)">
      <g id="Group_1099618" data-name="Group 1099618" transform="translate(-0.071 0.373)">
        <rect id="Rectangle_401104" data-name="Rectangle 401104" width="74.893" height="75.795" fill="none"/>
      </g>
      <g id="Group_1184387" data-name="Group 1184387" transform="translate(-0.071 1.374)">
        <g id="Group_1184386" data-name="Group 1184386" clip-path="url(#clip-path-21)">
          <path id="Path_1005386" data-name="Path 1005386" d="M24.851,77.2l-5.017,5.017,3.189,3.295,16.13-.022a1.192,1.192,0,0,1,1.341,1.153,1.24,1.24,0,0,1-1.333,1.155l-17.123,0-14.467-15a2.924,2.924,0,0,0-2.313-1.081,2.932,2.932,0,0,0-2.135,1.253L19.133,90.422A3.787,3.787,0,0,0,21.69,91.74l17.668.01A1.4,1.4,0,0,1,40.5,92.8a1.271,1.271,0,0,1-1.126,1.285l-17.667-.026A6.213,6.213,0,0,1,17.181,91.7L2.342,75.526,2.315,91.751l11.677-.013a1.3,1.3,0,0,1,1.255,1.028c.075.464-.433,1.308-1.018,1.309l-11.907.019,0,3.074H39.351a1.245,1.245,0,0,1,1.158,1.241,1.326,1.326,0,0,1-1.38,1.1l-36.808,0,.007,10.379A1.292,1.292,0,0,1,1.2,111.142,1.314,1.314,0,0,1,0,109.989V65.321A1.367,1.367,0,0,1,.99,64.2c.483-.083,1.322.4,1.323.985l.009,5.226,2.151-1.015a5.086,5.086,0,0,1,1.385-3.924l5.791-5.8a1.494,1.494,0,0,1,1.44-.2c2.449,2.137,4.04,4.081,3.118,7.279l1.878,1.9a3.212,3.212,0,0,1,.88,2.6l-.656,2.6a1.307,1.307,0,0,1-1.649.877,1.372,1.372,0,0,1-.724-1.619l.64-2.459L14.63,68.669c-1.76,1.25-3.755,2.061-4.185.674-.626-2.018,2.674-1.551,3.437-3.713.457-1.295-.419-2.448-1.379-3.339l-4.929,4.92a2.527,2.527,0,0,0-.6,1.712c.015.552.851.893,1.3,1.35l9.99,10.271,3.765-3.76-2.128-2.107a1.276,1.276,0,0,1-.182-1.571,1.18,1.18,0,0,1,1.824-.04l2.126,2.124a3.883,3.883,0,0,1,5.1.191l2.193,2.158,16.137,0A1.246,1.246,0,0,1,48.3,78.7a1.263,1.263,0,0,1-1.2,1.133H30.91l-3.9,3.629a1.28,1.28,0,0,1-1.781.107,1.318,1.318,0,0,1,.122-1.742l3.439-3.136-1.537-1.579a1.713,1.713,0,0,0-2.406.083" transform="translate(0 -45.9)" fill="#7b1a8a"/>
          <path id="Path_1005387" data-name="Path 1005387" d="M223.389,172.2c0,7.3-9.4,13.051-15.669,15.927-4.868-2.324-10.234-5.533-13.364-9.7a9.463,9.463,0,0,1-2.247-5.3l-.068-17.7c-.008-.415.288-1.189.664-1.322l15.053-5.345,14.836,5.29a1.6,1.6,0,0,1,.8,1.148Zm-7.316,8.138,3.015-2.986a10.664,10.664,0,0,0,2-4.379V155.956L207.728,151.2,194.4,155.945l.114,17.389c.016,2.369,2.06,4.108,3.483,5.756a39.765,39.765,0,0,0,9.8,6.514,43.627,43.627,0,0,0,8.282-5.269" transform="translate(-148.505 -115.034)" fill="#7b1a8a"/>
          <path id="Path_1005388" data-name="Path 1005388" d="M124.068,28.062a1.338,1.338,0,0,1-1.1,1.218,1.311,1.311,0,0,1-1.227-1.14l-.016-11.009a4.388,4.388,0,0,1-3.206-4.157L118.481,8.4a1.378,1.378,0,0,1,1.406-1.333l1.846.008v-1.9l-5.625-.01,0,19.588a1.194,1.194,0,0,1-1.077,1.22,1.307,1.307,0,0,1-1.213-1.068L113.81,1.213a1.471,1.471,0,0,1,.82-1.183c.382-.143,1.4.24,1.411.644l.07,2.191,13.324.017c.5,0,1.038.766,1.031,1.15a1.319,1.319,0,0,1-1.221,1.148l-5.156-.015-.029,1.909,2.022,0a1.383,1.383,0,0,1,1.192,1.1l-.015,4.806a4.34,4.34,0,0,1-3.184,4.177Zm.861-14.962.027-3.671h-4.128l-.018,3.319a2.081,2.081,0,0,0,1.953,2.231,1.971,1.971,0,0,0,2.165-1.879" transform="translate(-88.01 0)" fill="#7b1a8a"/>
          <path id="Path_1005389" data-name="Path 1005389" d="M233.983,217.7l-3.523-3.514a1.559,1.559,0,0,1,.008-1.469,1.5,1.5,0,0,1,1.6-.172l2.617,2.559,9.455-9.463a1.246,1.246,0,0,1,1.557-.17,1.191,1.191,0,0,1,.175,1.67l-10.43,10.446a1.327,1.327,0,0,1-1.462.112" transform="translate(-178.076 -158.736)" fill="#7b1a8a"/>
        </g>
      </g>
    </g>
  </g>
</svg>
