<svg id="img5" xmlns="http://www.w3.org/2000/svg" xmlns:xlink="http://www.w3.org/1999/xlink" width="121.37" height="121.37" viewBox="0 0 121.37 121.37">
  <defs>
    <clipPath id="clip-path">
      <ellipse id="Ellipse_13844" data-name="Ellipse 13844" cx="60.657" cy="60.57" rx="60.657" ry="60.57" fill="#88fede" stroke="#707070" stroke-width="1"/>
    </clipPath>
    <clipPath id="clip-path-2">
      <rect id="Rectangle_458899" data-name="Rectangle 458899" width="167.765" height="77.479" fill="#7b1a8a"/>
    </clipPath>
    <clipPath id="clip-path-3">
      <rect id="Rectangle_458900" data-name="Rectangle 458900" width="147.767" height="68.243" fill="#7b1a8a"/>
    </clipPath>
    <clipPath id="clip-path-4">
      <path id="Path_1004536" data-name="Path 1004536" d="M0,0,64.7.041l.04,63.449L.04,63.449Z" fill="none" stroke="#f7ceff" stroke-width="1"/>
    </clipPath>
    <clipPath id="clip-path-5">
      <path id="Path_1004537" data-name="Path 1004537" d="M0,0,64.7.041l.04,63.449L.04,63.449Z" fill="none" stroke="#fde6ff" stroke-width="1"/>
    </clipPath>
    <clipPath id="clip-path-6">
      <rect id="Rectangle_458932" data-name="Rectangle 458932" width="33.172" height="32.272" transform="translate(0)" fill="#217365"/>
    </clipPath>
    <clipPath id="clip-path-7">
      <rect id="Rectangle_458921" data-name="Rectangle 458921" width="6.239" height="6.239" fill="#217365"/>
    </clipPath>
    <clipPath id="clip-path-13">
      <rect id="Rectangle_458939" data-name="Rectangle 458939" width="33.172" height="32.272" fill="#217365"/>
    </clipPath>
    <clipPath id="clip-path-20">
      <rect id="Rectangle_455617" data-name="Rectangle 455617" width="104.394" height="104.394" fill="#fff"/>
    </clipPath>
    <clipPath id="clip-path-21">
      <rect id="Rectangle_459387" data-name="Rectangle 459387" width="73.289" height="70.405" fill="#7b1a8a"/>
    </clipPath>
  </defs>
  <g id="Group_1183964" data-name="Group 1183964">
    <g id="Mask_Group_1179368" data-name="Mask Group 1179368" transform="translate(0.056 0)" clip-path="url(#clip-path)">
      <g id="Ellipse_13843" data-name="Ellipse 13843" transform="translate(-5.966 -6.951)" fill="#f29dfc" stroke="#707070" stroke-width="1">
        <ellipse cx="65.132" cy="68.017" rx="65.132" ry="68.017" stroke="none"/>
        <ellipse cx="65.132" cy="68.017" rx="64.632" ry="67.517" fill="none"/>
      </g>
      <g id="Group_1183848" data-name="Group 1183848" transform="translate(-42.51 73.045)">
        <g id="Group_1183847" data-name="Group 1183847" transform="translate(0 0)" clip-path="url(#clip-path-2)">
          <path id="Path_1004500" data-name="Path 1004500" d="M167.765.234V77.479H14.536A79.765,79.765,0,0,1,.72,46.308c-.783-3.813-1.258-8.015.366-11.471,2.8-5.978,10.189-6.665,16.089-5.384C33.7,33.046,48.924,45.8,65.625,43.568c8.559-1.146,16.249-6.157,23.965-10.477s16.223-8.124,24.74-6.6c7.753,1.386,14.577,7.061,22.384,7.983,10.846,1.277,21.781-8.386,23.253-20.546.343-2.829.24-5.754,1-8.478S163.677.126,166.21,0a4.063,4.063,0,0,1,1.555.23" transform="translate(0 0)" fill="#7b1a8a"/>
        </g>
      </g>
      <g id="Group_1183850" data-name="Group 1183850" transform="translate(142.673 51.704) rotate(180)">
        <g id="Group_1183849" data-name="Group 1183849" clip-path="url(#clip-path-3)">
          <path id="Path_1004501" data-name="Path 1004501" d="M147.767.207V68.243H12.8A70.257,70.257,0,0,1,.634,40.788c-.69-3.358-1.108-7.06.322-10.1,2.47-5.265,8.974-5.87,14.171-4.742,14.551,3.164,27.965,14.4,42.675,12.432,7.539-1.01,14.312-5.423,21.108-9.229S93.2,21.991,100.7,23.333c6.829,1.221,12.839,6.219,19.716,7.032,9.553,1.125,19.185-7.386,20.481-18.1.3-2.492.212-5.069.879-7.468S144.167.111,146.4,0a3.579,3.579,0,0,1,1.37.2" transform="translate(0 0)" fill="#7b1a8a"/>
        </g>
      </g>
      <g id="Group_1183852" data-name="Group 1183852" transform="translate(141.819 99.583) rotate(121)">
        <g id="Group_1183851" data-name="Group 1183851" transform="translate(0 0)" clip-path="url(#clip-path-4)">
          <path id="Path_1004502" data-name="Path 1004502" d="M26.673,42.1c.007,11.794,7.951,21.361,17.743,21.367s20.311-9.152,20.3-20.947S62.615,19.86,49.286,9.783C23.165-9.965-4.792,5.8.7,8.777c28.484,15.468,25.973,28,25.977,33.32" transform="translate(0.005 0.013)" fill="none" stroke="#f7ceff" stroke-width="1"/>
        </g>
      </g>
      <g id="Group_1183854" data-name="Group 1183854" transform="translate(-23.956 27.693) rotate(-59)">
        <g id="Group_1183853" data-name="Group 1183853" transform="translate(0 0)" clip-path="url(#clip-path-5)">
          <path id="Path_1004503" data-name="Path 1004503" d="M26.673,42.1c.007,11.794,7.951,21.361,17.743,21.367s20.311-9.152,20.3-20.947S62.615,19.86,49.286,9.783C23.165-9.965-4.792,5.8.7,8.777c28.484,15.468,25.973,28,25.977,33.32" transform="translate(0.005 0.013)" fill="none" stroke="#fde6ff" stroke-width="1"/>
        </g>
      </g>
    </g>
    <g id="Group_1183941" data-name="Group 1183941" transform="translate(0 121.37) rotate(-90)" clip-path="url(#clip-path-6)">
      <g id="Group_1183940" data-name="Group 1183940" transform="translate(2.965)">
        <g id="Group_1183942" data-name="Group 1183942">
          <g id="Group_1183911" data-name="Group 1183911" opacity="0.7">
            <g id="Group_1183910" data-name="Group 1183910">
              <g id="Group_1183909" data-name="Group 1183909" clip-path="url(#clip-path-7)">
                <path id="Path_1004522" data-name="Path 1004522" d="M5.371,2.252H3.987V.867a.867.867,0,0,0-1.735,0V2.252H.867a.867.867,0,0,0,0,1.735H2.252V5.371a.867.867,0,1,0,1.735,0V3.987H5.371a.867.867,0,1,0,0-1.735" transform="translate(0 0)" fill="#217365"/>
              </g>
            </g>
          </g>
          <g id="Group_1183914" data-name="Group 1183914" transform="translate(0 12.226)" opacity="0.7">
            <g id="Group_1183913" data-name="Group 1183913">
              <g id="Group_1183912" data-name="Group 1183912" clip-path="url(#clip-path-7)">
                <path id="Path_1004523" data-name="Path 1004523" d="M5.371,2.252H3.987V.867a.867.867,0,0,0-1.735,0V2.252H.867a.867.867,0,0,0,0,1.735H2.252V5.371a.867.867,0,0,0,1.735,0V3.987H5.371a.867.867,0,1,0,0-1.735" fill="#217365"/>
              </g>
            </g>
          </g>
          <g id="Group_1183917" data-name="Group 1183917" transform="translate(0 24.452)" opacity="0.7">
            <g id="Group_1183916" data-name="Group 1183916">
              <g id="Group_1183915" data-name="Group 1183915" clip-path="url(#clip-path-7)">
                <path id="Path_1004524" data-name="Path 1004524" d="M5.371,2.252H3.987V.867a.867.867,0,0,0-1.735,0V2.252H.867a.867.867,0,0,0,0,1.735H2.252V5.371a.867.867,0,1,0,1.735,0V3.987H5.371a.867.867,0,1,0,0-1.735" transform="translate(0 0)" fill="#217365"/>
              </g>
            </g>
          </g>
          <g id="Group_1183923" data-name="Group 1183923" transform="translate(10.521)" opacity="0.7">
            <g id="Group_1183922" data-name="Group 1183922">
              <g id="Group_1183921" data-name="Group 1183921" clip-path="url(#clip-path-7)">
                <path id="Path_1004526" data-name="Path 1004526" d="M5.371,2.252H3.986V.867a.867.867,0,0,0-1.735,0V2.252H.867a.867.867,0,0,0,0,1.735H2.252V5.371a.867.867,0,1,0,1.735,0V3.987H5.371a.867.867,0,1,0,0-1.735" transform="translate(0 0)" fill="#217365"/>
              </g>
            </g>
          </g>
          <g id="Group_1183926" data-name="Group 1183926" transform="translate(10.521 12.226)" opacity="0.7">
            <g id="Group_1183925" data-name="Group 1183925">
              <g id="Group_1183924" data-name="Group 1183924" clip-path="url(#clip-path-7)">
                <path id="Path_1004527" data-name="Path 1004527" d="M5.371,2.252H3.986V.867a.867.867,0,0,0-1.735,0V2.252H.867a.867.867,0,0,0,0,1.735H2.252V5.371a.867.867,0,1,0,1.735,0V3.987H5.371a.867.867,0,1,0,0-1.735" transform="translate(0)" fill="#217365"/>
              </g>
            </g>
          </g>
          <g id="Group_1183932" data-name="Group 1183932" transform="translate(20.652)" opacity="0.7">
            <g id="Group_1183931" data-name="Group 1183931">
              <g id="Group_1183930" data-name="Group 1183930" clip-path="url(#clip-path-7)">
                <path id="Path_1004529" data-name="Path 1004529" d="M5.371,2.252H3.987V.867a.867.867,0,0,0-1.735,0V2.252H.867a.867.867,0,0,0,0,1.735H2.252V5.371a.867.867,0,1,0,1.735,0V3.987H5.371a.867.867,0,1,0,0-1.735" transform="translate(0 0)" fill="#217365"/>
              </g>
            </g>
          </g>
        </g>
      </g>
    </g>
    <g id="Group_1183963" data-name="Group 1183963" transform="translate(121.37 0.196) rotate(90)" clip-path="url(#clip-path-13)">
      <g id="Group_1183962" data-name="Group 1183962" transform="translate(2.965)">
        <g id="Group_1183961" data-name="Group 1183961">
          <g id="Group_1183945" data-name="Group 1183945" opacity="0.7">
            <g id="Group_1183944" data-name="Group 1183944">
              <g id="Group_1183943" data-name="Group 1183943" clip-path="url(#clip-path-7)">
                <path id="Path_1004530" data-name="Path 1004530" d="M5.371,2.252H3.987V.867a.867.867,0,0,0-1.735,0V2.252H.867a.867.867,0,0,0,0,1.735H2.252V5.371a.867.867,0,1,0,1.735,0V3.987H5.371a.867.867,0,1,0,0-1.735" transform="translate(0 0)" fill="#217365"/>
              </g>
            </g>
          </g>
          <g id="Group_1183948" data-name="Group 1183948" transform="translate(0 12.226)" opacity="0.7">
            <g id="Group_1183947" data-name="Group 1183947">
              <g id="Group_1183946" data-name="Group 1183946" clip-path="url(#clip-path-7)">
                <path id="Path_1004531" data-name="Path 1004531" d="M5.371,2.252H3.987V.867a.867.867,0,0,0-1.735,0V2.252H.867a.867.867,0,0,0,0,1.735H2.252V5.371a.867.867,0,0,0,1.735,0V3.987H5.371a.867.867,0,1,0,0-1.735" fill="#217365"/>
              </g>
            </g>
          </g>
          <g id="Group_1183951" data-name="Group 1183951" transform="translate(0 24.452)" opacity="0.7">
            <g id="Group_1183950" data-name="Group 1183950">
              <g id="Group_1183949" data-name="Group 1183949" clip-path="url(#clip-path-7)">
                <path id="Path_1004532" data-name="Path 1004532" d="M5.371,2.252H3.987V.867a.867.867,0,0,0-1.735,0V2.252H.867a.867.867,0,0,0,0,1.735H2.252V5.371a.867.867,0,1,0,1.735,0V3.987H5.371a.867.867,0,1,0,0-1.735" transform="translate(0 0)" fill="#217365"/>
              </g>
            </g>
          </g>
          <g id="Group_1183954" data-name="Group 1183954" transform="translate(10.521)" opacity="0.7">
            <g id="Group_1183953" data-name="Group 1183953">
              <g id="Group_1183952" data-name="Group 1183952" clip-path="url(#clip-path-7)">
                <path id="Path_1004533" data-name="Path 1004533" d="M5.371,2.252H3.986V.867a.867.867,0,0,0-1.735,0V2.252H.867a.867.867,0,0,0,0,1.735H2.252V5.371a.867.867,0,1,0,1.735,0V3.987H5.371a.867.867,0,1,0,0-1.735" transform="translate(0 0)" fill="#217365"/>
              </g>
            </g>
          </g>
          <g id="Group_1183957" data-name="Group 1183957" transform="translate(10.521 12.226)" opacity="0.7">
            <g id="Group_1183956" data-name="Group 1183956">
              <g id="Group_1183955" data-name="Group 1183955" clip-path="url(#clip-path-7)">
                <path id="Path_1004534" data-name="Path 1004534" d="M5.371,2.252H3.986V.867a.867.867,0,0,0-1.735,0V2.252H.867a.867.867,0,0,0,0,1.735H2.252V5.371a.867.867,0,1,0,1.735,0V3.987H5.371a.867.867,0,1,0,0-1.735" transform="translate(0)" fill="#217365"/>
              </g>
            </g>
          </g>
          <g id="Group_1183960" data-name="Group 1183960" transform="translate(20.652)" opacity="0.7">
            <g id="Group_1183959" data-name="Group 1183959">
              <g id="Group_1183958" data-name="Group 1183958" clip-path="url(#clip-path-7)">
                <path id="Path_1004535" data-name="Path 1004535" d="M5.371,2.252H3.987V.867a.867.867,0,0,0-1.735,0V2.252H.867a.867.867,0,0,0,0,1.735H2.252V5.371a.867.867,0,1,0,1.735,0V3.987H5.371a.867.867,0,1,0,0-1.735" transform="translate(0 0)" fill="#217365"/>
              </g>
            </g>
          </g>
        </g>
      </g>
    </g>
  </g>
  <g id="Group_1179625" data-name="Group 1179625" transform="translate(8.72 8.663)">
    <g id="Group_1179624" data-name="Group 1179624" transform="translate(0)">
      <rect id="Rectangle_455622" data-name="Rectangle 455622" width="19.124" height="15.308" transform="translate(14.171 52.73)" fill="#88fede"/>
      <g id="Group_1179619" data-name="Group 1179619">
        <g id="Group_1179526" data-name="Group 1179526" clip-path="url(#clip-path-20)">
          <path id="Path_1002449" data-name="Path 1002449" d="M104.32,52.16A52.16,52.16,0,1,1,52.16,0a52.16,52.16,0,0,1,52.16,52.16" transform="translate(0.013 0)" fill="#fff"/>
        </g>
      </g>
    </g>
  </g>
  <g id="Group_1179626" data-name="Group 1179626" transform="translate(23.782 22.626)">
    <g id="Group_1099776" data-name="Group 1099776" transform="translate(0 0)">
      <g id="Group_1099618" data-name="Group 1099618" transform="translate(2.929 0.373)">
        <rect id="Rectangle_401104" data-name="Rectangle 401104" width="74.893" height="75.795" fill="none"/>
      </g>
      <g id="Group_1184389" data-name="Group 1184389" transform="translate(3.929 2.373)">
        <g id="Group_1184388" data-name="Group 1184388" clip-path="url(#clip-path-21)">
          <path id="Path_1005390" data-name="Path 1005390" d="M123.076,138.623l-19.852.093c-3.668.017-6.864-2.591-6.862-6.361l0-8.6a6.309,6.309,0,0,1,6.232-6.225l19.952-.031a6.407,6.407,0,0,1,6.482,6.037c.09,3.1.08,5.95.005,9.083a6.209,6.209,0,0,1-5.962,6.006m0-2.818a3.787,3.787,0,0,0,3.207-3.861l0-7.755a3.746,3.746,0,0,0-3.123-3.8l-20.781.024a3.415,3.415,0,0,0-3.112,3.1l-.026,8.891a3.44,3.44,0,0,0,3.139,3.371Z" transform="translate(-76.132 -92.829)" fill="#7b1a8a"/>
          <path id="Path_1005391" data-name="Path 1005391" d="M123.051,255.992l-20.716,0a6.312,6.312,0,0,1-6.016-6.271l0-8.453a6.38,6.38,0,0,1,6.3-6.365l20.25,0a6.29,6.29,0,0,1,6.119,5.929c.1,3.149.081,5.947.019,9.107a6.213,6.213,0,0,1-5.957,6.046m-.272-2.783a3.7,3.7,0,0,0,3.468-3.91l-.009-7.784a3.659,3.659,0,0,0-3.745-3.766l-19.93.016a3.5,3.5,0,0,0-3.324,3.1c-.079,3.15-.088,6.116.007,9.247.056,1.854,1.961,3.13,3.725,3.127Z" transform="translate(-76.095 -185.591)" fill="#7b1a8a"/>
          <path id="Path_1005392" data-name="Path 1005392" d="M122.618,2.855,119.1,2.826a1.473,1.473,0,0,1-1.362-1.379,1.456,1.456,0,0,1,1.6-1.438L122.5,0a6.531,6.531,0,0,1,6.572,6.787l-.077,8.442a6.187,6.187,0,0,1-5.954,5.9l-20.424.025a6.383,6.383,0,0,1-6.3-6.369l.024-8.6A6.394,6.394,0,0,1,102.953,0l3.6.023a1.381,1.381,0,0,1,1.434,1.41,1.365,1.365,0,0,1-1.428,1.393l-3.848.019c-1.466.007-3.374,1.275-3.444,2.923-.134,3.19-.109,6.214-.028,9.429a3.486,3.486,0,0,0,3.324,3.093l19.931.017a3.65,3.65,0,0,0,3.746-3.763l-.007-7.962a3.661,3.661,0,0,0-3.617-3.727" transform="translate(-76.097 0.001)" fill="#7b1a8a"/>
          <path id="Path_1005393" data-name="Path 1005393" d="M12.677,65.644l4.181,4.144a1.566,1.566,0,0,1,0,1.96l-4.125,4.1a1.7,1.7,0,0,1-1.826-.043,1.55,1.55,0,0,1-.194-1.966l1.508-1.647A11.282,11.282,0,0,1,.033,61.232L0,56.165A11.214,11.214,0,0,1,10.946,44.746l4.778-.037a1.429,1.429,0,0,1,.251,2.845L10.7,47.63A8.15,8.15,0,0,0,2.94,55.311c-.11,2.035-.09,3.9-.032,5.913A8.418,8.418,0,0,0,12.2,69.3l-1.5-1.61a1.657,1.657,0,0,1,.087-1.855,1.568,1.568,0,0,1,1.889-.19" transform="translate(0 -35.323)" fill="#7b1a8a"/>
          <path id="Path_1005394" data-name="Path 1005394" d="M267.445,186.333l3.949-3.963a1.485,1.485,0,0,1,1.816-.245,1.457,1.457,0,0,1,.451,1.907l-1.6,1.776a8.44,8.44,0,0,0,9.271-7.746,56.947,56.947,0,0,0,.007-6.123,8.261,8.261,0,0,0-8.027-7.847l-5.041-.063a1.4,1.4,0,0,1,.022-2.778c1.885,0,3.608-.084,5.489.029a11.03,11.03,0,0,1,10.442,10.648l.053,5.062A11.452,11.452,0,0,1,272.02,188.7l1.59,1.714a1.507,1.507,0,0,1-.186,1.807,1.413,1.413,0,0,1-1.792.158l-4.23-4.209a1.39,1.39,0,0,1,.042-1.84" transform="translate(-210.99 -127.376)" fill="#7b1a8a"/>
          <path id="Path_1005395" data-name="Path 1005395" d="M18.73,266.627l1.276,1.364a1.451,1.451,0,1,1-1.962,2.136l-4.089-4.081a1.765,1.765,0,0,1,.017-1.777l4.188-4.184a1.624,1.624,0,0,1,1.72-.051c.473.3.876,1.358.481,1.785l-1.772,1.913,8.009.005a1.437,1.437,0,1,1,0,2.871Z" transform="translate(-10.842 -205.268)" fill="#7b1a8a"/>
          <path id="Path_1005396" data-name="Path 1005396" d="M271.964,28.162l1.361,1.42a1.566,1.566,0,0,1,.211,1.945,1.537,1.537,0,0,1-2.02.254L267.4,27.688a1.519,1.519,0,0,1,0-1.974l4.119-4.1a1.554,1.554,0,0,1,2.016.258,1.7,1.7,0,0,1-.311,2.077l-1.193,1.332,8.044.037a1.366,1.366,0,0,1,1.326,1.388,1.452,1.452,0,0,1-1.327,1.421Z" transform="translate(-210.976 -16.865)" fill="#7b1a8a"/>
          <path id="Path_1005397" data-name="Path 1005397" d="M147.7,46.487l-16.194.026a1.506,1.506,0,0,1-1.486-1.326,1.451,1.451,0,0,1,1.487-1.516l15.718,0a1.535,1.535,0,0,1,1.5,1.126c.128.476-.194,1.691-1.027,1.693" transform="translate(-102.725 -34.501)" fill="#7b1a8a"/>
          <path id="Path_1005398" data-name="Path 1005398" d="M171.638,1.452A1.423,1.423,0,1,1,170.215.029a1.423,1.423,0,0,1,1.423,1.423" transform="translate(-133.357 -0.023)" fill="#7b1a8a"/>
          <path id="Path_1005399" data-name="Path 1005399" d="M140.917,164.145l-9.7-.014a1.441,1.441,0,0,1-1.24-1.247c-.079-.5.37-1.541,1.069-1.542l10.281-.008c.755,0,1.215,1.016,1.12,1.568a1.484,1.484,0,0,1-1.533,1.242" transform="translate(-102.686 -127.465)" fill="#7b1a8a"/>
          <path id="Path_1005400" data-name="Path 1005400" d="M208.59,162.54a1.425,1.425,0,1,1-1.425-1.425,1.425,1.425,0,0,1,1.425,1.425" transform="translate(-162.548 -127.291)" fill="#7b1a8a"/>
          <path id="Path_1005401" data-name="Path 1005401" d="M147.679,281.529l-16.42.015a1.43,1.43,0,0,1,.249-2.849l15.68,0a1.554,1.554,0,0,1,1.505,1.121c.127.49-.187,1.715-1.014,1.716" transform="translate(-102.692 -220.185)" fill="#7b1a8a"/>
        </g>
      </g>
    </g>
  </g>
</svg>
