<svg xmlns="http://www.w3.org/2000/svg" xmlns:xlink="http://www.w3.org/1999/xlink" width="188" height="166.999" viewBox="0 0 188 166.999">
  <defs>
    <clipPath id="clip-path">
      <path id="Rectangle_459932" data-name="Rectangle 459932" d="M8,0H180a8,8,0,0,1,8,8V159a8,8,0,0,1-8,8H8a8,8,0,0,1-8-8V8A8,8,0,0,1,8,0Z" transform="translate(20 9)" fill="none"/>
    </clipPath>
    <clipPath id="clip-path-2">
      <rect id="Rectangle_459933" data-name="Rectangle 459933" width="158.667" height="158.667" transform="translate(35 13)" fill="none"/>
    </clipPath>
  </defs>
  <g id="img6" transform="translate(-20 -9)">
    <g id="Group_1185238" data-name="Group 1185238">
      <g id="Group_1185237" data-name="Group 1185237" clip-path="url(#clip-path)">
        <rect id="Rectangle_459930" data-name="Rectangle 459930" width="221" height="180" fill="#477265"/>
        <rect id="Rectangle_459931" data-name="Rectangle 459931" width="220" height="179" transform="translate(0.5 0.5)" fill="#217365" stroke="#6f6f6f" stroke-width="1"/>
        <path id="Path_1006040" data-name="Path 1006040" d="M220.711,1l-208,178V1Z" fill="#5bdfc4"/>
      </g>
    </g>
    <g id="Group_1185240" data-name="Group 1185240">
      <g id="Group_1185239" data-name="Group 1185239" clip-path="url(#clip-path-2)">
        <path id="Path_1006041" data-name="Path 1006041" d="M114.334,171.667a79.3,79.3,0,0,1-22.9-3.36c-1.659-.5-3.32-1.057-4.932-1.663a79.809,79.809,0,0,1-39.987-33.127c-.018-.029-.035-.059-.052-.089A79.34,79.34,0,0,1,107.588,13.283h.038c2.2-.189,4.46-.283,6.708-.283a79.334,79.334,0,1,1,0,158.667" fill="#fff"/>
        <path id="Path_1006042" data-name="Path 1006042" d="M167.591,93.634c0,13.611,18.854,25.082,12.565,36.116a75.858,75.858,0,0,1-9.4,13.05c-13.86,15.486-35.38,4.639-57.8,4.639-21.732,0-39.948,11.434-53.756-3.234a75.875,75.875,0,0,1-5.641-6.734c-9.378-12.6,1.543-31.33,1.543-48.247,0-23.018-6.194-40.531,10.018-54.415a75.833,75.833,0,0,1,68.018-15.82c32.711,8.36,34.453,39.33,34.453,74.645" fill="#c76354"/>
        <path id="Path_1006043" data-name="Path 1006043" d="M79.493,116.909a47.307,47.307,0,0,1-23.664,19.752c-.745.29-1.5.566-2.271.814A75.711,75.711,0,0,1,65.114,34.814c1.424,3.007,1.7,7.191,1.311,10.567a32.412,32.412,0,0,1-5.493,14.664,3.393,3.393,0,0,0-.821,1.89c.022,1.377,1.62,2.073,2.922,2.525C72.923,67.9,88.193,72.939,91.118,83s-6.35,24.872-11.631,33.914" fill="#e8bbfc"/>
        <path id="Path_1006044" data-name="Path 1006044" d="M190.034,92.334a75.328,75.328,0,0,1-9.881,37.417,31.565,31.565,0,0,1-24.826-9.947c-8.676-9.433-11.27-23.519-8.306-35.985.827-3.476,2.047-6.871,2.5-10.41s.061-7.376-2.068-10.246c-3.155-4.252-9.02-5.221-13.553-7.961a18.962,18.962,0,0,1-8.717-12.642c-.921-5.057.29-10.323,2.516-14.952a50.977,50.977,0,0,1,5.435-8.621,75.73,75.73,0,0,1,56.9,73.345" fill="#e8bbfc"/>
        <path id="Path_1006045" data-name="Path 1006045" d="M94.688,62.34c0,7.254-5.436,13.134-12.141,13.134S70.406,69.594,70.406,62.34s5.436-13.134,12.141-13.134S94.688,55.082,94.688,62.34" fill="#3e2d46"/>
        <path id="Path_1006046" data-name="Path 1006046" d="M109.059,24.973a17.855,17.855,0,0,1,4.328-.021,5.993,5.993,0,0,1,3.757,1.971,3.651,3.651,0,0,1,.454,4.049,4.53,4.53,0,0,1,4.31,2.267,6.8,6.8,0,0,1,.6,5,14.056,14.056,0,0,1-2.219,4.623,9.331,9.331,0,0,1-2.791,2.9,10.14,10.14,0,0,1-4.159,1.1,20.678,20.678,0,0,1-9.121-.621c-2.894-1.036-5.476-3.417-5.969-6.451a10.771,10.771,0,0,1,.276-4.068,15.268,15.268,0,0,1,2.257-5.52,20.6,20.6,0,0,1,4.1-3.91c1.391-1.14,2.342-1.162,4.175-1.32" fill="#3e2d46"/>
        <path id="Path_1006047" data-name="Path 1006047" d="M88.319,55.328a5.936,5.936,0,0,0,2.318.854,3.38,3.38,0,0,0,.62.015l-1.648,19.73,18.234,17.278,4.521-18.5-2.512-.922-.711-9.218a16.776,16.776,0,0,0,6.927-8.683c.6-1.6-.919-3.027-.664-4.574.247-1.5,2.275-3.125,2.314-4.4a30.245,30.245,0,0,0-.237-5.051c0-.489-.027-.982-.077-1.482a15.7,15.7,0,0,0-31.291,2.611c.014.168.031.336.05.5a12.712,12.712,0,0,0,.418,1.949,3.023,3.023,0,0,0-1.817.788,2.976,2.976,0,0,0-.939,2.15c-.176,2.854,1.913,5.453,4.494,6.946" fill="#e6977d"/>
        <path id="Path_1006048" data-name="Path 1006048" d="M109.142,64.566a10.26,10.26,0,0,1-2.388,1.188s-6.906-2.419-10.842-6.22c0,0,7.361,8.3,10.43,8.471,2.184.119,2.8-3.439,2.8-3.439" fill="#3e2d46"/>
        <path id="Path_1006049" data-name="Path 1006049" d="M111.746,45.973a1.418,1.418,0,1,0,1.2-1.879,1.6,1.6,0,0,0-1.2,1.879" fill="#3e2d46"/>
        <path id="Path_1006050" data-name="Path 1006050" d="M100.55,47.089a1.418,1.418,0,1,0,1.2-1.879,1.6,1.6,0,0,0-1.2,1.879" fill="#3e2d46"/>
        <path id="Path_1006051" data-name="Path 1006051" d="M108.823,53.459a.3.3,0,0,0,.127-.044l1.687-1.068a.291.291,0,0,0,.129-.312l-1.674-7.271a.292.292,0,0,0-.572.12l0,.011,1.627,7.069-1.516.959a.292.292,0,0,0,.186.537" fill="#3e2d46"/>
        <path id="Path_1006052" data-name="Path 1006052" d="M107.969,56.54a3.186,3.186,0,0,0,1.813-.9.292.292,0,0,0-.423-.4,2.391,2.391,0,0,1-2,.691,3.235,3.235,0,0,1-1.816-1.549.292.292,0,1,0-.518.27,3.78,3.78,0,0,0,2.214,1.847,2.378,2.378,0,0,0,.729.04" fill="#3e2d46"/>
        <path id="Path_1006053" data-name="Path 1006053" d="M115.172,42.488a.3.3,0,0,0,.165-.511h0a4.1,4.1,0,0,0-2.58-1.028.292.292,0,0,0-.019.584,3.558,3.558,0,0,1,2.212.882.293.293,0,0,0,.223.072" fill="#3e2d46"/>
        <path id="Path_1006054" data-name="Path 1006054" d="M99.807,43.129a.3.3,0,0,0,.153-.062,3.782,3.782,0,0,1,2.6-.812.292.292,0,1,0,.066-.58l-.024,0a4.363,4.363,0,0,0-3.009.939.292.292,0,0,0,.212.518" fill="#3e2d46"/>
        <path id="Path_1006055" data-name="Path 1006055" d="M90.781,53.852l.035-.005a.292.292,0,0,0,.222-.348,12.23,12.23,0,0,0-.922-2.953,6.352,6.352,0,0,0-3.284-2.986.292.292,0,0,0-.215.543,5.758,5.758,0,0,1,2.977,2.709,11.809,11.809,0,0,1,.872,2.813.291.291,0,0,0,.313.228" fill="#3e2d46"/>
        <path id="Path_1006056" data-name="Path 1006056" d="M93.956,53.81a4.583,4.583,0,1,0,4.106-5.015,4.583,4.583,0,0,0-4.106,5.015v0" fill="#e8bbfc"/>
        <path id="Path_1006057" data-name="Path 1006057" d="M112.789,51.935a4.584,4.584,0,0,0,3.28,3.947,28.3,28.3,0,0,0,1.648-8.97,4.79,4.79,0,0,0-.821.008,4.582,4.582,0,0,0-4.108,5.013v0" fill="#e8bbfc"/>
        <path id="Path_1006058" data-name="Path 1006058" d="M89.552,68.818l20.664-.233L110.8,72.9l3.619,2.218-5.136,21.13L87.217,75.473Z" fill="#e8bbfc"/>
        <path id="Path_1006059" data-name="Path 1006059" d="M88.064,72.67s18.824,16.548,21.1,22.852L110.8,72.9a108.86,108.86,0,0,1,15.7,11.149c6.392,5.779,9.894,29.682,10.857,37.475s3.678,23.9,3.678,23.9H64.424l1.4-6.391s-5.078-1.576-5.34-9.282S64.073,90,69.415,84.838,88.064,72.67,88.064,72.67" fill="#f3ebe4"/>
        <path id="Path_1006060" data-name="Path 1006060" d="M128.418,110.637c-.524-5.408-3.837-14.7-3.871-14.792a.343.343,0,1,0-.646.232c.033.092,3.319,9.3,3.835,14.627s-.69,26.526-.7,26.74a.343.343,0,0,0,.323.362h.019a.343.343,0,0,0,.343-.323c.05-.874,1.221-21.452.7-26.846" fill="#3e2d46"/>
        <path id="Path_1006061" data-name="Path 1006061" d="M81.53,143.075a47.743,47.743,0,0,1-15.548-4.341.343.343,0,0,0-.345.593l.029.015a48.4,48.4,0,0,0,15.8,4.415H81.5a.343.343,0,0,0,.033-.684" fill="#3e2d46"/>
        <path id="Path_1006062" data-name="Path 1006062" d="M122.282,84.509l-9.558-5,5.538-1.846a.343.343,0,0,0-.216-.651l-6.3,2.1a.344.344,0,0,0-.051.63l9.589,5.012c-2.294.881-9.229,3.818-11.827,8.019l1.688-19.843a.343.343,0,0,0-.313-.371.35.35,0,0,0-.371.313L108.68,93.767c-5.13-8.094-19.748-20.794-20.391-21.355a.343.343,0,0,0-.449.518c.147.128,13.434,11.671,19.252,19.722a35.163,35.163,0,0,0-23.947-8.579l6.772-2.8a.343.343,0,0,0-.072-.655L77.237,78.4a.338.338,0,0,0-.4.267l0,.011a.343.343,0,0,0,.275.4h0l11.45,2.011L80.9,84.262a.343.343,0,0,0,.185.655A34.126,34.126,0,0,1,108.592,95l.908,38.111L86.57,126.35l.173-23.032a.342.342,0,1,0-.683-.006L85.885,126.6a.342.342,0,0,0,.246.331l23.386,6.894.242,10.18a.343.343,0,0,0,.343.335h.008a.341.341,0,0,0,.334-.348v0l-.236-9.96,2.551.752a.306.306,0,0,0,.1.014.343.343,0,0,0,.1-.671l-2.762-.815-.912-38.423c1.387-5.68,12.844-9.712,12.96-9.752a.343.343,0,0,0,.046-.628" fill="#3e2d46"/>
        <path id="Path_1006063" data-name="Path 1006063" d="M86.533,45.676a5.673,5.673,0,0,1,6.3,3.175s6.61-2.277,8.668-8.055a5.323,5.323,0,0,0,5.253-3.108c1.707-3.546.131-12.477.131-12.477s-15.015-.394-20.838,6.26-1.284,14.76-1.284,14.76a7.409,7.409,0,0,1,1.775-.555" fill="#3e2d46"/>
        <path id="Path_1006064" data-name="Path 1006064" d="M170.754,142.8a75.7,75.7,0,0,1-106.89,5.958q-2.428-2.173-4.664-4.548V142.8Z" fill="#6f71fa"/>
        <path id="Path_1006065" data-name="Path 1006065" d="M118.728,107.087,104.536,142.34H74.816l3.556,1.392h85.042l1.082-1.392,15.926-35.253Z" fill="#3e2d46"/>
        <path id="Path_1006066" data-name="Path 1006066" d="M146.872,126.2c-1.119,4.15-3.3,7.172-4.862,6.75s-1.929-4.129-.811-8.279,3.295-7.172,4.861-6.75,1.93,4.129.812,8.279" fill="#f3ebe4"/>
        <path id="Path_1006067" data-name="Path 1006067" d="M143.388,67.241a15.214,15.214,0,1,0-5.055.553l3.5,4.854Z" fill="#cbd277"/>
        <path id="Path_1006068" data-name="Path 1006068" d="M147.675,50.13h-5.7v-5.7h-4.483v5.7h-5.7v4.478h5.7v5.7h4.482v-5.7h5.7Z" fill="#f3ebe4"/>
        <path id="Path_1006069" data-name="Path 1006069" d="M155.868,95.928a14.191,14.191,0,1,1,3.978,2.588l-4.961,2.569Z" fill="#f3ebe4"/>
        <path id="Path_1006070" data-name="Path 1006070" d="M167.609,80.789l5.162,4.834c2.07,1.939,2.5,4.877.949,6.529l-.258.276c-1.548,1.653-4.508,1.42-6.578-.519L163.82,89.04c.568-1.36-2.393-5.5-1.782-6.837.648-1.417,4.872-.027,5.571-1.414" fill="#fff"/>
        <path id="Path_1006071" data-name="Path 1006071" d="M158.221,78.154l.258-.276c1.548-1.653,4.508-1.419,6.578.519l2.552,2.391q-2.034,4.04-3.789,8.251l-4.65-4.356c-2.07-1.938-2.5-4.876-.949-6.529" fill="#6f71fa"/>
        <path id="Path_1006072" data-name="Path 1006072" d="M158.572,81.73a1.788,1.788,0,0,0,.365,1.3,3.52,3.52,0,0,0,1.044.9,1.242,1.242,0,0,0,1.016.23.829.829,0,0,0,.5-.6,1.465,1.465,0,0,0-.069-.8c-.29-.854-2.586-2.8-2.854-1.022" fill="#fff"/>
        <path id="Path_1006073" data-name="Path 1006073" d="M162.833,85.1a.676.676,0,1,1-.827-.57.713.713,0,0,1,.827.57" fill="#fff"/>
        <path id="Path_1006074" data-name="Path 1006074" d="M71.414,47.867a4.948,4.948,0,1,1-4.948-4.948,4.948,4.948,0,0,1,4.948,4.948" fill="#6f71fa"/>
        <path id="Path_1006075" data-name="Path 1006075" d="M58.117,100.9A5.721,5.721,0,1,1,52.4,95.181a5.721,5.721,0,0,1,5.721,5.721" fill="#f3ebe4"/>
        <circle id="Ellipse_13851" data-name="Ellipse 13851" cx="5.1" cy="5.1" r="5.1" transform="translate(164.192 51.889)" fill="#f3ebe4"/>
        <path id="Path_1006076" data-name="Path 1006076" d="M181.813,118.683a5.257,5.257,0,1,1-5.257-5.257,5.257,5.257,0,0,1,5.257,5.257" fill="#6f71fa"/>
      </g>
    </g>
  </g>
</svg>
