<svg id="img8" xmlns="http://www.w3.org/2000/svg" xmlns:xlink="http://www.w3.org/1999/xlink" width="121.37" height="121.37" viewBox="0 0 121.37 121.37">
  <defs>
    <clipPath id="clip-path">
      <ellipse id="Ellipse_13844" data-name="Ellipse 13844" cx="60.657" cy="60.57" rx="60.657" ry="60.57" fill="#88fede" stroke="#707070" stroke-width="1"/>
    </clipPath>
    <clipPath id="clip-path-2">
      <rect id="Rectangle_458899" data-name="Rectangle 458899" width="167.765" height="77.479" fill="#7b1a8a"/>
    </clipPath>
    <clipPath id="clip-path-3">
      <rect id="Rectangle_458900" data-name="Rectangle 458900" width="147.767" height="68.243" fill="#7b1a8a"/>
    </clipPath>
    <clipPath id="clip-path-4">
      <path id="Path_1004536" data-name="Path 1004536" d="M0,0,64.7.041l.04,63.449L.04,63.449Z" fill="none" stroke="#f7ceff" stroke-width="1"/>
    </clipPath>
    <clipPath id="clip-path-5">
      <path id="Path_1004537" data-name="Path 1004537" d="M0,0,64.7.041l.04,63.449L.04,63.449Z" fill="none" stroke="#fde6ff" stroke-width="1"/>
    </clipPath>
    <clipPath id="clip-path-6">
      <rect id="Rectangle_458932" data-name="Rectangle 458932" width="33.172" height="32.272" transform="translate(0)" fill="#217365"/>
    </clipPath>
    <clipPath id="clip-path-7">
      <rect id="Rectangle_458921" data-name="Rectangle 458921" width="6.239" height="6.239" fill="#217365"/>
    </clipPath>
    <clipPath id="clip-path-13">
      <rect id="Rectangle_458939" data-name="Rectangle 458939" width="33.172" height="32.272" fill="#217365"/>
    </clipPath>
    <clipPath id="clip-path-20">
      <rect id="Rectangle_455617" data-name="Rectangle 455617" width="104.394" height="104.394" fill="#fff"/>
    </clipPath>
    <clipPath id="clip-path-21">
      <rect id="Rectangle_459390" data-name="Rectangle 459390" width="68.929" height="67.771" fill="#7b1a8a"/>
    </clipPath>
  </defs>
  <g id="Group_1183964" data-name="Group 1183964">
    <g id="Mask_Group_1179368" data-name="Mask Group 1179368" transform="translate(0.056 0)" clip-path="url(#clip-path)">
      <g id="Ellipse_13843" data-name="Ellipse 13843" transform="translate(-5.966 -6.951)" fill="#f29dfc" stroke="#707070" stroke-width="1">
        <ellipse cx="65.132" cy="68.017" rx="65.132" ry="68.017" stroke="none"/>
        <ellipse cx="65.132" cy="68.017" rx="64.632" ry="67.517" fill="none"/>
      </g>
      <g id="Group_1183848" data-name="Group 1183848" transform="translate(-42.51 73.045)">
        <g id="Group_1183847" data-name="Group 1183847" transform="translate(0 0)" clip-path="url(#clip-path-2)">
          <path id="Path_1004500" data-name="Path 1004500" d="M167.765.234V77.479H14.536A79.765,79.765,0,0,1,.72,46.308c-.783-3.813-1.258-8.015.366-11.471,2.8-5.978,10.189-6.665,16.089-5.384C33.7,33.046,48.924,45.8,65.625,43.568c8.559-1.146,16.249-6.157,23.965-10.477s16.223-8.124,24.74-6.6c7.753,1.386,14.577,7.061,22.384,7.983,10.846,1.277,21.781-8.386,23.253-20.546.343-2.829.24-5.754,1-8.478S163.677.126,166.21,0a4.063,4.063,0,0,1,1.555.23" transform="translate(0 0)" fill="#7b1a8a"/>
        </g>
      </g>
      <g id="Group_1183850" data-name="Group 1183850" transform="translate(142.673 51.704) rotate(180)">
        <g id="Group_1183849" data-name="Group 1183849" clip-path="url(#clip-path-3)">
          <path id="Path_1004501" data-name="Path 1004501" d="M147.767.207V68.243H12.8A70.257,70.257,0,0,1,.634,40.788c-.69-3.358-1.108-7.06.322-10.1,2.47-5.265,8.974-5.87,14.171-4.742,14.551,3.164,27.965,14.4,42.675,12.432,7.539-1.01,14.312-5.423,21.108-9.229S93.2,21.991,100.7,23.333c6.829,1.221,12.839,6.219,19.716,7.032,9.553,1.125,19.185-7.386,20.481-18.1.3-2.492.212-5.069.879-7.468S144.167.111,146.4,0a3.579,3.579,0,0,1,1.37.2" transform="translate(0 0)" fill="#7b1a8a"/>
        </g>
      </g>
      <g id="Group_1183852" data-name="Group 1183852" transform="translate(141.819 99.583) rotate(121)">
        <g id="Group_1183851" data-name="Group 1183851" transform="translate(0 0)" clip-path="url(#clip-path-4)">
          <path id="Path_1004502" data-name="Path 1004502" d="M26.673,42.1c.007,11.794,7.951,21.361,17.743,21.367s20.311-9.152,20.3-20.947S62.615,19.86,49.286,9.783C23.165-9.965-4.792,5.8.7,8.777c28.484,15.468,25.973,28,25.977,33.32" transform="translate(0.005 0.013)" fill="none" stroke="#f7ceff" stroke-width="1"/>
        </g>
      </g>
      <g id="Group_1183854" data-name="Group 1183854" transform="translate(-23.956 27.693) rotate(-59)">
        <g id="Group_1183853" data-name="Group 1183853" transform="translate(0 0)" clip-path="url(#clip-path-5)">
          <path id="Path_1004503" data-name="Path 1004503" d="M26.673,42.1c.007,11.794,7.951,21.361,17.743,21.367s20.311-9.152,20.3-20.947S62.615,19.86,49.286,9.783C23.165-9.965-4.792,5.8.7,8.777c28.484,15.468,25.973,28,25.977,33.32" transform="translate(0.005 0.013)" fill="none" stroke="#fde6ff" stroke-width="1"/>
        </g>
      </g>
    </g>
    <g id="Group_1183941" data-name="Group 1183941" transform="translate(0 121.37) rotate(-90)" clip-path="url(#clip-path-6)">
      <g id="Group_1183940" data-name="Group 1183940" transform="translate(2.965)">
        <g id="Group_1183942" data-name="Group 1183942">
          <g id="Group_1183911" data-name="Group 1183911" opacity="0.7">
            <g id="Group_1183910" data-name="Group 1183910">
              <g id="Group_1183909" data-name="Group 1183909" clip-path="url(#clip-path-7)">
                <path id="Path_1004522" data-name="Path 1004522" d="M5.371,2.252H3.987V.867a.867.867,0,0,0-1.735,0V2.252H.867a.867.867,0,0,0,0,1.735H2.252V5.371a.867.867,0,1,0,1.735,0V3.987H5.371a.867.867,0,1,0,0-1.735" transform="translate(0 0)" fill="#217365"/>
              </g>
            </g>
          </g>
          <g id="Group_1183914" data-name="Group 1183914" transform="translate(0 12.226)" opacity="0.7">
            <g id="Group_1183913" data-name="Group 1183913">
              <g id="Group_1183912" data-name="Group 1183912" clip-path="url(#clip-path-7)">
                <path id="Path_1004523" data-name="Path 1004523" d="M5.371,2.252H3.987V.867a.867.867,0,0,0-1.735,0V2.252H.867a.867.867,0,0,0,0,1.735H2.252V5.371a.867.867,0,0,0,1.735,0V3.987H5.371a.867.867,0,1,0,0-1.735" fill="#217365"/>
              </g>
            </g>
          </g>
          <g id="Group_1183917" data-name="Group 1183917" transform="translate(0 24.452)" opacity="0.7">
            <g id="Group_1183916" data-name="Group 1183916">
              <g id="Group_1183915" data-name="Group 1183915" clip-path="url(#clip-path-7)">
                <path id="Path_1004524" data-name="Path 1004524" d="M5.371,2.252H3.987V.867a.867.867,0,0,0-1.735,0V2.252H.867a.867.867,0,0,0,0,1.735H2.252V5.371a.867.867,0,1,0,1.735,0V3.987H5.371a.867.867,0,1,0,0-1.735" transform="translate(0 0)" fill="#217365"/>
              </g>
            </g>
          </g>
          <g id="Group_1183923" data-name="Group 1183923" transform="translate(10.521)" opacity="0.7">
            <g id="Group_1183922" data-name="Group 1183922">
              <g id="Group_1183921" data-name="Group 1183921" clip-path="url(#clip-path-7)">
                <path id="Path_1004526" data-name="Path 1004526" d="M5.371,2.252H3.986V.867a.867.867,0,0,0-1.735,0V2.252H.867a.867.867,0,0,0,0,1.735H2.252V5.371a.867.867,0,1,0,1.735,0V3.987H5.371a.867.867,0,1,0,0-1.735" transform="translate(0 0)" fill="#217365"/>
              </g>
            </g>
          </g>
          <g id="Group_1183926" data-name="Group 1183926" transform="translate(10.521 12.226)" opacity="0.7">
            <g id="Group_1183925" data-name="Group 1183925">
              <g id="Group_1183924" data-name="Group 1183924" clip-path="url(#clip-path-7)">
                <path id="Path_1004527" data-name="Path 1004527" d="M5.371,2.252H3.986V.867a.867.867,0,0,0-1.735,0V2.252H.867a.867.867,0,0,0,0,1.735H2.252V5.371a.867.867,0,1,0,1.735,0V3.987H5.371a.867.867,0,1,0,0-1.735" transform="translate(0)" fill="#217365"/>
              </g>
            </g>
          </g>
          <g id="Group_1183932" data-name="Group 1183932" transform="translate(20.652)" opacity="0.7">
            <g id="Group_1183931" data-name="Group 1183931">
              <g id="Group_1183930" data-name="Group 1183930" clip-path="url(#clip-path-7)">
                <path id="Path_1004529" data-name="Path 1004529" d="M5.371,2.252H3.987V.867a.867.867,0,0,0-1.735,0V2.252H.867a.867.867,0,0,0,0,1.735H2.252V5.371a.867.867,0,1,0,1.735,0V3.987H5.371a.867.867,0,1,0,0-1.735" transform="translate(0 0)" fill="#217365"/>
              </g>
            </g>
          </g>
        </g>
      </g>
    </g>
    <g id="Group_1183963" data-name="Group 1183963" transform="translate(121.37 0.196) rotate(90)" clip-path="url(#clip-path-13)">
      <g id="Group_1183962" data-name="Group 1183962" transform="translate(2.965)">
        <g id="Group_1183961" data-name="Group 1183961">
          <g id="Group_1183945" data-name="Group 1183945" opacity="0.7">
            <g id="Group_1183944" data-name="Group 1183944">
              <g id="Group_1183943" data-name="Group 1183943" clip-path="url(#clip-path-7)">
                <path id="Path_1004530" data-name="Path 1004530" d="M5.371,2.252H3.987V.867a.867.867,0,0,0-1.735,0V2.252H.867a.867.867,0,0,0,0,1.735H2.252V5.371a.867.867,0,1,0,1.735,0V3.987H5.371a.867.867,0,1,0,0-1.735" transform="translate(0 0)" fill="#217365"/>
              </g>
            </g>
          </g>
          <g id="Group_1183948" data-name="Group 1183948" transform="translate(0 12.226)" opacity="0.7">
            <g id="Group_1183947" data-name="Group 1183947">
              <g id="Group_1183946" data-name="Group 1183946" clip-path="url(#clip-path-7)">
                <path id="Path_1004531" data-name="Path 1004531" d="M5.371,2.252H3.987V.867a.867.867,0,0,0-1.735,0V2.252H.867a.867.867,0,0,0,0,1.735H2.252V5.371a.867.867,0,0,0,1.735,0V3.987H5.371a.867.867,0,1,0,0-1.735" fill="#217365"/>
              </g>
            </g>
          </g>
          <g id="Group_1183951" data-name="Group 1183951" transform="translate(0 24.452)" opacity="0.7">
            <g id="Group_1183950" data-name="Group 1183950">
              <g id="Group_1183949" data-name="Group 1183949" clip-path="url(#clip-path-7)">
                <path id="Path_1004532" data-name="Path 1004532" d="M5.371,2.252H3.987V.867a.867.867,0,0,0-1.735,0V2.252H.867a.867.867,0,0,0,0,1.735H2.252V5.371a.867.867,0,1,0,1.735,0V3.987H5.371a.867.867,0,1,0,0-1.735" transform="translate(0 0)" fill="#217365"/>
              </g>
            </g>
          </g>
          <g id="Group_1183954" data-name="Group 1183954" transform="translate(10.521)" opacity="0.7">
            <g id="Group_1183953" data-name="Group 1183953">
              <g id="Group_1183952" data-name="Group 1183952" clip-path="url(#clip-path-7)">
                <path id="Path_1004533" data-name="Path 1004533" d="M5.371,2.252H3.986V.867a.867.867,0,0,0-1.735,0V2.252H.867a.867.867,0,0,0,0,1.735H2.252V5.371a.867.867,0,1,0,1.735,0V3.987H5.371a.867.867,0,1,0,0-1.735" transform="translate(0 0)" fill="#217365"/>
              </g>
            </g>
          </g>
          <g id="Group_1183957" data-name="Group 1183957" transform="translate(10.521 12.226)" opacity="0.7">
            <g id="Group_1183956" data-name="Group 1183956">
              <g id="Group_1183955" data-name="Group 1183955" clip-path="url(#clip-path-7)">
                <path id="Path_1004534" data-name="Path 1004534" d="M5.371,2.252H3.986V.867a.867.867,0,0,0-1.735,0V2.252H.867a.867.867,0,0,0,0,1.735H2.252V5.371a.867.867,0,1,0,1.735,0V3.987H5.371a.867.867,0,1,0,0-1.735" transform="translate(0)" fill="#217365"/>
              </g>
            </g>
          </g>
          <g id="Group_1183960" data-name="Group 1183960" transform="translate(20.652)" opacity="0.7">
            <g id="Group_1183959" data-name="Group 1183959">
              <g id="Group_1183958" data-name="Group 1183958" clip-path="url(#clip-path-7)">
                <path id="Path_1004535" data-name="Path 1004535" d="M5.371,2.252H3.987V.867a.867.867,0,0,0-1.735,0V2.252H.867a.867.867,0,0,0,0,1.735H2.252V5.371a.867.867,0,1,0,1.735,0V3.987H5.371a.867.867,0,1,0,0-1.735" transform="translate(0 0)" fill="#217365"/>
              </g>
            </g>
          </g>
        </g>
      </g>
    </g>
  </g>
  <g id="Group_1179625" data-name="Group 1179625" transform="translate(8.72 8.663)">
    <g id="Group_1179624" data-name="Group 1179624" transform="translate(0)">
      <rect id="Rectangle_455622" data-name="Rectangle 455622" width="19.124" height="15.308" transform="translate(14.171 52.73)" fill="#88fede"/>
      <g id="Group_1179619" data-name="Group 1179619">
        <g id="Group_1179526" data-name="Group 1179526" clip-path="url(#clip-path-20)">
          <path id="Path_1002449" data-name="Path 1002449" d="M104.32,52.16A52.16,52.16,0,1,1,52.16,0a52.16,52.16,0,0,1,52.16,52.16" transform="translate(0.013 0)" fill="#fff"/>
        </g>
      </g>
    </g>
  </g>
  <g id="Group_1179626" data-name="Group 1179626" transform="translate(23.782 22.626)">
    <g id="Group_1099776" data-name="Group 1099776" transform="translate(0 0)">
      <g id="Group_1099618" data-name="Group 1099618" transform="translate(-0.071 0.373)">
        <rect id="Rectangle_401104" data-name="Rectangle 401104" width="74.893" height="75.795" fill="none"/>
      </g>
      <g id="Group_1184394" data-name="Group 1184394" transform="translate(2.929 4.373)">
        <g id="Group_1184393" data-name="Group 1184393" clip-path="url(#clip-path-21)">
          <path id="Path_1005424" data-name="Path 1005424" d="M40.179,56.6a55.143,55.143,0,0,1-2.149,7.478,1.365,1.365,0,0,1-1.031.84,1.3,1.3,0,0,1-1.072-.766,46.76,46.76,0,0,0-3.158-6.373l-4.03-6.682a56.3,56.3,0,0,1-2.751-5.419,21.977,21.977,0,0,1-3.074-.041c-2.791,6.483-7.184,11.614-9.853,18.262a1.8,1.8,0,0,1-.735.954c-.32.139-1.151-.064-1.288-.4a45.485,45.485,0,0,1-2.355-7.857,48.544,48.544,0,0,0-6.835,3.425,1.408,1.408,0,0,1-1.326.138,1.248,1.248,0,0,1-.431-1.512c2.792-7.114,7.6-12.527,10.054-18.964a4.454,4.454,0,0,0-.376-2.334,6.273,6.273,0,0,1-5.148-2.981c-1.247-1.992-.888-4.2-.082-6.21a6.2,6.2,0,0,1-2.965-4.878,5.96,5.96,0,0,1,3.056-5.69,6.045,6.045,0,0,1,.007-6.175A6.7,6.7,0,0,1,9.849,8.286a6.649,6.649,0,0,1,2.992-5.124,6.044,6.044,0,0,1,6.265-.068,6.109,6.109,0,0,1,10.628,0A6,6,0,0,1,37,3.938a5.789,5.789,0,0,1,1.883,4.346,6.535,6.535,0,0,1,5.235,3,6.258,6.258,0,0,1,.077,6.451c1.793-.7,3.3-.917,4.97.07a4.544,4.544,0,0,1,8.974.39,4.567,4.567,0,0,1,4.4-.043,4.277,4.277,0,0,1,2.409,3.513L65,27.1a5.035,5.035,0,0,1,3.214,3.555,24.363,24.363,0,0,1-5.779,22.515l.005,4.226a3.757,3.757,0,0,1,2.737.561,2.912,2.912,0,0,1,1.035,2.216v4.734A2.794,2.794,0,0,1,63.3,67.771H43.471a2.745,2.745,0,0,1-2.9-2.672l-.005-5.083a2.844,2.844,0,0,1,1.754-2.507Zm-5-16.13a29.98,29.98,0,0,1-.283-7.853,13.861,13.861,0,0,1-12.158,4.419,14.277,14.277,0,0,1-8.465-24.293,14.6,14.6,0,0,1,18.658-1.385,14.717,14.717,0,0,1,5.647,9.433,5.287,5.287,0,0,1,3.6.433l.669-1.965a2.724,2.724,0,0,1-.448-3.009,3.763,3.763,0,0,0-.175-3.9A3.869,3.869,0,0,0,39.1,10.578a2.768,2.768,0,0,1-2.5-2.867,3.525,3.525,0,0,0-1.9-2.8,3.912,3.912,0,0,0-3.645-.057c-1.5.714-2.794.019-3.681-1.24a3.756,3.756,0,0,0-6,.1A2.742,2.742,0,0,1,17.8,4.863a4.007,4.007,0,0,0-3.912.184,3.917,3.917,0,0,0-1.756,3.139,2.715,2.715,0,0,1-2.72,2.47,3.778,3.778,0,0,0-2.958,5.6,2.6,2.6,0,0,1-.829,3.285,3.895,3.895,0,0,0,0,6.67,2.549,2.549,0,0,1,.889,3.135,3.894,3.894,0,0,0,3.246,5.825,2.579,2.579,0,0,1,2.4,2.356,3.955,3.955,0,0,0,1.729,3.18,3.858,3.858,0,0,0,3.649.267,2.767,2.767,0,0,1,3.657.821,3.88,3.88,0,0,0,3.327,1.793,3.984,3.984,0,0,0,3.131-1.8,2.7,2.7,0,0,1,3.523-.877,3.624,3.624,0,0,0,4.008-.44M36.5,22.178c-.553-6.819-5.736-11.6-12.605-11.334a11.81,11.81,0,0,0-11.371,9.887A11.944,11.944,0,0,0,22.666,34.793a11.758,11.758,0,0,0,12.745-6.932c-.051-2.066-.2-4.158,1.093-5.682M56,26.8l-.01-8.093a2.287,2.287,0,0,0-2.13-2.368c-1.068-.066-2.491.667-2.49,1.956l.008,10.821A5.077,5.077,0,0,1,56,26.8m-6.978,1.33c.054-2.36.06-4.588-.011-6.824a2.172,2.172,0,0,0-2.43-1.95,2.321,2.321,0,0,0-2.149,2.32l.026,6.355a2.186,2.186,0,0,0,2.28,2.108,2.157,2.157,0,0,0,2.285-2.01M62.79,26.808l.009-4.536a2.328,2.328,0,1,0-4.65,0l.014,4.543ZM42.222,31.47l-.009-6.577A2.2,2.2,0,0,0,39.8,22.856a2.282,2.282,0,0,0-2.18,2.39l.041,6.352a2.291,2.291,0,0,0,4.563-.127m2.231.3a4.586,4.586,0,0,1-2.829,3.717,4.528,4.528,0,0,1-4.7-.726,20.52,20.52,0,0,0,8.324,17.492l.075,5.118,14.862,0,.062-4.856c.006-.469.815-1.035,1.142-1.421A22.728,22.728,0,0,0,66.12,31.194,2.726,2.726,0,0,0,63.505,29l-7.939-.022A2.47,2.47,0,0,0,53.026,31.6a2.393,2.393,0,0,0,2.392,2.5l4.942,0a1.182,1.182,0,0,1,1.178.789,1.392,1.392,0,0,1-.45,1.225,12.013,12.013,0,0,0-4.175,8.971c-.014.436-.843.715-1.221.637a1.277,1.277,0,0,1-.882-1.014,13.709,13.709,0,0,1,2.968-8.347l-1.834-.027a4.878,4.878,0,0,1-4.949-3.517,2.755,2.755,0,0,0-1.064-1.807,4.638,4.638,0,0,1-5.478.758M12,60.647c2.86-5.635,6.517-10.331,8.885-15.965l-1.824-1.973a6.187,6.187,0,0,1-7.344-.951c-2.324,5.227-5.7,9.565-8.257,14.711l5.713-2.488a1.081,1.081,0,0,1,1.355.832c.434,2.011.893,3.913,1.471,5.834m27.742-6.631,3.347,1.407-.041-2.161a21.837,21.837,0,0,1-7.263-10.532,6.432,6.432,0,0,1-6.05-.029l-1.784,1.925c2.3,5.55,6.029,10.327,8.9,16.009.608-1.944,1.066-3.9,1.514-5.974a1.091,1.091,0,0,1,1.378-.644m24,11.527a3.651,3.651,0,0,0,.191-1.846H55.568a1.366,1.366,0,0,1-1.237-.871c-.1-.355.219-1.283.63-1.285l8.961-.037a6,6,0,0,0-.118-1.91H42.957a3.865,3.865,0,0,0-.133,1.912l7.007.03c.378,0,.813.889.7,1.233a1.575,1.575,0,0,1-1.106.926H42.754l.14,1.842Z" transform="translate(0 0)" fill="#7b1a8a"/>
          <path id="Path_1005425" data-name="Path 1005425" d="M80.719,90.406a2.65,2.65,0,0,1,.247-3.648,2.7,2.7,0,0,1,3.525-.417c.975.805,1.835,1.728,2.789,2.646l5.186-5.134a2.743,2.743,0,0,1,3.862.24,2.822,2.822,0,0,1-.043,3.989l-7.137,7.11a2.814,2.814,0,0,1-3.949-.223Zm6.038,3.119a.958.958,0,0,0,1.126-.163L94.639,86.6a1,1,0,0,0,.237-.847,1.148,1.148,0,0,0-.832-.371l-6.72,6.725L83.4,88.167a2.1,2.1,0,0,0-.848.1c-.166.1-.185.477-.175.735Z" transform="translate(-64.204 -66.664)" fill="#7b1a8a"/>
        </g>
      </g>
    </g>
  </g>
</svg>
