<svg xmlns="http://www.w3.org/2000/svg" xmlns:xlink="http://www.w3.org/1999/xlink" width="96" height="96" viewBox="0 0 96 96">
  <defs>
    <clipPath id="clip-path">
      <rect id="Rectangle_459918" data-name="Rectangle 459918" width="54.371" height="59.488" fill="#7b1a8a"/>
    </clipPath>
  </defs>
  <g id="img9" transform="translate(-793.75 -2920.413)">
    <path id="Elipse_5729" data-name="Elipse 5729" d="M48,0A48,48,0,1,1,0,48,48,48,0,0,1,48,0Z" transform="translate(793.75 2920.413)" fill="#f7ceff"/>
    <g id="Group_1185214" data-name="Group 1185214" transform="translate(814.75 2937.913)">
      <g id="Group_1185213" data-name="Group 1185213" clip-path="url(#clip-path)">
        <path id="Path_1005968" data-name="Path 1005968" d="M11.881,49.763a.98.98,0,0,1,.2-1.333c1.144-.7,1.853,1.186,2.157,3.05l8.57.011a4.712,4.712,0,0,1,4.42-3.753,4.61,4.61,0,0,1,4.679,3.746H43.088a4.609,4.609,0,0,1,3.644-3.666l0-10.98A7.209,7.209,0,0,1,40.7,31.617l-1.847.984-.032,4.862a2.082,2.082,0,0,1-2.144,1.991l-16.018,0A2.03,2.03,0,0,1,18.6,37.485l0-15.5a1.921,1.921,0,0,1,1.718-1.9l16.858.009c1.009,0,1.661,1.23,1.661,2.027v3.455l2.225,1.245a7.208,7.208,0,0,1,5.674-4.183l0-10.973A4.652,4.652,0,0,1,43.1,8.018H31.9a4.616,4.616,0,0,1-9.06,0H14.236c-.242,1.608-.767,3.115-1.779,2.658a.987.987,0,0,1-.474-1.1,5.4,5.4,0,1,0-9.229.694A5.332,5.332,0,0,0,9.477,12a.952.952,0,0,1,1.266.377.926.926,0,0,1-.524,1.226A7.148,7.148,0,1,1,14.23,6.3h8.606A4.611,4.611,0,0,1,31.9,6.29L43.087,6.3a4.592,4.592,0,1,1,5.373,5.352l0,10.993c4.2.335,7.247,5.5,5.321,5.966a.985.985,0,0,1-1.087-.653,5.39,5.39,0,0,0-10.1-.232,3.428,3.428,0,0,1,1,.774c.21.308.145,1.225-.149,1.405l-1.156.709a5.384,5.384,0,0,0,10.405.908,1,1,0,0,1,1.1-.546c1.8.37-1.061,5.463-5.337,5.865l0,10.966a4.6,4.6,0,0,1,3.73,4.773,4.591,4.591,0,0,1-9.094.612l-11.184,0a4.618,4.618,0,0,1-9.068,0l-8.6,0a7.143,7.143,0,1,1-7.949-7.936l0-16.621a1.073,1.073,0,0,1,.294-.719,2.187,2.187,0,0,1,.886-.115l8.243,3.4a1.243,1.243,0,0,1-.31,2.249L8.014,36.493l0,8.722,1.89.516c.275.075.515.722.444,1-.088.341-.678.779-1.079.62a5.407,5.407,0,1,0,1.116,9.313,5.355,5.355,0,0,0,1.5-6.9M30.229,7.141A2.856,2.856,0,1,0,27.373,10a2.856,2.856,0,0,0,2.856-2.856m20.227,0A2.857,2.857,0,1,0,47.6,10a2.857,2.857,0,0,0,2.857-2.857M41.473,29.1l-3.8-2.177a1.558,1.558,0,0,1-.6-1.024l-.02-4.1H20.319l.015,15.912H37.06l.015-5.179a1.45,1.45,0,0,1,.561-1.218ZM13.6,32.255,8.013,29.9l.005,4.717Zm16.632,20.08a2.857,2.857,0,1,0-2.857,2.857,2.857,2.857,0,0,0,2.857-2.857m20.224,0A2.857,2.857,0,1,0,47.6,55.19a2.857,2.857,0,0,0,2.857-2.857" transform="translate(0 0)" fill="#7b1a8a"/>
        <path id="Path_1005969" data-name="Path 1005969" d="M265.782,157.508a3.484,3.484,0,1,1-3.484-3.484,3.484,3.484,0,0,1,3.484,3.484m-1.75,0a1.736,1.736,0,1,0-1.736,1.736,1.736,1.736,0,0,0,1.736-1.736" transform="translate(-214.697 -127.769)" fill="#7b1a8a"/>
        <path id="Path_1005970" data-name="Path 1005970" d="M28.469,24.973a3.481,3.481,0,1,1-3.481-3.481,3.481,3.481,0,0,1,3.481,3.481m-1.739,0a1.74,1.74,0,1,0-1.74,1.74,1.74,1.74,0,0,0,1.74-1.74" transform="translate(-17.842 -17.828)" fill="#7b1a8a"/>
        <path id="Path_1005971" data-name="Path 1005971" d="M28.474,290.1a3.479,3.479,0,1,1-3.479-3.479,3.479,3.479,0,0,1,3.479,3.479m-1.736,0a1.74,1.74,0,1,0-1.74,1.74,1.74,1.74,0,0,0,1.74-1.74" transform="translate(-17.848 -237.764)" fill="#7b1a8a"/>
        <path id="Path_1005972" data-name="Path 1005972" d="M147.247,171.091l-8.994.014a.927.927,0,0,1-.867-.877.911.911,0,0,1,.866-.872l8.937,0c.31,0,.706.46.774.717.077.289-.274,1.013-.716,1.014" transform="translate(-113.967 -140.488)" fill="#7b1a8a"/>
        <path id="Path_1005973" data-name="Path 1005973" d="M147.21,148.726l-8.8.011a.946.946,0,0,1-.961-.819.924.924,0,0,1,.962-.947l8.712,0a.977.977,0,0,1,.888.77.884.884,0,0,1-.8.979" transform="translate(-114.015 -121.919)" fill="#7b1a8a"/>
        <path id="Path_1005974" data-name="Path 1005974" d="M143.365,193.378l-4.979.007a.981.981,0,0,1-.946-.811.906.906,0,0,1,.954-.962h4.99a.923.923,0,0,1,.874.821.892.892,0,0,1-.893.946" transform="translate(-114.008 -158.95)" fill="#7b1a8a"/>
      </g>
    </g>
  </g>
</svg>
