<svg xmlns="http://www.w3.org/2000/svg" xmlns:xlink="http://www.w3.org/1999/xlink" width="128" height="128" viewBox="0 0 128 128">
  <defs>
    <clipPath id="clip-path">
      <rect id="Rectangle_459403" data-name="Rectangle 459403" width="79.129" height="79.117" fill="#fff"/>
    </clipPath>
  </defs>
  <g id="img14" transform="translate(-381.746 -8402)">
    <path id="Path_997402" data-name="Path 997402" d="M64,0A64,64,0,1,1,0,64,64,64,0,0,1,64,0Z" transform="translate(381.746 8402)" fill="#a82909"/>
    <g id="Group_1099776" data-name="Group 1099776" transform="translate(407.746 8424)">
      <g id="Group_1099618" data-name="Group 1099618" transform="translate(-1.289 1.278)">
        <rect id="Rectangle_401104" data-name="Rectangle 401104" width="79.17" height="80.124" transform="translate(0)" fill="none"/>
      </g>
      <g id="Group_1184400" data-name="Group 1184400" transform="translate(-1.289 2.278)">
        <g id="Group_1184399" data-name="Group 1184399" clip-path="url(#clip-path)">
          <path id="Path_1005461" data-name="Path 1005461" d="M11.923,65.852l-1.343.475L0,66.334V48.462l10.407.008,1.128.243a14.713,14.713,0,0,1,10.314-5.293,16.582,16.582,0,0,1,3.662-29.849l.006-8.378a2.6,2.6,0,0,1,2.839-2.658l9.888,0C38.448,1.2,39.221,0,40.622,0L64.317.028c1.225,0,1.96,1.434,2.085,2.5l10,.006a2.569,2.569,0,0,1,2.725,2.7l0,71.329a2.519,2.519,0,0,1-2.53,2.548l-48.443,0A2.611,2.611,0,0,1,25.516,76.4l.01-7.486L20.4,68.871a13.992,13.992,0,0,1-8.475-3.019M63.81,2.541H40.852v5.12H63.81ZM33.088,7.636l5.2-.017-.055-2.536-10.167,0,0,7.828,2.571-.195.005-2.557a2.5,2.5,0,0,1,2.443-2.527M29.97,74.013l-1.925-.151.075,2.678,48.44-.009,0-71.446H66.387l-.038,2.536L71.2,7.614a2.626,2.626,0,0,1,2.834,2.7V71.3a2.57,2.57,0,0,1-2.7,2.711ZM51.608,50.344l1.8-1.783a1.752,1.752,0,0,0,.419-1.607,1.706,1.706,0,0,0-1.391-1.036L49.763,45.9V33.18l2.671-.017a1.647,1.647,0,0,0,1.39-1.038,1.763,1.763,0,0,0-.422-1.608l-1.791-1.786L60.643,19.7l1.784,1.788a1.744,1.744,0,0,0,1.726.384,1.792,1.792,0,0,0,.948-1.432l.037-2.61,6.351,0L71.465,10.2H33.194l.039,2.779a16.548,16.548,0,0,1,4.574,31.281,4.435,4.435,0,0,1-.214,4.237,4.067,4.067,0,0,1,3,2.424,3.914,3.914,0,0,1-.734,3.937,3.838,3.838,0,0,1,0,5.111,3.789,3.789,0,0,1,.272,4.729,4.272,4.272,0,0,1-4.376,1.589l-.135,5.166H71.476l0-10.212-6.372-.009,0-2.606a1.853,1.853,0,0,0-.954-1.428,1.734,1.734,0,0,0-1.727.389l-1.785,1.79ZM44.666,29.331A14.032,14.032,0,1,0,30.633,43.363,14.032,14.032,0,0,0,44.666,29.331M60.637,55.756a4.148,4.148,0,0,1,4.773-.749,4.234,4.234,0,0,1,2.261,3.706l3.811-.03-.023-5.088A14.047,14.047,0,0,1,71.487,25.5l-.016-5.089-3.824.007a4.074,4.074,0,0,1-2.533,3.791,4.2,4.2,0,0,1-4.482-.88l-5.394,5.4a3.963,3.963,0,0,1,.8,4.675,4.251,4.251,0,0,1-3.725,2.331v7.611a4.181,4.181,0,0,1,3.8,2.479,3.978,3.978,0,0,1-.877,4.524ZM71.46,30.616l-.014-2.574a11.5,11.5,0,0,0,0,23.008l0-2.586a8.924,8.924,0,0,1,.009-17.847m.024,15.254-.011-12.717a6.419,6.419,0,0,0-6.377,6.6,6.33,6.33,0,0,0,6.388,6.121M21.216,54.953l2.427-.962a7.619,7.619,0,0,0,4.748-5.514l4.495.006a2.605,2.605,0,0,0,2.828-2.558l-12.131-.035a12.39,12.39,0,0,0-10.8,5.48l-.014,11.848a11.071,11.071,0,0,0,7.272,3.08l5.484.033L25.51,55.959l-3.328,1.365ZM10.222,51.028H2.566V63.8h7.655ZM33.2,70.223l-.041-4.166a3.709,3.709,0,0,1-2.374-2.486,4,4,0,0,1,.782-3.58,4.152,4.152,0,0,1-.021-5.147,3.921,3.921,0,0,1-.659-3.781l-.636.029a19.282,19.282,0,0,1-2.181,3.088l0,16.08a1.469,1.469,0,0,0,1.338,1.214l2.627-.017A1.492,1.492,0,0,0,33.2,70.223m4.008-16.658c.486,0,1.092-.843,1.086-1.312-.005-.385-.5-1.182-.9-1.18l-3.371.013c-.456,0-.915.943-.849,1.362a1.518,1.518,0,0,0,1.2,1.144Zm-.1,5.112a1.285,1.285,0,0,0,1.157-1.419,1.483,1.483,0,0,0-1.238-1.141l-2.626.01a1.356,1.356,0,0,0-1.227,1.32,1.32,1.32,0,0,0,1.256,1.243Zm-.079,5.117a1.506,1.506,0,0,0,1.254-1.127c.26-1.651-1.948-1.59-4.377-1.313-.48.055-.832,1.05-.7,1.459a1.673,1.673,0,0,0,1.16.985Z" transform="translate(0 0)" fill="#fff"/>
          <rect id="Rectangle_459392" data-name="Rectangle 459392" width="17.872" height="2.593" transform="translate(2.557 3.793) rotate(-0.125)" fill="#fff"/>
          <rect id="Rectangle_459393" data-name="Rectangle 459393" width="15.296" height="2.596" transform="translate(2.561 8.912)" fill="#fff"/>
          <rect id="Rectangle_459394" data-name="Rectangle 459394" width="12.759" height="2.59" transform="translate(2.561 14.004)" fill="#fff"/>
          <rect id="Rectangle_459395" data-name="Rectangle 459395" width="2.559" height="2.56" transform="translate(5.092 71.454) rotate(-0.071)" fill="#fff"/>
          <rect id="Rectangle_459396" data-name="Rectangle 459396" width="2.551" height="2.588" transform="translate(2.561 19.122)" fill="#fff"/>
          <rect id="Rectangle_459397" data-name="Rectangle 459397" width="2.571" height="2.585" transform="translate(7.646 19.126)" fill="#fff"/>
          <rect id="Rectangle_459398" data-name="Rectangle 459398" width="2.557" height="2.619" transform="translate(10.22 71.449)" fill="#fff"/>
          <rect id="Rectangle_459399" data-name="Rectangle 459399" width="2.546" height="2.617" transform="translate(15.313 71.452)" fill="#fff"/>
          <rect id="Rectangle_459400" data-name="Rectangle 459400" width="2.553" height="2.57" transform="translate(45.935 66.329)" fill="#fff"/>
          <rect id="Rectangle_459401" data-name="Rectangle 459401" width="2.547" height="2.57" transform="translate(51.061 66.329)" fill="#fff"/>
          <rect id="Rectangle_459402" data-name="Rectangle 459402" width="2.556" height="2.571" transform="translate(56.143 66.329)" fill="#fff"/>
          <path id="Path_1005462" data-name="Path 1005462" d="M107.437,90.216a11.48,11.48,0,1,1-11.48-11.48,11.48,11.48,0,0,1,11.48,11.48m-2.549,0a8.93,8.93,0,1,0-8.93,8.93,8.93,8.93,0,0,0,8.93-8.93" transform="translate(-65.324 -60.885)" fill="#fff"/>
          <path id="Path_1005463" data-name="Path 1005463" d="M108.59,115.521l1.794-1.835,1.7,1.676,6.723-6.733,1.824,1.773-8.56,8.58Z" transform="translate(-83.97 -84.001)" fill="#fff"/>
        </g>
      </g>
    </g>
  </g>
</svg>
