<svg xmlns="http://www.w3.org/2000/svg" xmlns:xlink="http://www.w3.org/1999/xlink" width="128" height="128" viewBox="0 0 128 128">
  <defs>
    <clipPath id="clip-path">
      <rect id="Rectangle_459391" data-name="Rectangle 459391" width="78.062" height="78.124" fill="#fff"/>
    </clipPath>
  </defs>
  <g id="img15" transform="translate(-383.746 -8400)">
    <circle id="Ellipse_13609" data-name="Ellipse 13609" cx="64" cy="64" r="64" transform="translate(383.746 8400)" fill="#a82909"/>
    <g id="Group_1099776" data-name="Group 1099776" transform="translate(407.746 8424)">
      <g id="Group_1099618" data-name="Group 1099618" transform="translate(0.711 0.278)">
        <rect id="Rectangle_401104" data-name="Rectangle 401104" width="79.17" height="80.124" transform="translate(0)" fill="none"/>
      </g>
      <g id="Group_1184398" data-name="Group 1184398" transform="translate(1.711 1.278)">
        <g id="Group_1184397" data-name="Group 1184397" clip-path="url(#clip-path)">
          <path id="Path_1005450" data-name="Path 1005450" d="M123.082,110c-.385-.653-2.085-.7-2.74-.48l-3.478,7.448a1.8,1.8,0,0,1-.977.76,1.65,1.65,0,0,1-1.237-.611l-1.891-3.248-3.66.637a1.872,1.872,0,0,1-1.145-.358,1.588,1.588,0,0,1-.233-1.3l3.426-7.383a4.1,4.1,0,0,1-2.877-5.044,4.331,4.331,0,0,0-.565-3.4A4.249,4.249,0,0,1,108.731,91a4.233,4.233,0,0,0,1.684-2.9,4.286,4.286,0,0,1,4.72-3.913,4.13,4.13,0,0,0,3.118-1.167,4.192,4.192,0,0,1,5.979,0,4.146,4.146,0,0,0,3.117,1.166A4.293,4.293,0,0,1,132.07,88.1a4.24,4.24,0,0,0,1.685,2.9,4.255,4.255,0,0,1,1.027,6.016,4.355,4.355,0,0,0-.569,3.4A4.039,4.039,0,0,1,132,105.184l2.829,6.556a4,4,0,0,1-.333,1.207c-.178.279-.917.393-1.264.324l-3.545-.7-1.9,3.085a1.91,1.91,0,0,1-1.017.669,1.577,1.577,0,0,1-1.173-.71Zm3.378-3.563a6.091,6.091,0,0,1,3.9-3.243c3.013-.881-.236-3.738,2.362-7.612a1.741,1.741,0,0,0-.359-2.492c-3.963-2.749-1.63-6.621-4.985-6.4-4.373.291-5.252-3.868-7.455-1.8-3.4,3.188-6.728.492-7.051,3.592a6.03,6.03,0,0,1-2.629,4.5,1.8,1.8,0,0,0-.472,2.606c2.6,3.891-.664,6.708,2.359,7.6,4.419,1.31,3.629,5.532,6.558,4.242,4.146-1.826,6.326,1.9,7.774-.994m.384,5.855,1.7-2.486,2.9.512-1.76-4.12-1.63,2.355a5.1,5.1,0,0,1-2.115,1.518Zm-11.258,1.434,1.668-3.541c-1.906-.242-2.891-1.519-3.978-3.333l-2.17,4.7c1-.074,2.18-.535,2.921-.108.707.408,1.052,1.478,1.559,2.283" transform="translate(-82.201 -62.885)" fill="#fff"/>
          <path id="Path_1005451" data-name="Path 1005451" d="M25.654,227.681a2.021,2.021,0,0,1-2.034,2.191l-21.391,0A2.04,2.04,0,0,1,0,228.008l0-28.935c0-1.164,1.2-1.758,2.194-1.758H15.858a3.15,3.15,0,0,1,1.3.556l7.97,7.969a3.167,3.167,0,0,1,.526,1.706Zm-9.518-19.5c-.594,0-1.334-1.134-1.388-1.579l-.008-6.76-12.232.008.012,27.506,20.614-.018,0-19.114Zm5.311-2.521-4.135-4.1L17.2,205.72Z" transform="translate(0.001 -151.752)" fill="#fff"/>
          <path id="Path_1005452" data-name="Path 1005452" d="M230.681,28.549a15.449,15.449,0,0,1-4.473.041c-.705-.1-1.144-1.358-1.283-2.146l-2.6-1.132a11.918,11.918,0,0,1-2.433.815l-3.384-3.382a9.573,9.573,0,0,1,.823-2.424l-1.081-2.5a5.627,5.627,0,0,1-2.223-1.234,37.634,37.634,0,0,1,.03-4.4c.046-.657,1.389-1.15,2.128-1.257l1.136-2.607a9.918,9.918,0,0,1-.814-2.44l3.266-3.234a4.052,4.052,0,0,1,2.5.7l2.589-1.137A5.314,5.314,0,0,1,226.033,0l4.574.013a5.129,5.129,0,0,1,1.165,2.217l2.55,1.1a9.007,9.007,0,0,1,2.429-.8l3.359,3.354a10.169,10.169,0,0,1-.791,2.437l1.022,2.448a8.23,8.23,0,0,1,2.294,1.252l-.055,4.42c-.008.644-1.381,1.151-2.15,1.269L239.3,20.341a9.308,9.308,0,0,1,.816,2.4l-3.369,3.38a9.657,9.657,0,0,1-2.445-.816l-2.541,1.137a5.084,5.084,0,0,1-1.076,2.1M229.267,25.9c.3-.633.6-1.538,1-1.706l3.331-1.373a2.835,2.835,0,0,1,2.306.445,3.124,3.124,0,0,0,1.34-1.347c-.347-.756-.752-1.551-.511-2.136l1.444-3.517c.215-.434,1.21-.725,1.783-.982a2.388,2.388,0,0,0,.009-1.907c-.6-.253-1.577-.556-1.775-.992l-1.506-3.673c-.182-.445.309-1.385.507-1.954,0-.434-.877-1.326-1.3-1.3A8.024,8.024,0,0,1,233.895,6a27.9,27.9,0,0,0-3.646-1.521,4.9,4.9,0,0,1-.987-1.8,2.163,2.163,0,0,0-1.894,0c-.253.572-.561,1.551-.985,1.771L222.865,5.9c-.586.242-1.391-.167-2.136-.508a3.032,3.032,0,0,0-1.346,1.336c1.394,2.112-.277,3.032-.955,5.819l-1.721.857c-.437.218-.4,1.609.019,1.851.508.29,1.521.569,1.7,1l1.457,3.575c.21.516-.177,1.405-.489,2.077a2.985,2.985,0,0,0,1.336,1.346A2.789,2.789,0,0,1,223,22.824l3.359,1.379c.448.184.747,1.211,1.01,1.715.267.382,1.684.414,1.893-.023" transform="translate(-164.571)" fill="#fff"/>
          <path id="Path_1005453" data-name="Path 1005453" d="M35.788,49.915l-.015,26.261a1.3,1.3,0,0,1-1.167,1.261c-.9.011-1.354-.5-1.354-1.446l.007-27.433a1.243,1.243,0,0,1,1.255-1.149l33.071,0c-.583-.6-1.032-1.258-.883-1.827a1.235,1.235,0,0,1,1.912-.71l3.3,2.515a1.908,1.908,0,0,1,.778,1.261,1.878,1.878,0,0,1-.779,1.259l-3.025,2.339a1.349,1.349,0,0,1-2.04-.179c-.409-.636-.107-1.4.724-2.136Z" transform="translate(-25.574 -34.327)" fill="#fff"/>
          <path id="Path_1005454" data-name="Path 1005454" d="M124.959,170.747a2,2,0,0,1-.7-1.169,2.026,2.026,0,0,1,.636-1.119l3.138-2.468a1.349,1.349,0,0,1,2.043.161c.421.658.116,1.422-.727,2.153l28.7.01,0-29.318a1.267,1.267,0,1,1,2.523.014v30.419a1.336,1.336,0,0,1-1.4,1.414H129.334c.678.586,1.137,1.328.832,2.007a1.279,1.279,0,0,1-1.993.4Z" transform="translate(-95.566 -105.843)" fill="#fff"/>
          <path id="Path_1005455" data-name="Path 1005455" d="M148.141,113.368a8.983,8.983,0,1,1-8.983-8.983,8.983,8.983,0,0,1,8.983,8.983m-2.516-.006a6.466,6.466,0,1,0-6.466,6.466,6.467,6.467,0,0,0,6.466-6.466" transform="translate(-100.117 -80.281)" fill="#fff"/>
          <path id="Path_1005456" data-name="Path 1005456" d="M37.8,256.313l-11.586.005a1.36,1.36,0,0,1-1.27-1.119,1.265,1.265,0,0,1,1.091-1.4l11.713-.006a1.261,1.261,0,1,1,.052,2.522" transform="translate(-19.177 -195.188)" fill="#fff"/>
          <path id="Path_1005457" data-name="Path 1005457" d="M37.89,281.436l-11.7.011a1.406,1.406,0,0,1-1.28-1.153,1.344,1.344,0,0,1,1.149-1.381H37.922c.538,0,1.084.77,1.112,1.193.03.459-.411,1.328-1.143,1.329" transform="translate(-19.151 -214.509)" fill="#fff"/>
          <path id="Path_1005458" data-name="Path 1005458" d="M37.88,306.72l-11.692.015a1.336,1.336,0,0,1-1.286-1.172c-.057-.449.464-1.269,1.049-1.27l11.591-.022a1.354,1.354,0,0,1,1.428.866,1.211,1.211,0,0,1-1.091,1.583" transform="translate(-19.149 -234.011)" fill="#fff"/>
          <path id="Path_1005459" data-name="Path 1005459" d="M258.76,37.306a7.423,7.423,0,1,1-7.424-7.423,7.424,7.424,0,0,1,7.424,7.423m-2.516,0a4.912,4.912,0,1,0-4.912,4.912,4.912,4.912,0,0,0,4.912-4.912" transform="translate(-187.591 -22.983)" fill="#fff"/>
          <path id="Path_1005460" data-name="Path 1005460" d="M150.18,135.38l-2.469-2.45a1.669,1.669,0,0,1,.072-1.654,1.347,1.347,0,0,1,1.718-.124l1.5,1.427,4.283-3.906a1.5,1.5,0,0,1,1.862-.126,1.462,1.462,0,0,1,.054,1.814l-5.61,5.072a1.5,1.5,0,0,1-1.408-.052" transform="translate(-113.458 -98.657)" fill="#fff"/>
        </g>
      </g>
    </g>
  </g>
</svg>
