<svg id="img3" xmlns="http://www.w3.org/2000/svg" xmlns:xlink="http://www.w3.org/1999/xlink" width="121.37" height="121.37" viewBox="0 0 121.37 121.37">
  <defs>
    <clipPath id="clip-path">
      <ellipse id="Ellipse_13844" data-name="Ellipse 13844" cx="60.657" cy="60.57" rx="60.657" ry="60.57" fill="#88fede" stroke="#707070" stroke-width="1"/>
    </clipPath>
    <clipPath id="clip-path-2">
      <rect id="Rectangle_458899" data-name="Rectangle 458899" width="167.765" height="77.479" fill="#7b1a8a"/>
    </clipPath>
    <clipPath id="clip-path-3">
      <rect id="Rectangle_458900" data-name="Rectangle 458900" width="147.767" height="68.243" fill="#7b1a8a"/>
    </clipPath>
    <clipPath id="clip-path-4">
      <path id="Path_1004536" data-name="Path 1004536" d="M0,0,64.7.041l.04,63.449L.04,63.449Z" fill="none" stroke="#f7ceff" stroke-width="1"/>
    </clipPath>
    <clipPath id="clip-path-5">
      <path id="Path_1004537" data-name="Path 1004537" d="M0,0,64.7.041l.04,63.449L.04,63.449Z" fill="none" stroke="#fde6ff" stroke-width="1"/>
    </clipPath>
    <clipPath id="clip-path-6">
      <rect id="Rectangle_458932" data-name="Rectangle 458932" width="33.172" height="32.272" transform="translate(0)" fill="#217365"/>
    </clipPath>
    <clipPath id="clip-path-7">
      <rect id="Rectangle_458921" data-name="Rectangle 458921" width="6.239" height="6.239" fill="#217365"/>
    </clipPath>
    <clipPath id="clip-path-13">
      <rect id="Rectangle_458939" data-name="Rectangle 458939" width="33.172" height="32.272" fill="#217365"/>
    </clipPath>
    <clipPath id="clip-path-20">
      <rect id="Rectangle_455617" data-name="Rectangle 455617" width="104.394" height="104.394" fill="#fff"/>
    </clipPath>
    <clipPath id="clip-path-21">
      <rect id="Rectangle_459385" data-name="Rectangle 459385" width="66.977" height="66.964" fill="#7b1a8a"/>
    </clipPath>
  </defs>
  <g id="Group_1183964" data-name="Group 1183964">
    <g id="Mask_Group_1179368" data-name="Mask Group 1179368" transform="translate(0.056 0)" clip-path="url(#clip-path)">
      <g id="Ellipse_13843" data-name="Ellipse 13843" transform="translate(-5.966 -6.951)" fill="#f29dfc" stroke="#707070" stroke-width="1">
        <ellipse cx="65.132" cy="68.017" rx="65.132" ry="68.017" stroke="none"/>
        <ellipse cx="65.132" cy="68.017" rx="64.632" ry="67.517" fill="none"/>
      </g>
      <g id="Group_1183848" data-name="Group 1183848" transform="translate(-42.51 73.045)">
        <g id="Group_1183847" data-name="Group 1183847" transform="translate(0 0)" clip-path="url(#clip-path-2)">
          <path id="Path_1004500" data-name="Path 1004500" d="M167.765.234V77.479H14.536A79.765,79.765,0,0,1,.72,46.308c-.783-3.813-1.258-8.015.366-11.471,2.8-5.978,10.189-6.665,16.089-5.384C33.7,33.046,48.924,45.8,65.625,43.568c8.559-1.146,16.249-6.157,23.965-10.477s16.223-8.124,24.74-6.6c7.753,1.386,14.577,7.061,22.384,7.983,10.846,1.277,21.781-8.386,23.253-20.546.343-2.829.24-5.754,1-8.478S163.677.126,166.21,0a4.063,4.063,0,0,1,1.555.23" transform="translate(0 0)" fill="#7b1a8a"/>
        </g>
      </g>
      <g id="Group_1183850" data-name="Group 1183850" transform="translate(142.673 51.704) rotate(180)">
        <g id="Group_1183849" data-name="Group 1183849" clip-path="url(#clip-path-3)">
          <path id="Path_1004501" data-name="Path 1004501" d="M147.767.207V68.243H12.8A70.257,70.257,0,0,1,.634,40.788c-.69-3.358-1.108-7.06.322-10.1,2.47-5.265,8.974-5.87,14.171-4.742,14.551,3.164,27.965,14.4,42.675,12.432,7.539-1.01,14.312-5.423,21.108-9.229S93.2,21.991,100.7,23.333c6.829,1.221,12.839,6.219,19.716,7.032,9.553,1.125,19.185-7.386,20.481-18.1.3-2.492.212-5.069.879-7.468S144.167.111,146.4,0a3.579,3.579,0,0,1,1.37.2" transform="translate(0 0)" fill="#7b1a8a"/>
        </g>
      </g>
      <g id="Group_1183852" data-name="Group 1183852" transform="translate(141.819 99.583) rotate(121)">
        <g id="Group_1183851" data-name="Group 1183851" transform="translate(0 0)" clip-path="url(#clip-path-4)">
          <path id="Path_1004502" data-name="Path 1004502" d="M26.673,42.1c.007,11.794,7.951,21.361,17.743,21.367s20.311-9.152,20.3-20.947S62.615,19.86,49.286,9.783C23.165-9.965-4.792,5.8.7,8.777c28.484,15.468,25.973,28,25.977,33.32" transform="translate(0.005 0.013)" fill="none" stroke="#f7ceff" stroke-width="1"/>
        </g>
      </g>
      <g id="Group_1183854" data-name="Group 1183854" transform="translate(-23.956 27.693) rotate(-59)">
        <g id="Group_1183853" data-name="Group 1183853" transform="translate(0 0)" clip-path="url(#clip-path-5)">
          <path id="Path_1004503" data-name="Path 1004503" d="M26.673,42.1c.007,11.794,7.951,21.361,17.743,21.367s20.311-9.152,20.3-20.947S62.615,19.86,49.286,9.783C23.165-9.965-4.792,5.8.7,8.777c28.484,15.468,25.973,28,25.977,33.32" transform="translate(0.005 0.013)" fill="none" stroke="#fde6ff" stroke-width="1"/>
        </g>
      </g>
    </g>
    <g id="Group_1183941" data-name="Group 1183941" transform="translate(0 121.37) rotate(-90)" clip-path="url(#clip-path-6)">
      <g id="Group_1183940" data-name="Group 1183940" transform="translate(2.965)">
        <g id="Group_1183942" data-name="Group 1183942">
          <g id="Group_1183911" data-name="Group 1183911" opacity="0.7">
            <g id="Group_1183910" data-name="Group 1183910">
              <g id="Group_1183909" data-name="Group 1183909" clip-path="url(#clip-path-7)">
                <path id="Path_1004522" data-name="Path 1004522" d="M5.371,2.252H3.987V.867a.867.867,0,0,0-1.735,0V2.252H.867a.867.867,0,0,0,0,1.735H2.252V5.371a.867.867,0,1,0,1.735,0V3.987H5.371a.867.867,0,1,0,0-1.735" transform="translate(0 0)" fill="#217365"/>
              </g>
            </g>
          </g>
          <g id="Group_1183914" data-name="Group 1183914" transform="translate(0 12.226)" opacity="0.7">
            <g id="Group_1183913" data-name="Group 1183913">
              <g id="Group_1183912" data-name="Group 1183912" clip-path="url(#clip-path-7)">
                <path id="Path_1004523" data-name="Path 1004523" d="M5.371,2.252H3.987V.867a.867.867,0,0,0-1.735,0V2.252H.867a.867.867,0,0,0,0,1.735H2.252V5.371a.867.867,0,0,0,1.735,0V3.987H5.371a.867.867,0,1,0,0-1.735" fill="#217365"/>
              </g>
            </g>
          </g>
          <g id="Group_1183917" data-name="Group 1183917" transform="translate(0 24.452)" opacity="0.7">
            <g id="Group_1183916" data-name="Group 1183916">
              <g id="Group_1183915" data-name="Group 1183915" clip-path="url(#clip-path-7)">
                <path id="Path_1004524" data-name="Path 1004524" d="M5.371,2.252H3.987V.867a.867.867,0,0,0-1.735,0V2.252H.867a.867.867,0,0,0,0,1.735H2.252V5.371a.867.867,0,1,0,1.735,0V3.987H5.371a.867.867,0,1,0,0-1.735" transform="translate(0 0)" fill="#217365"/>
              </g>
            </g>
          </g>
          <g id="Group_1183923" data-name="Group 1183923" transform="translate(10.521)" opacity="0.7">
            <g id="Group_1183922" data-name="Group 1183922">
              <g id="Group_1183921" data-name="Group 1183921" clip-path="url(#clip-path-7)">
                <path id="Path_1004526" data-name="Path 1004526" d="M5.371,2.252H3.986V.867a.867.867,0,0,0-1.735,0V2.252H.867a.867.867,0,0,0,0,1.735H2.252V5.371a.867.867,0,1,0,1.735,0V3.987H5.371a.867.867,0,1,0,0-1.735" transform="translate(0 0)" fill="#217365"/>
              </g>
            </g>
          </g>
          <g id="Group_1183926" data-name="Group 1183926" transform="translate(10.521 12.226)" opacity="0.7">
            <g id="Group_1183925" data-name="Group 1183925">
              <g id="Group_1183924" data-name="Group 1183924" clip-path="url(#clip-path-7)">
                <path id="Path_1004527" data-name="Path 1004527" d="M5.371,2.252H3.986V.867a.867.867,0,0,0-1.735,0V2.252H.867a.867.867,0,0,0,0,1.735H2.252V5.371a.867.867,0,1,0,1.735,0V3.987H5.371a.867.867,0,1,0,0-1.735" transform="translate(0)" fill="#217365"/>
              </g>
            </g>
          </g>
          <g id="Group_1183932" data-name="Group 1183932" transform="translate(20.652)" opacity="0.7">
            <g id="Group_1183931" data-name="Group 1183931">
              <g id="Group_1183930" data-name="Group 1183930" clip-path="url(#clip-path-7)">
                <path id="Path_1004529" data-name="Path 1004529" d="M5.371,2.252H3.987V.867a.867.867,0,0,0-1.735,0V2.252H.867a.867.867,0,0,0,0,1.735H2.252V5.371a.867.867,0,1,0,1.735,0V3.987H5.371a.867.867,0,1,0,0-1.735" transform="translate(0 0)" fill="#217365"/>
              </g>
            </g>
          </g>
        </g>
      </g>
    </g>
    <g id="Group_1183963" data-name="Group 1183963" transform="translate(121.37 0.196) rotate(90)" clip-path="url(#clip-path-13)">
      <g id="Group_1183962" data-name="Group 1183962" transform="translate(2.965)">
        <g id="Group_1183961" data-name="Group 1183961">
          <g id="Group_1183945" data-name="Group 1183945" opacity="0.7">
            <g id="Group_1183944" data-name="Group 1183944">
              <g id="Group_1183943" data-name="Group 1183943" clip-path="url(#clip-path-7)">
                <path id="Path_1004530" data-name="Path 1004530" d="M5.371,2.252H3.987V.867a.867.867,0,0,0-1.735,0V2.252H.867a.867.867,0,0,0,0,1.735H2.252V5.371a.867.867,0,1,0,1.735,0V3.987H5.371a.867.867,0,1,0,0-1.735" transform="translate(0 0)" fill="#217365"/>
              </g>
            </g>
          </g>
          <g id="Group_1183948" data-name="Group 1183948" transform="translate(0 12.226)" opacity="0.7">
            <g id="Group_1183947" data-name="Group 1183947">
              <g id="Group_1183946" data-name="Group 1183946" clip-path="url(#clip-path-7)">
                <path id="Path_1004531" data-name="Path 1004531" d="M5.371,2.252H3.987V.867a.867.867,0,0,0-1.735,0V2.252H.867a.867.867,0,0,0,0,1.735H2.252V5.371a.867.867,0,0,0,1.735,0V3.987H5.371a.867.867,0,1,0,0-1.735" fill="#217365"/>
              </g>
            </g>
          </g>
          <g id="Group_1183951" data-name="Group 1183951" transform="translate(0 24.452)" opacity="0.7">
            <g id="Group_1183950" data-name="Group 1183950">
              <g id="Group_1183949" data-name="Group 1183949" clip-path="url(#clip-path-7)">
                <path id="Path_1004532" data-name="Path 1004532" d="M5.371,2.252H3.987V.867a.867.867,0,0,0-1.735,0V2.252H.867a.867.867,0,0,0,0,1.735H2.252V5.371a.867.867,0,1,0,1.735,0V3.987H5.371a.867.867,0,1,0,0-1.735" transform="translate(0 0)" fill="#217365"/>
              </g>
            </g>
          </g>
          <g id="Group_1183954" data-name="Group 1183954" transform="translate(10.521)" opacity="0.7">
            <g id="Group_1183953" data-name="Group 1183953">
              <g id="Group_1183952" data-name="Group 1183952" clip-path="url(#clip-path-7)">
                <path id="Path_1004533" data-name="Path 1004533" d="M5.371,2.252H3.986V.867a.867.867,0,0,0-1.735,0V2.252H.867a.867.867,0,0,0,0,1.735H2.252V5.371a.867.867,0,1,0,1.735,0V3.987H5.371a.867.867,0,1,0,0-1.735" transform="translate(0 0)" fill="#217365"/>
              </g>
            </g>
          </g>
          <g id="Group_1183957" data-name="Group 1183957" transform="translate(10.521 12.226)" opacity="0.7">
            <g id="Group_1183956" data-name="Group 1183956">
              <g id="Group_1183955" data-name="Group 1183955" clip-path="url(#clip-path-7)">
                <path id="Path_1004534" data-name="Path 1004534" d="M5.371,2.252H3.986V.867a.867.867,0,0,0-1.735,0V2.252H.867a.867.867,0,0,0,0,1.735H2.252V5.371a.867.867,0,1,0,1.735,0V3.987H5.371a.867.867,0,1,0,0-1.735" transform="translate(0)" fill="#217365"/>
              </g>
            </g>
          </g>
          <g id="Group_1183960" data-name="Group 1183960" transform="translate(20.652)" opacity="0.7">
            <g id="Group_1183959" data-name="Group 1183959">
              <g id="Group_1183958" data-name="Group 1183958" clip-path="url(#clip-path-7)">
                <path id="Path_1004535" data-name="Path 1004535" d="M5.371,2.252H3.987V.867a.867.867,0,0,0-1.735,0V2.252H.867a.867.867,0,0,0,0,1.735H2.252V5.371a.867.867,0,1,0,1.735,0V3.987H5.371a.867.867,0,1,0,0-1.735" transform="translate(0 0)" fill="#217365"/>
              </g>
            </g>
          </g>
        </g>
      </g>
    </g>
  </g>
  <g id="Group_1179625" data-name="Group 1179625" transform="translate(8.72 8.663)">
    <g id="Group_1179624" data-name="Group 1179624" transform="translate(0)">
      <rect id="Rectangle_455622" data-name="Rectangle 455622" width="19.124" height="15.308" transform="translate(14.171 52.73)" fill="#88fede"/>
      <g id="Group_1179619" data-name="Group 1179619">
        <g id="Group_1179526" data-name="Group 1179526" clip-path="url(#clip-path-20)">
          <path id="Path_1002449" data-name="Path 1002449" d="M104.32,52.16A52.16,52.16,0,1,1,52.16,0a52.16,52.16,0,0,1,52.16,52.16" transform="translate(0.013 0)" fill="#fff"/>
        </g>
      </g>
    </g>
  </g>
  <g id="Group_1179626" data-name="Group 1179626" transform="translate(23.782 22.626)">
    <g id="Group_1099776" data-name="Group 1099776" transform="translate(0 0)">
      <g id="Group_1099618" data-name="Group 1099618" transform="translate(-0.071 0.373)">
        <rect id="Rectangle_401104" data-name="Rectangle 401104" width="74.893" height="75.795" fill="none"/>
      </g>
      <g id="Group_1184385" data-name="Group 1184385" transform="translate(3.929 4.373)">
        <g id="Group_1184384" data-name="Group 1184384" clip-path="url(#clip-path-21)">
          <path id="Path_1005384" data-name="Path 1005384" d="M29.846,58.032l-.727,6.582,1.668.362a3.163,3.163,0,0,1,2.706,3.21,3.049,3.049,0,0,1-3.155,2.836l-6.8-.009a1.168,1.168,0,0,1-1.2-1.052l-.012-15.782-4.5.114.019,2.221a1.208,1.208,0,0,1-1.039,1.135l-3.414.023-.011,5.773,3.577.835a3.621,3.621,0,0,1,3.006,2.5,3.351,3.351,0,0,1-1.506,3.761,3.394,3.394,0,0,1-4.184-.614c-2.782.145-5.684-.216-8.428.181-1.306.507-2.554,1.457-4.121.505A3.436,3.436,0,0,1,.06,67.075a3.483,3.483,0,0,1,2.916-2.754l3.734-.843L6.7,57.617c-.739.147-1.943.048-2.074-.6a17.735,17.735,0,0,1-.178-2.825c-1.89.449-4.367-.672-4.375-2.869L.018,34.18l2.233,0,.022,17.28a2,2,0,0,0,2.213.474l0-22.058a1.252,1.252,0,0,0-.909-1.25c-.455-.1-1.281.31-1.29.776l-.047,2.531L0,31.929l.082-2.676A3.173,3.173,0,0,1,3.4,26.374a3.291,3.291,0,0,1,3.278,3.108L6.8,36.749l8-16.913c-1.956-4.1-3.622-8.022-.84-11.838a2.165,2.165,0,0,0-3.355.416,2.252,2.252,0,0,0,1.181,3.36l-.691,2.095a4.5,4.5,0,0,1-3.066-3.83,4.479,4.479,0,0,1,7.558-3.629c1.6-1.166,3.431-1.162,5.307-1.289a6.1,6.1,0,0,1,6.785,6.305l1.463,3.06a6.543,6.543,0,0,1-1.4,1.634l-.077,3.713c-.006.29-.483.756-.788.91a4.783,4.783,0,0,1-3.358,4.37l.825,1.7,4.717,4.741,8.465-7.4c1.658-.047,3.229.1,4.826-.1,2.64-.338,5.643-2,5.642.057l0,6.792a1.069,1.069,0,0,1-1.3,1.023l-4.453-1.084c-.162-.04-.638-.049-.716.056a2.155,2.155,0,0,0-.291.634A10.271,10.271,0,0,1,29.7,39.706c-1.713-.194-3.412-.17-4.8-1.4l-3.653-3.244-1.756.321-1.634,2.53-.038,3,7.387.062c3.5.029,6.12,3.447,5.752,6.876l-.844,7.86L27.9,55.515l.849-7.645A4.167,4.167,0,0,0,24.6,43.133l-2.275.012.032,4.558c.611-.242,2.174-.2,2.176.639l.05,15.949,2.325.011.735-6.53ZM17.316,15.2c-1.218-1.063-1.641-2.376-1.036-3.581a2.925,2.925,0,0,1,3.349-1.582L21.57,7.37a10.047,10.047,0,0,0-4.156.609,4.9,4.9,0,0,0-2.656,4.889,14.992,14.992,0,0,0,1.33,4.391Zm3.077,6.726,1.133-2.742a1.366,1.366,0,0,1,.951-.613l2.951.02.044-3.177,1.08-1.276a7.662,7.662,0,0,1-1.041-2.3c-.142-1.5-.219-2.814-1.62-3.8L21,11.933c-.979,1.32-1.748.069-2.562.371-.156.058-.2.6-.07.644L20.085,13l-.009,7.031a5.8,5.8,0,0,0,.316,1.89m-2.439-.032L17.761,19,16.3,21.847Zm6.621-1.073-1.346.028-.765,2.129a2.213,2.213,0,0,0,2.111-2.156m-2.727,6.589-2.871-2.8a2.029,2.029,0,0,0-2.9.279,1.991,1.991,0,0,0,.385,2.863l2.5,2.243Zm21.718,1.458,2.2.509-.019-3.81-2.2.574ZM25.584,35.984c1.583,1.44,4.491,2.333,6.081.517l6.863-7.834,2.8-.043,0-2.245-2.986.011-8.3,7.285c-.359.315-1.2.733-1.607.332l-5.028-5L20.653,31.5Zm-9.971,1.233,2.28-3.445a4.288,4.288,0,0,1,1.035-.8l-4.037-3.665a6.333,6.333,0,0,1-1.28-1.739l-6.886,14.6L6.709,55.434h8.9Zm19.158-.66a6.33,6.33,0,0,0,3.955-4.62c-1.347,1.428-2.686,2.973-3.955,4.62M20.084,43.131H17.832v4.5h2.252Zm1.06,8.911a1.21,1.21,0,0,0,1.193-1.016c.045-.368-.376-1.157-.744-1.158l-3.761-.011v2.178ZM8.94,63.236h2.216v-5.6H8.94Zm5.74,4.471c1.25,0,1.226,1.439,2.571.964a1.289,1.289,0,0,0,.582-1.238,1.348,1.348,0,0,0-1.047-.9c-1.561-.288-2.957-.793-4.518-.978-4.071-.482-5.949.362-9.285,1.078a1.2,1.2,0,0,0-.737,1.182,1.234,1.234,0,0,0,.963.959c1.075.115.942-1.07,2.316-1.069Zm15.974-.434-3-.745-3.077.016.021,2.232h5.941a1,1,0,0,0,.76-.729,1.15,1.15,0,0,0-.642-.772" transform="translate(0 -4.058)" fill="#7b1a8a"/>
          <path id="Path_1005385" data-name="Path 1005385" d="M186.761,66.043a1.281,1.281,0,0,1-1.09.912l-7.8,0a3.348,3.348,0,0,1-3.384-3.561,3.491,3.491,0,0,1,4.178-3.118L174.83,42.9l2.272-.043,3.839,17.366,3.337.015-3.054-15.285a1.667,1.667,0,0,1,.186-1.029,1.824,1.824,0,0,1,1.17-.358l12.889,0a3.405,3.405,0,0,0,3.523-3.929,6.035,6.035,0,0,1-2.07.507l-14.461.019-3.24,1.06c-1.075.352-3.647.3-3.62-1.048l.082-4.1c1.784-.676,3.306-1.951,5.115-2.4,2.645-.656,5.4-.492,8.161-.875l.035-4.769a12.626,12.626,0,0,1,3.352-8.43l.021-1.787-2.257.011a1.194,1.194,0,0,1-1.124-1.053l-.021-3.4L187.5,13.31c-.337-.014-.773-.668-.78-1.032l1.919-5.9a3.6,3.6,0,0,1-1.9-3.106l.008-2.241A1.127,1.127,0,0,1,187.892,0L196.1.052a5.419,5.419,0,0,1,5.167,5.677L201.249,22.5a3.479,3.479,0,0,1,3.1.428,3.413,3.413,0,0,1,1.377,2.861l0,14.34-2.232,0-.01-14.745c0-.471-.765-.859-1.131-.843a1.18,1.18,0,0,0-1.089,1.077l0,19a1.194,1.194,0,0,1-1.139,1.169l-14.256.012c-.731,0-1.249.269-1.326.974a1.131,1.131,0,0,0,1.121,1.193h16.793a1.11,1.11,0,0,0,1.04-1.076l-.007-4.318,2.253-.008-.037,4.542a3.239,3.239,0,0,1-3.021,3.065l-8.085.029-.009,8.945,2.22,0-.005-6.816,2.233-.019,0,7.068,3.565.831a3.59,3.59,0,0,1,3.012,2.5,3.323,3.323,0,0,1-5.682,3.11c-2.771.358-5.73-.366-8.407.286-1.525.473-3.161,1.635-4.753-.073m12.126-59.71a3.151,3.151,0,0,0-2.778-4.038L189,2.281c-.176.874,0,2.129.815,2.138l7.5.08Zm-4.295,10.444.015,2.247,4.432-.037-.029-8.663-2.746-3.611-5.4.022-1.428,4.4c.837-.14,1.731.176,1.738.92l.034,3.522,2.442.033c.471.006.934.723.937,1.162m4.441,8.863V22.907a1.672,1.672,0,1,0-3.344.017v2.726Zm-5.589,6.779-.013-9.3.141-1.465a9.359,9.359,0,0,0-2.31,5.806l-.068,5.164Zm-15.4,6.833,4.162-1.324,14.51,0a2.17,2.17,0,0,0,2.3-2.1l.011-7.95-3.346,0L195.7,33.4a1.216,1.216,0,0,1-1.047,1.2l-13.209,1.089-3.559,1.794a4.478,4.478,0,0,0,.164,1.774m14.319,20.121-.011-9.163-7.811-.03,2.187,10.891a6.659,6.659,0,0,1,1.876-.781Zm7.955,4.276c1.23,0,1.271,1.442,2.563.975a1.284,1.284,0,0,0,.6-1.245,1.315,1.315,0,0,0-1.063-.889c-2.929-.51-4.443-1.482-8.955-1-1.475.158-2.848.722-4.319.959-.6.1-1.151.423-1.228.927a1.162,1.162,0,0,0,.748,1.293c1.241.277,1.105-1.023,2.5-1.023Zm-15.793,1.066-.035-2.238-6.8.018a1.173,1.173,0,0,0-.987,1.233,1.237,1.237,0,0,0,1.142.99Z" transform="translate(-138.757 0)" fill="#7b1a8a"/>
          <rect id="Rectangle_459384" data-name="Rectangle 459384" width="4.447" height="2.258" transform="translate(8.939 39.074)" fill="#7b1a8a"/>
        </g>
      </g>
    </g>
  </g>
</svg>
