<svg id="img6" xmlns="http://www.w3.org/2000/svg" xmlns:xlink="http://www.w3.org/1999/xlink" width="121.37" height="121.37" viewBox="0 0 121.37 121.37">
  <defs>
    <clipPath id="clip-path">
      <ellipse id="Ellipse_13844" data-name="Ellipse 13844" cx="60.657" cy="60.57" rx="60.657" ry="60.57" fill="#88fede" stroke="#707070" stroke-width="1"/>
    </clipPath>
    <clipPath id="clip-path-2">
      <rect id="Rectangle_458899" data-name="Rectangle 458899" width="167.765" height="77.479" fill="#7b1a8a"/>
    </clipPath>
    <clipPath id="clip-path-3">
      <rect id="Rectangle_458900" data-name="Rectangle 458900" width="147.767" height="68.243" fill="#7b1a8a"/>
    </clipPath>
    <clipPath id="clip-path-4">
      <path id="Path_1004536" data-name="Path 1004536" d="M0,0,64.7.041l.04,63.449L.04,63.449Z" fill="none" stroke="#f7ceff" stroke-width="1"/>
    </clipPath>
    <clipPath id="clip-path-5">
      <path id="Path_1004537" data-name="Path 1004537" d="M0,0,64.7.041l.04,63.449L.04,63.449Z" fill="none" stroke="#fde6ff" stroke-width="1"/>
    </clipPath>
    <clipPath id="clip-path-6">
      <rect id="Rectangle_458932" data-name="Rectangle 458932" width="33.172" height="32.272" transform="translate(0)" fill="#217365"/>
    </clipPath>
    <clipPath id="clip-path-7">
      <rect id="Rectangle_458921" data-name="Rectangle 458921" width="6.239" height="6.239" fill="#217365"/>
    </clipPath>
    <clipPath id="clip-path-13">
      <rect id="Rectangle_458939" data-name="Rectangle 458939" width="33.172" height="32.272" fill="#217365"/>
    </clipPath>
    <clipPath id="clip-path-20">
      <rect id="Rectangle_455617" data-name="Rectangle 455617" width="104.394" height="104.394" fill="#fff"/>
    </clipPath>
    <clipPath id="clip-path-21">
      <rect id="Rectangle_459388" data-name="Rectangle 459388" width="66.929" height="69.362" fill="#7b1a8a"/>
    </clipPath>
  </defs>
  <g id="Group_1183964" data-name="Group 1183964">
    <g id="Mask_Group_1179368" data-name="Mask Group 1179368" transform="translate(0.056 0)" clip-path="url(#clip-path)">
      <g id="Ellipse_13843" data-name="Ellipse 13843" transform="translate(-5.966 -6.951)" fill="#f29dfc" stroke="#707070" stroke-width="1">
        <ellipse cx="65.132" cy="68.017" rx="65.132" ry="68.017" stroke="none"/>
        <ellipse cx="65.132" cy="68.017" rx="64.632" ry="67.517" fill="none"/>
      </g>
      <g id="Group_1183848" data-name="Group 1183848" transform="translate(-42.51 73.045)">
        <g id="Group_1183847" data-name="Group 1183847" transform="translate(0 0)" clip-path="url(#clip-path-2)">
          <path id="Path_1004500" data-name="Path 1004500" d="M167.765.234V77.479H14.536A79.765,79.765,0,0,1,.72,46.308c-.783-3.813-1.258-8.015.366-11.471,2.8-5.978,10.189-6.665,16.089-5.384C33.7,33.046,48.924,45.8,65.625,43.568c8.559-1.146,16.249-6.157,23.965-10.477s16.223-8.124,24.74-6.6c7.753,1.386,14.577,7.061,22.384,7.983,10.846,1.277,21.781-8.386,23.253-20.546.343-2.829.24-5.754,1-8.478S163.677.126,166.21,0a4.063,4.063,0,0,1,1.555.23" transform="translate(0 0)" fill="#7b1a8a"/>
        </g>
      </g>
      <g id="Group_1183850" data-name="Group 1183850" transform="translate(142.673 51.704) rotate(180)">
        <g id="Group_1183849" data-name="Group 1183849" clip-path="url(#clip-path-3)">
          <path id="Path_1004501" data-name="Path 1004501" d="M147.767.207V68.243H12.8A70.257,70.257,0,0,1,.634,40.788c-.69-3.358-1.108-7.06.322-10.1,2.47-5.265,8.974-5.87,14.171-4.742,14.551,3.164,27.965,14.4,42.675,12.432,7.539-1.01,14.312-5.423,21.108-9.229S93.2,21.991,100.7,23.333c6.829,1.221,12.839,6.219,19.716,7.032,9.553,1.125,19.185-7.386,20.481-18.1.3-2.492.212-5.069.879-7.468S144.167.111,146.4,0a3.579,3.579,0,0,1,1.37.2" transform="translate(0 0)" fill="#7b1a8a"/>
        </g>
      </g>
      <g id="Group_1183852" data-name="Group 1183852" transform="translate(141.819 99.583) rotate(121)">
        <g id="Group_1183851" data-name="Group 1183851" transform="translate(0 0)" clip-path="url(#clip-path-4)">
          <path id="Path_1004502" data-name="Path 1004502" d="M26.673,42.1c.007,11.794,7.951,21.361,17.743,21.367s20.311-9.152,20.3-20.947S62.615,19.86,49.286,9.783C23.165-9.965-4.792,5.8.7,8.777c28.484,15.468,25.973,28,25.977,33.32" transform="translate(0.005 0.013)" fill="none" stroke="#f7ceff" stroke-width="1"/>
        </g>
      </g>
      <g id="Group_1183854" data-name="Group 1183854" transform="translate(-23.956 27.693) rotate(-59)">
        <g id="Group_1183853" data-name="Group 1183853" transform="translate(0 0)" clip-path="url(#clip-path-5)">
          <path id="Path_1004503" data-name="Path 1004503" d="M26.673,42.1c.007,11.794,7.951,21.361,17.743,21.367s20.311-9.152,20.3-20.947S62.615,19.86,49.286,9.783C23.165-9.965-4.792,5.8.7,8.777c28.484,15.468,25.973,28,25.977,33.32" transform="translate(0.005 0.013)" fill="none" stroke="#fde6ff" stroke-width="1"/>
        </g>
      </g>
    </g>
    <g id="Group_1183941" data-name="Group 1183941" transform="translate(0 121.37) rotate(-90)" clip-path="url(#clip-path-6)">
      <g id="Group_1183940" data-name="Group 1183940" transform="translate(2.965)">
        <g id="Group_1183942" data-name="Group 1183942">
          <g id="Group_1183911" data-name="Group 1183911" opacity="0.7">
            <g id="Group_1183910" data-name="Group 1183910">
              <g id="Group_1183909" data-name="Group 1183909" clip-path="url(#clip-path-7)">
                <path id="Path_1004522" data-name="Path 1004522" d="M5.371,2.252H3.987V.867a.867.867,0,0,0-1.735,0V2.252H.867a.867.867,0,0,0,0,1.735H2.252V5.371a.867.867,0,1,0,1.735,0V3.987H5.371a.867.867,0,1,0,0-1.735" transform="translate(0 0)" fill="#217365"/>
              </g>
            </g>
          </g>
          <g id="Group_1183914" data-name="Group 1183914" transform="translate(0 12.226)" opacity="0.7">
            <g id="Group_1183913" data-name="Group 1183913">
              <g id="Group_1183912" data-name="Group 1183912" clip-path="url(#clip-path-7)">
                <path id="Path_1004523" data-name="Path 1004523" d="M5.371,2.252H3.987V.867a.867.867,0,0,0-1.735,0V2.252H.867a.867.867,0,0,0,0,1.735H2.252V5.371a.867.867,0,0,0,1.735,0V3.987H5.371a.867.867,0,1,0,0-1.735" fill="#217365"/>
              </g>
            </g>
          </g>
          <g id="Group_1183917" data-name="Group 1183917" transform="translate(0 24.452)" opacity="0.7">
            <g id="Group_1183916" data-name="Group 1183916">
              <g id="Group_1183915" data-name="Group 1183915" clip-path="url(#clip-path-7)">
                <path id="Path_1004524" data-name="Path 1004524" d="M5.371,2.252H3.987V.867a.867.867,0,0,0-1.735,0V2.252H.867a.867.867,0,0,0,0,1.735H2.252V5.371a.867.867,0,1,0,1.735,0V3.987H5.371a.867.867,0,1,0,0-1.735" transform="translate(0 0)" fill="#217365"/>
              </g>
            </g>
          </g>
          <g id="Group_1183923" data-name="Group 1183923" transform="translate(10.521)" opacity="0.7">
            <g id="Group_1183922" data-name="Group 1183922">
              <g id="Group_1183921" data-name="Group 1183921" clip-path="url(#clip-path-7)">
                <path id="Path_1004526" data-name="Path 1004526" d="M5.371,2.252H3.986V.867a.867.867,0,0,0-1.735,0V2.252H.867a.867.867,0,0,0,0,1.735H2.252V5.371a.867.867,0,1,0,1.735,0V3.987H5.371a.867.867,0,1,0,0-1.735" transform="translate(0 0)" fill="#217365"/>
              </g>
            </g>
          </g>
          <g id="Group_1183926" data-name="Group 1183926" transform="translate(10.521 12.226)" opacity="0.7">
            <g id="Group_1183925" data-name="Group 1183925">
              <g id="Group_1183924" data-name="Group 1183924" clip-path="url(#clip-path-7)">
                <path id="Path_1004527" data-name="Path 1004527" d="M5.371,2.252H3.986V.867a.867.867,0,0,0-1.735,0V2.252H.867a.867.867,0,0,0,0,1.735H2.252V5.371a.867.867,0,1,0,1.735,0V3.987H5.371a.867.867,0,1,0,0-1.735" transform="translate(0)" fill="#217365"/>
              </g>
            </g>
          </g>
          <g id="Group_1183932" data-name="Group 1183932" transform="translate(20.652)" opacity="0.7">
            <g id="Group_1183931" data-name="Group 1183931">
              <g id="Group_1183930" data-name="Group 1183930" clip-path="url(#clip-path-7)">
                <path id="Path_1004529" data-name="Path 1004529" d="M5.371,2.252H3.987V.867a.867.867,0,0,0-1.735,0V2.252H.867a.867.867,0,0,0,0,1.735H2.252V5.371a.867.867,0,1,0,1.735,0V3.987H5.371a.867.867,0,1,0,0-1.735" transform="translate(0 0)" fill="#217365"/>
              </g>
            </g>
          </g>
        </g>
      </g>
    </g>
    <g id="Group_1183963" data-name="Group 1183963" transform="translate(121.37 0.196) rotate(90)" clip-path="url(#clip-path-13)">
      <g id="Group_1183962" data-name="Group 1183962" transform="translate(2.965)">
        <g id="Group_1183961" data-name="Group 1183961">
          <g id="Group_1183945" data-name="Group 1183945" opacity="0.7">
            <g id="Group_1183944" data-name="Group 1183944">
              <g id="Group_1183943" data-name="Group 1183943" clip-path="url(#clip-path-7)">
                <path id="Path_1004530" data-name="Path 1004530" d="M5.371,2.252H3.987V.867a.867.867,0,0,0-1.735,0V2.252H.867a.867.867,0,0,0,0,1.735H2.252V5.371a.867.867,0,1,0,1.735,0V3.987H5.371a.867.867,0,1,0,0-1.735" transform="translate(0 0)" fill="#217365"/>
              </g>
            </g>
          </g>
          <g id="Group_1183948" data-name="Group 1183948" transform="translate(0 12.226)" opacity="0.7">
            <g id="Group_1183947" data-name="Group 1183947">
              <g id="Group_1183946" data-name="Group 1183946" clip-path="url(#clip-path-7)">
                <path id="Path_1004531" data-name="Path 1004531" d="M5.371,2.252H3.987V.867a.867.867,0,0,0-1.735,0V2.252H.867a.867.867,0,0,0,0,1.735H2.252V5.371a.867.867,0,0,0,1.735,0V3.987H5.371a.867.867,0,1,0,0-1.735" fill="#217365"/>
              </g>
            </g>
          </g>
          <g id="Group_1183951" data-name="Group 1183951" transform="translate(0 24.452)" opacity="0.7">
            <g id="Group_1183950" data-name="Group 1183950">
              <g id="Group_1183949" data-name="Group 1183949" clip-path="url(#clip-path-7)">
                <path id="Path_1004532" data-name="Path 1004532" d="M5.371,2.252H3.987V.867a.867.867,0,0,0-1.735,0V2.252H.867a.867.867,0,0,0,0,1.735H2.252V5.371a.867.867,0,1,0,1.735,0V3.987H5.371a.867.867,0,1,0,0-1.735" transform="translate(0 0)" fill="#217365"/>
              </g>
            </g>
          </g>
          <g id="Group_1183954" data-name="Group 1183954" transform="translate(10.521)" opacity="0.7">
            <g id="Group_1183953" data-name="Group 1183953">
              <g id="Group_1183952" data-name="Group 1183952" clip-path="url(#clip-path-7)">
                <path id="Path_1004533" data-name="Path 1004533" d="M5.371,2.252H3.986V.867a.867.867,0,0,0-1.735,0V2.252H.867a.867.867,0,0,0,0,1.735H2.252V5.371a.867.867,0,1,0,1.735,0V3.987H5.371a.867.867,0,1,0,0-1.735" transform="translate(0 0)" fill="#217365"/>
              </g>
            </g>
          </g>
          <g id="Group_1183957" data-name="Group 1183957" transform="translate(10.521 12.226)" opacity="0.7">
            <g id="Group_1183956" data-name="Group 1183956">
              <g id="Group_1183955" data-name="Group 1183955" clip-path="url(#clip-path-7)">
                <path id="Path_1004534" data-name="Path 1004534" d="M5.371,2.252H3.986V.867a.867.867,0,0,0-1.735,0V2.252H.867a.867.867,0,0,0,0,1.735H2.252V5.371a.867.867,0,1,0,1.735,0V3.987H5.371a.867.867,0,1,0,0-1.735" transform="translate(0)" fill="#217365"/>
              </g>
            </g>
          </g>
          <g id="Group_1183960" data-name="Group 1183960" transform="translate(20.652)" opacity="0.7">
            <g id="Group_1183959" data-name="Group 1183959">
              <g id="Group_1183958" data-name="Group 1183958" clip-path="url(#clip-path-7)">
                <path id="Path_1004535" data-name="Path 1004535" d="M5.371,2.252H3.987V.867a.867.867,0,0,0-1.735,0V2.252H.867a.867.867,0,0,0,0,1.735H2.252V5.371a.867.867,0,1,0,1.735,0V3.987H5.371a.867.867,0,1,0,0-1.735" transform="translate(0 0)" fill="#217365"/>
              </g>
            </g>
          </g>
        </g>
      </g>
    </g>
  </g>
  <g id="Group_1179625" data-name="Group 1179625" transform="translate(8.72 8.663)">
    <g id="Group_1179624" data-name="Group 1179624" transform="translate(0)">
      <rect id="Rectangle_455622" data-name="Rectangle 455622" width="19.124" height="15.308" transform="translate(14.171 52.73)" fill="#88fede"/>
      <g id="Group_1179619" data-name="Group 1179619">
        <g id="Group_1179526" data-name="Group 1179526" clip-path="url(#clip-path-20)">
          <path id="Path_1002449" data-name="Path 1002449" d="M104.32,52.16A52.16,52.16,0,1,1,52.16,0a52.16,52.16,0,0,1,52.16,52.16" transform="translate(0.013 0)" fill="#fff"/>
        </g>
      </g>
    </g>
  </g>
  <g id="Group_1179626" data-name="Group 1179626" transform="translate(23.782 22.626)">
    <g id="Group_1099776" data-name="Group 1099776" transform="translate(0 0)">
      <g id="Group_1099618" data-name="Group 1099618" transform="translate(-0.071 0.373)">
        <rect id="Rectangle_401104" data-name="Rectangle 401104" width="74.893" height="75.795" fill="none"/>
      </g>
      <g id="Group_1184391" data-name="Group 1184391" transform="translate(3.929 3.373)">
        <g id="Group_1184390" data-name="Group 1184390" clip-path="url(#clip-path-21)">
          <path id="Path_1005402" data-name="Path 1005402" d="M.061,63.534,0,57.634a1.123,1.123,0,0,1,.88-1.052A1.055,1.055,0,0,1,2.049,57.62l-.029,5.226a3.147,3.147,0,0,0,2.959,3.4L41.649,66.2l-14.592-4a4.269,4.269,0,0,1-1.325-.761L7.146,61.425a3,3,0,0,1-2.994-2.808l0-52.873A3.144,3.144,0,0,0,2.037,8.971l0,43.677a1.042,1.042,0,0,1-.964,1.176A1.094,1.094,0,0,1,.006,52.819L.016,8.563A4.943,4.943,0,0,1,4.532,3.626l7.2-.062L11.718,1.15A1.088,1.088,0,0,1,12.728,0L33.384,0a1.033,1.033,0,0,1,1.11,1.01l.037,2.558h7.232A5.135,5.135,0,0,1,46.209,8.59l.023,7.437L61.69,20.174A2.533,2.533,0,0,1,63.469,23.5l-.541,1.913,1.975.493a2.512,2.512,0,0,1,1.9,3.35L56.566,67.443a2.45,2.45,0,0,1-3.191,1.807l-8.785-2.356a5.047,5.047,0,0,1-3.483,1.451L5.2,68.338a5.015,5.015,0,0,1-5.134-4.8M13.767,3.568h18.7V1.983h-18.7ZM27.75,31.211l3.031-11.373-20.23,0a1.135,1.135,0,0,1-1.13-1.02L9.4,14.727c0-.315.417-.981.754-.981l22.563-.01a2.492,2.492,0,0,1,2.34-.693l9.091,2.434-.039-7.329a2.945,2.945,0,0,0-2.042-2.406l.037,5a1.043,1.043,0,0,1-1.073,1.014,1.056,1.056,0,0,1-.952-.988l0-4.167A1.118,1.118,0,0,0,38.96,5.566l-7.21,0A4.508,4.508,0,0,1,27.2,10.844l-8.6-.052a4.4,4.4,0,0,1-4.1-5.218l-7.36,0A1.1,1.1,0,0,0,6.159,6.6V58.212a1.116,1.116,0,0,0,1.024,1.206l17.874.007.678-2.481-1.928-.522a2.39,2.39,0,0,1-2.056-2.705l1.85-7.053-13.036.018a1.169,1.169,0,0,1-1.146-1.054,1.084,1.084,0,0,1,1.123-1.053l13.624,0,1.245-4.639H10.543a1.091,1.091,0,0,1-1.126-1.087,1.171,1.171,0,0,1,1.1-.957H25.945L27.2,33.209,10.329,33.2a1.09,1.09,0,0,1-.916-1.067,1.126,1.126,0,0,1,.918-.928Zm.163-22.529C29.393,8.6,30,6.7,29.636,5.578L16.578,5.563A2.956,2.956,0,0,0,16.9,7.8a2.374,2.374,0,0,0,1.758.97c3.109,0,6.061.091,9.252-.086m6.27,6.165L23.593,54.328l27.554,7.391,10.59-39.481Zm-2.82,2.9.477-2.03H11.492l-.007,2.032ZM27.14,60.12l27.326,7.313L65,28.137,62.4,27.408,53.161,61.882a2.392,2.392,0,0,1-2.645,1.694L27.66,57.469a19.059,19.059,0,0,0-.52,2.651" transform="translate(0 0)" fill="#7b1a8a"/>
          <path id="Path_1005403" data-name="Path 1005403" d="M53.923,259.984,48.379,260a1.391,1.391,0,0,1-1.051-.838c-.125-.345.3-1.2.7-1.2l6-.038a1.166,1.166,0,0,1,.986.911,1.03,1.03,0,0,1-1.087,1.159" transform="translate(-37.901 -206.637)" fill="#7b1a8a"/>
          <path id="Path_1005404" data-name="Path 1005404" d="M54.126,125.041H48.175c-.418,0-.935-.76-.881-1.12a1.261,1.261,0,0,1,1.095-.947l5.622.009a1.176,1.176,0,0,1,.994.9c.077.4-.32,1.155-.879,1.155" transform="translate(-37.888 -98.526)" fill="#7b1a8a"/>
          <path id="Path_1005405" data-name="Path 1005405" d="M156.878,177.834a1.071,1.071,0,0,1,.421-1.352,1.125,1.125,0,0,1,1.4.443l2.757,4.767,8.784-5.074a1.865,1.865,0,0,1,.982-.209c1.338.351,2.917,6.875-1.325,11.835a10.99,10.99,0,0,1-19.165-5.889,11,11,0,0,1,18.04-9.717,1.205,1.205,0,0,1,.268,1.307,1.079,1.079,0,0,1-1.49.308,8.979,8.979,0,1,0-2.487,15.048,8.944,8.944,0,0,0,5.258-10.384l-8.667,5.019a1.055,1.055,0,0,1-1.448-.339Z" transform="translate(-120.708 -136.229)" fill="#7b1a8a"/>
          <path id="Path_1005406" data-name="Path 1005406" d="M192.034,109.916l-19.507-5.233a1.11,1.11,0,0,1-.633-1.158l2.1-7.864c.141-.347.677-.8,1.086-.692l19.6,5.25c.312.084.612.753.608,1.042l-2.129,8a1.238,1.238,0,0,1-1.116.655M175.639,97.195l-1.564,5.867,17.433,4.646,1.564-5.867Z" transform="translate(-137.715 -76.075)" fill="#7b1a8a"/>
        </g>
      </g>
    </g>
  </g>
</svg>
