<svg id="img7" xmlns="http://www.w3.org/2000/svg" xmlns:xlink="http://www.w3.org/1999/xlink" width="121.37" height="121.37" viewBox="0 0 121.37 121.37">
  <defs>
    <clipPath id="clip-path">
      <ellipse id="Ellipse_13844" data-name="Ellipse 13844" cx="60.657" cy="60.57" rx="60.657" ry="60.57" fill="#88fede" stroke="#707070" stroke-width="1"/>
    </clipPath>
    <clipPath id="clip-path-2">
      <rect id="Rectangle_458899" data-name="Rectangle 458899" width="167.765" height="77.479" fill="#7b1a8a"/>
    </clipPath>
    <clipPath id="clip-path-3">
      <rect id="Rectangle_458900" data-name="Rectangle 458900" width="147.767" height="68.243" fill="#7b1a8a"/>
    </clipPath>
    <clipPath id="clip-path-4">
      <path id="Path_1004536" data-name="Path 1004536" d="M0,0,64.7.041l.04,63.449L.04,63.449Z" fill="none" stroke="#f7ceff" stroke-width="1"/>
    </clipPath>
    <clipPath id="clip-path-5">
      <path id="Path_1004537" data-name="Path 1004537" d="M0,0,64.7.041l.04,63.449L.04,63.449Z" fill="none" stroke="#fde6ff" stroke-width="1"/>
    </clipPath>
    <clipPath id="clip-path-6">
      <rect id="Rectangle_458932" data-name="Rectangle 458932" width="33.172" height="32.272" transform="translate(0)" fill="#217365"/>
    </clipPath>
    <clipPath id="clip-path-7">
      <rect id="Rectangle_458921" data-name="Rectangle 458921" width="6.239" height="6.239" fill="#217365"/>
    </clipPath>
    <clipPath id="clip-path-13">
      <rect id="Rectangle_458939" data-name="Rectangle 458939" width="33.172" height="32.272" fill="#217365"/>
    </clipPath>
    <clipPath id="clip-path-20">
      <rect id="Rectangle_455617" data-name="Rectangle 455617" width="104.394" height="104.394" fill="#fff"/>
    </clipPath>
    <clipPath id="clip-path-21">
      <rect id="Rectangle_459389" data-name="Rectangle 459389" width="75.234" height="75.795" fill="#7b1a8a"/>
    </clipPath>
  </defs>
  <g id="Group_1183964" data-name="Group 1183964">
    <g id="Mask_Group_1179368" data-name="Mask Group 1179368" transform="translate(0.056 0)" clip-path="url(#clip-path)">
      <g id="Ellipse_13843" data-name="Ellipse 13843" transform="translate(-5.966 -6.951)" fill="#f29dfc" stroke="#707070" stroke-width="1">
        <ellipse cx="65.132" cy="68.017" rx="65.132" ry="68.017" stroke="none"/>
        <ellipse cx="65.132" cy="68.017" rx="64.632" ry="67.517" fill="none"/>
      </g>
      <g id="Group_1183848" data-name="Group 1183848" transform="translate(-42.51 73.045)">
        <g id="Group_1183847" data-name="Group 1183847" transform="translate(0 0)" clip-path="url(#clip-path-2)">
          <path id="Path_1004500" data-name="Path 1004500" d="M167.765.234V77.479H14.536A79.765,79.765,0,0,1,.72,46.308c-.783-3.813-1.258-8.015.366-11.471,2.8-5.978,10.189-6.665,16.089-5.384C33.7,33.046,48.924,45.8,65.625,43.568c8.559-1.146,16.249-6.157,23.965-10.477s16.223-8.124,24.74-6.6c7.753,1.386,14.577,7.061,22.384,7.983,10.846,1.277,21.781-8.386,23.253-20.546.343-2.829.24-5.754,1-8.478S163.677.126,166.21,0a4.063,4.063,0,0,1,1.555.23" transform="translate(0 0)" fill="#7b1a8a"/>
        </g>
      </g>
      <g id="Group_1183850" data-name="Group 1183850" transform="translate(142.673 51.704) rotate(180)">
        <g id="Group_1183849" data-name="Group 1183849" clip-path="url(#clip-path-3)">
          <path id="Path_1004501" data-name="Path 1004501" d="M147.767.207V68.243H12.8A70.257,70.257,0,0,1,.634,40.788c-.69-3.358-1.108-7.06.322-10.1,2.47-5.265,8.974-5.87,14.171-4.742,14.551,3.164,27.965,14.4,42.675,12.432,7.539-1.01,14.312-5.423,21.108-9.229S93.2,21.991,100.7,23.333c6.829,1.221,12.839,6.219,19.716,7.032,9.553,1.125,19.185-7.386,20.481-18.1.3-2.492.212-5.069.879-7.468S144.167.111,146.4,0a3.579,3.579,0,0,1,1.37.2" transform="translate(0 0)" fill="#7b1a8a"/>
        </g>
      </g>
      <g id="Group_1183852" data-name="Group 1183852" transform="translate(141.819 99.583) rotate(121)">
        <g id="Group_1183851" data-name="Group 1183851" transform="translate(0 0)" clip-path="url(#clip-path-4)">
          <path id="Path_1004502" data-name="Path 1004502" d="M26.673,42.1c.007,11.794,7.951,21.361,17.743,21.367s20.311-9.152,20.3-20.947S62.615,19.86,49.286,9.783C23.165-9.965-4.792,5.8.7,8.777c28.484,15.468,25.973,28,25.977,33.32" transform="translate(0.005 0.013)" fill="none" stroke="#f7ceff" stroke-width="1"/>
        </g>
      </g>
      <g id="Group_1183854" data-name="Group 1183854" transform="translate(-23.956 27.693) rotate(-59)">
        <g id="Group_1183853" data-name="Group 1183853" transform="translate(0 0)" clip-path="url(#clip-path-5)">
          <path id="Path_1004503" data-name="Path 1004503" d="M26.673,42.1c.007,11.794,7.951,21.361,17.743,21.367s20.311-9.152,20.3-20.947S62.615,19.86,49.286,9.783C23.165-9.965-4.792,5.8.7,8.777c28.484,15.468,25.973,28,25.977,33.32" transform="translate(0.005 0.013)" fill="none" stroke="#fde6ff" stroke-width="1"/>
        </g>
      </g>
    </g>
    <g id="Group_1183941" data-name="Group 1183941" transform="translate(0 121.37) rotate(-90)" clip-path="url(#clip-path-6)">
      <g id="Group_1183940" data-name="Group 1183940" transform="translate(2.965)">
        <g id="Group_1183942" data-name="Group 1183942">
          <g id="Group_1183911" data-name="Group 1183911" opacity="0.7">
            <g id="Group_1183910" data-name="Group 1183910">
              <g id="Group_1183909" data-name="Group 1183909" clip-path="url(#clip-path-7)">
                <path id="Path_1004522" data-name="Path 1004522" d="M5.371,2.252H3.987V.867a.867.867,0,0,0-1.735,0V2.252H.867a.867.867,0,0,0,0,1.735H2.252V5.371a.867.867,0,1,0,1.735,0V3.987H5.371a.867.867,0,1,0,0-1.735" transform="translate(0 0)" fill="#217365"/>
              </g>
            </g>
          </g>
          <g id="Group_1183914" data-name="Group 1183914" transform="translate(0 12.226)" opacity="0.7">
            <g id="Group_1183913" data-name="Group 1183913">
              <g id="Group_1183912" data-name="Group 1183912" clip-path="url(#clip-path-7)">
                <path id="Path_1004523" data-name="Path 1004523" d="M5.371,2.252H3.987V.867a.867.867,0,0,0-1.735,0V2.252H.867a.867.867,0,0,0,0,1.735H2.252V5.371a.867.867,0,0,0,1.735,0V3.987H5.371a.867.867,0,1,0,0-1.735" fill="#217365"/>
              </g>
            </g>
          </g>
          <g id="Group_1183917" data-name="Group 1183917" transform="translate(0 24.452)" opacity="0.7">
            <g id="Group_1183916" data-name="Group 1183916">
              <g id="Group_1183915" data-name="Group 1183915" clip-path="url(#clip-path-7)">
                <path id="Path_1004524" data-name="Path 1004524" d="M5.371,2.252H3.987V.867a.867.867,0,0,0-1.735,0V2.252H.867a.867.867,0,0,0,0,1.735H2.252V5.371a.867.867,0,1,0,1.735,0V3.987H5.371a.867.867,0,1,0,0-1.735" transform="translate(0 0)" fill="#217365"/>
              </g>
            </g>
          </g>
          <g id="Group_1183923" data-name="Group 1183923" transform="translate(10.521)" opacity="0.7">
            <g id="Group_1183922" data-name="Group 1183922">
              <g id="Group_1183921" data-name="Group 1183921" clip-path="url(#clip-path-7)">
                <path id="Path_1004526" data-name="Path 1004526" d="M5.371,2.252H3.986V.867a.867.867,0,0,0-1.735,0V2.252H.867a.867.867,0,0,0,0,1.735H2.252V5.371a.867.867,0,1,0,1.735,0V3.987H5.371a.867.867,0,1,0,0-1.735" transform="translate(0 0)" fill="#217365"/>
              </g>
            </g>
          </g>
          <g id="Group_1183926" data-name="Group 1183926" transform="translate(10.521 12.226)" opacity="0.7">
            <g id="Group_1183925" data-name="Group 1183925">
              <g id="Group_1183924" data-name="Group 1183924" clip-path="url(#clip-path-7)">
                <path id="Path_1004527" data-name="Path 1004527" d="M5.371,2.252H3.986V.867a.867.867,0,0,0-1.735,0V2.252H.867a.867.867,0,0,0,0,1.735H2.252V5.371a.867.867,0,1,0,1.735,0V3.987H5.371a.867.867,0,1,0,0-1.735" transform="translate(0)" fill="#217365"/>
              </g>
            </g>
          </g>
          <g id="Group_1183932" data-name="Group 1183932" transform="translate(20.652)" opacity="0.7">
            <g id="Group_1183931" data-name="Group 1183931">
              <g id="Group_1183930" data-name="Group 1183930" clip-path="url(#clip-path-7)">
                <path id="Path_1004529" data-name="Path 1004529" d="M5.371,2.252H3.987V.867a.867.867,0,0,0-1.735,0V2.252H.867a.867.867,0,0,0,0,1.735H2.252V5.371a.867.867,0,1,0,1.735,0V3.987H5.371a.867.867,0,1,0,0-1.735" transform="translate(0 0)" fill="#217365"/>
              </g>
            </g>
          </g>
        </g>
      </g>
    </g>
    <g id="Group_1183963" data-name="Group 1183963" transform="translate(121.37 0.196) rotate(90)" clip-path="url(#clip-path-13)">
      <g id="Group_1183962" data-name="Group 1183962" transform="translate(2.965)">
        <g id="Group_1183961" data-name="Group 1183961">
          <g id="Group_1183945" data-name="Group 1183945" opacity="0.7">
            <g id="Group_1183944" data-name="Group 1183944">
              <g id="Group_1183943" data-name="Group 1183943" clip-path="url(#clip-path-7)">
                <path id="Path_1004530" data-name="Path 1004530" d="M5.371,2.252H3.987V.867a.867.867,0,0,0-1.735,0V2.252H.867a.867.867,0,0,0,0,1.735H2.252V5.371a.867.867,0,1,0,1.735,0V3.987H5.371a.867.867,0,1,0,0-1.735" transform="translate(0 0)" fill="#217365"/>
              </g>
            </g>
          </g>
          <g id="Group_1183948" data-name="Group 1183948" transform="translate(0 12.226)" opacity="0.7">
            <g id="Group_1183947" data-name="Group 1183947">
              <g id="Group_1183946" data-name="Group 1183946" clip-path="url(#clip-path-7)">
                <path id="Path_1004531" data-name="Path 1004531" d="M5.371,2.252H3.987V.867a.867.867,0,0,0-1.735,0V2.252H.867a.867.867,0,0,0,0,1.735H2.252V5.371a.867.867,0,0,0,1.735,0V3.987H5.371a.867.867,0,1,0,0-1.735" fill="#217365"/>
              </g>
            </g>
          </g>
          <g id="Group_1183951" data-name="Group 1183951" transform="translate(0 24.452)" opacity="0.7">
            <g id="Group_1183950" data-name="Group 1183950">
              <g id="Group_1183949" data-name="Group 1183949" clip-path="url(#clip-path-7)">
                <path id="Path_1004532" data-name="Path 1004532" d="M5.371,2.252H3.987V.867a.867.867,0,0,0-1.735,0V2.252H.867a.867.867,0,0,0,0,1.735H2.252V5.371a.867.867,0,1,0,1.735,0V3.987H5.371a.867.867,0,1,0,0-1.735" transform="translate(0 0)" fill="#217365"/>
              </g>
            </g>
          </g>
          <g id="Group_1183954" data-name="Group 1183954" transform="translate(10.521)" opacity="0.7">
            <g id="Group_1183953" data-name="Group 1183953">
              <g id="Group_1183952" data-name="Group 1183952" clip-path="url(#clip-path-7)">
                <path id="Path_1004533" data-name="Path 1004533" d="M5.371,2.252H3.986V.867a.867.867,0,0,0-1.735,0V2.252H.867a.867.867,0,0,0,0,1.735H2.252V5.371a.867.867,0,1,0,1.735,0V3.987H5.371a.867.867,0,1,0,0-1.735" transform="translate(0 0)" fill="#217365"/>
              </g>
            </g>
          </g>
          <g id="Group_1183957" data-name="Group 1183957" transform="translate(10.521 12.226)" opacity="0.7">
            <g id="Group_1183956" data-name="Group 1183956">
              <g id="Group_1183955" data-name="Group 1183955" clip-path="url(#clip-path-7)">
                <path id="Path_1004534" data-name="Path 1004534" d="M5.371,2.252H3.986V.867a.867.867,0,0,0-1.735,0V2.252H.867a.867.867,0,0,0,0,1.735H2.252V5.371a.867.867,0,1,0,1.735,0V3.987H5.371a.867.867,0,1,0,0-1.735" transform="translate(0)" fill="#217365"/>
              </g>
            </g>
          </g>
          <g id="Group_1183960" data-name="Group 1183960" transform="translate(20.652)" opacity="0.7">
            <g id="Group_1183959" data-name="Group 1183959">
              <g id="Group_1183958" data-name="Group 1183958" clip-path="url(#clip-path-7)">
                <path id="Path_1004535" data-name="Path 1004535" d="M5.371,2.252H3.987V.867a.867.867,0,0,0-1.735,0V2.252H.867a.867.867,0,0,0,0,1.735H2.252V5.371a.867.867,0,1,0,1.735,0V3.987H5.371a.867.867,0,1,0,0-1.735" transform="translate(0 0)" fill="#217365"/>
              </g>
            </g>
          </g>
        </g>
      </g>
    </g>
  </g>
  <g id="Group_1179625" data-name="Group 1179625" transform="translate(8.72 8.663)">
    <g id="Group_1179624" data-name="Group 1179624" transform="translate(0)">
      <rect id="Rectangle_455622" data-name="Rectangle 455622" width="19.124" height="15.308" transform="translate(14.171 52.73)" fill="#88fede"/>
      <g id="Group_1179619" data-name="Group 1179619">
        <g id="Group_1179526" data-name="Group 1179526" clip-path="url(#clip-path-20)">
          <path id="Path_1002449" data-name="Path 1002449" d="M104.32,52.16A52.16,52.16,0,1,1,52.16,0a52.16,52.16,0,0,1,52.16,52.16" transform="translate(0.013 0)" fill="#fff"/>
        </g>
      </g>
    </g>
  </g>
  <g id="Group_1179626" data-name="Group 1179626" transform="translate(23.782 22.626)">
    <g id="Group_1099776" data-name="Group 1099776" transform="translate(0 0)">
      <g id="Group_1099618" data-name="Group 1099618" transform="translate(-2.071 0.373)">
        <rect id="Rectangle_401104" data-name="Rectangle 401104" width="74.893" height="75.795" fill="none"/>
      </g>
      <g id="Group_1184392" data-name="Group 1184392" transform="translate(-2.071 0.373)">
        <g id="Group_1184392-2" data-name="Group 1184392" clip-path="url(#clip-path-21)">
          <path id="Path_1005407" data-name="Path 1005407" d="M72.07,75.781,44.7,75.795c-1.6-.045-3.232-1.044-3.247-2.746l-.073-8.4-40.121,0A1.214,1.214,0,0,1,0,63.487V23.674A1.147,1.147,0,0,1,1.214,22.5l20.009-.011c.029-1.735.085-3.6-.016-5.321a12.7,12.7,0,1,1,23.757.065l-.033,5.261,19.9-.01a1.238,1.238,0,0,1,1.4,1.387l.025,12.515,5.97.074a3,3,0,0,1,3.007,3.107l.006,32.886a3.121,3.121,0,0,1-3.164,3.326M43.355,12.7A10.252,10.252,0,1,0,33.1,22.948,10.252,10.252,0,0,0,43.355,12.7M39.762,48.58l.031,13.6,1.611-.02L41.4,39.184a4.923,4.923,0,0,1,1.1-2.119l-.01-15.776a12.755,12.755,0,0,1-18.833-.077l0,41,2.779.01.04-13.741a3.681,3.681,0,0,1,3.6-3.359l6.116.017a3.671,3.671,0,0,1,3.573,3.437M21.254,24.908H2.437V62.233H21.254ZM54.561,35.352a4.013,4.013,0,0,1,3.877-2.305,4.1,4.1,0,0,1,3.6,2.22l1.747.065,0-10.427-18.844,0,0,11.525,5.208-.018c.23-.482.7-1,1.054-1.008Zm9.451,4.719,0-2.237-2.835,0c-1.311,0-.855-2.441-2.952-2.36-1.851.071-1.434,2.372-2.958,2.368l-2.692-.006.037,2.235Zm2.439,1.5c-.006.407-.695.957-1.16.957l-13.917,0a1.332,1.332,0,0,1-1.237-1.184L50.1,38.855l-6.293.111L43.8,72.658a.968.968,0,0,0,.9.688l28.09-.028V38.979l-6.3-.121ZM37.327,62.216l0-13.5a1.629,1.629,0,0,0-1.363-1.191l-5.859.014a1.378,1.378,0,0,0-1.222,1.407l.006,13.294Z" transform="translate(0 0)" fill="#7b1a8a"/>
          <path id="Path_1005408" data-name="Path 1005408" d="M239.182,206.218a8.6,8.6,0,1,1-8.6-8.6,8.6,8.6,0,0,1,8.6,8.6m-2.441,0a6.157,6.157,0,1,0-6.157,6.157,6.157,6.157,0,0,0,6.157-6.157" transform="translate(-172.267 -153.357)" fill="#7b1a8a"/>
          <path id="Path_1005409" data-name="Path 1005409" d="M226.74,305.923l-24.183.005a1.381,1.381,0,0,1-1.163-.986c-.089-.48.262-1.443.925-1.443l24.582,0c.528,0,.964.838.939,1.221s-.458,1.2-1.1,1.2" transform="translate(-156.273 -235.518)" fill="#7b1a8a"/>
          <path id="Path_1005410" data-name="Path 1005410" d="M226.7,285.209l-24.381-.008c-.666,0-1.018-.939-.915-1.434a1.334,1.334,0,0,1,1.36-.982l23.893.008a1.335,1.335,0,0,1,1.188,1.178,1.3,1.3,0,0,1-1.145,1.237" transform="translate(-156.281 -219.445)" fill="#7b1a8a"/>
          <path id="Path_1005411" data-name="Path 1005411" d="M61.7,148.678c-.147,1.512-3.556,1.164-6.4,1.028-.47-.023-.958-.784-.958-1.2l0-5.261a1.758,1.758,0,0,1,.867-.891l5.46.023a1.2,1.2,0,0,1,1.033,1.117Zm-4.9-1.366h2.443v-2.541H56.8Z" transform="translate(-42.169 -110.467)" fill="#7b1a8a"/>
          <path id="Path_1005412" data-name="Path 1005412" d="M60.6,184.886l-5.163,0a1.237,1.237,0,0,1-1.091-1.156l-.007-5.03c0-.424.482-1.18.962-1.2,2.8-.128,6.39-.469,6.393,1.022L61.7,183.7c0,.407-.6,1.188-1.1,1.188m-3.8-2.445h2.443v-2.522H56.8Z" transform="translate(-42.165 -137.644)" fill="#7b1a8a"/>
          <path id="Path_1005413" data-name="Path 1005413" d="M25.81,148.534c0,1.738-3.2,1.332-6.289,1.251a1.44,1.44,0,0,1-1.114-1.256l-.007-4.995a1.315,1.315,0,0,1,1.087-1.115l5.23,0a1.252,1.252,0,0,1,1.087,1.118Zm-2.442-3.715H20.837v2.541h2.531Z" transform="translate(-14.278 -110.516)" fill="#7b1a8a"/>
          <path id="Path_1005414" data-name="Path 1005414" d="M24.607,184.873l-4.888,0a1.355,1.355,0,0,1-1.334-1.4l.011-4.766c0-1.752,3.181-1.335,6.268-1.258a1.394,1.394,0,0,1,1.13,1.256l0,4.993a1.354,1.354,0,0,1-1.189,1.168m-1.251-4.967H20.826v2.515h2.531Z" transform="translate(-14.267 -137.632)" fill="#7b1a8a"/>
          <path id="Path_1005415" data-name="Path 1005415" d="M24.494,221.188l-4.769,0a1.3,1.3,0,0,1-1.319-1.332v-4.762a1.263,1.263,0,0,1,1.131-1.243h5.141a1.255,1.255,0,0,1,1.137,1.242l0,4.982a1.325,1.325,0,0,1-1.318,1.117m-1.122-4.938H20.842v2.48h2.531Z" transform="translate(-14.283 -165.947)" fill="#7b1a8a"/>
          <path id="Path_1005416" data-name="Path 1005416" d="M60.462,221.142l-5.012-.011a1.256,1.256,0,0,1-1.09-1.091l-.006-4.979a1.233,1.233,0,0,1,1.337-1.274l4.96.016a1.265,1.265,0,0,1,1.055,1.055V220a1.27,1.27,0,0,1-1.244,1.144m-3.652-2.426h2.444v-2.512H56.811Z" transform="translate(-42.179 -165.902)" fill="#7b1a8a"/>
          <path id="Path_1005417" data-name="Path 1005417" d="M155.628,158.123l-5.38-.011A1.409,1.409,0,0,1,149.1,157l0-5.016a1.4,1.4,0,0,1,1.193-1.245l4.935-.01a1.328,1.328,0,0,1,1.292,1.291l.011,4.749a1.794,1.794,0,0,1-.909,1.352m-1.535-4.948h-2.531v2.536h2.531Z" transform="translate(-115.705 -116.969)" fill="#7b1a8a"/>
          <path id="Path_1005418" data-name="Path 1005418" d="M119.538,158.145l-4.755,0a1.3,1.3,0,0,1-1.309-1.356l0-4.754a1.314,1.314,0,0,1,1.113-1.271l5.132,0a1.309,1.309,0,0,1,1.139,1.251l0,4.775a1.317,1.317,0,0,1-1.321,1.35M118.4,153.2h-2.487v2.536H118.4Z" transform="translate(-88.057 -116.996)" fill="#7b1a8a"/>
          <path id="Path_1005419" data-name="Path 1005419" d="M119.716,122.406l-5.191-.009c-.361,0-1.028-.58-1.029-.958l-.014-5.185a1.25,1.25,0,0,1,1.213-1.216l4.942,0a1.266,1.266,0,0,1,1.228,1.208l-.019,5.18c0,.41-.686.976-1.131.975m-1.3-4.922h-2.487v2.482h2.487Z" transform="translate(-88.064 -89.271)" fill="#7b1a8a"/>
          <path id="Path_1005420" data-name="Path 1005420" d="M155.272,122.4h-5a1.273,1.273,0,0,1-1.146-1.158v-5.005a1.3,1.3,0,0,1,1.293-1.2l4.757,0a1.344,1.344,0,0,1,1.363,1.224l.019,4.744a1.351,1.351,0,0,1-1.284,1.4m-3.7-2.437h2.534v-2.478h-2.534Z" transform="translate(-115.721 -89.267)" fill="#7b1a8a"/>
          <path id="Path_1005421" data-name="Path 1005421" d="M122.83,36.817h-5.989a1.17,1.17,0,0,1-1.132-1.062l.015-2.788-2.7,0a1.3,1.3,0,0,1-1.216-1.129l-.019-6c0-.407.537-1.19.928-1.2l3.013-.072-.031-2.593a1.28,1.28,0,0,1,1.15-1.248h6.045c.357,0,1.081.517,1.086.879l.038,2.991,2.644.006a1.274,1.274,0,0,1,1.241,1.2l.009,5.909c0,.438-.572,1.212-.977,1.22l-2.94.054.028,2.52a1.261,1.261,0,0,1-1.193,1.307m-1.247-2.426-.035-2.567a1.4,1.4,0,0,1,1.082-1.276l2.833-.062,0-3.424-2.579,0a1.365,1.365,0,0,1-1.326-1.407l.017-2.491-3.437,0,0,2.474a1.356,1.356,0,0,1-1.242,1.419l-2.649,0v3.45l2.668.013a1.278,1.278,0,0,1,1.2,1.145l.025,2.725Z" transform="translate(-86.749 -16.086)" fill="#7b1a8a"/>
          <path id="Path_1005422" data-name="Path 1005422" d="M258.411,161.327a.808.808,0,1,1-.808-.808.808.808,0,0,1,.808.808" transform="translate(-199.276 -124.564)" fill="#7b1a8a"/>
          <path id="Path_1005423" data-name="Path 1005423" d="M242.077,227.252l-2.3-2.284a1.43,1.43,0,0,1,.061-1.522c.3-.351,1.2-.549,1.5-.274l1.513,1.389,3.78-3.423c.586-.531,1.283-.8,1.908-.243a1.259,1.259,0,0,1-.062,1.875l-4.851,4.386a1.418,1.418,0,0,1-1.548.1" transform="translate(-185.922 -171.179)" fill="#7b1a8a"/>
        </g>
      </g>
    </g>
  </g>
</svg>
