<svg xmlns="http://www.w3.org/2000/svg" xmlns:xlink="http://www.w3.org/1999/xlink" width="396" height="190" viewBox="0 0 396 190">
  <defs>
    <clipPath id="clip-path">
      <rect id="Rectangle_459929" data-name="Rectangle 459929" width="297.438" height="181.993" fill="none"/>
    </clipPath>
    <clipPath id="clip-path-3">
      <rect id="Rectangle_459919" data-name="Rectangle 459919" width="297.438" height="161.935" fill="none"/>
    </clipPath>
    <clipPath id="clip-path-4">
      <rect id="Rectangle_459920" data-name="Rectangle 459920" width="8.698" height="17.163" fill="none"/>
    </clipPath>
    <clipPath id="clip-path-6">
      <rect id="Rectangle_459926" data-name="Rectangle 459926" width="12.934" height="24.534" fill="#eec212"/>
    </clipPath>
    <clipPath id="clip-path-7">
      <rect id="Rectangle_459927" data-name="Rectangle 459927" width="13.801" height="20.224" fill="none"/>
    </clipPath>
  </defs>
  <g id="img14" transform="translate(-114.148 -3255.412)">
    <path id="Path_1005788" data-name="Path 1005788" d="M0,0H395.3V190H0Z" transform="translate(114.148 3255.412)" fill="#fdffbd"/>
    <rect id="Rectangle_402030" data-name="Rectangle 402030" width="396" height="49.772" transform="translate(114.148 3395.64)" fill="#f7ceff"/>
    <g id="Group_1185236" data-name="Group 1185236" transform="translate(156.71 3260.419)">
      <g id="Group_1185235" data-name="Group 1185235" clip-path="url(#clip-path)">
        <g id="Group_1185223" data-name="Group 1185223" transform="translate(0 0)">
          <g id="Group_1185222" data-name="Group 1185222" clip-path="url(#clip-path)">
            <g id="Group_1185218" data-name="Group 1185218" transform="translate(0 19.995)" opacity="0.2">
              <g id="Group_1185217" data-name="Group 1185217">
                <g id="Group_1185216" data-name="Group 1185216" clip-path="url(#clip-path-3)">
                  <path id="Path_1005975" data-name="Path 1005975" d="M297.438,336.127c-2.24-38.1-39.323-40.065-51.753-41.694s-10.223-54.282-46.263-53.2h0a36.876,36.876,0,0,0-21.295,6.5,6.232,6.232,0,0,1-9.765-5.388V217.879c0-24.027-18.088-43.686-40.2-43.686h0c-22.108,0-40.2,19.659-40.2,43.686,0,14.383-12.038,25.582-25.646,23.722a39.775,39.775,0,0,0-5.386-.364h0c-17.731,0-32.239,11.665-32.239,25.922v4.62a2.313,2.313,0,0,1-2.258,2.365h-.023c-12.33,0-22.419,7.741-22.419,17.2v44.761l231.661.021Z" transform="translate(0 -174.193)" fill="#e1c563"/>
                </g>
              </g>
            </g>
            <g id="Group_1185221" data-name="Group 1185221" transform="translate(63.497 65.227)" opacity="0.2">
              <g id="Group_1185220" data-name="Group 1185220">
                <g id="Group_1185219" data-name="Group 1185219" clip-path="url(#clip-path-4)">
                  <path id="Path_1005976" data-name="Path 1005976" d="M559.409,585.4s-10.491-4.464-4.287-17.163c0,0,11.671,7.588,4.287,17.163" transform="translate(-553.159 -568.234)" fill="#dfc364"/>
                </g>
              </g>
            </g>
          </g>
        </g>
        <rect id="Rectangle_459922" data-name="Rectangle 459922" width="124.73" height="181.977" transform="translate(80.738 0)" fill="#5bdfc4"/>
        <rect id="Rectangle_459923" data-name="Rectangle 459923" width="108.856" height="162.839" transform="translate(88.674 8.506)" fill="#dce1f1"/>
        <rect id="Rectangle_459924" data-name="Rectangle 459924" width="59.862" height="10.778" transform="translate(113.171 0)" fill="#217365"/>
        <path id="Path_1005977" data-name="Path 1005977" d="M862.673,590.9H844.852V573.076h17.821Zm-16.323-1.5h14.824V574.574H846.35Z" transform="translate(-747.871 -507.292)" fill="#cbd0e6"/>
        <g id="Group_1185234" data-name="Group 1185234" transform="translate(0 0)">
          <g id="Group_1185233" data-name="Group 1185233" clip-path="url(#clip-path)">
            <path id="Path_1005978" data-name="Path 1005978" d="M1166.626,610.325h-60.735a1.094,1.094,0,0,1-1.091-1.091h0a1.094,1.094,0,0,1,1.091-1.091h60.735a1.094,1.094,0,0,1,1.091,1.091h0a1.094,1.094,0,0,1-1.091,1.091" transform="translate(-977.979 -538.334)" fill="#cbd0e6"/>
            <path id="Path_1005979" data-name="Path 1005979" d="M1166.626,643.376h-60.735a1.091,1.091,0,1,1,0-2.182h60.735a1.091,1.091,0,1,1,0,2.182" transform="translate(-977.979 -567.591)" fill="#cbd0e6"/>
            <path id="Path_1005980" data-name="Path 1005980" d="M1146.126,676.425h-40.235a1.091,1.091,0,0,1,0-2.182h40.235a1.091,1.091,0,1,1,0,2.182" transform="translate(-977.979 -596.847)" fill="#cbd0e6"/>
            <path id="Path_1005981" data-name="Path 1005981" d="M879.852,545.675a102.294,102.294,0,0,1,4.086,10.391s4.907-14.159,9.717-17.79c0,0-8.219,6.378-9.99,10.668Z" transform="translate(-778.853 -476.487)" fill="#5bdfc4"/>
            <path id="Path_1005982" data-name="Path 1005982" d="M862.673,262.5H844.852V244.68h17.821ZM846.35,261h14.824V246.178H846.35Z" transform="translate(-747.871 -216.594)" fill="#cbd0e6"/>
            <path id="Path_1005983" data-name="Path 1005983" d="M1166.626,281.929h-60.735a1.094,1.094,0,0,1-1.091-1.091h0a1.094,1.094,0,0,1,1.091-1.091h60.735a1.094,1.094,0,0,1,1.091,1.091h0a1.094,1.094,0,0,1-1.091,1.091" transform="translate(-977.979 -247.635)" fill="#cbd0e6"/>
            <path id="Path_1005984" data-name="Path 1005984" d="M1166.626,314.98h-60.735a1.091,1.091,0,1,1,0-2.182h60.735a1.091,1.091,0,1,1,0,2.182" transform="translate(-977.979 -276.892)" fill="#cbd0e6"/>
            <path id="Path_1005985" data-name="Path 1005985" d="M1146.126,348.03h-40.235a1.091,1.091,0,1,1,0-2.182h40.235a1.091,1.091,0,1,1,0,2.182" transform="translate(-977.979 -306.148)" fill="#cbd0e6"/>
            <path id="Path_1005986" data-name="Path 1005986" d="M879.852,217.278a102.308,102.308,0,0,1,4.086,10.391s4.907-14.158,9.717-17.79c0,0-8.219,6.378-9.99,10.668Z" transform="translate(-778.853 -185.786)" fill="#5bdfc4"/>
            <path id="Path_1005987" data-name="Path 1005987" d="M1166.626,915h-60.735a1.091,1.091,0,0,1,0-2.182h60.735a1.091,1.091,0,1,1,0,2.182" transform="translate(-977.979 -808.035)" fill="#cbd0e6"/>
            <path id="Path_1005988" data-name="Path 1005988" d="M1166.626,948.049h-60.735a1.091,1.091,0,1,1,0-2.182h60.735a1.091,1.091,0,1,1,0,2.182" transform="translate(-977.979 -837.291)" fill="#cbd0e6"/>
            <path id="Path_1005989" data-name="Path 1005989" d="M1146.126,981.1h-40.235a1.091,1.091,0,0,1,0-2.182h40.235a1.091,1.091,0,1,1,0,2.182" transform="translate(-977.979 -866.547)" fill="#cbd0e6"/>
            <path id="Path_1005990" data-name="Path 1005990" d="M862.673,917.587H844.852V899.766h17.821Zm-16.323-1.5h14.824V901.264H846.35Z" transform="translate(-747.871 -796.482)" fill="#cbd0e6"/>
            <path id="Path_1005991" data-name="Path 1005991" d="M879.852,875.777a102.294,102.294,0,0,1,4.086,10.391s4.907-14.159,9.717-17.79c0,0-8.219,6.378-9.99,10.668Z" transform="translate(-778.853 -768.696)" fill="#5bdfc4"/>
            <path id="Path_1005992" data-name="Path 1005992" d="M862.673,1245.983H844.852v-17.821h17.821Zm-16.323-1.5h14.824v-14.824H846.35Z" transform="translate(-747.871 -1087.182)" fill="#cbd0e6"/>
            <path id="Path_1005993" data-name="Path 1005993" d="M1166.626,1243.4h-60.735a1.094,1.094,0,0,1-1.091-1.091h0a1.094,1.094,0,0,1,1.091-1.091h60.735a1.1,1.1,0,0,1,1.091,1.091h0a1.094,1.094,0,0,1-1.091,1.091" transform="translate(-977.979 -1098.734)" fill="#cbd0e6"/>
            <path id="Path_1005994" data-name="Path 1005994" d="M1166.626,1276.445h-60.735a1.091,1.091,0,0,1,0-2.182h60.735a1.091,1.091,0,1,1,0,2.182" transform="translate(-977.979 -1127.99)" fill="#cbd0e6"/>
            <path id="Path_1005995" data-name="Path 1005995" d="M1146.126,1309.5h-40.235a1.091,1.091,0,1,1,0-2.182h40.235a1.091,1.091,0,1,1,0,2.182" transform="translate(-977.979 -1157.247)" fill="#cbd0e6"/>
            <path id="Path_1005996" data-name="Path 1005996" d="M879.852,1204.173a102.319,102.319,0,0,1,4.086,10.391s4.907-14.158,9.717-17.79c0,0-8.219,6.378-9.99,10.668Z" transform="translate(-778.853 -1059.395)" fill="#5bdfc4"/>
            <path id="Path_1005997" data-name="Path 1005997" d="M382.4,1552.205l1,3.63h9.917s-2.537-4.9-10.916-3.63" transform="translate(-338.501 -1373.842)" fill="#272253"/>
            <path id="Path_1005998" data-name="Path 1005998" d="M200.222,1552.205l1,3.63h9.917s-2.537-4.9-10.916-3.63" transform="translate(-177.238 -1373.842)" fill="#272253"/>
            <path id="Path_1005999" data-name="Path 1005999" d="M195.675,987.04s-6.649,47.242-4.558,65.887h8.724l9.131-61.552Z" transform="translate(-168.819 -873.738)" fill="#2f2c60"/>
            <path id="Path_1006000" data-name="Path 1006000" d="M247.19,991.018l8.209,61.909h-9.255s-20.811-57.353-16.574-65.887Z" transform="translate(-202.714 -873.738)" fill="#373482"/>
            <path id="Path_1006002" data-name="Path 1006002" d="M269.64,437.426a36.177,36.177,0,0,0-70.3,16.927l-68.373,19.154a1.141,1.141,0,0,0-.789,1.4l.608,2.171a1.141,1.141,0,0,0,1.4.789l68.324-19.141a36.177,36.177,0,0,0,69.122-21.3m-25.919,41.226a32.706,32.706,0,1,1,22.671-40.316,32.706,32.706,0,0,1-22.671,40.316" transform="translate(-115.203 -363.821)" fill="#373482"/>
            <path id="Path_1006003" data-name="Path 1006003" d="M316.231,1033.236a7.064,7.064,0,0,0,6.247-3.408,7.374,7.374,0,0,1-6.406,3.167l0,.24h.163" transform="translate(-279.786 -911.614)" fill="#272253"/>
            <path id="Path_1006004" data-name="Path 1006004" d="M331.332,1126.772a184.838,184.838,0,0,1-5.454-18.1c-.249-1.005-.5-2.04-.74-3.076-.267-1.143-.53-2.3-.78-3.442a4.557,4.557,0,0,1-.005-1.31,4.394,4.394,0,0,0,0-1.192c-.918-4.342-1.542-8.34-2.094-11.866q-.217-1.387-.429-2.718c-1.29-8.016-2.052-12.555-2.062-12.6.011.044,1.061,4.533,2.352,12.559q.214,1.332.429,2.719c.551,3.524,1.175,7.517,2.091,11.852a4.576,4.576,0,0,1,0,1.272,4.384,4.384,0,0,0,0,1.228c.25,1.14.513,2.3.779,3.438.242,1.035.491,2.068.739,3.072,1.626,6.566,3.355,12.909,5.253,18.153Z" transform="translate(-283.063 -949.365)" fill="#2f2c60"/>
            <path id="Path_1006005" data-name="Path 1006005" d="M372.237,573.065a15.041,15.041,0,0,1-1.1,5.243s-3.92-1.047-5.094-1.553a11.619,11.619,0,0,1-1.861-1.441,17.353,17.353,0,0,0,2.2-6.148c.506-3.479,5.85,3.9,5.85,3.9" transform="translate(-322.377 -503.006)" fill="#945c2e"/>
            <path id="Path_1006006" data-name="Path 1006006" d="M385.481,510.524s-8.153.373-8.307-4.708-1.31-8.455,3.889-8.907,6.27,1.455,6.733,3.139-.2,10.249-2.316,10.477" transform="translate(-333.687 -439.809)" fill="#a36d3c"/>
            <path id="Path_1006007" data-name="Path 1006007" d="M209.268,626.955s-10.715,11.186-15.013,19.934c0,0,2.149,6.853,11.838,17.194,0,0,.138-.874.542-3.33.08-.483-3.606-8.931-6.893-13.631,0,0,7.629-4.82,9.643-8.77s-.116-11.4-.116-11.4" transform="translate(-171.956 -554.987)" fill="#945c2e"/>
            <path id="Path_1006008" data-name="Path 1006008" d="M366.6,497.569s3.863-6.893,10.3-7.317c0,0,2.835-1.135,2.835-2.668,0,0-9.157-2.7-12.489,0-5,4.051-.645,9.984-.645,9.984" transform="translate(-322.966 -430.552)" fill="#373482"/>
            <path id="Path_1006009" data-name="Path 1006009" d="M438.24,678.341c-1.231.243-.74.319-2.479.625s-3.259,1.349-3.631,2.559l-12.829.36c1.007-4.571.929-21.765.232-23.159s-7.372-2.737-7.372-2.737l-1.636,8.063s2.038,20.33,3.974,22.247,19.616-3.012,19.616-3.012a4.848,4.848,0,0,0,4.965-3.55s.391-1.639-.84-1.4" transform="translate(-363.401 -580.688)" fill="#945c2e"/>
            <path id="Path_1006010" data-name="Path 1006010" d="M200.336,626.955s-12.005,15.887-12.934,19.9a25.613,25.613,0,0,0,3,4.639l4.509-2.46s-.748-1.523-.9-1.772c0,0-.087-.087.421-.363s3.035-1.99,3.035-1.99Z" transform="translate(-165.89 -554.987)" fill="#d1872b"/>
            <g id="Group_1185229" data-name="Group 1185229" transform="translate(21.512 71.968)" opacity="0.2">
              <g id="Group_1185228" data-name="Group 1185228">
                <g id="Group_1185227" data-name="Group 1185227" clip-path="url(#clip-path-6)">
                  <path id="Path_1006011" data-name="Path 1006011" d="M200.336,626.955s-12.005,15.887-12.934,19.9a31.371,31.371,0,0,0,3,4.639l4.509-2.46s-.748-1.523-.9-1.772c0,0-.087-.087.421-.363s3.035-1.99,3.035-1.99Z" transform="translate(-187.402 -626.955)" fill="#eec212"/>
                </g>
              </g>
            </g>
            <path id="Path_1006012" data-name="Path 1006012" d="M230.058,667.5c1.524,3.078,18.24,4.468,19.285,3.887s.315-4.47.465-6.1c.331-3.594,2.113-7.731,2.535-9.071.05-.163.079-.252.079-.252.029,1.685,2.12,4.573,2.12,4.573,3.979.392,11.22-1.465,11.22-1.465-.023-.159-.041-.317-.053-.473a8.908,8.908,0,0,1,.422-3.475c-.616-.045-4.823-.014-5.961,0a.27.27,0,0,1-.272-.282l.65-6.307c1.416-12.646-1.058-17.187-1.058-17.187-1.936-1.549-7.241-2.749-7.241-2.749a16.789,16.789,0,0,1-7.241-2.091s-6.274-.7-7.359-.339-3.117,13.041-3.59,18.026a151.458,151.458,0,0,1-4,19.1c-1.011,2.811-.232,3.737,0,4.207" transform="translate(-203.202 -554.199)" fill="#eec212"/>
            <g id="Group_1185232" data-name="Group 1185232" transform="translate(48.76 86.171)" opacity="0.2">
              <g id="Group_1185231" data-name="Group 1185231">
                <g id="Group_1185230" data-name="Group 1185230" clip-path="url(#clip-path-7)">
                  <path id="Path_1006013" data-name="Path 1006013" d="M425.235,766.278c.029,1.685,2.12,4.573,2.12,4.573,3.979.392,11.22-1.465,11.22-1.465-.023-.159-.041-.317-.054-.473-1.33.144-9.249.974-10.179.415,0,0-3.18-2.9-3.568-18.646Z" transform="translate(-424.775 -750.681)" fill="#a1431f"/>
                </g>
              </g>
            </g>
            <path id="Path_1006014" data-name="Path 1006014" d="M1472.476,207.13s49.849-8.921,85.956.1c0,0,9.742,80.844-42.911,103.182,0,0-51.722-19.115-43.045-103.283" transform="translate(-1302.581 -179.871)" fill="#fff"/>
            <path id="Path_1006015" data-name="Path 1006015" d="M1528.359,262.306s45.717-5.866,73.633,0c0,0,9.322,65.659-35.811,89.933,0,0-41.341-11.716-37.822-89.933" transform="translate(-1352.729 -229.889)" fill="#7b1a8a"/>
            <path id="Path_1006016" data-name="Path 1006016" d="M1721.494,426.178h-13.7V412.817h-12.547v13.361h-13.022v12.547h13.022v13.361h12.547V438.724h13.7Z" transform="translate(-1489.122 -365.43)" fill="#fff"/>
            <path id="Path_1006017" data-name="Path 1006017" d="M2263.816,575.556c2.185-2.167,1.9-19.009,1.929-20.038.073-2.975,1.2-4.217,1.2-4.217,3.767-2.23,9.969-2.377,12.324,3.634,1.511,3.857,5.377,11.355,5.377,11.355,15.8,21.921,9.521,32.736,9.521,32.736l-.675-.074a3.571,3.571,0,0,0,.179-2.162l-.644,2.147-11.671-1.5a35.4,35.4,0,0,0-.989-5.74l-.055,5.936-1.566.083c.62-12.517-2.04-18.663-2.827-20.186.676,6.959-2.692,18.306-2.692,18.306l-.483-.109,1.094-5.673-1.4,5.6-1.356-.308q.324-1.133.6-2.211c-.373,1.386-.6,2.211-.6,2.211-2.907-3.164-8.233-2.884-8.233-2.884-2.9-4.068.971-16.907.971-16.907" transform="translate(-2002.14 -486.763)" fill="#7b1a8a"/>
            <path id="Path_1006018" data-name="Path 1006018" d="M2220.84,1500.069l-3.405,6.8-2.773-1.069.637-6.936Z" transform="translate(-1960.44 -1326.805)" fill="#dcabb0"/>
            <path id="Path_1006019" data-name="Path 1006019" d="M2171.119,1557.2l-.928,3.069h-9.208s2.355-4.14,10.136-3.069" transform="translate(-1912.923 -1378.29)" fill="#c4541c"/>
            <path id="Path_1006020" data-name="Path 1006020" d="M2215.05,990.329l-7.274,59.581h7.713s10.064-25.767,11.508-52.618c.552-10.259-11.947-6.962-11.947-6.962" transform="translate(-1954.344 -876.202)" fill="#373482"/>
            <path id="Path_1006021" data-name="Path 1006021" d="M2393.012,1488.735l-1.578,5.542-2.951-.357-.653-8.47Z" transform="translate(-2113.731 -1314.935)" fill="#dcabb0"/>
            <path id="Path_1006022" data-name="Path 1006022" d="M2343.458,1557.2l-.928,3.069h-9.208s2.355-4.14,10.136-3.069" transform="translate(-2065.479 -1378.29)" fill="#c4541c"/>
            <path id="Path_1006023" data-name="Path 1006023" d="M2326.765,994.662h5.712l6.129-.857s3.921,8.566,1.9,33.952a164.3,164.3,0,0,1-4.843,26.623l-7.907-.163-3.414-47.346c-.1-1.3-1.611-1.763-1.611-1.763l.22-10.592Z" transform="translate(-2056.106 -879.726)" fill="#575ba3"/>
            <path id="Path_1006024" data-name="Path 1006024" d="M2409.763,1062.147c1.064-5.725,2-12.517,2.6-19.6.092-1.083.18-2.2.261-3.311.089-1.229.172-2.474.246-3.7a5.276,5.276,0,0,0-.189-1.376,5.062,5.062,0,0,1-.18-1.252c.245-4.661.258-8.927.27-12.691q0-1.481.012-2.9c.061-8.559.127-13.41.131-13.458,0,.048-.356,4.876-.417,13.448q-.01,1.422-.012,2.9c-.011,3.761-.024,8.023-.269,12.676a5.286,5.286,0,0,0,.188,1.336,5.05,5.05,0,0,1,.182,1.289c-.073,1.225-.156,2.468-.246,3.7-.081,1.113-.169,2.226-.261,3.307-.6,7.073-1.337,13.923-2.4,19.639Z" transform="translate(-2133.073 -888.625)" fill="#373482"/>
            <path id="Path_1006025" data-name="Path 1006025" d="M2319.705,647.155s.9,5.261-2.37,7.744c0,0,1.409,3.054,2.357,3.531,1.058.533,3.83.534,4.734-.232.933-.792,1.764-4.566,1.764-4.566a37.428,37.428,0,0,1-.568-8.278Z" transform="translate(-2051.327 -571.273)" fill="#cb7f83"/>
            <path id="Path_1006026" data-name="Path 1006026" d="M2311.185,580.752s7.217.33,7.353-4.168,1.159-7.484-3.443-7.884-5.549,1.288-5.96,2.778.176,9.072,2.05,9.274" transform="translate(-2043.958 -503.366)" fill="#dcabb0"/>
            <path id="Path_1006027" data-name="Path 1006027" d="M2271.14,745.876s.958.789,10.518,1.263q.933.046,1.773.065a34.153,34.153,0,0,0,7.257-.458,6.556,6.556,0,0,0,2.665-.918s-2.984-7.2-2.984-10.622c0-2.364-5.337-21.526-5.337-21.526a4.777,4.777,0,0,1-4.162,3.21c-4.844.036-2.955-3.218-2.955-3.218l-5.456,2.193a10.246,10.246,0,0,1,.423,3.986,4.939,4.939,0,0,1-.413,1.473c-.047.1-.1.2-.157.3-1.319,2.254-.416,6.163.55,10.691s-1.722,13.564-1.722,13.564" transform="translate(-2010.435 -631.749)" fill="#575ba3"/>
            <path id="Path_1006028" data-name="Path 1006028" d="M2081.491,732.77a142.482,142.482,0,0,0-8.592,16.979s-6.955-2.888-10.931-4.562l-.61-.257-1.3-.55a3.937,3.937,0,0,0-3.606-3.4s-1.367-.054-.98.888.371.54.887,1.876a3.7,3.7,0,0,0,2.607,2.492s.447.346,1.182.9h0c.219.164.465.347.732.544,3.309,2.441,9.94,7.1,12.012,6.872,2.8-.313,10.732-11.692,10.732-11.692Z" transform="translate(-1819.467 -648.655)" fill="#dcabb0"/>
            <path id="Path_1006029" data-name="Path 1006029" d="M2165.469,747.423s3.776,1.9,4.524,1.9,2.783-.987,4.923-3.538c.933-1.113,2.3-2.854,3.541-4.474,1.607-2.1,3-3.987,2.984-4.045-.035-.1-.783-10.579-.783-10.579a17.128,17.128,0,0,0-1.914.61c-.122.122-7.151,12.719-8.4,16.442l-4.185-1.257Z" transform="translate(-1916.894 -643.266)" fill="#dce1f1"/>
            <path id="Path_1006030" data-name="Path 1006030" d="M2253.375,733.688l-.9,40.295h-10.289s2.248-22.862,3.323-30.012c1.232-8.193,1.145-24.846,1.145-24.846s4.225-1.72,4.547-1.668,2.172,16.232,2.172,16.232" transform="translate(-1984.806 -635.098)" fill="#dce1f1"/>
            <path id="Path_1006031" data-name="Path 1006031" d="M2313.872,713.671s1.714,13.362,1.088,16.667l-2.7-9.016.609-1.076-1.113-.348.7-5.672a1.871,1.871,0,0,1,1.418-.555" transform="translate(-2046.391 -631.749)" fill="#cdd2ea"/>
            <path id="Path_1006032" data-name="Path 1006032" d="M2348.262,734.117V774s6.542-.118,11.6-.282a44.449,44.449,0,0,0,5.769-.344c0-.283-1.794-16.6-5.073-28.4a22.687,22.687,0,0,1-.745-8.074,50.926,50.926,0,0,1,1-7.229c0-.013.009-.025.012-.038s6.184,4.985,6.028,5.22-1.686,4.385-1.686,4.385,2.9,2.106,3.5,2.4c0,0,5.393-7.272,4.646-8.43,0,0-9.4-15.983-11.535-15.312-.605.19-6.925-.422-6.925-.422Z" transform="translate(-2078.704 -635.112)" fill="#dce1f1"/>
            <path id="Path_1006033" data-name="Path 1006033" d="M2353.569,715.981c-.263.264-5.3,16.648-5.3,16.648s4.628-7.9,4.976-8.073l-.517-.974,1.108-.557,1.009-7.044s-.84-.433-1.272,0" transform="translate(-2078.707 -633.624)" fill="#cdd2ea"/>
            <path id="Path_1006034" data-name="Path 1006034" d="M2310.672,560.953s8.852,6.822,8.07,11.86c-.735,4.733.659,5.155,1.694,5.607,2.672,1.165,7.032-1.146,8.421-1.077.988.049-2.407-.959-4.021-3.115-4.294-5.736-3.876-13.485-4.733-14.043-5.839-3.8-9.43.768-9.43.768" transform="translate(-2045.429 -494.544)" fill="#7b1a8a"/>
            <path id="Path_1006035" data-name="Path 1006035" d="M2155.976,859.338a52.079,52.079,0,0,1-1.114,5.582l1.3.667s.783-4.964.574-5.869Z" transform="translate(-1907.504 -760.695)" fill="#cdd2ea"/>
            <path id="Path_1006036" data-name="Path 1006036" d="M2422.456,841.184c.69,2.615,2.261,16.7,2.928,22.868a44.462,44.462,0,0,0,5.769-.344c0-.283-1.794-16.6-5.073-28.4a22.682,22.682,0,0,1-.745-8.074,50.923,50.923,0,0,1,1-7.229c-.453-.4-.975-.628-1.274-.377-.658.557-3.489,18.187-2.6,21.556" transform="translate(-2144.229 -725.45)" fill="#cdd2ea"/>
            <path id="Path_1006037" data-name="Path 1006037" d="M2422.653,907.06c-.094.52-2.889,5.49-3.413,6.418-.053.1-.083.148-.083.148l-.5.383a3.936,3.936,0,0,0-4.954-.012s-1.034.9-.108,1.318.639.14,1.93.762a3.7,3.7,0,0,0,3.606.033l.906-.7c.155-.12.438-.375.8-.715,1.741-1.635,5.309-5.238,5.309-5.238Z" transform="translate(-2136.199 -802.939)" fill="#dcabb0"/>
            <path id="Path_1006038" data-name="Path 1006038" d="M2165.469,845.838s3.776,1.9,4.524,1.9,2.783-.987,4.923-3.538c.933-1.113,2.3-2.854,3.541-4.474.173-.856.239-1.8-.342-1.861-1.044-.1-6.681,8.456-8.09,8.4s-4.556-.426-4.556-.426" transform="translate(-1916.894 -741.682)" fill="#cdd2ea"/>
            <path id="Path_1006039" data-name="Path 1006039" d="M2495.06,905.033l4.012,2.5a5.29,5.29,0,0,1-.541.54c-.018-.035-3.619-2.629-3.619-2.629Z" transform="translate(-2208.52 -801.144)" fill="#cdd2ea"/>
          </g>
        </g>
      </g>
    </g>
  </g>
</svg>
