<svg id="img17" xmlns="http://www.w3.org/2000/svg" xmlns:xlink="http://www.w3.org/1999/xlink" width="96.32" height="96.32" viewBox="0 0 96.32 96.32">
  <defs>
    <clipPath id="clip-path">
      <rect id="Rectangle_459903" data-name="Rectangle 459903" width="54.096" height="60.293" fill="#7b1a8a"/>
    </clipPath>
  </defs>
  <path id="Path_997400" data-name="Path 997400" d="M48.16,0A48.16,48.16,0,1,1,0,48.16,48.16,48.16,0,0,1,48.16,0Z" transform="translate(0)" fill="#f7ceff"/>
  <g id="Group_1099776" data-name="Group 1099776" transform="translate(18.06 18.059)">
    <g id="Group_1099618" data-name="Group 1099618" transform="translate(0.118 -0.331)">
      <rect id="Rectangle_401104" data-name="Rectangle 401104" width="59.576" height="60.293" transform="translate(0)" fill="none"/>
    </g>
    <g id="Group_1185199" data-name="Group 1185199" transform="translate(3.118 -0.331)">
      <g id="Group_1185198" data-name="Group 1185198" clip-path="url(#clip-path)">
        <path id="Path_1005889" data-name="Path 1005889" d="M173.194,159.773a1.241,1.241,0,0,1-1.276-1.26l.337-6.046c.041-.727,1.112-.993,1.953-.75l.128-7.493a3.6,3.6,0,0,1,1.339-2.827l8.677-8.239a3.105,3.105,0,0,1,3-.506l-.076-6.5a2.947,2.947,0,0,1,3.26-2.881c1.884.17,2.752,1.671,2.785,3.5l.251,13.967a3.643,3.643,0,0,1-1.391,2.884l-7.776,7,.042,1.571c.954-.245,2.044.178,2.009,1.087l-.219,5.587a1.678,1.678,0,0,1-.432,1.157,1.961,1.961,0,0,1-1.262.267Zm2.973-16.98a2.209,2.209,0,0,0-.468,1.246l-.088,7.7,7.462.337.1-2.15,8.238-7.405a2.25,2.25,0,0,0,.821-1.794l-.288-14.284a1.681,1.681,0,0,0-1.582-1.839,1.616,1.616,0,0,0-1.735,1.5l.105,7.637a3.041,3.041,0,0,1-.447,4.01l-4.935,4.766c-.327.315-.7.472-1.055.225a.793.793,0,0,1-.056-1l5.086-4.949a1.677,1.677,0,1,0-2.289-2.441Zm-2.646,10.153-.258,5.509,11.619.545.258-5.509Z" transform="translate(-139.482 -100.006)" fill="#7b1a8a"/>
        <path id="Path_1005890" data-name="Path 1005890" d="M20.385,159.782,9.033,160.3a1.934,1.934,0,0,1-1.262-.262,1.654,1.654,0,0,1-.423-1.154L7.1,153.426a1.348,1.348,0,0,1,.511-1.043,4.985,4.985,0,0,1,1.532-.271l.02-1.48-7.855-7.077A3.536,3.536,0,0,1,0,140.751l.253-13.966c.033-1.836.919-3.339,2.781-3.5a2.971,2.971,0,0,1,3.278,3.036l-.1,6.346a3.1,3.1,0,0,1,3.1.579l8.758,8.319a3.551,3.551,0,0,1,1.172,2.834l.124,7.337c.967-.28,1.942.066,1.984.87l.306,5.917a1.248,1.248,0,0,1-1.274,1.259M17.159,142.56l-8.7-8.283a1.674,1.674,0,1,0-2.2,2.52l5.089,4.951a.938.938,0,0,1,.028.929.818.818,0,0,1-.881.1l-4.959-4.764a3.178,3.178,0,0,1-.687-4.271l.117-7.467a1.624,1.624,0,0,0-1.747-1.662,1.683,1.683,0,0,0-1.578,1.838l-.288,14.282a2.307,2.307,0,0,0,.908,1.874l8.153,7.326a13.3,13.3,0,0,1,.117,2.16l7.45-.358-.089-7.36a2.131,2.131,0,0,0-.728-1.815m2.9,10.4-11.62.541.257,5.5,11.62-.541Z" transform="translate(0 -100.016)" fill="#7b1a8a"/>
        <path id="Path_1005891" data-name="Path 1005891" d="M69.5,31.366a16.659,16.659,0,1,1,8.27-10.45,6.705,6.705,0,1,1-8.27,10.45m-.993-1.241a6.713,6.713,0,0,1,7.828-9.879,15.137,15.137,0,1,0-7.828,9.879M79.4,26.61a5.164,5.164,0,1,0-5.164,5.164A5.164,5.164,0,0,0,79.4,26.61" transform="translate(-36.453 -0.001)" fill="#7b1a8a"/>
        <path id="Path_1005892" data-name="Path 1005892" d="M103.068,63.151l-4.895,0c-.267-.027-.733-.434-.732-.695l.006-3.78-3.8.008c-.261,0-.7-.521-.7-.765V53.124c.022-.288.42-.735.7-.736l3.819-.018-.014-3.793c0-.267.46-.671.739-.687h4.792c.259,0,.765.425.765.7l0,3.795h3.785c.259,0,.678.459.727.74l0,4.794a1.054,1.054,0,0,1-.928.776l-3.58-.015,0,3.757c0,.213-.441.647-.666.718m-.852-1.518-.018-3.8a.936.936,0,0,1,.686-.713l3.816.009-.009-3.211-3.907-.013c-.242,0-.582-.517-.581-.729l.007-3.713-3.211,0,0,3.717a1.02,1.02,0,0,1-.748.746L94.5,53.908v3.216l3.758-.007A1.018,1.018,0,0,1,99,57.84l.011,3.746Z" transform="translate(-75.403 -38.856)" fill="#7b1a8a"/>
        <path id="Path_1005893" data-name="Path 1005893" d="M185.55,133.219l-1.611-1.627c-.192-.194-.039-.891.176-1.044a1.024,1.024,0,0,1,1,.043l.916.921,2.784-2.756c.212-.21.951-.045,1.11.168a.956.956,0,0,1-.085,1.009l-3.307,3.3a1.015,1.015,0,0,1-.98-.009" transform="translate(-149.166 -104.385)" fill="#7b1a8a"/>
      </g>
    </g>
  </g>
</svg>
