<svg xmlns="http://www.w3.org/2000/svg" xmlns:xlink="http://www.w3.org/1999/xlink" width="96" height="96" viewBox="0 0 96 96">
  <defs>
    <clipPath id="clip-path">
      <rect id="Rectangle_459906" data-name="Rectangle 459906" width="44.317" height="65.924" fill="#7b1a8a"/>
    </clipPath>
  </defs>
  <g id="img12" transform="translate(-793.75 -2920.412)">
    <path id="Elipse_5729" data-name="Elipse 5729" d="M48,0A48,48,0,1,1,0,48,48,48,0,0,1,48,0Z" transform="translate(793.75 2920.413)" fill="#f7ceff"/>
    <g id="Group_1185206" data-name="Group 1185206" transform="translate(819.742 2934.913)">
      <g id="Group_1185205" data-name="Group 1185205" clip-path="url(#clip-path)">
        <path id="Path_1005920" data-name="Path 1005920" d="M41.276,56.825H35.627a1.131,1.131,0,0,1-1.085-.779c-.111-.4.2-1.224.708-1.221l6.46.035c1.414.008,2.347,1.358,2.6,2.709l0,43.913-8.9,8.9-32.225,0A3.114,3.114,0,0,1,0,107.315V57.73A2.945,2.945,0,0,1,2.406,54.9c1.914-.123,3.587-.076,5.533-.08.431,0,.892.682.843,1.051a1.187,1.187,0,0,1-1.033.959l-4.56-.009a1.109,1.109,0,0,0-1.147,1.1l0,49.367a1.089,1.089,0,0,0,1.144,1.02l31.4,0,7.68-7.646,0-42.748a1.137,1.137,0,0,0-.99-1.092" transform="translate(0 -44.459)" fill="#7b1a8a"/>
        <path id="Path_1005921" data-name="Path 1005921" d="M64.273,149.265l-27.89-.006c-.538,0-.875-.662-.848-1.042a1.109,1.109,0,0,1,1.02-1.014l27.879,0a1.135,1.135,0,0,1,.976,1.014,1.075,1.075,0,0,1-1.135,1.047" transform="translate(-28.823 -119.404)" fill="#7b1a8a"/>
        <path id="Path_1005922" data-name="Path 1005922" d="M64.522,193.132H36.766a1.32,1.32,0,0,1-1.14-.706c-.171-.359.049-1.347.627-1.347l28.052-.015a1.073,1.073,0,0,1,1.123.863,1.2,1.2,0,0,1-.906,1.206" transform="translate(-28.852 -154.983)" fill="#7b1a8a"/>
        <path id="Path_1005923" data-name="Path 1005923" d="M64.578,236.585H36.783c-.693,0-1.135-.341-1.19-.913a1.021,1.021,0,0,1,1.071-1.142H64.442a1.153,1.153,0,0,1,.989.8,1.125,1.125,0,0,1-.853,1.256" transform="translate(-28.868 -190.24)" fill="#7b1a8a"/>
        <path id="Path_1005924" data-name="Path 1005924" d="M85.14,171.166l-15.919,0a1.119,1.119,0,0,1-1.087-1.044,1.072,1.072,0,0,1,1.084-1.034l16.012.006a1.036,1.036,0,0,1-.09,2.07" transform="translate(-55.267 -137.159)" fill="#7b1a8a"/>
        <path id="Path_1005925" data-name="Path 1005925" d="M85.076,258.338l-15.865,0a1.106,1.106,0,0,1-1.061-.9c-.065-.392.374-1.157.909-1.157l16.178,0a1.146,1.146,0,0,1,.962,1,1.072,1.072,0,0,1-1.122,1.055" transform="translate(-55.275 -207.885)" fill="#7b1a8a"/>
        <path id="Path_1005926" data-name="Path 1005926" d="M85.078,127.481H69.207a1.111,1.111,0,0,1-1.06-.931,1.126,1.126,0,0,1,.942-1.118l15.972-.01a1.034,1.034,0,1,1,.017,2.06" transform="translate(-55.274 -101.736)" fill="#7b1a8a"/>
        <path id="Path_1005927" data-name="Path 1005927" d="M85.111,214.994l-16.054,0c-.373,0-.841-.6-.934-.891-.1-.329.273-1.161.7-1.161l16.418-.012a1.059,1.059,0,0,1,.926,1.04,1.158,1.158,0,0,1-1.057,1.027" transform="translate(-55.245 -172.718)" fill="#7b1a8a"/>
        <path id="Path_1005928" data-name="Path 1005928" d="M39.984,303.452a2.509,2.509,0,0,0-1.511-.133c-.919.317-.931,1.945-2.151,1.635a1.022,1.022,0,0,1-.693-1.281,3.648,3.648,0,0,1,5.366-2l2.171,1.244a1.5,1.5,0,0,0,.8.145c.637-.208,1.409-3.44,5.048-2.969a1.06,1.06,0,0,1,.953,1.17c-.232,1.723-2.512-.172-3.7,2.261a2.757,2.757,0,0,1-3.918,1.285Z" transform="translate(-28.86 -243.389)" fill="#7b1a8a"/>
        <path id="Path_1005929" data-name="Path 1005929" d="M176.728,291.147l-.02,4.147a1.1,1.1,0,0,1-.969.977,1.032,1.032,0,0,1-1.081-1.144l.006-5.141a1.059,1.059,0,0,1,.951-.908l5.7,0a1.092,1.092,0,0,1,1.071,1.033,1.173,1.173,0,0,1-1.069,1.055Z" transform="translate(-141.676 -234.486)" fill="#7b1a8a"/>
        <path id="Path_1005930" data-name="Path 1005930" d="M95.235,46.069l-1.851-1.4a1.1,1.1,0,0,1-.34-1.47,1.075,1.075,0,0,1,1.483-.242l1.3.938,3.6-4.047c.318-.357,1.185-.18,1.474.214A1.121,1.121,0,0,1,100.8,41.4l-4,4.519a1.157,1.157,0,0,1-1.557.149" transform="translate(-75.344 -32.165)" fill="#7b1a8a"/>
        <path id="Path_1005931" data-name="Path 1005931" d="M141.5,82.632a1.185,1.185,0,0,1-.06,1.425,1.167,1.167,0,0,1-1.476-.021L138.5,82.57a1.21,1.21,0,0,1-.062-1.345,1.071,1.071,0,0,1,1.551-.114Z" transform="translate(-112.151 -65.567)" fill="#7b1a8a"/>
        <path id="Path_1005932" data-name="Path 1005932" d="M111.13,3.017a1.2,1.2,0,0,1-.912,1.133,1.131,1.131,0,0,1-1.154-.924L109.052.921c0-.329.531-.836.848-.907.4-.091,1.159.3,1.17.707Z" transform="translate(-88.459 0)" fill="#7b1a8a"/>
        <path id="Path_1005933" data-name="Path 1005933" d="M75.767,17.025a1.1,1.1,0,0,1,.031,1.5,1.135,1.135,0,0,1-1.466.025l-1.453-1.454a1.109,1.109,0,0,1-.011-1.46,1.122,1.122,0,0,1,1.482-.016Z" transform="translate(-58.89 -12.446)" fill="#7b1a8a"/>
        <path id="Path_1005934" data-name="Path 1005934" d="M153.161,54.059l-2.4.016c-.37,0-.882-.663-.9-1.026-.016-.4.466-1.033.883-1.03l2.543.019c.342,0,.743.681.736,1s-.478,1.013-.871,1.016" transform="translate(-121.568 -42.196)" fill="#7b1a8a"/>
        <path id="Path_1005935" data-name="Path 1005935" d="M38.785,171.107l-2.27.018a1.114,1.114,0,0,1-.952-1.033,1.072,1.072,0,0,1,1.159-1.048l1.953,0a1.2,1.2,0,0,1,1.02.908,1.147,1.147,0,0,1-.909,1.152" transform="translate(-28.847 -137.121)" fill="#7b1a8a"/>
        <path id="Path_1005936" data-name="Path 1005936" d="M111.123,95.581a1.229,1.229,0,0,1-.952,1.309,1.18,1.18,0,0,1-1.114-.867l-.032-2.314a1.328,1.328,0,0,1,.831-.956c.339-.077,1.155.24,1.171.609Z" transform="translate(-88.437 -75.228)" fill="#7b1a8a"/>
        <path id="Path_1005937" data-name="Path 1005937" d="M38.963,258.3l-2.815-.006c-.376,0-.686-.859-.611-1.192a1.282,1.282,0,0,1,.97-.824l2.269.014c.333,0,.808.565.887.861.089.328-.346,1.148-.7,1.148" transform="translate(-28.817 -207.878)" fill="#7b1a8a"/>
        <path id="Path_1005938" data-name="Path 1005938" d="M61.413,53.206c-.034,1.236-1.671,1.044-3.288.988-.311-.011-.752-.544-.836-.834-.094-.326.271-1.164.632-1.164h2.852c.328,0,.649.713.641,1.01" transform="translate(-46.458 -42.339)" fill="#7b1a8a"/>
        <path id="Path_1005939" data-name="Path 1005939" d="M38.906,127.481a22.262,22.262,0,0,1-2.794-.011c-.331-.023-.653-.736-.64-1.033.015-.334.469-.951.839-.952l2.386-.006c.339,0,.831.542.919.837.1.328-.318,1.146-.711,1.165" transform="translate(-28.773 -101.783)" fill="#7b1a8a"/>
        <path id="Path_1005940" data-name="Path 1005940" d="M38.842,214.733l-2.339.076c-.354.012-.873-.523-.954-.846-.086-.344.214-1.156.581-1.171l2.333-.093a1.264,1.264,0,0,1,1.191.812c.129.364-.269,1.2-.812,1.222" transform="translate(-28.824 -172.532)" fill="#7b1a8a"/>
        <path id="Path_1005941" data-name="Path 1005941" d="M139.872,18.622a1.181,1.181,0,0,1-1.382.037,1.109,1.109,0,0,1-.081-1.442l1.569-1.576a1.184,1.184,0,0,1,1.345-.012,1.083,1.083,0,0,1,.079,1.452Z" transform="translate(-112.087 -12.511)" fill="#7b1a8a"/>
        <path id="Path_1005942" data-name="Path 1005942" d="M74.412,83.937a1.128,1.128,0,0,1-1.527.157,1.085,1.085,0,0,1-.06-1.459l1.447-1.462a1.126,1.126,0,0,1,1.471-.115,1.087,1.087,0,0,1,.068,1.455Z" transform="translate(-58.868 -65.571)" fill="#7b1a8a"/>
      </g>
    </g>
  </g>
</svg>
