<svg id="img19" xmlns="http://www.w3.org/2000/svg" xmlns:xlink="http://www.w3.org/1999/xlink" width="96.32" height="96.32" viewBox="0 0 96.32 96.32">
  <defs>
    <clipPath id="clip-path">
      <rect id="Rectangle_459901" data-name="Rectangle 459901" width="55.369" height="60.293" fill="#7b1a8a"/>
    </clipPath>
  </defs>
  <path id="Path_997400" data-name="Path 997400" d="M48.16,0A48.16,48.16,0,1,1,0,48.16,48.16,48.16,0,0,1,48.16,0Z" transform="translate(0)" fill="#f7ceff"/>
  <g id="Group_1099776" data-name="Group 1099776" transform="translate(18.06 18.059)">
    <g id="Group_1099618" data-name="Group 1099618" transform="translate(0.118 -0.331)">
      <rect id="Rectangle_401104" data-name="Rectangle 401104" width="59.576" height="60.293" transform="translate(0)" fill="none"/>
    </g>
    <g id="Group_1185195" data-name="Group 1185195" transform="translate(2.118 -0.331)">
      <g id="Group_1185194" data-name="Group 1185194" clip-path="url(#clip-path)">
        <path id="Path_1005857" data-name="Path 1005857" d="M4.33,52.43H.707A.8.8,0,0,1,0,51.645V8.651a.792.792,0,0,1,.705-.787H4.34l.055-3.428,4.187-.065L8.7.009,54.618,0a.789.789,0,0,1,.751.726V59.391c0,.477-.228.9-.752.9l-45.176,0c-.276,0-.8-.287-.8-.482L8.605,55.94l-4.186-.051ZM53.936,1.439H9.991V58.871H53.936ZM8.623,5.7H5.692V54.593h2.93ZM1.352,9.222l0,41.884H4.33l0-41.884Z" transform="translate(0 0)" fill="#7b1a8a"/>
        <path id="Path_1005858" data-name="Path 1005858" d="M133.114,104.838c.465.464.7,1.049.2,1.551l-2.681,2.685a10.248,10.248,0,0,1-6.7,13.449,10.391,10.391,0,1,1-3.654-20.279,10.007,10.007,0,0,1,7.136,2.348l2.059-2.066a.881.881,0,0,1,1.248-.075ZM113.8,112.075l3.879-3.807,2.988,2.99,5.762-5.762a8.137,8.137,0,0,0-3.585-1.711,9.07,9.07,0,1,0,6.613,6.475l-8.224,8.2a.87.87,0,0,1-1.175-.081Zm2.144.111,4.717,4.71,11.306-11.309-1.719-1.764-9.576,9.583-3.032-2.949Z" transform="translate(-89.041 -82.462)" fill="#7b1a8a"/>
        <path id="Path_1005859" data-name="Path 1005859" d="M78.267,250.784l-5.852.011-.518-.6.063-6.439,6.283-.057a.941.941,0,0,1,.712.73l-.012,5.735c0,.244-.468.611-.675.616m-5-1.339h4.314v-4.377H73.265Z" transform="translate(-57.996 -196.588)" fill="#7b1a8a"/>
        <path id="Path_1005860" data-name="Path 1005860" d="M78.953,33.752c0,.525-.634.755-1.069.75l-5.917-.06L71.9,28.2a.8.8,0,0,1,.7-.744l5.615-.006c.284,0,.73.372.73.658Zm-1.368-4.969-4.316,0,0,4.354,4.316,0Z" transform="translate(-58.002 -22.145)" fill="#7b1a8a"/>
        <path id="Path_1005861" data-name="Path 1005861" d="M178.852,250.79l-5.59.011a.889.889,0,0,1-.776-.726l.071-6.316,6.183-.047c.307,0,.775.362.776.684l.007,5.68c0,.226-.415.714-.67.715m-5.018-5.717,0,4.377,4.3,0,0-4.377Z" transform="translate(-139.139 -196.596)" fill="#7b1a8a"/>
        <path id="Path_1005862" data-name="Path 1005862" d="M179.621,28.016l.005,5.737c0,.194-.4.656-.651.654l-6.336-.051-.021-6.934,6.229-.078c.241,0,.774.356.774.672m-5.683,5.036h4.3V28.7h-4.3Z" transform="translate(-139.246 -22.058)" fill="#7b1a8a"/>
        <path id="Path_1005863" data-name="Path 1005863" d="M223.305,247.971l-6.95.014a.975.975,0,0,1-.737-.541c-.051-.26.29-.834.6-.835l6.947-.009a1.032,1.032,0,0,1,.732.5c.094.233-.277.87-.594.871" transform="translate(-173.929 -198.926)" fill="#7b1a8a"/>
        <path id="Path_1005864" data-name="Path 1005864" d="M223.284,31.617l-7.048,0c-.222,0-.595-.479-.6-.7a.856.856,0,0,1,.75-.689l6.825.005a1.169,1.169,0,0,1,.711.556.811.811,0,0,1-.641.831" transform="translate(-173.951 -24.382)" fill="#7b1a8a"/>
        <path id="Path_1005865" data-name="Path 1005865" d="M223.5,259.84l-7.306,0a1.031,1.031,0,0,1-.54-.686.868.868,0,0,1,.756-.664l6.754,0a.959.959,0,0,1,.772.516,1.251,1.251,0,0,1-.437.827" transform="translate(-173.958 -208.519)" fill="#7b1a8a"/>
        <path id="Path_1005866" data-name="Path 1005866" d="M123.389,31.622l-6.923.011a.972.972,0,0,1-.729-.686.971.971,0,0,1,.733-.71H123.3a1.091,1.091,0,0,1,.719.548c.081.241-.3.837-.626.838" transform="translate(-93.361 -24.391)" fill="#7b1a8a"/>
        <path id="Path_1005867" data-name="Path 1005867" d="M123.244,43.529l-6.882,0a.669.669,0,1,1,.093-1.336l6.849,0a.741.741,0,0,1,.712.729c0,.259-.427.614-.772.614" transform="translate(-93.36 -34.03)" fill="#7b1a8a"/>
        <path id="Path_1005868" data-name="Path 1005868" d="M223.3,43.523l-6.895.01a.839.839,0,0,1-.75-.632.711.711,0,0,1,.755-.714l6.814,0a1.049,1.049,0,0,1,.71.556.842.842,0,0,1-.634.782" transform="translate(-173.96 -34.029)" fill="#7b1a8a"/>
        <path id="Path_1005869" data-name="Path 1005869" d="M123.4,247.978l-6.944.013a.979.979,0,0,1-.721-.728.892.892,0,0,1,.734-.654H123.3a1.081,1.081,0,0,1,.713.491c.1.233-.289.876-.607.877" transform="translate(-93.362 -198.933)" fill="#7b1a8a"/>
        <path id="Path_1005870" data-name="Path 1005870" d="M123.313,259.847h-6.834a.847.847,0,0,1-.724-.682.9.9,0,0,1,.729-.664h6.824a.811.811,0,0,1,.729.665.845.845,0,0,1-.723.681" transform="translate(-93.376 -208.525)" fill="#7b1a8a"/>
        <path id="Path_1005871" data-name="Path 1005871" d="M118.649,271.781l-2.155-.018a.977.977,0,0,1-.743-.7.954.954,0,0,1,.707-.686h2.016a1.008,1.008,0,0,1,.7.545c.044.247-.295.718-.529.857" transform="translate(-93.373 -218.107)" fill="#7b1a8a"/>
        <path id="Path_1005872" data-name="Path 1005872" d="M218.936,271.858l-1.821.013a1.1,1.1,0,0,1-.767-.518c-.086-.222.2-.857.464-.857H219.3c.24,0,.494.626.4.834a1.149,1.149,0,0,1-.76.528" transform="translate(-174.51 -218.202)" fill="#7b1a8a"/>
        <path id="Path_1005873" data-name="Path 1005873" d="M118.5,55.485l-2.049-.023c-.191,0-.536-.34-.62-.5-.1-.186.16-.784.378-.79l2.48-.071c.238-.007.574.508.541.721a1.022,1.022,0,0,1-.731.659" transform="translate(-93.424 -43.645)" fill="#7b1a8a"/>
        <path id="Path_1005874" data-name="Path 1005874" d="M219.021,55.6l-2.18-.009c-.212,0-.525-.435-.567-.625s.284-.684.482-.684h2.47c.2,0,.5.511.457.7-.053.223-.434.624-.663.623" transform="translate(-174.46 -43.79)" fill="#7b1a8a"/>
        <path id="Path_1005875" data-name="Path 1005875" d="M81.481,255.962a2.1,2.1,0,0,1-1.584-1.42.793.793,0,0,1,.522-.623,2.6,2.6,0,0,1,.849.273l1.452-1.413c.188-.183.833.028.927.271a1.136,1.136,0,0,1-.315.925Z" transform="translate(-64.449 -203.854)" fill="#7b1a8a"/>
        <path id="Path_1005876" data-name="Path 1005876" d="M82.348,39.946c-.749.11-1.75-.948-1.489-1.523a.817.817,0,0,1,1.226-.13l1.638-1.474c.255-.229,1.063.485.881.794-.683.782-1.455,1.56-2.256,2.333" transform="translate(-65.193 -29.665)" fill="#7b1a8a"/>
        <path id="Path_1005877" data-name="Path 1005877" d="M182.447,256.546c-.322.322-1.11-.115-1.358-.424a.968.968,0,0,1-.169-1.172c.2-.288.715-.244,1.118.067l1.374-1.334a.977.977,0,0,1,.85-.069.924.924,0,0,1,.1,1.017Z" transform="translate(-145.835 -204.53)" fill="#7b1a8a"/>
        <path id="Path_1005878" data-name="Path 1005878" d="M182.325,40.714c-.457.441-1.935-.76-1.668-1.518.131-.37.754-.4,1.231-.116l1.273-1.176a1.146,1.146,0,0,1,.945-.053A.917.917,0,0,1,184.2,38.9Z" transform="translate(-145.705 -30.472)" fill="#7b1a8a"/>
      </g>
    </g>
  </g>
</svg>
