<svg xmlns="http://www.w3.org/2000/svg" xmlns:xlink="http://www.w3.org/1999/xlink" width="96" height="96" viewBox="0 0 96 96">
  <defs>
    <clipPath id="clip-path">
      <rect id="Rectangle_459910" data-name="Rectangle 459910" width="46.986" height="69.5" fill="#7b1a8a"/>
    </clipPath>
  </defs>
  <g id="img10" transform="translate(-793.75 -2920.413)">
    <path id="Elipse_5729" data-name="Elipse 5729" d="M48,0A48,48,0,1,1,0,48,48,48,0,0,1,48,0Z" transform="translate(793.75 2920.413)" fill="#f7ceff"/>
    <g id="Group_1185210" data-name="Group 1185210" transform="translate(818.75 2934.413)">
      <g id="Group_1185209" data-name="Group 1185209" clip-path="url(#clip-path)">
        <path id="Path_1005960" data-name="Path 1005960" d="M45.272,1.675H1.714l0,57.113,20.6,0a.9.9,0,0,1,.89.87c-.067.588-.441.846-1.057.846L.985,60.5A.96.96,0,0,1,0,59.487V.912A.911.911,0,0,1,.827,0H46.158a.912.912,0,0,1,.827.911V59.487a.982.982,0,0,1-.931,1.014l-3.229.013a1.158,1.158,0,0,1-.969-.831c-.018-.324.471-.821.8-.9l2.621,0Z" transform="translate(0 -0.001)" fill="#7b1a8a"/>
        <path id="Path_1005961" data-name="Path 1005961" d="M23.442,68.189a4.165,4.165,0,0,1,3.285,3.319l10.806.016c.311,0,.676.7.628.995a1.094,1.094,0,0,1-.883.706l-11.208.008c-1.435,0-.32-3.28-3.552-3.449a1.02,1.02,0,0,1-.792-.918l0-42.855a1.037,1.037,0,0,1,1-.914,2.466,2.466,0,0,0,2.43-2.541.893.893,0,0,1,.942-.815H55.325a.887.887,0,0,1,.94.818A2.443,2.443,0,0,0,58.7,25.088a1.055,1.055,0,0,1,1,.914l0,32.706a1.093,1.093,0,0,1-.737.915c-.284.056-.976-.314-.976-.714l-.006-32.175a4.325,4.325,0,0,1-3.32-3.282H26.764a4.333,4.333,0,0,1-3.32,3.284Z" transform="translate(-17.219 -17.23)" fill="#7b1a8a"/>
        <path id="Path_1005962" data-name="Path 1005962" d="M122.457,219.8a4.316,4.316,0,0,1-6.775.018,4.682,4.682,0,0,1-3.617-1.258,4.317,4.317,0,0,1-1.2-3.648,4.149,4.149,0,0,1-.028-6.691,4.452,4.452,0,0,1,1.185-3.616,4.307,4.307,0,0,1,3.64-1.232,4.3,4.3,0,0,1,3.26-1.7,4.229,4.229,0,0,1,3.493,1.7,4.236,4.236,0,0,1,3.628,1.206,4.418,4.418,0,0,1,1.23,3.623,4.351,4.351,0,0,1,1.678,3.213A4.247,4.247,0,0,1,127.3,214.9a4.379,4.379,0,0,1-4.842,4.9m-.047-1.794a2.544,2.544,0,0,0,2.527-.7c1.326-1.394-.065-2.868,1.079-3.572a2.528,2.528,0,0,0,1.249-2.3,2.611,2.611,0,0,0-1.324-2.1c-1.033-.62.383-2.051-1.1-3.578-1.322-1.362-3.028-.116-3.478-.962a2.717,2.717,0,0,0-2.225-1.438,2.6,2.6,0,0,0-2.328,1.362c-.549.978-2.222-.368-3.609,1.074-1.323,1.377.027,2.907-1.055,3.568a2.511,2.511,0,0,0-.071,4.351c1.2.792-.286,2.3,1.277,3.774,1.377,1.3,2.807-.066,3.473.959a2.6,2.6,0,0,0,2.3,1.339c2.038-.095,2.026-2.076,3.288-1.771" transform="translate(-86.513 -159.829)" fill="#7b1a8a"/>
        <path id="Path_1005963" data-name="Path 1005963" d="M68.19,66.344l-7.719-7.722a.945.945,0,0,1,.012-1.309l3.238-3.242a1.017,1.017,0,0,1,1.433.068l3.784,3.8,8.452-8.457a1.094,1.094,0,0,1,1.161-.056l3.466,3.47a.88.88,0,0,1-.062,1.174L69.733,66.3a.953.953,0,0,1-1.543.044m-5.935-8.322,6.739,6.686L80.21,53.477l-2.216-2.221L69.542,59.71a.864.864,0,0,1-1.179-.01l-3.911-3.927Z" transform="translate(-47.721 -39.061)" fill="#7b1a8a"/>
        <path id="Path_1005964" data-name="Path 1005964" d="M138.575,295.2l-.01,6.667a1.167,1.167,0,0,1-.322.711,1.336,1.336,0,0,1-.918.036l-5.262-3.144-5.286,3.184-.766-.021c-.209-.006-.421-.522-.422-.8l-.014-6.641a1,1,0,0,1,.777-.968,1.033,1.033,0,0,1,.9.776l.038,5.372,4.776-2.849,4.773,2.838.028-5.346a1.044,1.044,0,0,1,.881-.783,1.089,1.089,0,0,1,.826.965" transform="translate(-99.522 -233.18)" fill="#7b1a8a"/>
        <path id="Path_1005965" data-name="Path 1005965" d="M141.723,228.837a5.363,5.363,0,1,1-5.363-5.363,5.363,5.363,0,0,1,5.363,5.363m-1.687.006a3.677,3.677,0,1,0-3.677,3.677,3.678,3.678,0,0,0,3.677-3.677" transform="translate(-103.818 -177.109)" fill="#7b1a8a"/>
        <rect id="Rectangle_459908" data-name="Rectangle 459908" width="27.294" height="1.66" transform="translate(9.776 30.51)" fill="#7b1a8a"/>
        <rect id="Rectangle_459909" data-name="Rectangle 459909" width="22.499" height="1.92" transform="translate(9.777 36.042)" fill="#7b1a8a"/>
      </g>
    </g>
  </g>
</svg>
