<svg xmlns="http://www.w3.org/2000/svg" xmlns:xlink="http://www.w3.org/1999/xlink" width="96" height="96" viewBox="0 0 96 96">
  <defs>
    <clipPath id="clip-path">
      <rect id="Rectangle_459882" data-name="Rectangle 459882" width="58.025" height="58.013" fill="#7b1a8a"/>
    </clipPath>
  </defs>
  <g id="img26" transform="translate(-793.75 -2920.525)">
    <path id="Elipse_5729" data-name="Elipse 5729" d="M48,0A48,48,0,1,1,0,48,48,48,0,0,1,48,0Z" transform="translate(793.75 2920.525)" fill="#f7ceff"/>
    <g id="Group_1185183" data-name="Group 1185183" transform="translate(815.083 2940.858)">
      <g id="Group_1185182" data-name="Group 1185182" clip-path="url(#clip-path)">
        <path id="Path_1005812" data-name="Path 1005812" d="M1.926,58.013A1.85,1.85,0,0,1,0,56.182l0-4.339a11.187,11.187,0,0,1,4.084-8.473L1.661,41.683a1.934,1.934,0,0,1-.694-1.848,2.051,2.051,0,0,1,1.171-1.442C4.567,37.382,5.8,34.637,5.8,32.06L5.8,15.621a16.446,16.446,0,0,1,32.072-4.244A13.531,13.531,0,1,1,47.388,36.4l.012,2.467a2.427,2.427,0,0,1,.93,1.7l0,13.443a3.9,3.9,0,0,1-1.423,3.164,3.983,3.983,0,0,1-3.522.684l-.874.158Zm18.808-45.33a3.048,3.048,0,0,1,3.742-1.609c3.223.912,6.323,1.991,8.784,4.434a31.778,31.778,0,0,1,2.9-3.056A14.486,14.486,0,0,0,7.769,15.487c1.82-.3,3.122,1.049,3.675,2.728,3.5-.647,7.665-2.31,9.29-5.533m35.336,10.5a11.6,11.6,0,1,0-11.6,11.6,11.6,11.6,0,0,0,11.6-11.6M15.773,33.8l3.372,2.713a4.772,4.772,0,0,0,6.118.034l2.952-2.356a11.548,11.548,0,0,0,3.98-5.341A13.355,13.355,0,0,1,32.249,17.4c-1.839-2.472-5.555-3.761-8.665-4.534a1.2,1.2,0,0,0-1.025.533,10.09,10.09,0,0,1-3.284,3.729A18.207,18.207,0,0,1,10.989,20.2c-1.754.2-1.12-3.348-3.136-2.667-.422,2.368-.076,6.012,1.988,6.455a2.113,2.113,0,0,1,1.8,2.1A10.976,10.976,0,0,0,15.773,33.8m-3.411,6.787,3.1-1.553-.033-3.079a13.2,13.2,0,0,1-5.762-9.97,9.522,9.522,0,0,1-1.955-.953L7.7,32.065a8.7,8.7,0,0,1-4.832,8.183,34.869,34.869,0,0,0,3.052,1.86,11.815,11.815,0,0,1,6.441-1.516m19.8-.12a24.27,24.27,0,0,1,4.592.78l-.01-6.974A13.908,13.908,0,0,1,33.4,30.964,12.768,12.768,0,0,1,29,36l.016,3.058c1.06.39,2.033,1.231,3.145,1.415m8.432.234a2.616,2.616,0,0,1,.937-1.843l.008-2.419-2.879-1.02.009,6.732,1.929,1.37Zm4.832-4h-1.9v1.985h1.9ZM22.216,53.923l4.821-14.414a7.3,7.3,0,0,0,0-1.971,6.605,6.605,0,0,1-9.571.078,5.506,5.506,0,0,0-.048,1.934Zm24.2.178V40.6H42.543l0,13.412a1.94,1.94,0,1,0,3.877.092M16.251,48.645l2.775,7.423,1.837-.052L15.858,41l-2.547,1.262-2.186,5.1,3.333.023a1.889,1.889,0,0,1,1.793,1.257m14.222-1.279,2.862.013-2.174-5.1L28.6,41,23.585,56.028l1.85.01L28.2,48.654a2.125,2.125,0,0,1,2.271-1.288M14.425,49.3l-3.456.01a2.181,2.181,0,0,1-1.485-.893A2.022,2.022,0,0,1,9.352,46.6l1.689-4.039a9.555,9.555,0,0,0-9.108,9.455V56.06l15.029,0Zm13.09,6.758,13.564.007a5.928,5.928,0,0,1-.475-2.043L40.6,46.4a9.877,9.877,0,0,0-7.219-3.847l1.748,4.09a2,2,0,0,1-.257,1.905,2.1,2.1,0,0,1-1.632.759L30.022,49.3Z" transform="translate(0 0)" fill="#7b1a8a"/>
        <path id="Path_1005813" data-name="Path 1005813" d="M214.754,84.538a7.755,7.755,0,1,0,4.3-1.263,1,1,0,0,1-1.014-.916.937.937,0,0,1,1.033-1.007,9.658,9.658,0,1,1-5.547,1.693,1.048,1.048,0,0,1,1.326.052.967.967,0,0,1-.1,1.442" transform="translate(-174.532 -67.826)" fill="#7b1a8a"/>
        <path id="Path_1005814" data-name="Path 1005814" d="M251.733,123.681a1.045,1.045,0,0,1-1.39.1,1,1,0,0,1-.041-1.44l5.822-5.817a1,1,0,0,1,1.375.092,1.018,1.018,0,0,1-.074,1.379Z" transform="translate(-208.447 -96.952)" fill="#7b1a8a"/>
        <path id="Path_1005815" data-name="Path 1005815" d="M245.917,113.217a1.044,1.044,0,0,1-1.348-.115,1.1,1.1,0,0,1,.048-1.291l1.048-1.036a1,1,0,0,1,1.38.147,1.038,1.038,0,0,1-.1,1.3Z" transform="translate(-203.749 -92.179)" fill="#7b1a8a"/>
      </g>
    </g>
  </g>
</svg>
