<svg id="img21" xmlns="http://www.w3.org/2000/svg" xmlns:xlink="http://www.w3.org/1999/xlink" width="96.32" height="96.32" viewBox="0 0 96.32 96.32">
  <defs>
    <clipPath id="clip-path">
      <rect id="Rectangle_459890" data-name="Rectangle 459890" width="56.766" height="56.765" fill="#7b1a8a"/>
    </clipPath>
  </defs>
  <path id="Path_997400" data-name="Path 997400" d="M48.16,0A48.16,48.16,0,1,1,0,48.16,48.16,48.16,0,0,1,48.16,0Z" transform="translate(0)" fill="#f7ceff"/>
  <g id="Group_1099776" data-name="Group 1099776" transform="translate(18.06 18.059)">
    <g id="Group_1099618" data-name="Group 1099618" transform="translate(-0.19 -0.331)">
      <rect id="Rectangle_401104" data-name="Rectangle 401104" width="59.576" height="60.293" transform="translate(0)" fill="none"/>
    </g>
    <g id="Group_1185191" data-name="Group 1185191" transform="translate(1.81 1.67)">
      <g id="Group_1185190" data-name="Group 1185190" clip-path="url(#clip-path)">
        <path id="Path_1005846" data-name="Path 1005846" d="M43.613,78.45,43.6,72.575c0-.354.4-.919.756-.92l4.9-.01L49.217,69.8l-19.8,0L29.4,71.649l4.829,0a1.1,1.1,0,0,1,.859.941l-.009,5.731a1,1,0,0,1-.986.893H22.8a1,1,0,0,1-.988-.895l-.006-5.72a1.036,1.036,0,0,1,1.014-.958l4.673.01L27.477,69.8l-19.8,0L7.646,71.65l4.747,0a.962.962,0,0,1,.9.94l-.006,5.768a.962.962,0,0,1-.891.86H.954a.972.972,0,0,1-.869-.862l0-5.756A.983.983,0,0,1,1,71.649l4.748,0,.009-2.9a.9.9,0,0,1,.76-.847H27.478l.022-1.881-2.215-.109c-.506-.025-.691-1.009-.618-1.433.118-.686.032-1.08-.486-1.308s-.928-.118-1.341.487c-.239.35-1.086,1.015-1.532.57l-4.355-4.354c-.8-.8,1.4-1.792,1.11-2.709-.215-.678-.609-.826-1.363-.682-.452.086-1.489-.08-1.493-.733l-.034-5.868a.975.975,0,0,1,1.012-.941l1.514-.023a2.52,2.52,0,0,0,.425-1.034c0-.494-1.982-1.556-1.121-2.434l1.99-2.03,0-9.514a1.258,1.258,0,0,1,.777-1.12l-2.675-3.179-2.665,3.2a1.183,1.183,0,0,1,.754,1.1l-.006,9.384-1.884,0V34.809l-1.065-.053a1.291,1.291,0,0,1-.75-.546,1.239,1.239,0,0,1,.169-1.02l4.673-5.6a1.425,1.425,0,0,1,.707-.431,1.682,1.682,0,0,1,.766.32l4.743,5.688a1.671,1.671,0,0,1,.221.912,1.136,1.136,0,0,1-.676.639l-1.178.085,0,6.737.691-.423c.184-.113.665.126.828.277l1.116,1.038,1.131-.39,0-1.568a.982.982,0,0,1,.906-.993l5.739,0a.988.988,0,0,1,.905,1l0,1.553,1.155.445L34.473,41.4a1.085,1.085,0,0,1,1.519.091L36,34.806l-1.179-.084a1.161,1.161,0,0,1-.675-.632,1.318,1.318,0,0,1,.22-.915l4.745-5.687a.936.936,0,0,1,1.4.013l4.747,5.687a1.359,1.359,0,0,1,.212.908,1.2,1.2,0,0,1-.781.654l-1.078.06,0,8.482H41.722l-.007-9.384a1.185,1.185,0,0,1,.757-1.1l-2.667-3.192L37.13,32.8a1.27,1.27,0,0,1,.779,1.114L37.9,43.442l1.837,1.834a1.393,1.393,0,0,1,.305,1.012c-.353.888-1.48,1.054-1.2,2.011.235.8.729.792,1.5.672.627-.1,1.381.19,1.377.919l-.03,5.866c0,.661-1.03.825-1.5.749-.681-.11-1.087-.028-1.311.508-.206.493-.082.923.5,1.325.368.255,1.019,1.091.566,1.544l-4.353,4.356c-.45.45-1.288-.227-1.536-.577-.366-.517-.775-.675-1.184-.537-.67.227-.782.589-.637,1.368.075.4-.129,1.4-.619,1.428l-2.22.109.023,1.881L50.215,67.9a.879.879,0,0,1,.927.863v2.874l4.755.011a.975.975,0,0,1,.92.945l0,5.754a.972.972,0,0,1-.868.861l-11.448,0c-.336,0-.883-.4-.884-.765M30.258,64.131l.108-1.728c.02-.324.82-.581,1.129-.712l2.075-.878a5.449,5.449,0,0,1,1.519,1.3L37.8,59.451l-.741-.719a1.24,1.24,0,0,1-.2-1.76c.341-.6.509-1.411.927-2.035.3-.444,1.28-.32,2-.252l.025-3.813a3.44,3.44,0,0,1-1.951-.209l-.924-2.1c-.184-.418-.449-1.115-.138-1.443l1.02-1.07L35.144,43.39a4.489,4.489,0,0,1-1.54,1.26l-2.118-.838c-.3-.12-1.028-.376-1.043-.688l-.083-1.739-3.766.024A4.518,4.518,0,0,1,26.4,43.37l-2,.86c-.354.152-1.187.493-1.465.24L21.76,43.392l-2.638,2.639,1.094,1.17c.234.251-.018.946-.161,1.277l-.919,2.116a3.382,3.382,0,0,1-2.042.264l-.011,3.726,1.687.093c.341.019.613.8.736,1.1l.849,2.087a4.335,4.335,0,0,1-1.276,1.526l2.656,2.677,1.021-1c.41-.4.978-.193,1.459.054.688.353,1.374.541,2.076.963.4.242.3,1.311.232,2Zm-18.851,9.4H1.983v3.779h9.424Zm12.287,3.779h9.5V73.535h-9.5Zm21.8-3.779v3.778l9.425,0V73.538Z" transform="translate(-0.067 -22.451)" fill="#7b1a8a"/>
        <path id="Path_1005847" data-name="Path 1005847" d="M250.9,149.537l6.8-.028.844.74,3.168-2.6-3.224-2.691a1.312,1.312,0,0,1-1.158.839l-6.413,0-.01-1.911,5.584.019.056-.887a1.556,1.556,0,0,1,.367-.876,1.242,1.242,0,0,1,1.16-.012l5.6,4.673a1.461,1.461,0,0,1,.457.85,1.743,1.743,0,0,1-.478.832l-5.6,4.665a1.994,1.994,0,0,1-1.027.056c-.254-.1-.467-.636-.481-.917l-.045-.884-5.586.006Z" transform="translate(-207.372 -117.363)" fill="#7b1a8a"/>
        <path id="Path_1005848" data-name="Path 1005848" d="M5.624,150.412a3.511,3.511,0,0,1,.8-.788l6.79.014,0,1.884H7.632l-.054.853a1.481,1.481,0,0,1-.368.88,1.908,1.908,0,0,1-1.041.081L.385,148.519A1.743,1.743,0,0,1,0,147.764a1.641,1.641,0,0,1,.467-.841l5.685-4.746a1.683,1.683,0,0,1,1.06.078,1.513,1.513,0,0,1,.371.878l.057.887,5.579-.02.01,1.905-6.426.007a1.305,1.305,0,0,1-1.16-.842l-3.22,2.682Z" transform="translate(0 -117.472)" fill="#7b1a8a"/>
        <path id="Path_1005849" data-name="Path 1005849" d="M139.358,5.633,136.7,2.406l-2.684,3.254a1.257,1.257,0,0,1,.8.948v4.728l-1.89.012,0-3.705L131.9,7.6a1.167,1.167,0,0,1-.831-.624,1.446,1.446,0,0,1,.273-1.1l4.515-5.4A1.46,1.46,0,0,1,136.7,0a1.778,1.778,0,0,1,.837.474l4.742,5.686a3.041,3.041,0,0,1-.015.934,1.1,1.1,0,0,1-.79.5l-1,.03-.011,3.713-1.88.018-.01-4.745c0-.327.3-.679.789-.978" transform="translate(-108.31 0)" fill="#7b1a8a"/>
        <rect id="Rectangle_459886" data-name="Rectangle 459886" width="1.888" height="1.897" transform="translate(24.612 13.23)" fill="#7b1a8a"/>
        <rect id="Rectangle_459887" data-name="Rectangle 459887" width="1.888" height="1.897" transform="translate(30.264 13.23)" fill="#7b1a8a"/>
        <rect id="Rectangle_459888" data-name="Rectangle 459888" width="1.889" height="1.918" transform="translate(13.221 22.719)" fill="#7b1a8a"/>
        <rect id="Rectangle_459889" data-name="Rectangle 459889" width="1.889" height="1.918" transform="translate(41.654 22.72)" fill="#7b1a8a"/>
        <path id="Path_1005850" data-name="Path 1005850" d="M138.662,142.976a6.623,6.623,0,1,1-6.623-6.623,6.623,6.623,0,0,1,6.623,6.623m-1.894,0a4.729,4.729,0,1,0-4.729,4.729,4.729,4.729,0,0,0,4.729-4.729" transform="translate(-103.659 -112.698)" fill="#7b1a8a"/>
      </g>
    </g>
  </g>
</svg>
