<svg xmlns="http://www.w3.org/2000/svg" xmlns:xlink="http://www.w3.org/1999/xlink" width="96" height="96" viewBox="0 0 96 96">
  <defs>
    <clipPath id="clip-path">
      <rect id="Rectangle_459881" data-name="Rectangle 459881" width="59.355" height="54.043" fill="#7b1a8a"/>
    </clipPath>
  </defs>
  <g id="img25" transform="translate(-793.75 -2920.526)">
    <path id="Elipse_5729" data-name="Elipse 5729" d="M48,0A48,48,0,1,1,0,48,48,48,0,0,1,48,0Z" transform="translate(793.75 2920.526)" fill="#f7ceff"/>
    <g id="Group_1185181" data-name="Group 1185181" transform="translate(811.75 2941.526)">
      <g id="Group_1185180" data-name="Group 1185180" clip-path="url(#clip-path)">
        <path id="Path_1005805" data-name="Path 1005805" d="M14.059,123.333l-2.149,2.009a2.273,2.273,0,0,1-.586,2.206l-5.7,5.527a1.94,1.94,0,0,1-2.826.212l-2.3-2.4a1.949,1.949,0,0,1,.279-2.841l5.806-5.588a1.9,1.9,0,0,1,2.046-.361l2.245-2.228a11.764,11.764,0,0,1,20.171-12.113l6.151-4.774,9.18,2.962,6.809-6.93c-.7-.113-1.173-.388-1.252-.869a1,1,0,0,1,.983-1.136l2.852-.262a.99.99,0,0,1,1.073.964l-.317,3.107a1.012,1.012,0,0,1-1.042.831c-.514-.042-.816-.483-.993-1.184l-7.3,7.334a3.14,3.14,0,0,1-1.065.086l-8.556-2.779-5.651,4.405a11.514,11.514,0,0,1-.333,9.357l-.007,9.069a1.011,1.011,0,0,1-.914.877l-4.947.008a1.015,1.015,0,0,1-1.021-1.06v-2.74a11.8,11.8,0,0,1-10.639-1.69m16.771-9.5a9.851,9.851,0,1,0-9.851,9.851,9.851,9.851,0,0,0,9.851-9.851m-18.864,7.591-1.92,1.935.617.612,1.92-1.935Zm14.641,5.489,3.069-.009-.012-5.043a19.057,19.057,0,0,1-3.029,2.294ZM7.881,123.8l-5.955,5.847,2.234,2.276,5.955-5.847Z" transform="translate(0 -79.77)" fill="#7b1a8a"/>
        <path id="Path_1005806" data-name="Path 1005806" d="M91.207,19.711a9.911,9.911,0,1,0-19.822-.056.987.987,0,0,1-.965.947l-7.74,0a1,1,0,0,1-1.048-1.022,19.653,19.653,0,0,1,39.305-.007A.989.989,0,0,1,99.9,20.605H92.155a.951.951,0,0,1-.949-.894M80.344,7.847,80.336,1.93a17.329,17.329,0,0,0-7.06,1.927l2.956,5.122a12.336,12.336,0,0,1,4.113-1.132m6.011,1.135,2.951-5.163a18.124,18.124,0,0,0-7.057-1.883l0,5.92a11.96,11.96,0,0,1,4.1,1.127M71.564,12.918A14.511,14.511,0,0,1,74.557,9.9L71.6,4.8a16.474,16.474,0,0,0-5.13,5.2Zm19.485.006,5.08-2.951A16.94,16.94,0,0,0,90.977,4.8L88.028,9.93a14.241,14.241,0,0,1,3.022,2.994M69.486,18.688a14,14,0,0,1,1.094-4.106l-5.085-2.945a17.268,17.268,0,0,0-1.936,7.05Zm23.616,0,5.893,0a16.988,16.988,0,0,0-1.9-7.05L92.012,14.56a16.5,16.5,0,0,1,1.09,4.131" transform="translate(-50.817 0)" fill="#7b1a8a"/>
        <path id="Path_1005807" data-name="Path 1005807" d="M304.857,165.056l-4.964,0a1,1,0,0,1-.981-.946l0-22.544a1.043,1.043,0,0,1,.848-.873l5.064.006a1.035,1.035,0,0,1,.994.9v22.513a.979.979,0,0,1-.956.946m-4.024-1.91H303.9v-20.53h-3.071Z" transform="translate(-246.458 -116.007)" fill="#7b1a8a"/>
        <path id="Path_1005808" data-name="Path 1005808" d="M199.253,195.687h-4.944a1.065,1.065,0,0,1-.912-.914l0-15.958a1.017,1.017,0,0,1,.974-.975l4.993,0a1.068,1.068,0,0,1,.952.984v15.777a1.042,1.042,0,0,1-1.066,1.081m-.858-15.935h-3.076v14.023h3.076Z" transform="translate(-159.461 -146.635)" fill="#7b1a8a"/>
        <path id="Path_1005809" data-name="Path 1005809" d="M252.07,205.544l-4.949-.009a.983.983,0,0,1-.958-1V190.7a1.052,1.052,0,0,1,.981-.909l5.027.009a.965.965,0,0,1,.884.986l0,13.821a1,1,0,0,1-.982.935m-4-13.838v11.922h3.059V191.707Z" transform="translate(-202.968 -156.49)" fill="#7b1a8a"/>
        <path id="Path_1005810" data-name="Path 1005810" d="M162.763,86.877a2.878,2.878,0,0,1-1.029,3.637,2.813,2.813,0,0,1-3.6-.375,2.865,2.865,0,0,1,3.237-4.626l2.4-2.364a1.185,1.185,0,0,1,1.3.186,1.122,1.122,0,0,1-.115,1.363Zm-1.645,1.236a.956.956,0,1,0-.956.956.956.956,0,0,0,.956-.956" transform="translate(-129.688 -68.457)" fill="#7b1a8a"/>
        <path id="Path_1005811" data-name="Path 1005811" d="M85.635,151.017a9.167,9.167,0,1,1-9.167-9.167,9.167,9.167,0,0,1,9.167,9.167m-1.919,0a7.247,7.247,0,1,0-7.248,7.247,7.248,7.248,0,0,0,7.248-7.247" transform="translate(-55.492 -116.959)" fill="#7b1a8a"/>
      </g>
    </g>
  </g>
</svg>
