<svg xmlns="http://www.w3.org/2000/svg" xmlns:xlink="http://www.w3.org/1999/xlink" width="84" height="84" viewBox="0 0 84 84">
  <defs>
    <clipPath id="clip-path">
      <rect id="Rectangle_459410" data-name="Rectangle 459410" width="69" height="69.043" fill="#12263f"/>
    </clipPath>
  </defs>
  <g id="img2" transform="translate(-706.371 -1685.777)">
    <g id="Group_1177731" data-name="Group 1177731">
      <g id="Group_1119665" data-name="Group 1119665" transform="translate(530.482 -3835.223)">
        <path id="Path_991847" data-name="Path 991847" d="M5,0H79a5,5,0,0,1,5,5V79a5,5,0,0,1-5,5H5a5,5,0,0,1-5-5V5A5,5,0,0,1,5,0Z" transform="translate(175.889 5521)" fill="#fee66f"/>
      </g>
      <g id="Group_1184410" data-name="Group 1184410" transform="translate(714.371 1692.777)">
        <g id="Group_1184409" data-name="Group 1184409" clip-path="url(#clip-path)">
          <path id="Path_1005480" data-name="Path 1005480" d="M63.458,131.937l3.05-14.732L52.767,121.26l2.172,2.172a2.081,2.081,0,0,1,.489.852,1.656,1.656,0,0,1-.518,1.043l-16.4,16.395a1.088,1.088,0,0,1-1.575.047l-9.985-9.956a3.2,3.2,0,0,0-4.65.277L1.67,154.316c-.321.346-1.267.095-1.473-.2a1.258,1.258,0,0,1,.04-1.41l20.445-22.042a5.336,5.336,0,0,1,7.7-.461l9.359,9.3,15.121-15.126-2.829-2.838a1.592,1.592,0,0,1-.38-.988,1.313,1.313,0,0,1,.839-.869l17.125-5.054a1.045,1.045,0,0,1,1.375,1.219l-3.826,18.517a1.027,1.027,0,0,1-1.739.557L60.484,132,41.368,151.114a5.342,5.342,0,0,1-7.223,0l-9.305-9.273L8.237,160.7a1.235,1.235,0,0,1-1.428.028,1.262,1.262,0,0,1-.192-1.45l17.2-19.537c.358-.407,1.09-.817,1.524-.385l10.2,10.155a3.285,3.285,0,0,0,4.628-.211l19.561-19.552a1,1,0,0,1,1.4-.105Z" transform="translate(0 -91.93)" fill="#12263f"/>
          <path id="Path_1005481" data-name="Path 1005481" d="M263.715,2.176H252.96l0,22.7A1.237,1.237,0,0,1,251.9,25.89a1.093,1.093,0,0,1-1.081-1.18l0-23.711a1.041,1.041,0,0,1,.991-1h13.051a1.054,1.054,0,0,1,1.005.991l0,19.37a1.086,1.086,0,0,1-.919,1.183,1.112,1.112,0,0,1-1.238-1.022Z" transform="translate(-201.196 -0.001)" fill="#12263f"/>
          <path id="Path_1005482" data-name="Path 1005482" d="M149.041,111.21l-10.834-.011v11.059a1.15,1.15,0,0,1-1.27.776,1.2,1.2,0,0,1-.887-1.16l.005-11.847a1.187,1.187,0,0,1,.959-.992l13.215,0a1.182,1.182,0,0,1,.959,1.009l0,18.346a1.134,1.134,0,0,1-1.046,1.153,1.112,1.112,0,0,1-1.111-1.134Z" transform="translate(-109.137 -87.462)" fill="#12263f"/>
          <path id="Path_1005483" data-name="Path 1005483" d="M34.6,176.6l-10.7,0,0,15.125a1.161,1.161,0,0,1-1.033,1.056,1.082,1.082,0,0,1-1.118-1.225V175.531a1.094,1.094,0,0,1,.918-1.087l13.236,0c.251.038.878.451.875.71l-.033,2.916c-.005.459-.829.761-1.213.662a1.316,1.316,0,0,1-.9-1.16Z" transform="translate(-17.446 -139.932)" fill="#12263f"/>
          <path id="Path_1005484" data-name="Path 1005484" d="M318.157,251.78c0,.626-.73.94-1.091.918a1.17,1.17,0,0,1-1.059-1.027l-.005-21.5a1.216,1.216,0,0,1,.905-1.188c.371-.1,1.244.238,1.244.8Z" transform="translate(-253.487 -183.666)" fill="#12263f"/>
          <path id="Path_1005485" data-name="Path 1005485" d="M252.979,277.862a1.212,1.212,0,0,1-.9,1.093c-.41.089-1.234-.229-1.235-.8l0-15.586c0-.49.711-.875,1.083-.857a1.17,1.17,0,0,1,1.059,1.04Z" transform="translate(-201.213 -209.939)" fill="#12263f"/>
          <path id="Path_1005486" data-name="Path 1005486" d="M138.22,291.134c0,.551-.734.923-1.092.895a1.2,1.2,0,0,1-1.051-1.019V278.984a1.215,1.215,0,0,1,1.046-1,1.125,1.125,0,0,1,1.111,1.168Z" transform="translate(-109.156 -222.987)" fill="#12263f"/>
          <path id="Path_1005487" data-name="Path 1005487" d="M89.1,313.009c0,.495-.717.895-1.072.867-.433-.033-1.059-.5-1.06-1l-.011-6.538a1.229,1.229,0,0,1,.908-1.108c.485-.09,1.237.332,1.237.9Z" transform="translate(-69.757 -244.837)" fill="#12263f"/>
          <path id="Path_1005488" data-name="Path 1005488" d="M203.794,317.341a1.288,1.288,0,0,1-.893,1.055c-.4.092-1.236-.288-1.239-.77l-.039-5.58a1.121,1.121,0,0,1,.942-1.166,1.094,1.094,0,0,1,1.219,1.008Z" transform="translate(-161.735 -249.371)" fill="#12263f"/>
        </g>
      </g>
    </g>
  </g>
</svg>
