<svg xmlns="http://www.w3.org/2000/svg" xmlns:xlink="http://www.w3.org/1999/xlink" width="96" height="96" viewBox="0 0 96 96">
  <defs>
    <clipPath id="clip-path">
      <rect id="Rectangle_459883" data-name="Rectangle 459883" width="60.594" height="60.667" fill="#7b1a8a"/>
    </clipPath>
  </defs>
  <g id="img27" transform="translate(-793.75 -2920.525)">
    <path id="Elipse_5729" data-name="Elipse 5729" d="M48,0A48,48,0,1,1,0,48,48,48,0,0,1,48,0Z" transform="translate(793.75 2920.525)" fill="#f7ceff"/>
    <g id="Group_1185185" data-name="Group 1185185" transform="translate(694.75 2935.525)">
      <g id="Group_1185184" data-name="Group 1185184" transform="translate(117 2)" clip-path="url(#clip-path)">
        <path id="Path_1005816" data-name="Path 1005816" d="M4.963,54.89a.946.946,0,0,1,.934-.233.817.817,0,0,1,.189.949L4.85,57.261l4.289,4.288,3.3-2.469c.67-.5,2.6,1.013,4.6,1.476l.7,4.521H23.8l.678-4.512c1.824-.441,4.012-1.9,4.471-1.563l3.442,2.537,4.287-4.284L33.94,53.572a27.663,27.663,0,0,0,1.725-4.2l4.547-.714.021-6.034-4.5-.7c-.55-1.458-1.056-2.715-1.779-4.224l2.708-3.675-4.276-4.287-3.242,2.419a1.153,1.153,0,0,1-.88.093,24.393,24.393,0,0,0-3.772-1.524l-.7-4.528-6.062.01-.667,4.465c-1.5.561-2.756,1.071-4.269,1.764L9.144,29.73,4.854,34.015l2.733,3.7a27.477,27.477,0,0,0-1.744,4.192l-4.532.716,0,6.032,2.089.318a.652.652,0,1,1-.078,1.3L.657,49.9A.87.87,0,0,1,0,49.052l.042-7.545,4.8-.742,1.207-2.953L3.193,33.922l5.835-5.854,3.933,2.864c.974-.442,1.847-.8,2.905-1.178l.774-4.839,3.477-.035.051-6.288,9.2-.043a.768.768,0,0,1,.755.683.737.737,0,0,1-.757.644L21.4,19.87v5.013l2.9-.013a.925.925,0,0,1,.7.568l.633,4.272,2.959,1.207,3.884-2.857,2.838,2.771,9.792,0a4.554,4.554,0,1,1,.007,1.345l-8.4.01,1.243,1.293a.919.919,0,0,1,.106.838l-2.6,3.5,1.209,2.934,4.767.753L41.532,45l2.8.009a.711.711,0,0,1,.719.652.79.79,0,0,1-.709.659l-2.822-.022-.047,3.47-4.781.757-1.229,2.906L38.3,57.321,36.724,59.1l8.383.027a4.539,4.539,0,0,1,9.03.727,4.547,4.547,0,0,1-9.043.587l-9.756-.015L32.47,63.2l-3.876-2.846-2.963,1.217L25,65.877a.956.956,0,0,1-.683.549l-2.9-.021L21.4,71.428h7.968a.864.864,0,0,1,.653.643c0,.231-.395.68-.649.679l-9.209-.036-.034-6.3H17.145c-.255,0-.6-.409-.642-.682l-.614-4.2-2.956-1.177-3.9,2.849L3.205,57.389ZM52.834,31.5A3.236,3.236,0,1,0,49.6,34.738,3.236,3.236,0,0,0,52.834,31.5m0,28.268A3.239,3.239,0,1,0,49.6,63.009a3.239,3.239,0,0,0,3.239-3.239" transform="translate(0 -15.324)" fill="#7b1a8a"/>
        <path id="Path_1005817" data-name="Path 1005817" d="M73.723,116.481a12.186,12.186,0,1,1-12.186-12.186,12.186,12.186,0,0,1,12.186,12.186M53.709,124l.024-4.839a.753.753,0,0,1,.66-.742.78.78,0,0,1,.656.743l-.012,6.09a14.129,14.129,0,0,0,3.436,1.7l.012-3.971a.736.736,0,0,1,.745-.633.914.914,0,0,1,.581.657l.022,4.3c1.291.043,2.232.039,3.439-.026l0-7.077a.948.948,0,0,1,.812-.446c.189.048.428.41.489.636l.02,6.568a14.962,14.962,0,0,0,3.458-1.711l0-7.747a1.758,1.758,0,0,1,.754-.364c.2-.014.515.425.516.637l.042,6.248a10.776,10.776,0,0,0,1.2-13.619,10.866,10.866,0,0,0-19.85,6.935l4.5-3.326a.893.893,0,0,1,1.244.085l3.208,2.873,5.617-3.662-1.472-.145c-.231-.023-.507-.58-.43-.8a.96.96,0,0,1,.8-.44l3.212.132c.356.015.78.459.637.819l-1.259,3.17a.892.892,0,0,1-.858.406.839.839,0,0,1-.381-.789l.283-1.128-6.263,4.043-3.785-3.349L50.9,118.814A10.359,10.359,0,0,0,53.709,124" transform="translate(-40.774 -86.168)" fill="#7b1a8a"/>
        <path id="Path_1005818" data-name="Path 1005818" d="M287.01,159.861H274.046v-7.8H287.01Zm-1.291-6.5H275.341v5.188H285.72Z" transform="translate(-226.416 -125.634)" fill="#7b1a8a"/>
        <path id="Path_1005819" data-name="Path 1005819" d="M201.148,7.8h-12.96V0h12.96Zm-1.269-6.515H189.51V6.494h10.369Z" transform="translate(-155.481 0.001)" fill="#7b1a8a"/>
        <path id="Path_1005820" data-name="Path 1005820" d="M201.148,312.006h-12.96v-7.794h12.96Zm-1.269-6.5H189.51v5.239h10.369Z" transform="translate(-155.481 -251.339)" fill="#7b1a8a"/>
      </g>
    </g>
  </g>
</svg>
