<svg xmlns="http://www.w3.org/2000/svg" xmlns:xlink="http://www.w3.org/1999/xlink" width="96" height="96" viewBox="0 0 96 96">
  <defs>
    <clipPath id="clip-path">
      <rect id="Rectangle_459885" data-name="Rectangle 459885" width="60.667" height="60.667" fill="#7b1a8a"/>
    </clipPath>
  </defs>
  <g id="img28-2" transform="translate(-793.75 -2920.525)">
    <path id="Elipse_5729" data-name="Elipse 5729" d="M48,0A48,48,0,1,1,0,48,48,48,0,0,1,48,0Z" transform="translate(793.75 2920.525)" fill="#f7ceff"/>
    <g id="Group_1185189" data-name="Group 1185189" transform="translate(811.75 2937.525)">
      <g id="Group_1185188" data-name="Group 1185188" clip-path="url(#clip-path)">
        <path id="Path_1005836" data-name="Path 1005836" d="M54.215,36.806a1.975,1.975,0,0,1-2.991.614l-.564,1.047a2,2,0,0,1-2.756.93l-4.213-2.41-.013,3.366a10.169,10.169,0,1,1-9.105,16.022H.769A.806.806,0,0,1,0,55.622V.763A.77.77,0,0,1,.766,0L37.038,0,43.68,6.678l0,12.822A25.125,25.125,0,0,0,47.866,7a6.293,6.293,0,0,1,5.353-5.5,6.435,6.435,0,0,1,4.645,11.664,23.972,23.972,0,0,0-8.532,9.869,3.345,3.345,0,0,1-.153,4.672l4.278,2.436a3.765,3.765,0,0,1,1.559,5.277ZM30.221,20.57a3.654,3.654,0,0,1,4.842-1.007l4.493,2.57a3.717,3.717,0,0,1,2.468-2.5L42.017,7.9l-5.409,0a.969.969,0,0,1-.838-.833L35.752,1.64l-34.1,0v53.1l31.952.007a10.184,10.184,0,0,1,8.425-14.4L42,35.993,30.225,29.2a1.951,1.951,0,0,1-.844-2.691l.7-1.282a1.978,1.978,0,0,1-1.107-2.474,15.517,15.517,0,0,1,1.247-2.178M40.71,6.127l-3.2-3.214L37.466,6.2Zm7.108,16.011A26.133,26.133,0,0,1,56.775,11.9a4.77,4.77,0,0,0-3.455-8.71,4.843,4.843,0,0,0-3.887,4.58,26.224,26.224,0,0,1-4.387,12.8Zm5.746,12.414a2.017,2.017,0,0,0-.82-2.841L34.077,20.938c-1.481-.855-2.888.658-3.552,2.6L52.56,36.248Zm-5.051-9.028c.192-.377-.2-1.136-.552-1.342l-4.6-2.665a1.288,1.288,0,0,0-1.882.524l-.489.93L47.809,26.9Zm-16.96.521-.878,1.522L48.929,38.1l.878-1.522ZM51.345,50.488a8.488,8.488,0,1,0-8.488,8.488,8.487,8.487,0,0,0,8.488-8.488" transform="translate(0 0)" fill="#7b1a8a"/>
        <path id="Path_1005837" data-name="Path 1005837" d="M38.444,43.855l-4.136.017c-.462,0-.854-.591-.851-1l.017-2.2-2.361.018c-.437,0-.855-.573-.855-1.007V35.929a1,1,0,0,1,.812-.922l2.388.008.016-2.427a.9.9,0,0,1,.79-.744l4.146.008a.95.95,0,0,1,.672.711l-.009,2.46L41.416,35a.966.966,0,0,1,.9.916l0,3.78a1.039,1.039,0,0,1-.942.986l-2.3,0,.021,2.346c0,.242-.4.822-.648.823m-1-1.708-.022-2.369a.964.964,0,0,1,.729-.81l2.465,0L40.6,36.719l-2.467-.014c-.3,0-.713-.569-.713-.875l0-2.349-2.244.015.007,2.307a.964.964,0,0,1-.834.909l-2.383.008.008,2.261,2.182-.027a.958.958,0,0,1,1.022.862l0,2.329Z" transform="translate(-24.914 -26.22)" fill="#7b1a8a"/>
        <path id="Path_1005838" data-name="Path 1005838" d="M59.709,225.217l-28.455.006a.921.921,0,0,1-.871-.813.91.91,0,0,1,.931-.9l28.129,0a1.074,1.074,0,0,1,.9.589c.119.308-.034,1.122-.634,1.122" transform="translate(-25.016 -184.023)" fill="#7b1a8a"/>
        <path id="Path_1005839" data-name="Path 1005839" d="M59.859,198.355H31.246a.97.97,0,0,1-.853-.661c-.082-.334.2-1,.671-1l28.413,0a.861.861,0,0,1,.382,1.659" transform="translate(-25.012 -161.95)" fill="#7b1a8a"/>
        <path id="Path_1005840" data-name="Path 1005840" d="M55.792,252.552H31.271a.974.974,0,0,1-.859-.66,1.057,1.057,0,0,1,.513-.971H55.8a.824.824,0,0,1,.92.826.856.856,0,0,1-.925.808" transform="translate(-25.036 -206.593)" fill="#7b1a8a"/>
        <path id="Path_1005841" data-name="Path 1005841" d="M50.468,171.244H31.241a.911.911,0,0,1-.861-.812.9.9,0,0,1,.92-.9l19.29,0a.919.919,0,0,1,.767.88.93.93,0,0,1-.89.824" transform="translate(-25.013 -139.587)" fill="#7b1a8a"/>
        <path id="Path_1005842" data-name="Path 1005842" d="M50.468,144.274H31.233a.978.978,0,0,1-.859-.8.891.891,0,0,1,.923-.892l19.25,0a.89.89,0,0,1,.8.867.9.9,0,0,1-.882.821" transform="translate(-25.009 -117.396)" fill="#7b1a8a"/>
        <path id="Path_1005843" data-name="Path 1005843" d="M50.467,117.3H31.24a.922.922,0,0,1-.862-.793.858.858,0,0,1,.85-.874H50.478a.851.851,0,0,1,.872.86.89.89,0,0,1-.883.808" transform="translate(-25.012 -95.207)" fill="#7b1a8a"/>
        <path id="Path_1005844" data-name="Path 1005844" d="M39.932,279.334l-8.74.033a.944.944,0,0,1-.833-.818.883.883,0,0,1,.83-.862l8.345-.008a1.228,1.228,0,0,1,.956.547c.146.265-.182,1.106-.558,1.107" transform="translate(-24.996 -228.628)" fill="#7b1a8a"/>
        <path id="Path_1005845" data-name="Path 1005845" d="M209.079,263.492a2.006,2.006,0,0,1,.752-2.611,1.983,1.983,0,0,1,2.678.483l.812,1.225,4.036-4a2.061,2.061,0,0,1,2.75.043,2.026,2.026,0,0,1,.139,2.847l-5.836,5.837a2.238,2.238,0,0,1-3.269-.307Zm1.513-.7,1.819,3.142a.73.73,0,0,0,.9.107l5.662-5.673c.03-.094.107-.4.027-.427l-.431-.157-4.876,4.877c-.214.214-1.049.214-1.207-.057l-1.222-2.1c-.078-.133-.567-.276-.591-.145Z" transform="translate(-171.955 -212.492)" fill="#7b1a8a"/>
      </g>
    </g>
  </g>
</svg>
