<svg xmlns="http://www.w3.org/2000/svg" xmlns:xlink="http://www.w3.org/1999/xlink" width="96" height="96" viewBox="0 0 96 96">
  <defs>
    <clipPath id="clip-path">
      <rect id="Rectangle_459917" data-name="Rectangle 459917" width="54" height="53.999" fill="#7b1a8a"/>
    </clipPath>
  </defs>
  <g id="img8" transform="translate(-793.75 -2920.413)">
    <path id="Elipse_5729" data-name="Elipse 5729" d="M48,0A48,48,0,1,1,0,48,48,48,0,0,1,48,0Z" transform="translate(793.75 2920.413)" fill="#f7ceff"/>
    <g id="Group_1185212" data-name="Group 1185212" transform="translate(814.75 2941.413)">
      <g id="Group_1185211" data-name="Group 1185211" clip-path="url(#clip-path)">
        <path id="Path_1005966" data-name="Path 1005966" d="M52.194,3.674l-.75-.09c-.291-.035.2,1.858-1.152,1.845l-2.652-.024A1.784,1.784,0,0,1,45.91,3.736l-.022-1.885A1.823,1.823,0,0,1,47.8,0c.971.009,1.946-.019,2.9.085.625.068.683,1.08.547,1.7l1.839.032A.933.933,0,0,1,54,2.788l0,13.3a9.94,9.94,0,0,1-9.055,9.981,9.891,9.891,0,0,1-14.34,9.749l-.012,15.552A2.662,2.662,0,0,1,27.98,54L2.645,54A2.677,2.677,0,0,1,0,51.344V2.661A2.661,2.661,0,0,1,2.641.015l25.339,0A2.666,2.666,0,0,1,30.6,2.8V33.726A8.1,8.1,0,0,0,43.156,26.05a9.759,9.759,0,0,1-8.909-9.491L34.209,2.788a.913.913,0,0,1,.9-.968l1.863-.053c-.176-.635-.093-1.613.523-1.679A26.1,26.1,0,0,1,40.548.013,1.707,1.707,0,0,1,42.229,1.4a13.819,13.819,0,0,1,0,2.623c-.16,1.653-2.6,1.5-4.607,1.342-.72-.057-.817-1.022-.68-1.651a1.221,1.221,0,0,0-.949-.029L36.017,16.4a8.088,8.088,0,0,0,16.172-.3Zm-23.4,39.542-.012-8.637a9.671,9.671,0,0,1-3.566-7.5l-.026-8.2a4.488,4.488,0,0,0-8.976-.017L16.194,22.6a4.487,4.487,0,1,1-5.365,4.85A4.5,4.5,0,0,1,14.381,22.6l.03-3.876a6.292,6.292,0,0,1,12.581.2l.022,8.309a7.206,7.206,0,0,0,1.77,4.73l0-29.3a.932.932,0,0,0-.954-.856H2.8a.944.944,0,0,0-1,.972l.012,4.407H25.162a11.213,11.213,0,0,1-.017,1.835L1.8,9.018l0,42.319a.906.906,0,0,0,.845.854l25.185,0a.933.933,0,0,0,.955-.971l0-6.208-23.358,0-.023-1.8ZM40.514,1.806H38.671V3.592h1.843Zm8.993,0H47.69V3.59h1.817ZM17.988,27A2.691,2.691,0,1,0,15.3,29.693,2.691,2.691,0,0,0,17.988,27" transform="translate(0 0)" fill="#7b1a8a"/>
        <rect id="Rectangle_459911" data-name="Rectangle 459911" width="7.213" height="1.839" transform="translate(17.084 39.604)" fill="#7b1a8a"/>
        <path id="Path_1005967" data-name="Path 1005967" d="M24.959,71.644l-.022,2.723-1.828.011,0-3.592c0-.332.387-.913.719-.915l3.789-.02.017,1.794Z" transform="translate(-19.532 -59.044)" fill="#7b1a8a"/>
        <rect id="Rectangle_459912" data-name="Rectangle 459912" width="3.582" height="1.808" transform="translate(20.715 35.996)" fill="#7b1a8a"/>
        <rect id="Rectangle_459913" data-name="Rectangle 459913" width="1.804" height="1.822" transform="translate(14.391 47.695)" fill="#7b1a8a"/>
        <rect id="Rectangle_459914" data-name="Rectangle 459914" width="1.797" height="1.834" transform="translate(6.302 3.587)" fill="#7b1a8a"/>
        <rect id="Rectangle_459915" data-name="Rectangle 459915" width="1.77" height="1.834" transform="translate(11.708 3.587)" fill="#7b1a8a"/>
        <rect id="Rectangle_459916" data-name="Rectangle 459916" width="1.813" height="1.808" transform="translate(17.084 35.996)" fill="#7b1a8a"/>
      </g>
    </g>
  </g>
</svg>
