<svg xmlns="http://www.w3.org/2000/svg" xmlns:xlink="http://www.w3.org/1999/xlink" width="203.502" height="203.502" viewBox="0 0 203.502 203.502">
  <defs>
    <clipPath id="clip-path">
      <rect id="Rectangle_457242" data-name="Rectangle 457242" width="77.227" height="74.766" fill="#f29dfc"/>
    </clipPath>
    <clipPath id="clip-path-2">
      <rect id="Rectangle_458940" data-name="Rectangle 458940" width="90.526" height="88.72" fill="#f29dfc"/>
    </clipPath>
    <clipPath id="clip-path-3">
      <rect id="Rectangle_459374" data-name="Rectangle 459374" width="124.349" height="128" fill="#7b1a8a"/>
    </clipPath>
  </defs>
  <g id="img4" transform="translate(0.002 0.322)">
    <g id="Group_1183983" data-name="Group 1183983" transform="translate(-0.002 -0.322)">
      <g id="Group_1183979" data-name="Group 1183979" transform="translate(77.227 203.502) rotate(180)">
        <g id="Group_1182771" data-name="Group 1182771" transform="translate(0)" clip-path="url(#clip-path)">
          <path id="Path_1004427" data-name="Path 1004427" d="M31.813,49.6c0,13.9,9.475,25.165,21.163,25.165s24.251-10.8,24.251-24.7-2.495-26.7-18.4-38.561c-31.165-23.251-64.549-4.658-58-1.15C34.819,28.563,31.813,43.327,31.813,49.6" transform="translate(0 0)" fill="#f29dfc"/>
        </g>
      </g>
      <g id="Group_1183980" data-name="Group 1183980" transform="translate(112.976 0)" clip-path="url(#clip-path-2)">
        <path id="Path_1004538" data-name="Path 1004538" d="M37.291,58.859C37.291,75.351,48.4,88.72,62.1,88.72S90.526,75.9,90.526,59.412,87.6,27.734,68.96,13.655C32.429-13.936-6.7,8.128.974,12.291c39.842,21.6,36.317,39.123,36.317,46.568" transform="translate(0 0)" fill="#f29dfc"/>
      </g>
      <path id="Path_1004539" data-name="Path 1004539" d="M97.6,0A97.6,97.6,0,1,1,0,97.6,97.6,97.6,0,0,1,97.6,0Z" transform="translate(3.794 5.669)" fill="#f9f9f9"/>
    </g>
    <g id="Group_1184375" data-name="Group 1184375" transform="translate(47.938 36.679)">
      <g id="Group_1184374" data-name="Group 1184374" clip-path="url(#clip-path-3)">
        <path id="Path_1005338" data-name="Path 1005338" d="M89.968,56.313A27.8,27.8,0,0,1,97.7,54.506l0-48.246a2.727,2.727,0,0,0-2.977-2.58L32,3.669c-.826,0-1.572-1.128-1.626-1.675C30.314,1.379,31.1.023,32.031.023L95.559.041a6.3,6.3,0,0,1,6.179,5.926l.036,48.533c13,1.1,22.526,11.1,22.575,22.678.051,11.762-9.464,21.746-22.522,22.916l-.153,8.466L81.923,128H6.683A6.391,6.391,0,0,1,0,121.687V6.306C0,2.494,3.116,0,7.007,0L22.873.009a2.431,2.431,0,0,1,2.268,1.32c.225.611-.361,2.3-1.105,2.3L6.645,3.709A2.612,2.612,0,0,0,4.01,6.376l.005,115.539A2.59,2.59,0,0,0,6.7,124.287l72.3,0-.043-10.956c-.018-4.367,3.21-7.467,7.953-7.457l10.806.024-.074-5.8C88.205,99.318,80.5,93.741,77.1,86.391a21.424,21.424,0,0,1,4.433-24.528,2.725,2.725,0,0,1,2.65-.846c.753.19,1.661,1.989.964,2.653-7.519,7.17-8.119,18.025-1.43,25.662A21.723,21.723,0,0,0,110.951,93.3c8.817-5.371,11.888-15.934,7.167-24.6-4.782-8.778-15.923-12.813-25.978-9.185a2.577,2.577,0,0,1-2.614-.582c-.477-.586-.368-2.307.442-2.626m-6.791,64.911,8.128-7.856,3.606-3.707-8.428-.026a3.334,3.334,0,0,0-3.45,3.332Z" transform="translate(-0.001 0)" fill="#7b1a8a"/>
        <path id="Path_1005339" data-name="Path 1005339" d="M231.267,200.546l-4.909.063c-2.385.031-3.994-1.449-3.978-3.648l.037-5.133-5.972-.006a3.328,3.328,0,0,1-3.425-3.321l.067-5.051c.023-1.7,1.888-2.8,3.5-2.813l5.814-.047,0-5.342c0-1.334,1.109-3.215,2.77-3.216h6.74c1.623,0,2.656,1.967,2.659,3.249l.013,5.327,5.876.037a3.373,3.373,0,0,1,3.5,3.25l-.075,5.044c-.028,1.919-1.861,2.922-3.632,2.911l-5.661-.036-.036,5.5a3.237,3.237,0,0,1-3.289,3.231m-.7-3.739-.026-5.406a3.1,3.1,0,0,1,2.975-3.208l6.425-.15-.028-3.641-5.6-.013a3.522,3.522,0,0,1-3.778-3.547l.019-5.214-4.095.046-.127,6.268c-.029,1.429-2.2,2.451-3.465,2.453l-5.738.005.045,3.732,5.636-.017c2.216-.007,3.619,1.29,3.625,3.334l.015,5.355Z" transform="translate(-128.791 -108.939)" fill="#7b1a8a"/>
        <path id="Path_1005340" data-name="Path 1005340" d="M109.2,206.644l-35.277.014c-.631,0-1.306-1.454-1.235-2.008s.9-1.654,1.648-1.654l33.962-.018a2.6,2.6,0,0,1,1.993,1.329c.253.528-.274,2.337-1.09,2.338" transform="translate(-43.945 -128.535)" fill="#7b1a8a"/>
        <path id="Path_1005341" data-name="Path 1005341" d="M108.492,154.859l-33.4.016c-1.353,0-2.3-.627-2.4-1.815a2.152,2.152,0,0,1,2.009-1.987l33.935.013c.743,0,1.614,1.126,1.706,1.683a1.955,1.955,0,0,1-1.857,2.09" transform="translate(-43.952 -95.667)" fill="#7b1a8a"/>
        <path id="Path_1005342" data-name="Path 1005342" d="M108.3,258.643l-33.577.005a2.068,2.068,0,0,1-1.991-1.676,1.933,1.933,0,0,1,1.627-1.982l33.953-.017a2.008,2.008,0,0,1,2.057,1.653,1.93,1.93,0,0,1-2.068,2.017" transform="translate(-43.967 -161.462)" fill="#7b1a8a"/>
        <path id="Path_1005343" data-name="Path 1005343" d="M39.959,155.853a7.224,7.224,0,0,1-7.48,6.938,6.958,6.958,0,1,1,0-13.876,7.225,7.225,0,0,1,7.48,6.938m-4.04,0a3.444,3.444,0,1,0-3.434,3.185,3.316,3.316,0,0,0,3.434-3.185" transform="translate(-15.114 -94.301)" fill="#7b1a8a"/>
        <path id="Path_1005344" data-name="Path 1005344" d="M39.956,207.731a7.222,7.222,0,0,1-7.477,6.936,6.955,6.955,0,1,1,0-13.872,7.222,7.222,0,0,1,7.477,6.936m-4.045-.02a3.443,3.443,0,1,0-3.433,3.184,3.316,3.316,0,0,0,3.433-3.184" transform="translate(-15.116 -127.154)" fill="#7b1a8a"/>
        <path id="Path_1005345" data-name="Path 1005345" d="M39.956,259.581a7.219,7.219,0,0,1-7.474,6.933,6.952,6.952,0,1,1,0-13.865,7.219,7.219,0,0,1,7.474,6.933m-4.056-.015a3.439,3.439,0,1,0-3.429,3.181,3.312,3.312,0,0,0,3.429-3.181" transform="translate(-15.119 -159.99)" fill="#7b1a8a"/>
        <path id="Path_1005346" data-name="Path 1005346" d="M102.378,178.079l-27.62.029a2.357,2.357,0,0,1-2.044-1.551,1.964,1.964,0,0,1,1.707-2.2l27.172-.032a2.5,2.5,0,0,1,2.341,1.259c.351.676-.3,2.492-1.556,2.494" transform="translate(-43.949 -110.393)" fill="#7b1a8a"/>
        <path id="Path_1005347" data-name="Path 1005347" d="M102.181,229.834l-27.113.022a2.4,2.4,0,0,1-2.351-1.441c-.213-.706.548-2.34,1.635-2.341l27.618-.028a2.2,2.2,0,0,1,2.036,1.659,1.926,1.926,0,0,1-1.825,2.13" transform="translate(-43.943 -143.143)" fill="#7b1a8a"/>
        <path id="Path_1005348" data-name="Path 1005348" d="M102.894,281.662l-28.971,0a2.826,2.826,0,0,1-1.224-2,2.176,2.176,0,0,1,1.631-1.675l27.664-.019a1.928,1.928,0,0,1,.9,3.691" transform="translate(-43.953 -176.026)" fill="#7b1a8a"/>
        <path id="Path_1005349" data-name="Path 1005349" d="M29.484,62.559a11.625,11.625,0,0,1-4.963-.934,6.859,6.859,0,0,1-3-2.585,8.394,8.394,0,0,1-1.193-3.831l4.26-.841a10.589,10.589,0,0,0,.575,2.585,4.42,4.42,0,0,0,1.47,2.04,4.551,4.551,0,0,0,2.854.794,4.479,4.479,0,0,0,2.833-.763,2.642,2.642,0,0,0,.958-2.2,3.687,3.687,0,0,0-1.065-2.756,17.707,17.707,0,0,0-2.684-2.1l-5.794-3.737a7.906,7.906,0,0,1-2.514-2.383,5.9,5.9,0,0,1-.81-3.193,4.949,4.949,0,0,1,2.173-4.3A10.14,10.14,0,0,1,28.5,36.832a14.923,14.923,0,0,1,3.6.389,6.948,6.948,0,0,1,2.6,1.2,5.888,5.888,0,0,1,1.661,2.04,8.965,8.965,0,0,1,.831,2.881l-4.09.81a9.4,9.4,0,0,0-.511-2.289,3.388,3.388,0,0,0-1.342-1.682,4.955,4.955,0,0,0-2.748-.638,4.807,4.807,0,0,0-2.79.7,2.366,2.366,0,0,0-1,2.071,3.188,3.188,0,0,0,.533,1.9,6.364,6.364,0,0,0,1.725,1.526l5.837,3.738a15.565,15.565,0,0,1,3.45,2.974,6.07,6.07,0,0,1,1.491,4.1,5.059,5.059,0,0,1-1.065,3.223,6.666,6.666,0,0,1-2.918,2.071,11.827,11.827,0,0,1-4.281.716" transform="translate(-12.288 -23.324)" fill="#7b1a8a"/>
        <path id="Path_1005350" data-name="Path 1005350" d="M81.712,62.559a13.088,13.088,0,0,1-5.581-1,6.071,6.071,0,0,1-2.982-2.85,9.892,9.892,0,0,1-.894-4.345V44.805a9.3,9.3,0,0,1,.916-4.283,6.041,6.041,0,0,1,2.982-2.741,13.5,13.5,0,0,1,5.559-.95,13.163,13.163,0,0,1,5.538.966,6.144,6.144,0,0,1,2.961,2.741,9.207,9.207,0,0,1,.916,4.267V54.4a9.524,9.524,0,0,1-.916,4.3,6.294,6.294,0,0,1-2.961,2.85,12.619,12.619,0,0,1-5.538,1.012m0-2.772a5.818,5.818,0,0,0,2.9-.576,2.862,2.862,0,0,0,1.321-1.62,7.887,7.887,0,0,0,.341-2.445V44.089a7.593,7.593,0,0,0-.341-2.414,2.742,2.742,0,0,0-1.321-1.557,6.106,6.106,0,0,0-2.9-.545,6.239,6.239,0,0,0-2.918.545,2.723,2.723,0,0,0-1.342,1.557,7.581,7.581,0,0,0-.341,2.414V55.146a7.875,7.875,0,0,0,.341,2.445,2.839,2.839,0,0,0,1.342,1.62,5.945,5.945,0,0,0,2.918.576" transform="translate(-43.685 -23.324)" fill="#7b1a8a"/>
        <path id="Path_1005351" data-name="Path 1005351" d="M139.186,62.59a11.224,11.224,0,0,1-5.176-1.012,6.068,6.068,0,0,1-2.812-2.943,11.209,11.209,0,0,1-.873-4.641V45.553a12.572,12.572,0,0,1,.788-4.719,5.665,5.665,0,0,1,2.812-2.974,12.663,12.663,0,0,1,5.644-1.028,14.261,14.261,0,0,1,5.218.794,5.43,5.43,0,0,1,2.875,2.429,8.522,8.522,0,0,1,.9,4.127v.934h-4.516v-.779a10.1,10.1,0,0,0-.3-2.694,2.5,2.5,0,0,0-1.215-1.557,6.122,6.122,0,0,0-2.876-.514,5.224,5.224,0,0,0-3.088.716,3.055,3.055,0,0,0-1.193,1.947,15.026,15.026,0,0,0-.234,2.788v9.344a10.743,10.743,0,0,0,.362,3.021,2.975,2.975,0,0,0,1.385,1.806,5.833,5.833,0,0,0,2.9.592,5.374,5.374,0,0,0,2.9-.654,3.333,3.333,0,0,0,1.406-1.931,11.2,11.2,0,0,0,.384-3.177V52.281H140.08V49.789h8.733v12.49h-3.024l-.469-2.9a5.574,5.574,0,0,1-2.13,2.3,7.55,7.55,0,0,1-4,.9" transform="translate(-78.794 -23.324)" fill="#7b1a8a"/>
        <path id="Path_1005352" data-name="Path 1005352" d="M197.251,62.559a11.864,11.864,0,0,1-5.687-1.121,6.1,6.1,0,0,1-2.812-3.021,10.953,10.953,0,0,1-.788-4.236V45.273a11.568,11.568,0,0,1,.788-4.454,5.76,5.76,0,0,1,2.812-2.944,12.622,12.622,0,0,1,5.687-1.043,12.491,12.491,0,0,1,5.133.872,5.527,5.527,0,0,1,2.726,2.492,8.447,8.447,0,0,1,.831,3.893v1.993h-4.559V44.307a14.231,14.231,0,0,0-.192-2.476,2.472,2.472,0,0,0-1.043-1.667,5.182,5.182,0,0,0-2.854-.592,5.414,5.414,0,0,0-2.982.638,2.915,2.915,0,0,0-1.215,1.807,11.905,11.905,0,0,0-.277,2.725v10a8.566,8.566,0,0,0,.426,3.006,2.751,2.751,0,0,0,1.406,1.573,6.215,6.215,0,0,0,2.641.467,4.778,4.778,0,0,0,2.812-.639,2.758,2.758,0,0,0,1.065-1.76,14.209,14.209,0,0,0,.213-2.616V52.9h4.559v1.869a10.087,10.087,0,0,1-.767,4.065,5.575,5.575,0,0,1-2.641,2.741,11.583,11.583,0,0,1-5.283.981" transform="translate(-113.643 -23.324)" fill="#7b1a8a"/>
      </g>
    </g>
  </g>
</svg>
