<svg xmlns="http://www.w3.org/2000/svg" xmlns:xlink="http://www.w3.org/1999/xlink" width="84" height="84" viewBox="0 0 84 84">
  <defs>
    <clipPath id="clip-path">
      <rect id="Rectangle_459375" data-name="Rectangle 459375" width="64.997" height="65" fill="#12263f"/>
    </clipPath>
  </defs>
  <g id="img6" transform="translate(-705.629 -1684.816)">
    <g id="Group_1177731" data-name="Group 1177731">
      <g id="Group_1119665" data-name="Group 1119665" transform="translate(529.74 -3836.184)">
        <path id="Path_991847" data-name="Path 991847" d="M5,0H79a5,5,0,0,1,5,5V79a5,5,0,0,1-5,5H5a5,5,0,0,1-5-5V5A5,5,0,0,1,5,0Z" transform="translate(175.889 5521)" fill="#fee66f"/>
      </g>
      <g id="Group_1184377" data-name="Group 1184377" transform="translate(715.629 1694.816)">
        <g id="Group_1184376" data-name="Group 1184376" clip-path="url(#clip-path)">
          <path id="Path_1005353" data-name="Path 1005353" d="M103.924,115.1c-2.114,4.835-7.386,9.259-12.206,11.449a26.88,26.88,0,0,1-8.677-6.235,16.936,16.936,0,0,1-3.586-5.225l-1.937-.05a1.958,1.958,0,1,1-3.139-2.238,1.919,1.919,0,0,1,3.06.49l1.332.086a16.374,16.374,0,0,1-.408-4.414,7.853,7.853,0,0,1,13.316-4.841,7.864,7.864,0,0,1,13.377,5.827,23.494,23.494,0,0,1-.46,3.465l1.307-.021a1.89,1.89,0,0,1,2.893-.769,1.954,1.954,0,0,1,.214,2.969,1.889,1.889,0,0,1-3.059-.5Zm-9.642.515,1.371-5.427a1.058,1.058,0,0,1,.785-.688,1.137,1.137,0,0,1,.782.556l1.279,3.365,4.333.021a15.981,15.981,0,0,0,.624-3.291,6.274,6.274,0,0,0-11.1-4.389,1.364,1.364,0,0,1-.665.412,1.2,1.2,0,0,1-.664-.405,6.268,6.268,0,0,0-11.106,4.19,16.654,16.654,0,0,0,.581,3.415l4.393.057,1.035-2.4a1.01,1.01,0,0,1,.971-.317,1.46,1.46,0,0,1,.509.6l1.313,3.462,2.071-6.849a.791.791,0,0,1,1.54.075Zm-2.524,9.2a31.073,31.073,0,0,0,7.573-5.74,18.464,18.464,0,0,0,2.812-3.994l-4.592-.021-.955-1.847-1.445,6.042a1.294,1.294,0,0,1-.71.752,1.026,1.026,0,0,1-.863-.533l-2.085-8.2-1.976,6.5a1.051,1.051,0,0,1-.777.47,1.071,1.071,0,0,1-.679-.5l-1.473-3.908c-.26.432-.627,1.2-.949,1.2l-4.388.043c2.082,4.148,6.431,7.658,10.509,9.73" transform="translate(-59.197 -81.704)" fill="#12263f"/>
          <path id="Path_1005354" data-name="Path 1005354" d="M107.213,8.456a6.783,6.783,0,0,1-13.125.018,24.213,24.213,0,0,0-7.86,3.7A.975.975,0,0,1,85,11.848a1.051,1.051,0,0,1,.412-1.1,27.232,27.232,0,0,1,8.436-3.9A6.787,6.787,0,1,1,107.426,6.8,28.243,28.243,0,0,1,117,11.589a.97.97,0,0,1,.394,1.14.911.911,0,0,1-1.212.3,24.789,24.789,0,0,0-8.969-4.569m-1.42-1.689a5.147,5.147,0,1,0-5.147,5.147,5.147,5.147,0,0,0,5.147-5.147" transform="translate(-68.148 0)" fill="#12263f"/>
          <path id="Path_1005355" data-name="Path 1005355" d="M261.912,117.185a.82.82,0,0,1-1.131.154.994.994,0,0,1-.16-1.132,24.568,24.568,0,0,0,4.549-8.994,6.772,6.772,0,0,1,0-13.1,25.142,25.142,0,0,0-3.782-8c-.161-.233.141-.986.4-1.084a1.073,1.073,0,0,1,1.013.3,26.855,26.855,0,0,1,4.007,8.558,6.79,6.79,0,1,1,0,13.579,26.909,26.909,0,0,1-4.888,9.721m10.108-16.513a5.148,5.148,0,1,0-5.148,5.148,5.148,5.148,0,0,0,5.148-5.148" transform="translate(-208.64 -68.173)" fill="#12263f"/>
          <path id="Path_1005356" data-name="Path 1005356" d="M12.132,110.454a1.07,1.07,0,0,1-.15,1.214.957.957,0,0,1-1.141-.217,26.839,26.839,0,0,1-4-8.554A6.783,6.783,0,1,1,6.8,89.332a27.612,27.612,0,0,1,4.983-9.8.871.871,0,0,1,1.072-.1.982.982,0,0,1,.162,1.132,24.573,24.573,0,0,0-4.545,8.971,6.776,6.776,0,0,1-.009,13.11,24.2,24.2,0,0,0,3.669,7.8m-.219-14.348a5.147,5.147,0,1,0-5.147,5.147,5.148,5.148,0,0,0,5.147-5.147" transform="translate(0 -63.607)" fill="#12263f"/>
          <path id="Path_1005357" data-name="Path 1005357" d="M102.835,266.8a6.786,6.786,0,1,1-13.572.03,28.241,28.241,0,0,1-9.574-4.786.971.971,0,0,1-.395-1.139.9.9,0,0,1,1.213-.286,25,25,0,0,0,8.963,4.555,6.761,6.761,0,0,1,6.408-5.071,6.69,6.69,0,0,1,6.711,5.076,25.484,25.484,0,0,0,8.02-3.8c.231-.161.985.141,1.084.4a1.072,1.072,0,0,1-.3,1.017,27.386,27.386,0,0,1-8.553,4.005m-1.643.067a5.148,5.148,0,1,0-5.148,5.148,5.148,5.148,0,0,0,5.148-5.148" transform="translate(-63.545 -208.634)" fill="#12263f"/>
        </g>
      </g>
    </g>
  </g>
</svg>
